<?xml version="1.0" encoding="UTF-8" standalone="no"?>
<!DOCTYPE svg PUBLIC "-//W3C//DTD SVG 1.1//EN"
 "http://www.w3.org/Graphics/SVG/1.1/DTD/svg11.dtd">
<!-- Generated by graphviz version 2.43.0 (0)
 -->
<!-- Title: G Pages: 1 -->
<svg width="522pt" height="116pt"
 viewBox="0.00 0.00 522.00 116.00" xmlns="http://www.w3.org/2000/svg" xmlns:xlink="http://www.w3.org/1999/xlink">
<g id="graph0" class="graph" transform="scale(1 1) rotate(0) translate(4 112)">
<title>G</title>
<polygon fill="white" stroke="transparent" points="-4,4 -4,-112 518,-112 518,4 -4,4"/>
<!-- node0 -->
<g id="node1" class="node">
<title>node0</title>
<polygon fill="#f9f9f9" stroke="black" points="382,-108 132,-108 132,-72 382,-72 382,-108"/>
<text text-anchor="middle" x="257" y="-86.3" font-family="Arial" font-size="14.00" fill="#1a1919">0 &lt;function root __add__ at 65f020e3&gt;</text>
</g>
<!-- node1 -->
<g id="node2" class="node">
<title>node1</title>
<polygon fill="#f9f9f9" stroke="black" points="248,-36 0,-36 0,0 248,0 248,-36"/>
<text text-anchor="middle" x="124" y="-14.3" font-family="Arial" font-size="14.00" fill="#1a1919">1 &lt;function root __init__ at 332d53cd&gt;</text>
</g>
<!-- node0&#45;&gt;node1 -->
<g id="edge1" class="edge">
<title>node0&#45;&gt;node1</title>
<path fill="none" stroke="#1a1919" d="M224.46,-71.88C206.75,-62.55 184.65,-50.92 165.68,-40.94"/>
<polygon fill="#1a1919" stroke="#1a1919" points="167.14,-37.75 156.66,-36.19 163.88,-43.94 167.14,-37.75"/>
</g>
<!-- node2 -->
<g id="node3" class="node">
<title>node2</title>
<polygon fill="#f9f9f9" stroke="black" points="514,-36 266,-36 266,0 514,0 514,-36"/>
<text text-anchor="middle" x="390" y="-14.3" font-family="Arial" font-size="14.00" fill="#1a1919">2 &lt;function root __init__ at 332d53cd&gt;</text>
</g>
<!-- node0&#45;&gt;node2 -->
<g id="edge2" class="edge">
<title>node0&#45;&gt;node2</title>
<path fill="none" stroke="#1a1919" d="M289.54,-71.88C307.25,-62.55 329.35,-50.92 348.32,-40.94"/>
<polygon fill="#1a1919" stroke="#1a1919" points="350.12,-43.94 357.34,-36.19 346.86,-37.75 350.12,-43.94"/>
</g>
</g>
</svg>
