<?xml version="1.0" encoding="UTF-8" standalone="no"?>
<!DOCTYPE svg PUBLIC "-//W3C//DTD SVG 1.1//EN"
 "http://www.w3.org/Graphics/SVG/1.1/DTD/svg11.dtd">
<!-- Generated by graphviz version 2.43.0 (0)
 -->
<!-- Title: G Pages: 1 -->
<svg width="506pt" height="116pt"
 viewBox="0.00 0.00 506.00 116.00" xmlns="http://www.w3.org/2000/svg" xmlns:xlink="http://www.w3.org/1999/xlink">
<g id="graph0" class="graph" transform="scale(1 1) rotate(0) translate(4 112)">
<title>G</title>
<polygon fill="white" stroke="transparent" points="-4,4 -4,-112 502,-112 502,4 -4,4"/>
<!-- node0 -->
<g id="node1" class="node">
<title>node0</title>
<polygon fill="#f9f9f9" stroke="black" points="375.5,-108 122.5,-108 122.5,-72 375.5,-72 375.5,-108"/>
<text text-anchor="middle" x="249" y="-86.3" font-family="Arial" font-size="14.00" fill="#1a1919">0 &lt;function root __add__ at 6602c1d1&gt;</text>
</g>
<!-- node1 -->
<g id="node2" class="node">
<title>node1</title>
<polygon fill="#f9f9f9" stroke="black" points="240,-36 0,-36 0,0 240,0 240,-36"/>
<text text-anchor="middle" x="120" y="-14.3" font-family="Arial" font-size="14.00" fill="#1a1919">1 &lt;function root __init__ at c0324ad&gt;</text>
</g>
<!-- node0&#45;&gt;node1 -->
<g id="edge1" class="edge">
<title>node0&#45;&gt;node1</title>
<path fill="none" stroke="#1a1919" d="M217.44,-71.88C200.34,-62.6 179.02,-51.03 160.68,-41.08"/>
<polygon fill="#1a1919" stroke="#1a1919" points="162.14,-37.88 151.68,-36.19 158.8,-44.04 162.14,-37.88"/>
</g>
<!-- node2 -->
<g id="node3" class="node">
<title>node2</title>
<polygon fill="#f9f9f9" stroke="black" points="498,-36 258,-36 258,0 498,0 498,-36"/>
<text text-anchor="middle" x="378" y="-14.3" font-family="Arial" font-size="14.00" fill="#1a1919">2 &lt;function root __init__ at c0324ad&gt;</text>
</g>
<!-- node0&#45;&gt;node2 -->
<g id="edge2" class="edge">
<title>node0&#45;&gt;node2</title>
<path fill="none" stroke="#1a1919" d="M280.56,-71.88C297.66,-62.6 318.98,-51.03 337.32,-41.08"/>
<polygon fill="#1a1919" stroke="#1a1919" points="339.2,-44.04 346.32,-36.19 335.86,-37.88 339.2,-44.04"/>
</g>
</g>
</svg>
