<?xml version="1.0" encoding="UTF-8" standalone="no"?>
<!DOCTYPE svg PUBLIC "-//W3C//DTD SVG 1.1//EN"
 "http://www.w3.org/Graphics/SVG/1.1/DTD/svg11.dtd">
<!-- Generated by graphviz version 2.43.0 (0)
 -->
<!-- Title: G Pages: 1 -->
<svg width="1152pt" height="2212pt"
 viewBox="0.00 0.00 1152.00 2212.00" xmlns="http://www.w3.org/2000/svg" xmlns:xlink="http://www.w3.org/1999/xlink">
<g id="graph0" class="graph" transform="scale(1 1) rotate(0) translate(4 2208)">
<title>G</title>
<polygon fill="white" stroke="transparent" points="-4,4 -4,-2208 1148,-2208 1148,4 -4,4"/>
<!-- node0 -->
<g id="node1" class="node">
<title>node0</title>
<polygon fill="#e98693" stroke="black" points="644,-2204 588,-2204 588,-2168 644,-2168 644,-2204"/>
<text text-anchor="middle" x="616" y="-2182.3" font-family="Arial" font-size="14.00" fill="#1a1919">0 Start</text>
</g>
<!-- node4 -->
<g id="node4" class="node">
<title>node4</title>
<polygon fill="#c39bd3" stroke="black" points="778.5,-2117 453.5,-2117 453.5,-2081 778.5,-2081 778.5,-2117"/>
<text text-anchor="middle" x="616" y="-2095.3" font-family="Arial" font-size="14.00" fill="#1a1919">4 LoadField OptimizedCallTarget.compilationProfile</text>
</g>
<!-- node0&#45;&gt;node4 -->
<g id="edge1" class="edge">
<title>node0&#45;&gt;node4</title>
<path fill="none" stroke="#da2d4f" stroke-width="2" d="M616,-2167.8C616,-2156.16 616,-2140.55 616,-2127.24"/>
<polygon fill="#da2d4f" stroke="#da2d4f" stroke-width="2" points="619.5,-2127.18 616,-2117.18 612.5,-2127.18 619.5,-2127.18"/>
</g>
<!-- node1 -->
<g id="node2" class="node">
<title>node1</title>
<polygon fill="#d7ede7" stroke="black" points="833,-2204 779,-2204 779,-2168 833,-2168 833,-2204"/>
<text text-anchor="middle" x="806" y="-2182.3" font-family="Arial" font-size="14.00" fill="#1a1919">1 P(0)</text>
</g>
<!-- node1&#45;&gt;node4 -->
<g id="edge2" class="edge">
<title>node1&#45;&gt;node4</title>
<path fill="none" stroke="#3cb4a4" d="M778.78,-2172.82C748.82,-2159.42 700.11,-2137.63 663.77,-2121.37"/>
<polygon fill="#3cb4a4" stroke="#3cb4a4" points="664.9,-2118.04 654.35,-2117.15 662.04,-2124.43 664.9,-2118.04"/>
<text text-anchor="middle" x="740.5" y="-2138.8" font-family="arial" font-size="14.00" fill="#3cb4a4">object</text>
</g>
<!-- node26 -->
<g id="node18" class="node">
<title>node26</title>
<polygon fill="#f9f9f9" stroke="black" points="876,-2063 734,-2063 734,-2027 876,-2027 876,-2063"/>
<text text-anchor="middle" x="805" y="-2041.3" font-family="Arial" font-size="14.00" fill="#1a1919">26 MethodCallTarget</text>
</g>
<!-- node1&#45;&gt;node26 -->
<g id="edge25" class="edge">
<title>node1&#45;&gt;node26</title>
<path fill="none" stroke="#3cb4a4" d="M805.88,-2167.96C805.71,-2144.4 805.4,-2101.64 805.2,-2073.53"/>
<polygon fill="#3cb4a4" stroke="#3cb4a4" points="808.7,-2073.16 805.12,-2063.18 801.7,-2073.21 808.7,-2073.16"/>
<text text-anchor="middle" x="822.5" y="-2138.8" font-family="arial" font-size="14.00" fill="#3cb4a4">arg[0]</text>
</g>
<!-- node50 -->
<g id="node36" class="node">
<title>node50</title>
<polygon fill="#f9f9f9" stroke="black" points="816,-885 674,-885 674,-849 816,-849 816,-885"/>
<text text-anchor="middle" x="745" y="-863.3" font-family="Arial" font-size="14.00" fill="#1a1919">50 MethodCallTarget</text>
</g>
<!-- node1&#45;&gt;node50 -->
<g id="edge58" class="edge">
<title>node1&#45;&gt;node50</title>
<path fill="none" stroke="#3cb4a4" d="M833.36,-2171.93C858.21,-2157.94 891,-2133.18 891,-2100 891,-2100 891,-2100 891,-953 891,-918.15 859.54,-897.34 825.83,-885.04"/>
<polygon fill="#3cb4a4" stroke="#3cb4a4" points="826.88,-881.7 816.29,-881.79 824.63,-888.33 826.88,-881.7"/>
<text text-anchor="middle" x="908.5" y="-1501.8" font-family="arial" font-size="14.00" fill="#3cb4a4">arg[0]</text>
</g>
<!-- node2 -->
<g id="node3" class="node">
<title>node2</title>
<polygon fill="#d7ede7" stroke="black" points="443,-1835 389,-1835 389,-1799 443,-1799 443,-1835"/>
<text text-anchor="middle" x="416" y="-1813.3" font-family="Arial" font-size="14.00" fill="#1a1919">2 P(1)</text>
</g>
<!-- node14 -->
<g id="node10" class="node">
<title>node14</title>
<polygon fill="#f9f9f9" stroke="black" points="605,-1748 463,-1748 463,-1712 605,-1712 605,-1748"/>
<text text-anchor="middle" x="534" y="-1726.3" font-family="Arial" font-size="14.00" fill="#1a1919">14 MethodCallTarget</text>
</g>
<!-- node2&#45;&gt;node14 -->
<g id="edge13" class="edge">
<title>node2&#45;&gt;node14</title>
<path fill="none" stroke="#3cb4a4" d="M439.6,-1798.84C452.92,-1789.17 469.87,-1776.89 485,-1766 490.35,-1762.15 496.03,-1758.08 501.56,-1754.13"/>
<polygon fill="#3cb4a4" stroke="#3cb4a4" points="503.95,-1756.72 510.05,-1748.06 499.88,-1751.02 503.95,-1756.72"/>
<text text-anchor="middle" x="502.5" y="-1769.8" font-family="arial" font-size="14.00" fill="#3cb4a4">arg[1]</text>
</g>
<!-- node24 -->
<g id="node17" class="node">
<title>node24</title>
<polygon fill="#f9f9f9" stroke="black" points="426,-1320 372,-1320 372,-1284 426,-1284 426,-1320"/>
<text text-anchor="middle" x="399" y="-1298.3" font-family="Arial" font-size="14.00" fill="#1a1919">24 ϕ</text>
</g>
<!-- node2&#45;&gt;node24 -->
<g id="edge23" class="edge">
<title>node2&#45;&gt;node24</title>
<path fill="none" stroke="#3cb4a4" d="M388.78,-1798.97C368.39,-1783.88 344,-1759.82 344,-1731 344,-1731 344,-1731 344,-1602 344,-1500.28 375.17,-1382.26 390.58,-1330.13"/>
<polygon fill="#3cb4a4" stroke="#3cb4a4" points="394,-1330.9 393.53,-1320.32 387.3,-1328.89 394,-1330.9"/>
<text text-anchor="middle" x="372.5" y="-1545.3" font-family="arial" font-size="14.00" fill="#3cb4a4">from 21</text>
</g>
<!-- node5 -->
<g id="node5" class="node">
<title>node5</title>
<polygon fill="#f9f9f9" stroke="black" points="644,-2009 524,-2009 524,-1973 644,-1973 644,-2009"/>
<text text-anchor="middle" x="584" y="-1987.3" font-family="Arial" font-size="14.00" fill="#1a1919">5 StateSplitProxy</text>
</g>
<!-- node4&#45;&gt;node5 -->
<g id="edge3" class="edge">
<title>node4&#45;&gt;node5</title>
<path fill="none" stroke="#da2d4f" stroke-width="2" d="M619.03,-2080.73C620.86,-2065.94 621.72,-2044.36 615,-2027 613.7,-2023.64 611.92,-2020.4 609.87,-2017.33"/>
<polygon fill="#da2d4f" stroke="#da2d4f" stroke-width="2" points="612.43,-2014.93 603.52,-2009.19 606.91,-2019.23 612.43,-2014.93"/>
</g>
<!-- node4&#45;&gt;node5 -->
<g id="edge4" class="edge">
<title>node4&#45;&gt;node5</title>
<path fill="none" stroke="#3cb4a4" d="M588.31,-2080.87C582.53,-2075.87 577.22,-2069.88 574,-2063 567.6,-2049.35 569.5,-2032.72 573.27,-2018.99"/>
<polygon fill="#3cb4a4" stroke="#3cb4a4" points="576.71,-2019.74 576.42,-2009.15 570.04,-2017.61 576.71,-2019.74"/>
<text text-anchor="middle" x="592.5" y="-2041.3" font-family="arial" font-size="14.00" fill="#3cb4a4">object</text>
</g>
<!-- node10 -->
<g id="node6" class="node">
<title>node10</title>
<polygon fill="#3cb4a4" stroke="black" points="675,-1922 611.66,-1904 675,-1886 738.34,-1904 675,-1922"/>
<text text-anchor="middle" x="675" y="-1900.3" font-family="Arial" font-size="14.00" fill="#1a1919">10 IsNull</text>
</g>
<!-- node5&#45;&gt;node10 -->
<g id="edge6" class="edge">
<title>node5&#45;&gt;node10</title>
<path fill="none" stroke="#3cb4a4" d="M602.42,-1972.8C617.1,-1959.08 637.7,-1939.84 653.2,-1925.36"/>
<polygon fill="#3cb4a4" stroke="#3cb4a4" points="655.87,-1927.66 660.79,-1918.28 651.09,-1922.54 655.87,-1927.66"/>
<text text-anchor="middle" x="650.5" y="-1943.8" font-family="arial" font-size="14.00" fill="#3cb4a4">value</text>
</g>
<!-- node13 -->
<g id="node9" class="node">
<title>node13</title>
<polygon fill="#e98693" stroke="black" points="693,-1835 639,-1835 639,-1799 693,-1799 693,-1835"/>
<text text-anchor="middle" x="666" y="-1813.3" font-family="Arial" font-size="14.00" fill="#1a1919">13 If</text>
</g>
<!-- node5&#45;&gt;node13 -->
<g id="edge5" class="edge">
<title>node5&#45;&gt;node13</title>
<path fill="none" stroke="#da2d4f" stroke-width="2" d="M584.23,-1972.88C585.15,-1951.47 588.87,-1914.23 603,-1886 611.29,-1869.43 624.86,-1854.02 637.29,-1842.07"/>
<polygon fill="#da2d4f" stroke="#da2d4f" stroke-width="2" points="639.86,-1844.45 644.82,-1835.09 635.11,-1839.32 639.86,-1844.45"/>
</g>
<!-- node5&#45;&gt;node14 -->
<g id="edge12" class="edge">
<title>node5&#45;&gt;node14</title>
<path fill="none" stroke="#3cb4a4" d="M580.64,-1972.6C572.12,-1928.46 549.6,-1811.83 539.29,-1758.42"/>
<polygon fill="#3cb4a4" stroke="#3cb4a4" points="542.68,-1757.48 537.34,-1748.32 535.8,-1758.8 542.68,-1757.48"/>
<text text-anchor="middle" x="578.5" y="-1856.8" font-family="arial" font-size="14.00" fill="#3cb4a4">arg[0]</text>
</g>
<!-- node60 -->
<g id="node44" class="node">
<title>node60</title>
<polygon fill="#f9f9f9" stroke="black" points="688,-711 546,-711 546,-675 688,-675 688,-711"/>
<text text-anchor="middle" x="617" y="-689.3" font-family="Arial" font-size="14.00" fill="#1a1919">60 MethodCallTarget</text>
</g>
<!-- node5&#45;&gt;node60 -->
<g id="edge70" class="edge">
<title>node5&#45;&gt;node60</title>
<path fill="none" stroke="#3cb4a4" d="M523.7,-1984.34C439.79,-1974.77 298,-1951.68 298,-1905 298,-1905 298,-1905 298,-996.5 298,-981.34 340.92,-739.35 352,-729 377.96,-704.74 467.69,-696.98 535.61,-694.66"/>
<polygon fill="#3cb4a4" stroke="#3cb4a4" points="535.99,-698.15 545.88,-694.35 535.78,-691.15 535.99,-698.15"/>
<text text-anchor="middle" x="315.5" y="-1341.8" font-family="arial" font-size="14.00" fill="#3cb4a4">arg[0]</text>
</g>
<!-- node10&#45;&gt;node13 -->
<g id="edge9" class="edge">
<title>node10&#45;&gt;node13</title>
<path fill="none" stroke="#3cb4a4" d="M673.22,-1886.21C671.98,-1874.52 670.31,-1858.69 668.88,-1845.22"/>
<polygon fill="#3cb4a4" stroke="#3cb4a4" points="672.34,-1844.63 667.81,-1835.05 665.38,-1845.36 672.34,-1844.63"/>
<text text-anchor="middle" x="675" y="-1856.8" font-family="arial" font-size="14.00" fill="#3cb4a4">?</text>
</g>
<!-- node59 -->
<g id="node43" class="node">
<title>node59</title>
<polygon fill="#e98693" stroke="black" points="936,-624 882,-624 882,-588 936,-588 936,-624"/>
<text text-anchor="middle" x="909" y="-602.3" font-family="Arial" font-size="14.00" fill="#1a1919">59 If</text>
</g>
<!-- node10&#45;&gt;node59 -->
<g id="edge67" class="edge">
<title>node10&#45;&gt;node59</title>
<path fill="none" stroke="#3cb4a4" d="M713.26,-1896.71C754.71,-1887.45 815,-1865.77 815,-1818 815,-1818 815,-1818 815,-1388 815,-1223.45 843.12,-1184.02 877,-1023 891.63,-953.49 916,-939.04 916,-868 916,-868 916,-868 916,-692 916,-672.69 914.18,-650.99 912.4,-634.35"/>
<polygon fill="#3cb4a4" stroke="#3cb4a4" points="915.86,-633.76 911.25,-624.22 908.9,-634.55 915.86,-633.76"/>
<text text-anchor="middle" x="828" y="-1254.8" font-family="arial" font-size="14.00" fill="#3cb4a4">?</text>
</g>
<!-- node11 -->
<g id="node7" class="node">
<title>node11</title>
<polygon fill="#e98693" stroke="black" points="695.5,-1748 626.5,-1748 626.5,-1712 695.5,-1712 695.5,-1748"/>
<text text-anchor="middle" x="661" y="-1726.3" font-family="Arial" font-size="14.00" fill="#1a1919">11 Begin</text>
</g>
<!-- node18 -->
<g id="node12" class="node">
<title>node18</title>
<polygon fill="#da2d4f" stroke="black" points="747.5,-1675 372.5,-1675 372.5,-1639 747.5,-1639 747.5,-1675"/>
<text text-anchor="middle" x="560" y="-1653.3" font-family="Arial" font-size="14.00" fill="#ffffff">18 Call OptimizedCompilationProfile.injectArgumentProfile !</text>
</g>
<!-- node11&#45;&gt;node18 -->
<g id="edge7" class="edge">
<title>node11&#45;&gt;node18</title>
<path fill="none" stroke="#da2d4f" stroke-width="2" d="M636.81,-1711.99C623.66,-1702.75 607.22,-1691.19 592.92,-1681.14"/>
<polygon fill="#da2d4f" stroke="#da2d4f" stroke-width="2" points="594.54,-1678 584.34,-1675.11 590.51,-1683.73 594.54,-1678"/>
</g>
<!-- node12 -->
<g id="node8" class="node">
<title>node12</title>
<polygon fill="#e98693" stroke="black" points="786,-1748 716,-1748 716,-1712 786,-1712 786,-1748"/>
<text text-anchor="middle" x="751" y="-1726.3" font-family="Arial" font-size="14.00" fill="#1a1919">12 Begin</text>
</g>
<!-- node21 -->
<g id="node14" class="node">
<title>node21</title>
<polygon fill="#e98693" stroke="black" points="768.5,-1621 709.5,-1621 709.5,-1585 768.5,-1585 768.5,-1621"/>
<text text-anchor="middle" x="739" y="-1599.3" font-family="Arial" font-size="14.00" fill="#1a1919">21 End</text>
</g>
<!-- node12&#45;&gt;node21 -->
<g id="edge8" class="edge">
<title>node12&#45;&gt;node21</title>
<path fill="none" stroke="#da2d4f" stroke-width="2" d="M755.18,-1711.82C758.93,-1693.51 763.01,-1663.81 757,-1639 756.31,-1636.14 755.34,-1633.24 754.2,-1630.41"/>
<polygon fill="#da2d4f" stroke="#da2d4f" stroke-width="2" points="757.28,-1628.74 749.88,-1621.17 750.94,-1631.71 757.28,-1628.74"/>
</g>
<!-- node13&#45;&gt;node11 -->
<g id="edge11" class="edge">
<title>node13&#45;&gt;node11</title>
<path fill="none" stroke="#da2d4f" stroke-width="2" d="M664.99,-1798.8C664.3,-1787.16 663.39,-1771.55 662.6,-1758.24"/>
<polygon fill="#da2d4f" stroke="#da2d4f" stroke-width="2" points="666.09,-1757.95 662.01,-1748.18 659.1,-1758.36 666.09,-1757.95"/>
<text text-anchor="middle" x="667.5" y="-1769.8" font-family="arial" font-size="14.00" fill="#da2d4f">F</text>
</g>
<!-- node13&#45;&gt;node12 -->
<g id="edge10" class="edge">
<title>node13&#45;&gt;node12</title>
<path fill="none" stroke="#da2d4f" stroke-width="2" d="M683.2,-1798.8C695.64,-1786.36 712.64,-1769.36 726.5,-1755.5"/>
<polygon fill="#da2d4f" stroke="#da2d4f" stroke-width="2" points="729.23,-1757.72 733.82,-1748.18 724.28,-1752.77 729.23,-1757.72"/>
<text text-anchor="middle" x="717.5" y="-1769.8" font-family="arial" font-size="14.00" fill="#da2d4f">T</text>
</g>
<!-- node14&#45;&gt;node18 -->
<g id="edge15" class="edge">
<title>node14&#45;&gt;node18</title>
<path fill="none" stroke="#343d46" stroke-dasharray="5,2" d="M543.76,-1702.34C547.11,-1693.19 550.77,-1683.2 553.76,-1675.03"/>
<polygon fill="#343d46" stroke="#343d46" points="540.45,-1701.22 540.29,-1711.81 547.02,-1703.63 540.45,-1701.22"/>
</g>
<!-- node15 -->
<g id="node11" class="node">
<title>node15</title>
<polygon fill="#f9f9f9" stroke="black" points="134,-356 0,-356 0,-320 134,-320 134,-356"/>
<text text-anchor="middle" x="67" y="-334.3" font-family="Arial" font-size="14.00" fill="#1a1919">15 ExceptionObject</text>
</g>
<!-- node29 -->
<g id="node20" class="node">
<title>node29</title>
<polygon fill="#e98693" stroke="black" points="171.5,-283 112.5,-283 112.5,-247 171.5,-247 171.5,-283"/>
<text text-anchor="middle" x="142" y="-261.3" font-family="Arial" font-size="14.00" fill="#1a1919">29 End</text>
</g>
<!-- node15&#45;&gt;node29 -->
<g id="edge14" class="edge">
<title>node15&#45;&gt;node29</title>
<path fill="none" stroke="#da2d4f" stroke-width="2" d="M85.16,-319.81C94.55,-310.92 106.18,-299.91 116.47,-290.17"/>
<polygon fill="#da2d4f" stroke="#da2d4f" stroke-width="2" points="119.16,-292.45 124.01,-283.03 114.34,-287.36 119.16,-292.45"/>
</g>
<!-- node32 -->
<g id="node23" class="node">
<title>node32</title>
<polygon fill="#f9f9f9" stroke="black" points="477,-123 423,-123 423,-87 477,-87 477,-123"/>
<text text-anchor="middle" x="450" y="-101.3" font-family="Arial" font-size="14.00" fill="#1a1919">32 ϕ</text>
</g>
<!-- node15&#45;&gt;node32 -->
<g id="edge35" class="edge">
<title>node15&#45;&gt;node32</title>
<path fill="none" stroke="#3cb4a4" d="M70.03,-319.76C74.29,-300.02 83.79,-267.74 103,-247 188.12,-155.12 341.59,-121.68 412.37,-110.75"/>
<polygon fill="#3cb4a4" stroke="#3cb4a4" points="413.21,-114.17 422.59,-109.24 412.19,-107.24 413.21,-114.17"/>
<text text-anchor="middle" x="161.5" y="-217.8" font-family="arial" font-size="14.00" fill="#3cb4a4">from 29</text>
</g>
<!-- node18&#45;&gt;node15 -->
<g id="edge17" class="edge">
<title>node18&#45;&gt;node15</title>
<path fill="none" stroke="#da2d4f" stroke-width="2" d="M496.64,-1638.88C486.62,-1634.22 476.95,-1628.36 469,-1621 366.7,-1526.37 412.74,-1452.98 334,-1338 306.91,-1298.44 260,-1307.45 260,-1259.5 260,-1259.5 260,-1259.5 260,-1127 260,-1072.12 245.78,-1059.67 241,-1005 239.06,-982.86 240,-977.23 240,-955 240,-955 240,-955 240,-445 240,-416.57 171.19,-381.84 120.36,-360.06"/>
<polygon fill="#da2d4f" stroke="#da2d4f" stroke-width="2" points="121.68,-356.82 111.1,-356.15 118.95,-363.26 121.68,-356.82"/>
<text text-anchor="middle" x="262.5" y="-993.8" font-family="arial" font-size="14.00" fill="#da2d4f">unwind</text>
</g>
<!-- node20 -->
<g id="node13" class="node">
<title>node20</title>
<polygon fill="#e98693" stroke="black" points="614,-1567 508,-1567 508,-1531 614,-1531 614,-1567"/>
<text text-anchor="middle" x="561" y="-1545.3" font-family="Arial" font-size="14.00" fill="#1a1919">20 KillingBegin</text>
</g>
<!-- node18&#45;&gt;node20 -->
<g id="edge16" class="edge">
<title>node18&#45;&gt;node20</title>
<path fill="none" stroke="#da2d4f" stroke-width="2" d="M560.16,-1638.97C560.32,-1622.38 560.56,-1596.88 560.74,-1577.43"/>
<polygon fill="#da2d4f" stroke="#da2d4f" stroke-width="2" points="564.24,-1577.37 560.84,-1567.34 557.24,-1577.31 564.24,-1577.37"/>
</g>
<!-- node18&#45;&gt;node24 -->
<g id="edge24" class="edge">
<title>node18&#45;&gt;node24</title>
<path fill="none" stroke="#3cb4a4" d="M528.18,-1638.87C499.57,-1620.89 462,-1589.72 462,-1550 462,-1550 462,-1550 462,-1388 462,-1364.16 445.81,-1342.65 429.85,-1327.23"/>
<polygon fill="#3cb4a4" stroke="#3cb4a4" points="431.85,-1324.32 422.1,-1320.17 427.13,-1329.49 431.85,-1324.32"/>
<text text-anchor="middle" x="485.5" y="-1458.3" font-family="arial" font-size="14.00" fill="#3cb4a4">from 23</text>
</g>
<!-- node23 -->
<g id="node16" class="node">
<title>node23</title>
<polygon fill="#e98693" stroke="black" points="593.5,-1480 534.5,-1480 534.5,-1444 593.5,-1444 593.5,-1480"/>
<text text-anchor="middle" x="564" y="-1458.3" font-family="Arial" font-size="14.00" fill="#1a1919">23 End</text>
</g>
<!-- node20&#45;&gt;node23 -->
<g id="edge18" class="edge">
<title>node20&#45;&gt;node23</title>
<path fill="none" stroke="#da2d4f" stroke-width="2" d="M561.61,-1530.8C562.02,-1519.16 562.57,-1503.55 563.04,-1490.24"/>
<polygon fill="#da2d4f" stroke="#da2d4f" stroke-width="2" points="566.54,-1490.29 563.39,-1480.18 559.54,-1490.05 566.54,-1490.29"/>
</g>
<!-- node22 -->
<g id="node15" class="node">
<title>node22</title>
<polygon fill="#e98693" stroke="black" points="607,-1407 533,-1407 533,-1371 607,-1371 607,-1407"/>
<text text-anchor="middle" x="570" y="-1385.3" font-family="Arial" font-size="14.00" fill="#1a1919">22 Merge</text>
</g>
<!-- node21&#45;&gt;node22 -->
<g id="edge19" class="edge">
<title>node21&#45;&gt;node22</title>
<path fill="none" stroke="#da2d4f" stroke-width="2" d="M725.17,-1584.65C695.32,-1547.21 624.77,-1458.71 590.03,-1415.13"/>
<polygon fill="#da2d4f" stroke="#da2d4f" stroke-width="2" points="592.75,-1412.93 583.78,-1407.29 587.28,-1417.29 592.75,-1412.93"/>
</g>
<!-- node22&#45;&gt;node24 -->
<g id="edge22" class="edge">
<title>node22&#45;&gt;node24</title>
<path fill="none" stroke="#343d46" stroke-dasharray="5,2" d="M530.48,-1366.13C513.81,-1357.13 494.11,-1346.77 476,-1338 458.09,-1329.32 453.11,-1328.25 435,-1320 432.11,-1318.68 429.09,-1317.29 426.09,-1315.89"/>
<polygon fill="#343d46" stroke="#343d46" points="528.94,-1369.27 539.39,-1370.97 532.28,-1363.12 528.94,-1369.27"/>
</g>
<!-- node33 -->
<g id="node24" class="node">
<title>node33</title>
<polygon fill="#da2d4f" stroke="black" points="720,-1320 444,-1320 444,-1284 720,-1284 720,-1320"/>
<text text-anchor="middle" x="582" y="-1298.3" font-family="Arial" font-size="14.00" fill="#ffffff">33 Call OptimizedCallTarget.getRootNode !</text>
</g>
<!-- node22&#45;&gt;node33 -->
<g id="edge21" class="edge">
<title>node22&#45;&gt;node33</title>
<path fill="none" stroke="#da2d4f" stroke-width="2" d="M572.43,-1370.8C574.07,-1359.16 576.28,-1343.55 578.15,-1330.24"/>
<polygon fill="#da2d4f" stroke="#da2d4f" stroke-width="2" points="581.64,-1330.57 579.58,-1320.18 574.71,-1329.59 581.64,-1330.57"/>
</g>
<!-- node23&#45;&gt;node22 -->
<g id="edge20" class="edge">
<title>node23&#45;&gt;node22</title>
<path fill="none" stroke="#da2d4f" stroke-width="2" d="M565.45,-1443.81C566.13,-1435.79 566.95,-1426.05 567.71,-1417.07"/>
<polygon fill="#da2d4f" stroke="#da2d4f" stroke-width="2" points="571.21,-1417.29 568.56,-1407.03 564.23,-1416.7 571.21,-1417.29"/>
</g>
<!-- node43 -->
<g id="node31" class="node">
<title>node43</title>
<polygon fill="#f9f9f9" stroke="black" points="544,-1059 402,-1059 402,-1023 544,-1023 544,-1059"/>
<text text-anchor="middle" x="473" y="-1037.3" font-family="Arial" font-size="14.00" fill="#1a1919">43 MethodCallTarget</text>
</g>
<!-- node24&#45;&gt;node43 -->
<g id="edge52" class="edge">
<title>node24&#45;&gt;node43</title>
<path fill="none" stroke="#3cb4a4" d="M397.52,-1283.87C395.21,-1249.47 393.32,-1170.11 418,-1110 424.62,-1093.87 436.37,-1078.53 447.32,-1066.51"/>
<polygon fill="#3cb4a4" stroke="#3cb4a4" points="449.98,-1068.78 454.33,-1059.12 444.91,-1063.96 449.98,-1068.78"/>
<text text-anchor="middle" x="420.5" y="-1167.8" font-family="arial" font-size="14.00" fill="#3cb4a4">arg[1]</text>
</g>
<!-- node26&#45;&gt;node33 -->
<g id="edge41" class="edge">
<title>node26&#45;&gt;node33</title>
<path fill="none" stroke="#343d46" stroke-dasharray="5,2" d="M825.85,-2018.64C838.8,-2000.31 853,-1974.33 853,-1948.5 853,-1948.5 853,-1948.5 853,-1388 853,-1354.96 778.75,-1333.22 707.98,-1320"/>
<polygon fill="#343d46" stroke="#343d46" points="822.81,-2016.87 819.66,-2026.99 828.43,-2021.04 822.81,-2016.87"/>
</g>
<!-- node27 -->
<g id="node19" class="node">
<title>node27</title>
<polygon fill="#f9f9f9" stroke="black" points="286,-356 152,-356 152,-320 286,-320 286,-356"/>
<text text-anchor="middle" x="219" y="-334.3" font-family="Arial" font-size="14.00" fill="#1a1919">27 ExceptionObject</text>
</g>
<!-- node31 -->
<g id="node22" class="node">
<title>node31</title>
<polygon fill="#e98693" stroke="black" points="248.5,-283 189.5,-283 189.5,-247 248.5,-247 248.5,-283"/>
<text text-anchor="middle" x="219" y="-261.3" font-family="Arial" font-size="14.00" fill="#1a1919">31 End</text>
</g>
<!-- node27&#45;&gt;node31 -->
<g id="edge26" class="edge">
<title>node27&#45;&gt;node31</title>
<path fill="none" stroke="#da2d4f" stroke-width="2" d="M219,-319.81C219,-311.79 219,-302.05 219,-293.07"/>
<polygon fill="#da2d4f" stroke="#da2d4f" stroke-width="2" points="222.5,-293.03 219,-283.03 215.5,-293.03 222.5,-293.03"/>
</g>
<!-- node27&#45;&gt;node32 -->
<g id="edge36" class="edge">
<title>node27&#45;&gt;node32</title>
<path fill="none" stroke="#3cb4a4" d="M286.12,-321.94C338.05,-309.67 402.5,-292.82 411,-283 431.23,-259.61 413.85,-244.31 420,-214 425.69,-185.97 434.73,-154.54 441.4,-132.84"/>
<polygon fill="#3cb4a4" stroke="#3cb4a4" points="444.83,-133.62 444.46,-123.03 438.15,-131.53 444.83,-133.62"/>
<text text-anchor="middle" x="443.5" y="-217.8" font-family="arial" font-size="14.00" fill="#3cb4a4">from 31</text>
</g>
<!-- node30 -->
<g id="node21" class="node">
<title>node30</title>
<polygon fill="#e98693" stroke="black" points="363,-196 289,-196 289,-160 363,-160 363,-196"/>
<text text-anchor="middle" x="326" y="-174.3" font-family="Arial" font-size="14.00" fill="#1a1919">30 Merge</text>
</g>
<!-- node29&#45;&gt;node30 -->
<g id="edge27" class="edge">
<title>node29&#45;&gt;node30</title>
<path fill="none" stroke="#da2d4f" stroke-width="2" d="M171.56,-250.34C200.72,-236.87 245.72,-216.09 279.64,-200.42"/>
<polygon fill="#da2d4f" stroke="#da2d4f" stroke-width="2" points="281.28,-203.52 288.89,-196.15 278.34,-197.16 281.28,-203.52"/>
</g>
<!-- node30&#45;&gt;node32 -->
<g id="edge34" class="edge">
<title>node30&#45;&gt;node32</title>
<path fill="none" stroke="#343d46" stroke-dasharray="5,2" d="M364.63,-154.88C383.45,-144.11 405.63,-131.41 422.66,-121.65"/>
<polygon fill="#343d46" stroke="#343d46" points="362.64,-151.99 355.7,-159.99 366.12,-158.06 362.64,-151.99"/>
</g>
<!-- node73 -->
<g id="node53" class="node">
<title>node73</title>
<polygon fill="#e98693" stroke="black" points="115,-36 35,-36 35,0 115,0 115,-36"/>
<text text-anchor="middle" x="75" y="-14.3" font-family="Arial" font-size="14.00" fill="#1a1919">73 Unwind</text>
</g>
<!-- node30&#45;&gt;node73 -->
<g id="edge33" class="edge">
<title>node30&#45;&gt;node73</title>
<path fill="none" stroke="#da2d4f" stroke-width="2" d="M298.66,-159.79C253.11,-131.12 161.71,-73.58 110.98,-41.65"/>
<polygon fill="#da2d4f" stroke="#da2d4f" stroke-width="2" points="112.63,-38.55 102.31,-36.19 108.9,-44.48 112.63,-38.55"/>
</g>
<!-- node31&#45;&gt;node30 -->
<g id="edge28" class="edge">
<title>node31&#45;&gt;node30</title>
<path fill="none" stroke="#da2d4f" stroke-width="2" d="M240.65,-246.8C256.61,-234.13 278.5,-216.73 296.12,-202.74"/>
<polygon fill="#da2d4f" stroke="#da2d4f" stroke-width="2" points="298.73,-205.14 304.38,-196.18 294.37,-199.66 298.73,-205.14"/>
</g>
<!-- node32&#45;&gt;node73 -->
<g id="edge81" class="edge">
<title>node32&#45;&gt;node73</title>
<path fill="none" stroke="#3cb4a4" d="M422.73,-97.82C360.1,-83.62 205.21,-48.51 124.97,-30.33"/>
<polygon fill="#3cb4a4" stroke="#3cb4a4" points="125.62,-26.89 115.1,-28.09 124.08,-33.71 125.62,-26.89"/>
<text text-anchor="middle" x="314" y="-57.8" font-family="arial" font-size="14.00" fill="#3cb4a4">exception</text>
</g>
<!-- node33&#45;&gt;node27 -->
<g id="edge43" class="edge">
<title>node33&#45;&gt;node27</title>
<path fill="none" stroke="#da2d4f" stroke-width="2" d="M545.5,-1283.89C522.91,-1271.98 494.41,-1254.41 474,-1233 449.69,-1207.51 455.91,-1192.35 435,-1164 428.47,-1155.15 424.8,-1154.65 418,-1146 400.33,-1123.51 396.13,-1117.41 383,-1092 325.66,-981.08 303.76,-953.39 279,-831 274.59,-809.21 278,-803.23 278,-781 278,-781 278,-781 278,-445 278,-411.69 271.57,-402.3 254,-374 251.76,-370.39 249.07,-366.86 246.2,-363.53"/>
<polygon fill="#da2d4f" stroke="#da2d4f" stroke-width="2" points="248.67,-361.04 239.28,-356.14 243.56,-365.83 248.67,-361.04"/>
<text text-anchor="middle" x="300.5" y="-819.8" font-family="arial" font-size="14.00" fill="#da2d4f">unwind</text>
</g>
<!-- node35 -->
<g id="node25" class="node">
<title>node35</title>
<polygon fill="#e98693" stroke="black" points="589,-1233 483,-1233 483,-1197 589,-1197 589,-1233"/>
<text text-anchor="middle" x="536" y="-1211.3" font-family="Arial" font-size="14.00" fill="#1a1919">35 KillingBegin</text>
</g>
<!-- node33&#45;&gt;node35 -->
<g id="edge42" class="edge">
<title>node33&#45;&gt;node35</title>
<path fill="none" stroke="#da2d4f" stroke-width="2" d="M572.69,-1283.8C566.21,-1271.82 557.44,-1255.62 550.1,-1242.06"/>
<polygon fill="#da2d4f" stroke="#da2d4f" stroke-width="2" points="553.13,-1240.3 545.29,-1233.18 546.98,-1243.64 553.13,-1240.3"/>
</g>
<!-- node36 -->
<g id="node26" class="node">
<title>node36</title>
<polygon fill="#f9f9f9" stroke="black" points="749,-1233 607,-1233 607,-1197 749,-1197 749,-1233"/>
<text text-anchor="middle" x="678" y="-1211.3" font-family="Arial" font-size="14.00" fill="#1a1919">36 MethodCallTarget</text>
</g>
<!-- node33&#45;&gt;node36 -->
<g id="edge45" class="edge">
<title>node33&#45;&gt;node36</title>
<path fill="none" stroke="#3cb4a4" d="M601.43,-1283.8C615.61,-1271.24 635.03,-1254.05 650.76,-1240.12"/>
<polygon fill="#3cb4a4" stroke="#3cb4a4" points="653.44,-1242.43 658.6,-1233.18 648.79,-1237.18 653.44,-1242.43"/>
<text text-anchor="middle" x="652.5" y="-1254.8" font-family="arial" font-size="14.00" fill="#3cb4a4">arg[0]</text>
</g>
<!-- node40 -->
<g id="node29" class="node">
<title>node40</title>
<polygon fill="#da2d4f" stroke="black" points="681,-1146 427,-1146 427,-1110 681,-1110 681,-1146"/>
<text text-anchor="middle" x="554" y="-1124.3" font-family="Arial" font-size="14.00" fill="#ffffff">40 Call RootNode.getFrameDescriptor !</text>
</g>
<!-- node35&#45;&gt;node40 -->
<g id="edge44" class="edge">
<title>node35&#45;&gt;node40</title>
<path fill="none" stroke="#da2d4f" stroke-width="2" d="M539.64,-1196.8C542.11,-1185.16 545.41,-1169.55 548.23,-1156.24"/>
<polygon fill="#da2d4f" stroke="#da2d4f" stroke-width="2" points="551.72,-1156.68 550.36,-1146.18 544.87,-1155.23 551.72,-1156.68"/>
</g>
<!-- node36&#45;&gt;node40 -->
<g id="edge47" class="edge">
<title>node36&#45;&gt;node40</title>
<path fill="none" stroke="#343d46" stroke-dasharray="5,2" d="M644.44,-1190.99C623.83,-1176.87 597.87,-1159.07 579.06,-1146.18"/>
<polygon fill="#343d46" stroke="#343d46" points="642.68,-1194.03 652.91,-1196.8 646.64,-1188.26 642.68,-1194.03"/>
</g>
<!-- node37 -->
<g id="node27" class="node">
<title>node37</title>
<polygon fill="#f9f9f9" stroke="black" points="438,-356 304,-356 304,-320 438,-320 438,-356"/>
<text text-anchor="middle" x="371" y="-334.3" font-family="Arial" font-size="14.00" fill="#1a1919">37 ExceptionObject</text>
</g>
<!-- node37&#45;&gt;node32 -->
<g id="edge37" class="edge">
<title>node37&#45;&gt;node32</title>
<path fill="none" stroke="#3cb4a4" d="M422.59,-319.99C431.03,-315.28 438.97,-309.37 445,-302 484.53,-253.66 469.97,-173.95 458.55,-132.65"/>
<polygon fill="#3cb4a4" stroke="#3cb4a4" points="461.9,-131.65 455.74,-123.02 455.18,-133.6 461.9,-131.65"/>
<text text-anchor="middle" x="494.5" y="-217.8" font-family="arial" font-size="14.00" fill="#3cb4a4">from 39</text>
</g>
<!-- node39 -->
<g id="node28" class="node">
<title>node39</title>
<polygon fill="#e98693" stroke="black" points="325.5,-283 266.5,-283 266.5,-247 325.5,-247 325.5,-283"/>
<text text-anchor="middle" x="296" y="-261.3" font-family="Arial" font-size="14.00" fill="#1a1919">39 End</text>
</g>
<!-- node37&#45;&gt;node39 -->
<g id="edge46" class="edge">
<title>node37&#45;&gt;node39</title>
<path fill="none" stroke="#da2d4f" stroke-width="2" d="M352.84,-319.81C343.45,-310.92 331.82,-299.91 321.53,-290.17"/>
<polygon fill="#da2d4f" stroke="#da2d4f" stroke-width="2" points="323.66,-287.36 313.99,-283.03 318.84,-292.45 323.66,-287.36"/>
</g>
<!-- node39&#45;&gt;node30 -->
<g id="edge29" class="edge">
<title>node39&#45;&gt;node30</title>
<path fill="none" stroke="#da2d4f" stroke-width="2" d="M302.07,-246.8C306.22,-235.05 311.8,-219.24 316.53,-205.84"/>
<polygon fill="#da2d4f" stroke="#da2d4f" stroke-width="2" points="319.91,-206.77 319.94,-196.18 313.31,-204.44 319.91,-206.77"/>
</g>
<!-- node40&#45;&gt;node37 -->
<g id="edge49" class="edge">
<title>node40&#45;&gt;node37</title>
<path fill="none" stroke="#da2d4f" stroke-width="2" d="M436.96,-1110C402.58,-1097.9 374,-1077.25 374,-1042 374,-1042 374,-1042 374,-445 374,-418.23 373.03,-387.66 372.2,-366.26"/>
<polygon fill="#da2d4f" stroke="#da2d4f" stroke-width="2" points="375.69,-366.1 371.79,-356.25 368.7,-366.39 375.69,-366.1"/>
<text text-anchor="middle" x="395.5" y="-732.8" font-family="arial" font-size="14.00" fill="#da2d4f">unwind</text>
</g>
<!-- node42 -->
<g id="node30" class="node">
<title>node42</title>
<polygon fill="#e98693" stroke="black" points="668,-1059 562,-1059 562,-1023 668,-1023 668,-1059"/>
<text text-anchor="middle" x="615" y="-1037.3" font-family="Arial" font-size="14.00" fill="#1a1919">42 KillingBegin</text>
</g>
<!-- node40&#45;&gt;node42 -->
<g id="edge48" class="edge">
<title>node40&#45;&gt;node42</title>
<path fill="none" stroke="#da2d4f" stroke-width="2" d="M566.34,-1109.8C575.03,-1097.7 586.79,-1081.3 596.58,-1067.67"/>
<polygon fill="#da2d4f" stroke="#da2d4f" stroke-width="2" points="599.69,-1069.34 602.67,-1059.18 594,-1065.26 599.69,-1069.34"/>
</g>
<!-- node40&#45;&gt;node43 -->
<g id="edge51" class="edge">
<title>node40&#45;&gt;node43</title>
<path fill="none" stroke="#3cb4a4" d="M537.61,-1109.8C525.75,-1097.36 509.56,-1080.36 496.35,-1066.5"/>
<polygon fill="#3cb4a4" stroke="#3cb4a4" points="498.8,-1064 489.37,-1059.18 493.73,-1068.83 498.8,-1064"/>
<text text-anchor="middle" x="536.5" y="-1080.8" font-family="arial" font-size="14.00" fill="#3cb4a4">arg[0]</text>
</g>
<!-- node47 -->
<g id="node34" class="node">
<title>node47</title>
<polygon fill="#da2d4f" stroke="black" points="740,-972 466,-972 466,-936 740,-936 740,-972"/>
<text text-anchor="middle" x="603" y="-950.3" font-family="Arial" font-size="14.00" fill="#ffffff">47 Call OptimizedCallTarget.createFrame !</text>
</g>
<!-- node42&#45;&gt;node47 -->
<g id="edge50" class="edge">
<title>node42&#45;&gt;node47</title>
<path fill="none" stroke="#da2d4f" stroke-width="2" d="M612.57,-1022.8C610.93,-1011.16 608.72,-995.55 606.85,-982.24"/>
<polygon fill="#da2d4f" stroke="#da2d4f" stroke-width="2" points="610.29,-981.59 605.42,-972.18 603.36,-982.57 610.29,-981.59"/>
</g>
<!-- node43&#45;&gt;node47 -->
<g id="edge54" class="edge">
<title>node43&#45;&gt;node47</title>
<path fill="none" stroke="#343d46" stroke-dasharray="5,2" d="M507.9,-1017.18C529.55,-1003.03 556.92,-985.13 576.73,-972.18"/>
<polygon fill="#343d46" stroke="#343d46" points="505.76,-1014.4 499.31,-1022.8 509.59,-1020.26 505.76,-1014.4"/>
</g>
<!-- node44 -->
<g id="node32" class="node">
<title>node44</title>
<polygon fill="#f9f9f9" stroke="black" points="590,-356 456,-356 456,-320 590,-320 590,-356"/>
<text text-anchor="middle" x="523" y="-334.3" font-family="Arial" font-size="14.00" fill="#1a1919">44 ExceptionObject</text>
</g>
<!-- node44&#45;&gt;node32 -->
<g id="edge38" class="edge">
<title>node44&#45;&gt;node32</title>
<path fill="none" stroke="#3cb4a4" d="M527.61,-319.67C533.28,-295.65 541.2,-251.02 533,-214 525.26,-179.06 521.87,-168.53 499,-141 495.11,-136.31 490.44,-131.94 485.57,-127.99"/>
<polygon fill="#3cb4a4" stroke="#3cb4a4" points="487.35,-124.96 477.25,-121.76 483.15,-130.56 487.35,-124.96"/>
<text text-anchor="middle" x="559.5" y="-217.8" font-family="arial" font-size="14.00" fill="#3cb4a4">from 46</text>
</g>
<!-- node46 -->
<g id="node33" class="node">
<title>node46</title>
<polygon fill="#e98693" stroke="black" points="402.5,-283 343.5,-283 343.5,-247 402.5,-247 402.5,-283"/>
<text text-anchor="middle" x="373" y="-261.3" font-family="Arial" font-size="14.00" fill="#1a1919">46 End</text>
</g>
<!-- node44&#45;&gt;node46 -->
<g id="edge53" class="edge">
<title>node44&#45;&gt;node46</title>
<path fill="none" stroke="#da2d4f" stroke-width="2" d="M487.07,-319.99C464.37,-309.25 435.04,-295.37 411.81,-284.37"/>
<polygon fill="#da2d4f" stroke="#da2d4f" stroke-width="2" points="413.13,-281.12 402.59,-280.01 410.13,-287.45 413.13,-281.12"/>
</g>
<!-- node46&#45;&gt;node30 -->
<g id="edge30" class="edge">
<title>node46&#45;&gt;node30</title>
<path fill="none" stroke="#da2d4f" stroke-width="2" d="M363.49,-246.8C356.86,-234.82 347.91,-218.62 340.41,-205.06"/>
<polygon fill="#da2d4f" stroke="#da2d4f" stroke-width="2" points="343.4,-203.23 335.5,-196.18 337.27,-206.62 343.4,-203.23"/>
</g>
<!-- node47&#45;&gt;node44 -->
<g id="edge56" class="edge">
<title>node47&#45;&gt;node44</title>
<path fill="none" stroke="#da2d4f" stroke-width="2" d="M568.92,-935.98C545.27,-921.51 518,-898.26 518,-868 518,-868 518,-868 518,-445 518,-418.21 519.61,-387.65 521.01,-366.25"/>
<polygon fill="#da2d4f" stroke="#da2d4f" stroke-width="2" points="524.5,-366.46 521.69,-356.25 517.52,-365.99 524.5,-366.46"/>
<text text-anchor="middle" x="539.5" y="-645.8" font-family="arial" font-size="14.00" fill="#da2d4f">unwind</text>
</g>
<!-- node49 -->
<g id="node35" class="node">
<title>node49</title>
<polygon fill="#e98693" stroke="black" points="656,-885 550,-885 550,-849 656,-849 656,-885"/>
<text text-anchor="middle" x="603" y="-863.3" font-family="Arial" font-size="14.00" fill="#1a1919">49 KillingBegin</text>
</g>
<!-- node47&#45;&gt;node49 -->
<g id="edge55" class="edge">
<title>node47&#45;&gt;node49</title>
<path fill="none" stroke="#da2d4f" stroke-width="2" d="M603,-935.8C603,-924.16 603,-908.55 603,-895.24"/>
<polygon fill="#da2d4f" stroke="#da2d4f" stroke-width="2" points="606.5,-895.18 603,-885.18 599.5,-895.18 606.5,-895.18"/>
</g>
<!-- node47&#45;&gt;node50 -->
<g id="edge59" class="edge">
<title>node47&#45;&gt;node50</title>
<path fill="none" stroke="#3cb4a4" d="M631.74,-935.8C653.58,-922.72 683.82,-904.62 707.56,-890.41"/>
<polygon fill="#3cb4a4" stroke="#3cb4a4" points="709.52,-893.31 716.31,-885.18 705.93,-887.31 709.52,-893.31"/>
<text text-anchor="middle" x="699.5" y="-906.8" font-family="arial" font-size="14.00" fill="#3cb4a4">arg[1]</text>
</g>
<!-- node54 -->
<g id="node39" class="node">
<title>node54</title>
<polygon fill="#da2d4f" stroke="black" points="848.5,-798 597.5,-798 597.5,-762 848.5,-762 848.5,-798"/>
<text text-anchor="middle" x="723" y="-776.3" font-family="Arial" font-size="14.00" fill="#ffffff">54 Call OptimizedCallTarget.callProxy !</text>
</g>
<!-- node49&#45;&gt;node54 -->
<g id="edge57" class="edge">
<title>node49&#45;&gt;node54</title>
<path fill="none" stroke="#da2d4f" stroke-width="2" d="M627.28,-848.8C645.5,-835.9 670.62,-818.1 690.56,-803.98"/>
<polygon fill="#da2d4f" stroke="#da2d4f" stroke-width="2" points="692.62,-806.81 698.75,-798.18 688.57,-801.1 692.62,-806.81"/>
</g>
<!-- node50&#45;&gt;node54 -->
<g id="edge61" class="edge">
<title>node50&#45;&gt;node54</title>
<path fill="none" stroke="#343d46" stroke-dasharray="5,2" d="M737.94,-838.73C734.5,-825.42 730.46,-809.81 727.45,-798.18"/>
<polygon fill="#343d46" stroke="#343d46" points="734.65,-839.99 740.55,-848.8 741.43,-838.24 734.65,-839.99"/>
</g>
<!-- node51 -->
<g id="node37" class="node">
<title>node51</title>
<polygon fill="#f9f9f9" stroke="black" points="894,-356 760,-356 760,-320 894,-320 894,-356"/>
<text text-anchor="middle" x="827" y="-334.3" font-family="Arial" font-size="14.00" fill="#1a1919">51 ExceptionObject</text>
</g>
<!-- node51&#45;&gt;node32 -->
<g id="edge39" class="edge">
<title>node51&#45;&gt;node32</title>
<path fill="none" stroke="#3cb4a4" d="M823.82,-319.7C819.37,-299.91 809.54,-267.58 790,-247 705.45,-157.97 556.29,-123.15 487.14,-111.32"/>
<polygon fill="#3cb4a4" stroke="#3cb4a4" points="487.57,-107.85 477.14,-109.68 486.44,-114.76 487.57,-107.85"/>
<text text-anchor="middle" x="793.5" y="-217.8" font-family="arial" font-size="14.00" fill="#3cb4a4">from 53</text>
</g>
<!-- node53 -->
<g id="node38" class="node">
<title>node53</title>
<polygon fill="#e98693" stroke="black" points="780.5,-283 721.5,-283 721.5,-247 780.5,-247 780.5,-283"/>
<text text-anchor="middle" x="751" y="-261.3" font-family="Arial" font-size="14.00" fill="#1a1919">53 End</text>
</g>
<!-- node51&#45;&gt;node53 -->
<g id="edge60" class="edge">
<title>node51&#45;&gt;node53</title>
<path fill="none" stroke="#da2d4f" stroke-width="2" d="M808.6,-319.81C798.99,-310.83 787.07,-299.69 776.57,-289.89"/>
<polygon fill="#da2d4f" stroke="#da2d4f" stroke-width="2" points="778.92,-287.3 769.23,-283.03 774.15,-292.41 778.92,-287.3"/>
</g>
<!-- node53&#45;&gt;node30 -->
<g id="edge31" class="edge">
<title>node53&#45;&gt;node30</title>
<path fill="none" stroke="#da2d4f" stroke-width="2" d="M721.29,-253.59C702.47,-246.87 677.67,-237.76 656,-229 640.69,-222.81 637.93,-218.35 622,-214 536.29,-190.59 432.41,-182.84 373.28,-180.27"/>
<polygon fill="#da2d4f" stroke="#da2d4f" stroke-width="2" points="373.26,-176.77 363.13,-179.86 372.98,-183.76 373.26,-176.77"/>
</g>
<!-- node54&#45;&gt;node51 -->
<g id="edge63" class="edge">
<title>node54&#45;&gt;node51</title>
<path fill="none" stroke="#da2d4f" stroke-width="2" d="M720.75,-761.78C718.7,-744.63 716,-717.54 716,-694 716,-694 716,-694 716,-561.5 716,-499.16 641.84,-481.99 673,-428 691.75,-395.5 727.4,-373.8 759.67,-359.97"/>
<polygon fill="#da2d4f" stroke="#da2d4f" stroke-width="2" points="761.19,-363.14 769.11,-356.11 758.53,-356.66 761.19,-363.14"/>
<text text-anchor="middle" x="737.5" y="-558.8" font-family="arial" font-size="14.00" fill="#da2d4f">unwind</text>
</g>
<!-- node56 -->
<g id="node40" class="node">
<title>node56</title>
<polygon fill="#e98693" stroke="black" points="850,-711 744,-711 744,-675 850,-675 850,-711"/>
<text text-anchor="middle" x="797" y="-689.3" font-family="Arial" font-size="14.00" fill="#1a1919">56 KillingBegin</text>
</g>
<!-- node54&#45;&gt;node56 -->
<g id="edge62" class="edge">
<title>node54&#45;&gt;node56</title>
<path fill="none" stroke="#da2d4f" stroke-width="2" d="M737.98,-761.8C748.71,-749.47 763.33,-732.68 775.33,-718.89"/>
<polygon fill="#da2d4f" stroke="#da2d4f" stroke-width="2" points="778.12,-721.02 782.05,-711.18 772.84,-716.42 778.12,-721.02"/>
</g>
<!-- node54&#45;&gt;node60 -->
<g id="edge71" class="edge">
<title>node54&#45;&gt;node60</title>
<path fill="none" stroke="#3cb4a4" d="M692.79,-761.86C684.19,-756.52 674.99,-750.35 667,-744 657.44,-736.39 647.75,-727.14 639.49,-718.68"/>
<polygon fill="#3cb4a4" stroke="#3cb4a4" points="641.78,-716.01 632.34,-711.19 636.71,-720.84 641.78,-716.01"/>
<text text-anchor="middle" x="684.5" y="-732.8" font-family="arial" font-size="14.00" fill="#3cb4a4">arg[1]</text>
</g>
<!-- node71 -->
<g id="node52" class="node">
<title>node71</title>
<polygon fill="#e98693" stroke="black" points="1128,-123 1052,-123 1052,-87 1128,-87 1128,-123"/>
<text text-anchor="middle" x="1090" y="-101.3" font-family="Arial" font-size="14.00" fill="#1a1919">71 Return</text>
</g>
<!-- node54&#45;&gt;node71 -->
<g id="edge80" class="edge">
<title>node54&#45;&gt;node71</title>
<path fill="none" stroke="#3cb4a4" d="M764.37,-761.91C864.74,-717.38 1113,-587.58 1113,-393 1113,-393 1113,-393 1113,-177 1113,-161.72 1108.12,-145.45 1102.85,-132.34"/>
<polygon fill="#3cb4a4" stroke="#3cb4a4" points="1106,-130.8 1098.83,-123.01 1099.57,-133.58 1106,-130.8"/>
<text text-anchor="middle" x="1127" y="-442.3" font-family="arial" font-size="14.00" fill="#3cb4a4">result</text>
</g>
<!-- node56&#45;&gt;node59 -->
<g id="edge64" class="edge">
<title>node56&#45;&gt;node59</title>
<path fill="none" stroke="#da2d4f" stroke-width="2" d="M819.66,-674.8C836.52,-662.01 859.7,-644.42 878.22,-630.36"/>
<polygon fill="#da2d4f" stroke="#da2d4f" stroke-width="2" points="880.52,-633.01 886.37,-624.18 876.29,-627.43 880.52,-633.01"/>
</g>
<!-- node57 -->
<g id="node41" class="node">
<title>node57</title>
<polygon fill="#e98693" stroke="black" points="906,-537 836,-537 836,-501 906,-501 906,-537"/>
<text text-anchor="middle" x="871" y="-515.3" font-family="Arial" font-size="14.00" fill="#1a1919">57 Begin</text>
</g>
<!-- node64 -->
<g id="node47" class="node">
<title>node64</title>
<polygon fill="#da2d4f" stroke="black" points="1038.5,-464 681.5,-464 681.5,-428 1038.5,-428 1038.5,-464"/>
<text text-anchor="middle" x="860" y="-442.3" font-family="Arial" font-size="14.00" fill="#ffffff">64 Call OptimizedCompilationProfile.profileReturnValue !</text>
</g>
<!-- node57&#45;&gt;node64 -->
<g id="edge65" class="edge">
<title>node57&#45;&gt;node64</title>
<path fill="none" stroke="#da2d4f" stroke-width="2" d="M868.34,-500.81C867.09,-492.79 865.58,-483.05 864.19,-474.07"/>
<polygon fill="#da2d4f" stroke="#da2d4f" stroke-width="2" points="867.63,-473.38 862.64,-464.03 860.71,-474.45 867.63,-473.38"/>
</g>
<!-- node58 -->
<g id="node42" class="node">
<title>node58</title>
<polygon fill="#e98693" stroke="black" points="1014,-537 944,-537 944,-501 1014,-501 1014,-537"/>
<text text-anchor="middle" x="979" y="-515.3" font-family="Arial" font-size="14.00" fill="#1a1919">58 Begin</text>
</g>
<!-- node67 -->
<g id="node49" class="node">
<title>node67</title>
<polygon fill="#e98693" stroke="black" points="1087.5,-410 1028.5,-410 1028.5,-374 1087.5,-374 1087.5,-410"/>
<text text-anchor="middle" x="1058" y="-388.3" font-family="Arial" font-size="14.00" fill="#1a1919">67 End</text>
</g>
<!-- node58&#45;&gt;node67 -->
<g id="edge66" class="edge">
<title>node58&#45;&gt;node67</title>
<path fill="none" stroke="#da2d4f" stroke-width="2" d="M1010.43,-500.93C1024.19,-491.8 1039.18,-479.28 1048,-464 1055.51,-450.98 1058.16,-434.45 1058.87,-420.62"/>
<polygon fill="#da2d4f" stroke="#da2d4f" stroke-width="2" points="1062.37,-420.29 1059.07,-410.22 1055.37,-420.15 1062.37,-420.29"/>
</g>
<!-- node59&#45;&gt;node57 -->
<g id="edge69" class="edge">
<title>node59&#45;&gt;node57</title>
<path fill="none" stroke="#da2d4f" stroke-width="2" d="M901.31,-587.8C896,-575.93 888.85,-559.93 882.82,-546.45"/>
<polygon fill="#da2d4f" stroke="#da2d4f" stroke-width="2" points="885.96,-544.88 878.68,-537.18 879.56,-547.73 885.96,-544.88"/>
<text text-anchor="middle" x="896.5" y="-558.8" font-family="arial" font-size="14.00" fill="#da2d4f">F</text>
</g>
<!-- node59&#45;&gt;node58 -->
<g id="edge68" class="edge">
<title>node59&#45;&gt;node58</title>
<path fill="none" stroke="#da2d4f" stroke-width="2" d="M923.17,-587.8C933.22,-575.59 946.89,-558.99 958.18,-545.28"/>
<polygon fill="#da2d4f" stroke="#da2d4f" stroke-width="2" points="961.2,-547.12 964.86,-537.18 955.8,-542.67 961.2,-547.12"/>
<text text-anchor="middle" x="952.5" y="-558.8" font-family="arial" font-size="14.00" fill="#da2d4f">T</text>
</g>
<!-- node60&#45;&gt;node64 -->
<g id="edge73" class="edge">
<title>node60&#45;&gt;node64</title>
<path fill="none" stroke="#343d46" stroke-dasharray="5,2" d="M627.33,-665.47C639.79,-635.96 662.99,-588.09 694,-555 731.74,-514.74 787.4,-482.51 823.69,-464.07"/>
<polygon fill="#343d46" stroke="#343d46" points="624.09,-664.15 623.52,-674.73 630.56,-666.81 624.09,-664.15"/>
</g>
<!-- node61 -->
<g id="node45" class="node">
<title>node61</title>
<polygon fill="#f9f9f9" stroke="black" points="742,-356 608,-356 608,-320 742,-320 742,-356"/>
<text text-anchor="middle" x="675" y="-334.3" font-family="Arial" font-size="14.00" fill="#1a1919">61 ExceptionObject</text>
</g>
<!-- node61&#45;&gt;node32 -->
<g id="edge40" class="edge">
<title>node61&#45;&gt;node32</title>
<path fill="none" stroke="#3cb4a4" d="M674.33,-319.71C672.94,-300.79 668.73,-270.07 656,-247 619.08,-180.08 535.27,-138.45 486.69,-119.02"/>
<polygon fill="#3cb4a4" stroke="#3cb4a4" points="487.77,-115.68 477.18,-115.32 485.23,-122.21 487.77,-115.68"/>
<text text-anchor="middle" x="666.5" y="-217.8" font-family="arial" font-size="14.00" fill="#3cb4a4">from 63</text>
</g>
<!-- node63 -->
<g id="node46" class="node">
<title>node63</title>
<polygon fill="#e98693" stroke="black" points="646.5,-283 587.5,-283 587.5,-247 646.5,-247 646.5,-283"/>
<text text-anchor="middle" x="617" y="-261.3" font-family="Arial" font-size="14.00" fill="#1a1919">63 End</text>
</g>
<!-- node61&#45;&gt;node63 -->
<g id="edge72" class="edge">
<title>node61&#45;&gt;node63</title>
<path fill="none" stroke="#da2d4f" stroke-width="2" d="M660.96,-319.81C653.91,-311.18 645.23,-300.56 637.45,-291.03"/>
<polygon fill="#da2d4f" stroke="#da2d4f" stroke-width="2" points="639.95,-288.56 630.91,-283.03 634.53,-292.99 639.95,-288.56"/>
</g>
<!-- node63&#45;&gt;node30 -->
<g id="edge32" class="edge">
<title>node63&#45;&gt;node30</title>
<path fill="none" stroke="#da2d4f" stroke-width="2" d="M616.77,-246.62C615.65,-235.62 612.28,-222.01 603,-214 569.57,-185.17 443.48,-179.64 373.51,-178.86"/>
<polygon fill="#da2d4f" stroke="#da2d4f" stroke-width="2" points="373.23,-175.36 363.2,-178.77 373.17,-182.36 373.23,-175.36"/>
</g>
<!-- node64&#45;&gt;node61 -->
<g id="edge75" class="edge">
<title>node64&#45;&gt;node61</title>
<path fill="none" stroke="#da2d4f" stroke-width="2" d="M830.28,-427.97C798.68,-409.86 748.58,-381.16 713.87,-361.27"/>
<polygon fill="#da2d4f" stroke="#da2d4f" stroke-width="2" points="715.37,-358.1 704.96,-356.16 711.89,-364.17 715.37,-358.1"/>
<text text-anchor="middle" x="815.5" y="-388.3" font-family="arial" font-size="14.00" fill="#da2d4f">unwind</text>
</g>
<!-- node66 -->
<g id="node48" class="node">
<title>node66</title>
<polygon fill="#e98693" stroke="black" points="1022,-356 916,-356 916,-320 1022,-320 1022,-356"/>
<text text-anchor="middle" x="969" y="-334.3" font-family="Arial" font-size="14.00" fill="#1a1919">66 KillingBegin</text>
</g>
<!-- node64&#45;&gt;node66 -->
<g id="edge74" class="edge">
<title>node64&#45;&gt;node66</title>
<path fill="none" stroke="#da2d4f" stroke-width="2" d="M877.51,-427.97C895.44,-410.53 923.48,-383.26 943.8,-363.51"/>
<polygon fill="#da2d4f" stroke="#da2d4f" stroke-width="2" points="946.44,-365.82 951.17,-356.34 941.56,-360.8 946.44,-365.82"/>
</g>
<!-- node69 -->
<g id="node51" class="node">
<title>node69</title>
<polygon fill="#e98693" stroke="black" points="1016.5,-283 957.5,-283 957.5,-247 1016.5,-247 1016.5,-283"/>
<text text-anchor="middle" x="987" y="-261.3" font-family="Arial" font-size="14.00" fill="#1a1919">69 End</text>
</g>
<!-- node66&#45;&gt;node69 -->
<g id="edge76" class="edge">
<title>node66&#45;&gt;node69</title>
<path fill="none" stroke="#da2d4f" stroke-width="2" d="M973.36,-319.81C975.41,-311.7 977.91,-301.84 980.21,-292.78"/>
<polygon fill="#da2d4f" stroke="#da2d4f" stroke-width="2" points="983.62,-293.58 982.68,-283.03 976.83,-291.86 983.62,-293.58"/>
</g>
<!-- node68 -->
<g id="node50" class="node">
<title>node68</title>
<polygon fill="#e98693" stroke="black" points="1085,-196 1011,-196 1011,-160 1085,-160 1085,-196"/>
<text text-anchor="middle" x="1048" y="-174.3" font-family="Arial" font-size="14.00" fill="#1a1919">68 Merge</text>
</g>
<!-- node67&#45;&gt;node68 -->
<g id="edge77" class="edge">
<title>node67&#45;&gt;node68</title>
<path fill="none" stroke="#da2d4f" stroke-width="2" d="M1057.18,-373.65C1055.45,-336.83 1051.38,-250.64 1049.29,-206.34"/>
<polygon fill="#da2d4f" stroke="#da2d4f" stroke-width="2" points="1052.78,-206.12 1048.82,-196.29 1045.79,-206.45 1052.78,-206.12"/>
</g>
<!-- node68&#45;&gt;node71 -->
<g id="edge79" class="edge">
<title>node68&#45;&gt;node71</title>
<path fill="none" stroke="#da2d4f" stroke-width="2" d="M1058.17,-159.81C1063.12,-151.44 1069.18,-141.2 1074.68,-131.9"/>
<polygon fill="#da2d4f" stroke="#da2d4f" stroke-width="2" points="1077.85,-133.42 1079.93,-123.03 1071.82,-129.85 1077.85,-133.42"/>
</g>
<!-- node69&#45;&gt;node68 -->
<g id="edge78" class="edge">
<title>node69&#45;&gt;node68</title>
<path fill="none" stroke="#da2d4f" stroke-width="2" d="M999.34,-246.8C1008.03,-234.7 1019.79,-218.3 1029.58,-204.67"/>
<polygon fill="#da2d4f" stroke="#da2d4f" stroke-width="2" points="1032.69,-206.34 1035.67,-196.18 1027,-202.26 1032.69,-206.34"/>
</g>
</g>
</svg>
