<?xml version="1.0" encoding="UTF-8" standalone="no"?>
<!DOCTYPE svg PUBLIC "-//W3C//DTD SVG 1.1//EN"
 "http://www.w3.org/Graphics/SVG/1.1/DTD/svg11.dtd">
<!-- Generated by graphviz version 2.43.0 (0)
 -->
<!-- Title: G Pages: 1 -->
<svg width="494pt" height="639pt"
 viewBox="0.00 0.00 493.50 639.00" xmlns="http://www.w3.org/2000/svg" xmlns:xlink="http://www.w3.org/1999/xlink">
<g id="graph0" class="graph" transform="scale(1 1) rotate(0) translate(4 635)">
<title>G</title>
<polygon fill="white" stroke="transparent" points="-4,4 -4,-635 489.5,-635 489.5,4 -4,4"/>
<!-- node5 -->
<g id="node1" class="node">
<title>node5</title>
<polygon fill="#e98693" stroke="black" points="294,-370 202,-370 202,-334 294,-334 294,-370"/>
<text text-anchor="middle" x="248" y="-348.3" font-family="Arial" font-size="14.00" fill="#1a1919">5 LoopBegin</text>
</g>
<!-- node19 -->
<g id="node4" class="node">
<title>node19</title>
<polygon fill="#e98693" stroke="black" points="211,-123 157,-123 157,-87 211,-87 211,-123"/>
<text text-anchor="middle" x="184" y="-101.3" font-family="Arial" font-size="14.00" fill="#1a1919">19 If</text>
</g>
<!-- node5&#45;&gt;node19 -->
<g id="edge1" class="edge">
<title>node5&#45;&gt;node19</title>
<path fill="none" stroke="#da2d4f" stroke-width="2" d="M246.59,-333.78C243.6,-301.69 235.37,-230.85 217,-174 212.34,-159.57 205.16,-144.32 198.69,-131.92"/>
<polygon fill="#da2d4f" stroke="#da2d4f" stroke-width="2" points="201.75,-130.21 193.93,-123.05 195.58,-133.52 201.75,-130.21"/>
</g>
<!-- node22 -->
<g id="node6" class="node">
<title>node22</title>
<polygon fill="#e98693" stroke="black" points="330.5,-36 241.5,-36 241.5,0 330.5,0 330.5,-36"/>
<text text-anchor="middle" x="286" y="-14.3" font-family="Arial" font-size="14.00" fill="#1a1919">22 LoopEnd</text>
</g>
<!-- node5&#45;&gt;node22 -->
<g id="edge7" class="edge">
<title>node5&#45;&gt;node22</title>
<path fill="none" stroke="#da2d4f" stroke-width="4" d="M269.26,-325.67C277.95,-312.82 286,-296.47 286,-280 286,-280 286,-280 286,-104 286,-80.54 286,-53.43 286,-36.26"/>
<polygon fill="#da2d4f" stroke="#da2d4f" stroke-width="4" points="266.28,-323.82 263.24,-333.96 271.95,-327.93 266.28,-323.82"/>
</g>
<!-- node35 -->
<g id="node11" class="node">
<title>node35</title>
<polygon fill="#f9f9f9" stroke="black" points="200,-297 146,-297 146,-261 200,-261 200,-297"/>
<text text-anchor="middle" x="173" y="-275.3" font-family="Arial" font-size="14.00" fill="#1a1919">35 ϕ</text>
</g>
<!-- node5&#45;&gt;node35 -->
<g id="edge13" class="edge">
<title>node5&#45;&gt;node35</title>
<path fill="none" stroke="#343d46" stroke-dasharray="5,2" d="M222.28,-326.65C211.98,-316.9 200.36,-305.9 190.99,-297.03"/>
<polygon fill="#343d46" stroke="#343d46" points="220.18,-329.48 229.84,-333.81 224.99,-324.4 220.18,-329.48"/>
</g>
<!-- node15 -->
<g id="node2" class="node">
<title>node15</title>
<polygon fill="#3cb4a4" stroke="black" points="69,-210 28.61,-192 69,-174 109.39,-192 69,-210"/>
<text text-anchor="middle" x="69" y="-188.3" font-family="Arial" font-size="14.00" fill="#1a1919">15 &lt;</text>
</g>
<!-- node15&#45;&gt;node19 -->
<g id="edge4" class="edge">
<title>node15&#45;&gt;node19</title>
<path fill="none" stroke="#3cb4a4" d="M83.56,-180.23C100.82,-167.48 130.07,-145.86 152.56,-129.24"/>
<polygon fill="#3cb4a4" stroke="#3cb4a4" points="154.85,-131.9 160.81,-123.14 150.69,-126.27 154.85,-131.9"/>
<text text-anchor="middle" x="138" y="-144.8" font-family="arial" font-size="14.00" fill="#3cb4a4">?</text>
</g>
<!-- node17 -->
<g id="node3" class="node">
<title>node17</title>
<polygon fill="#e98693" stroke="black" points="223.5,-36 50.5,-36 50.5,0 223.5,0 223.5,-36"/>
<text text-anchor="middle" x="137" y="-14.3" font-family="Arial" font-size="14.00" fill="#1a1919">17 Deopt UnreachedCode</text>
</g>
<!-- node19&#45;&gt;node17 -->
<g id="edge18" class="edge">
<title>node19&#45;&gt;node17</title>
<path fill="none" stroke="#da2d4f" stroke-width="2" d="M174.49,-86.8C167.86,-74.82 158.91,-58.62 151.41,-45.06"/>
<polygon fill="#da2d4f" stroke="#da2d4f" stroke-width="2" points="154.4,-43.23 146.5,-36.18 148.27,-46.62 154.4,-43.23"/>
<text text-anchor="middle" x="167.5" y="-57.8" font-family="arial" font-size="14.00" fill="#da2d4f">T</text>
</g>
<!-- node19&#45;&gt;node22 -->
<g id="edge17" class="edge">
<title>node19&#45;&gt;node22</title>
<path fill="none" stroke="#da2d4f" stroke-width="2" d="M204.64,-86.8C219.85,-74.13 240.72,-56.73 257.51,-42.74"/>
<polygon fill="#da2d4f" stroke="#da2d4f" stroke-width="2" points="259.95,-45.27 265.39,-36.18 255.47,-39.89 259.95,-45.27"/>
<text text-anchor="middle" x="245.5" y="-57.8" font-family="arial" font-size="14.00" fill="#da2d4f">F</text>
</g>
<!-- node21 -->
<g id="node5" class="node">
<title>node21</title>
<polygon fill="#3cb4a4" stroke="black" points="168,-210 127.61,-192 168,-174 208.39,-192 168,-210"/>
<text text-anchor="middle" x="168" y="-188.3" font-family="Arial" font-size="14.00" fill="#1a1919">21 +</text>
</g>
<!-- node21&#45;&gt;node35 -->
<g id="edge15" class="edge">
<title>node21&#45;&gt;node35</title>
<path fill="none" stroke="#3cb4a4" d="M159.76,-206.52C154.67,-216.54 149.7,-230.56 153,-243 153.8,-246.01 154.93,-249.04 156.25,-251.98"/>
<polygon fill="#3cb4a4" stroke="#3cb4a4" points="153.2,-253.72 160.93,-260.97 159.41,-250.49 153.2,-253.72"/>
<text text-anchor="middle" x="176.5" y="-231.8" font-family="arial" font-size="14.00" fill="#3cb4a4">from 22</text>
</g>
<!-- node27 -->
<g id="node7" class="node">
<title>node27</title>
<polygon fill="#3cb4a4" stroke="black" points="383,-544 342.61,-526 383,-508 423.39,-526 383,-544"/>
<text text-anchor="middle" x="383" y="-522.3" font-family="Arial" font-size="14.00" fill="#1a1919">27 &lt;</text>
</g>
<!-- node31 -->
<g id="node9" class="node">
<title>node31</title>
<polygon fill="#e98693" stroke="black" points="321,-457 267,-457 267,-421 321,-421 321,-457"/>
<text text-anchor="middle" x="294" y="-435.3" font-family="Arial" font-size="14.00" fill="#1a1919">31 If</text>
</g>
<!-- node27&#45;&gt;node31 -->
<g id="edge10" class="edge">
<title>node27&#45;&gt;node31</title>
<path fill="none" stroke="#3cb4a4" d="M370.62,-513.18C357.45,-500.6 336.24,-480.34 319.47,-464.33"/>
<polygon fill="#3cb4a4" stroke="#3cb4a4" points="321.77,-461.69 312.12,-457.31 316.94,-466.75 321.77,-461.69"/>
<text text-anchor="middle" x="347" y="-478.8" font-family="arial" font-size="14.00" fill="#3cb4a4">?</text>
</g>
<!-- node29 -->
<g id="node8" class="node">
<title>node29</title>
<polygon fill="#e98693" stroke="black" points="485.5,-370 312.5,-370 312.5,-334 485.5,-334 485.5,-370"/>
<text text-anchor="middle" x="399" y="-348.3" font-family="Arial" font-size="14.00" fill="#1a1919">29 Deopt UnreachedCode</text>
</g>
<!-- node31&#45;&gt;node5 -->
<g id="edge20" class="edge">
<title>node31&#45;&gt;node5</title>
<path fill="none" stroke="#da2d4f" stroke-width="2" d="M284.69,-420.8C278.21,-408.82 269.44,-392.62 262.1,-379.06"/>
<polygon fill="#da2d4f" stroke="#da2d4f" stroke-width="2" points="265.13,-377.3 257.29,-370.18 258.98,-380.64 265.13,-377.3"/>
<text text-anchor="middle" x="277.5" y="-391.8" font-family="arial" font-size="14.00" fill="#da2d4f">F</text>
</g>
<!-- node31&#45;&gt;node29 -->
<g id="edge19" class="edge">
<title>node31&#45;&gt;node29</title>
<path fill="none" stroke="#da2d4f" stroke-width="2" d="M315.25,-420.8C330.9,-408.13 352.39,-390.73 369.68,-376.74"/>
<polygon fill="#da2d4f" stroke="#da2d4f" stroke-width="2" points="372.21,-379.19 377.78,-370.18 367.81,-373.75 372.21,-379.19"/>
<text text-anchor="middle" x="356.5" y="-391.8" font-family="arial" font-size="14.00" fill="#da2d4f">T</text>
</g>
<!-- node32 -->
<g id="node10" class="node">
<title>node32</title>
<polygon fill="#3cb4a4" stroke="black" points="173,-544 132.61,-526 173,-508 213.39,-526 173,-544"/>
<text text-anchor="middle" x="173" y="-522.3" font-family="Arial" font-size="14.00" fill="#1a1919">32 +</text>
</g>
<!-- node32&#45;&gt;node35 -->
<g id="edge14" class="edge">
<title>node32&#45;&gt;node35</title>
<path fill="none" stroke="#3cb4a4" d="M173,-507.77C173,-465.86 173,-358.31 173,-307.44"/>
<polygon fill="#3cb4a4" stroke="#3cb4a4" points="176.5,-307.21 173,-297.21 169.5,-307.21 176.5,-307.21"/>
<text text-anchor="middle" x="193" y="-391.8" font-family="arial" font-size="14.00" fill="#3cb4a4">from 4</text>
</g>
<!-- node35&#45;&gt;node15 -->
<g id="edge2" class="edge">
<title>node35&#45;&gt;node15</title>
<path fill="none" stroke="#3cb4a4" d="M151.95,-260.8C134.2,-246.29 108.89,-225.6 90.9,-210.9"/>
<polygon fill="#3cb4a4" stroke="#3cb4a4" points="92.68,-207.83 82.72,-204.22 88.25,-213.25 92.68,-207.83"/>
<text text-anchor="middle" x="131.5" y="-231.8" font-family="arial" font-size="14.00" fill="#3cb4a4">x</text>
</g>
<!-- node35&#45;&gt;node21 -->
<g id="edge5" class="edge">
<title>node35&#45;&gt;node21</title>
<path fill="none" stroke="#3cb4a4" d="M193.58,-260.68C202.04,-251.37 208.85,-239.48 204,-228 201.17,-221.31 196.37,-215.27 191.19,-210.16"/>
<polygon fill="#3cb4a4" stroke="#3cb4a4" points="193.31,-207.36 183.49,-203.38 188.68,-212.62 193.31,-207.36"/>
<text text-anchor="middle" x="208.5" y="-231.8" font-family="arial" font-size="14.00" fill="#3cb4a4">x</text>
</g>
<!-- node36 -->
<g id="node12" class="node">
<title>node36</title>
<polygon fill="#f9f9f9" stroke="black" points="325,-544 231,-544 231,-508 325,-508 325,-544"/>
<text text-anchor="middle" x="278" y="-522.3" font-family="Arial" font-size="14.00" fill="#1a1919">36 OSRStart</text>
</g>
<!-- node36&#45;&gt;node31 -->
<g id="edge16" class="edge">
<title>node36&#45;&gt;node31</title>
<path fill="none" stroke="#da2d4f" stroke-width="2" d="M281.24,-507.8C283.43,-496.16 286.37,-480.55 288.87,-467.24"/>
<polygon fill="#da2d4f" stroke="#da2d4f" stroke-width="2" points="292.36,-467.65 290.77,-457.18 285.48,-466.36 292.36,-467.65"/>
</g>
<!-- node37 -->
<g id="node13" class="node">
<title>node37</title>
<polygon fill="#f9f9f9" stroke="black" points="335,-631 221,-631 221,-595 335,-595 335,-631"/>
<text text-anchor="middle" x="278" y="-609.3" font-family="Arial" font-size="14.00" fill="#1a1919">37 OSRLocal(0)</text>
</g>
<!-- node37&#45;&gt;node27 -->
<g id="edge8" class="edge">
<title>node37&#45;&gt;node27</title>
<path fill="none" stroke="#3cb4a4" d="M299.25,-594.8C317.27,-580.21 343.02,-559.36 361.2,-544.65"/>
<polygon fill="#3cb4a4" stroke="#3cb4a4" points="363.88,-546.98 369.45,-537.97 359.48,-541.54 363.88,-546.98"/>
<text text-anchor="middle" x="339.5" y="-565.8" font-family="arial" font-size="14.00" fill="#3cb4a4">x</text>
</g>
<!-- node37&#45;&gt;node32 -->
<g id="edge11" class="edge">
<title>node37&#45;&gt;node32</title>
<path fill="none" stroke="#3cb4a4" d="M256.75,-594.8C238.73,-580.21 212.98,-559.36 194.8,-544.65"/>
<polygon fill="#3cb4a4" stroke="#3cb4a4" points="196.52,-541.54 186.55,-537.97 192.12,-546.98 196.52,-541.54"/>
<text text-anchor="middle" x="234.5" y="-565.8" font-family="arial" font-size="14.00" fill="#3cb4a4">x</text>
</g>
<!-- inline14x15 -->
<g id="node14" class="node">
<title>inline14x15</title>
<ellipse fill="#d7ede7" stroke="black" cx="27" cy="-279" rx="27" ry="18"/>
<text text-anchor="middle" x="27" y="-277.1" font-family="Arial" font-size="8.00" fill="#1a1919">14 C(1)</text>
</g>
<!-- inline14x15&#45;&gt;node15 -->
<g id="edge3" class="edge">
<title>inline14x15&#45;&gt;node15</title>
<path fill="none" stroke="#3cb4a4" d="M35.1,-261.61C42.92,-245.79 54.63,-222.08 62.04,-207.08"/>
<text text-anchor="middle" x="53" y="-233.6" font-family="arial" font-size="8.00" fill="#3cb4a4">y</text>
</g>
<!-- inline20x21 -->
<g id="node15" class="node">
<title>inline20x21</title>
<ellipse fill="#d7ede7" stroke="black" cx="99" cy="-279" rx="27" ry="18"/>
<text text-anchor="middle" x="99" y="-277.1" font-family="Arial" font-size="8.00" fill="#1a1919">20 C(&#45;1)</text>
</g>
<!-- inline20x21&#45;&gt;node21 -->
<g id="edge6" class="edge">
<title>inline20x21&#45;&gt;node21</title>
<path fill="none" stroke="#3cb4a4" d="M97.33,-260.91C97.17,-250.57 98.56,-237.58 105,-228 114.35,-214.08 131.17,-205.15 145.08,-199.79"/>
<text text-anchor="middle" x="107" y="-233.6" font-family="arial" font-size="8.00" fill="#3cb4a4">y</text>
</g>
<!-- inline14x27 -->
<g id="node16" class="node">
<title>inline14x27</title>
<ellipse fill="#d7ede7" stroke="black" cx="383" cy="-613" rx="27" ry="18"/>
<text text-anchor="middle" x="383" y="-611.1" font-family="Arial" font-size="8.00" fill="#1a1919">14 C(1)</text>
</g>
<!-- inline14x27&#45;&gt;node27 -->
<g id="edge9" class="edge">
<title>inline14x27&#45;&gt;node27</title>
<path fill="none" stroke="#3cb4a4" d="M383,-594.8C383,-580.05 383,-558.92 383,-544.18"/>
<text text-anchor="middle" x="385" y="-567.6" font-family="arial" font-size="8.00" fill="#3cb4a4">y</text>
</g>
<!-- inline20x32 -->
<g id="node17" class="node">
<title>inline20x32</title>
<ellipse fill="#d7ede7" stroke="black" cx="173" cy="-613" rx="27" ry="18"/>
<text text-anchor="middle" x="173" y="-611.1" font-family="Arial" font-size="8.00" fill="#1a1919">20 C(&#45;1)</text>
</g>
<!-- inline20x32&#45;&gt;node32 -->
<g id="edge12" class="edge">
<title>inline20x32&#45;&gt;node32</title>
<path fill="none" stroke="#3cb4a4" d="M173,-594.8C173,-580.05 173,-558.92 173,-544.18"/>
<text text-anchor="middle" x="175" y="-567.6" font-family="arial" font-size="8.00" fill="#3cb4a4">y</text>
</g>
</g>
</svg>
