<?xml version="1.0" encoding="UTF-8" standalone="no"?>
<!DOCTYPE svg PUBLIC "-//W3C//DTD SVG 1.1//EN"
 "http://www.w3.org/Graphics/SVG/1.1/DTD/svg11.dtd">
<!-- Generated by graphviz version 2.43.0 (0)
 -->
<!-- Title: G Pages: 1 -->
<svg width="425pt" height="639pt"
 viewBox="0.00 0.00 425.00 639.00" xmlns="http://www.w3.org/2000/svg" xmlns:xlink="http://www.w3.org/1999/xlink">
<g id="graph0" class="graph" transform="scale(1 1) rotate(0) translate(4 635)">
<title>G</title>
<polygon fill="white" stroke="transparent" points="-4,4 -4,-635 421,-635 421,4 -4,4"/>
<!-- node5 -->
<g id="node1" class="node">
<title>node5</title>
<polygon fill="#e98693" stroke="black" points="313,-370 221,-370 221,-334 313,-334 313,-370"/>
<text text-anchor="middle" x="267" y="-348.3" font-family="Arial" font-size="14.00" fill="#1a1919">5 LoopBegin</text>
</g>
<!-- node19 -->
<g id="node4" class="node">
<title>node19</title>
<polygon fill="#e98693" stroke="black" points="211,-123 157,-123 157,-87 211,-87 211,-123"/>
<text text-anchor="middle" x="184" y="-101.3" font-family="Arial" font-size="14.00" fill="#1a1919">19 If</text>
</g>
<!-- node5&#45;&gt;node19 -->
<g id="edge1" class="edge">
<title>node5&#45;&gt;node19</title>
<path fill="none" stroke="#da2d4f" stroke-width="2" d="M263.22,-333.84C255.94,-301.84 238.75,-231.15 217,-174 211.61,-159.83 204.36,-144.6 198.03,-132.15"/>
<polygon fill="#da2d4f" stroke="#da2d4f" stroke-width="2" points="201.12,-130.51 193.42,-123.24 194.91,-133.73 201.12,-130.51"/>
</g>
<!-- node22 -->
<g id="node6" class="node">
<title>node22</title>
<polygon fill="#e98693" stroke="black" points="330.5,-36 241.5,-36 241.5,0 330.5,0 330.5,-36"/>
<text text-anchor="middle" x="286" y="-14.3" font-family="Arial" font-size="14.00" fill="#1a1919">22 LoopEnd</text>
</g>
<!-- node5&#45;&gt;node22 -->
<g id="edge7" class="edge">
<title>node5&#45;&gt;node22</title>
<path fill="none" stroke="#da2d4f" stroke-width="4" d="M277.75,-324.07C282.05,-310.98 286,-294.9 286,-280 286,-280 286,-280 286,-104 286,-80.54 286,-53.43 286,-36.26"/>
<polygon fill="#da2d4f" stroke="#da2d4f" stroke-width="4" points="274.33,-323.24 274.29,-333.84 280.92,-325.57 274.33,-323.24"/>
</g>
<!-- node35 -->
<g id="node9" class="node">
<title>node35</title>
<polygon fill="#f9f9f9" stroke="black" points="198,-297 144,-297 144,-261 198,-261 198,-297"/>
<text text-anchor="middle" x="171" y="-275.3" font-family="Arial" font-size="14.00" fill="#1a1919">35 ϕ</text>
</g>
<!-- node5&#45;&gt;node35 -->
<g id="edge12" class="edge">
<title>node5&#45;&gt;node35</title>
<path fill="none" stroke="#343d46" stroke-dasharray="5,2" d="M235.63,-327.8C222.07,-317.77 206.49,-306.25 194.02,-297.03"/>
<polygon fill="#343d46" stroke="#343d46" points="233.64,-330.68 243.76,-333.81 237.8,-325.05 233.64,-330.68"/>
</g>
<!-- node15 -->
<g id="node2" class="node">
<title>node15</title>
<polygon fill="#3cb4a4" stroke="black" points="69,-210 28.61,-192 69,-174 109.39,-192 69,-210"/>
<text text-anchor="middle" x="69" y="-188.3" font-family="Arial" font-size="14.00" fill="#1a1919">15 &lt;</text>
</g>
<!-- node15&#45;&gt;node19 -->
<g id="edge4" class="edge">
<title>node15&#45;&gt;node19</title>
<path fill="none" stroke="#3cb4a4" d="M83.56,-180.23C100.82,-167.48 130.07,-145.86 152.56,-129.24"/>
<polygon fill="#3cb4a4" stroke="#3cb4a4" points="154.85,-131.9 160.81,-123.14 150.69,-126.27 154.85,-131.9"/>
<text text-anchor="middle" x="138" y="-144.8" font-family="arial" font-size="14.00" fill="#3cb4a4">?</text>
</g>
<!-- node17 -->
<g id="node3" class="node">
<title>node17</title>
<polygon fill="#e98693" stroke="black" points="223.5,-36 50.5,-36 50.5,0 223.5,0 223.5,-36"/>
<text text-anchor="middle" x="137" y="-14.3" font-family="Arial" font-size="14.00" fill="#1a1919">17 Deopt UnreachedCode</text>
</g>
<!-- node19&#45;&gt;node17 -->
<g id="edge19" class="edge">
<title>node19&#45;&gt;node17</title>
<path fill="none" stroke="#da2d4f" stroke-width="2" d="M174.49,-86.8C167.86,-74.82 158.91,-58.62 151.41,-45.06"/>
<polygon fill="#da2d4f" stroke="#da2d4f" stroke-width="2" points="154.4,-43.23 146.5,-36.18 148.27,-46.62 154.4,-43.23"/>
<text text-anchor="middle" x="167.5" y="-57.8" font-family="arial" font-size="14.00" fill="#da2d4f">T</text>
</g>
<!-- node19&#45;&gt;node22 -->
<g id="edge18" class="edge">
<title>node19&#45;&gt;node22</title>
<path fill="none" stroke="#da2d4f" stroke-width="2" d="M204.64,-86.8C219.85,-74.13 240.72,-56.73 257.51,-42.74"/>
<polygon fill="#da2d4f" stroke="#da2d4f" stroke-width="2" points="259.95,-45.27 265.39,-36.18 255.47,-39.89 259.95,-45.27"/>
<text text-anchor="middle" x="245.5" y="-57.8" font-family="arial" font-size="14.00" fill="#da2d4f">F</text>
</g>
<!-- node21 -->
<g id="node5" class="node">
<title>node21</title>
<polygon fill="#3cb4a4" stroke="black" points="168,-210 127.61,-192 168,-174 208.39,-192 168,-210"/>
<text text-anchor="middle" x="168" y="-188.3" font-family="Arial" font-size="14.00" fill="#1a1919">21 +</text>
</g>
<!-- node21&#45;&gt;node35 -->
<g id="edge14" class="edge">
<title>node21&#45;&gt;node35</title>
<path fill="none" stroke="#3cb4a4" d="M159.92,-206.47C154.92,-216.48 149.97,-230.49 153,-243 153.69,-245.86 154.66,-248.76 155.8,-251.59"/>
<polygon fill="#3cb4a4" stroke="#3cb4a4" points="152.72,-253.26 160.12,-260.83 159.06,-250.29 152.72,-253.26"/>
<text text-anchor="middle" x="176.5" y="-231.8" font-family="arial" font-size="14.00" fill="#3cb4a4">from 22</text>
</g>
<!-- node27 -->
<g id="node7" class="node">
<title>node27</title>
<polygon fill="#3cb4a4" stroke="black" points="369,-544 328.61,-526 369,-508 409.39,-526 369,-544"/>
<text text-anchor="middle" x="369" y="-522.3" font-family="Arial" font-size="14.00" fill="#1a1919">27 &lt;</text>
</g>
<!-- node38 -->
<g id="node12" class="node">
<title>node38</title>
<polygon fill="#ffa500" stroke="black" points="417,-457 187,-457 187,-421 417,-421 417,-457"/>
<text text-anchor="middle" x="302" y="-435.3" font-family="Arial" font-size="14.00" fill="#1a1919">38 Guard not, else UnreachedCode</text>
</g>
<!-- node27&#45;&gt;node38 -->
<g id="edge16" class="edge">
<title>node27&#45;&gt;node38</title>
<path fill="none" stroke="#3cb4a4" d="M358.82,-512.09C349.06,-499.71 334.06,-480.67 321.92,-465.27"/>
<polygon fill="#3cb4a4" stroke="#3cb4a4" points="324.46,-462.84 315.52,-457.15 318.96,-467.17 324.46,-462.84"/>
<text text-anchor="middle" x="343" y="-478.8" font-family="arial" font-size="14.00" fill="#3cb4a4">?</text>
</g>
<!-- node32 -->
<g id="node8" class="node">
<title>node32</title>
<polygon fill="#3cb4a4" stroke="black" points="159,-544 118.61,-526 159,-508 199.39,-526 159,-544"/>
<text text-anchor="middle" x="159" y="-522.3" font-family="Arial" font-size="14.00" fill="#1a1919">32 +</text>
</g>
<!-- node32&#45;&gt;node35 -->
<g id="edge13" class="edge">
<title>node32&#45;&gt;node35</title>
<path fill="none" stroke="#3cb4a4" d="M159.82,-508.16C161.86,-466.56 167.15,-358.63 169.65,-307.56"/>
<polygon fill="#3cb4a4" stroke="#3cb4a4" points="173.16,-307.44 170.15,-297.28 166.17,-307.1 173.16,-307.44"/>
<text text-anchor="middle" x="185" y="-391.8" font-family="arial" font-size="14.00" fill="#3cb4a4">from 4</text>
</g>
<!-- node35&#45;&gt;node15 -->
<g id="edge2" class="edge">
<title>node35&#45;&gt;node15</title>
<path fill="none" stroke="#3cb4a4" d="M150.36,-260.8C132.95,-246.29 108.12,-225.6 90.48,-210.9"/>
<polygon fill="#3cb4a4" stroke="#3cb4a4" points="92.38,-207.93 82.46,-204.22 87.9,-213.31 92.38,-207.93"/>
<text text-anchor="middle" x="130.5" y="-231.8" font-family="arial" font-size="14.00" fill="#3cb4a4">x</text>
</g>
<!-- node35&#45;&gt;node21 -->
<g id="edge5" class="edge">
<title>node35&#45;&gt;node21</title>
<path fill="none" stroke="#3cb4a4" d="M192.72,-260.85C201.68,-251.59 208.94,-239.69 204,-228 201.17,-221.31 196.37,-215.27 191.19,-210.16"/>
<polygon fill="#3cb4a4" stroke="#3cb4a4" points="193.31,-207.36 183.49,-203.38 188.68,-212.62 193.31,-207.36"/>
<text text-anchor="middle" x="208.5" y="-231.8" font-family="arial" font-size="14.00" fill="#3cb4a4">x</text>
</g>
<!-- node36 -->
<g id="node10" class="node">
<title>node36</title>
<polygon fill="#f9f9f9" stroke="black" points="311,-544 217,-544 217,-508 311,-508 311,-544"/>
<text text-anchor="middle" x="264" y="-522.3" font-family="Arial" font-size="14.00" fill="#1a1919">36 OSRStart</text>
</g>
<!-- node36&#45;&gt;node38 -->
<g id="edge15" class="edge">
<title>node36&#45;&gt;node38</title>
<path fill="none" stroke="#da2d4f" stroke-width="2" d="M271.69,-507.8C277,-495.93 284.15,-479.93 290.18,-466.45"/>
<polygon fill="#da2d4f" stroke="#da2d4f" stroke-width="2" points="293.44,-467.73 294.32,-457.18 287.04,-464.88 293.44,-467.73"/>
</g>
<!-- node37 -->
<g id="node11" class="node">
<title>node37</title>
<polygon fill="#f9f9f9" stroke="black" points="321,-631 207,-631 207,-595 321,-595 321,-631"/>
<text text-anchor="middle" x="264" y="-609.3" font-family="Arial" font-size="14.00" fill="#1a1919">37 OSRLocal(0)</text>
</g>
<!-- node37&#45;&gt;node27 -->
<g id="edge8" class="edge">
<title>node37&#45;&gt;node27</title>
<path fill="none" stroke="#3cb4a4" d="M285.25,-594.8C303.27,-580.21 329.02,-559.36 347.2,-544.65"/>
<polygon fill="#3cb4a4" stroke="#3cb4a4" points="349.88,-546.98 355.45,-537.97 345.48,-541.54 349.88,-546.98"/>
<text text-anchor="middle" x="325.5" y="-565.8" font-family="arial" font-size="14.00" fill="#3cb4a4">x</text>
</g>
<!-- node37&#45;&gt;node32 -->
<g id="edge10" class="edge">
<title>node37&#45;&gt;node32</title>
<path fill="none" stroke="#3cb4a4" d="M242.75,-594.8C224.73,-580.21 198.98,-559.36 180.8,-544.65"/>
<polygon fill="#3cb4a4" stroke="#3cb4a4" points="182.52,-541.54 172.55,-537.97 178.12,-546.98 182.52,-541.54"/>
<text text-anchor="middle" x="220.5" y="-565.8" font-family="arial" font-size="14.00" fill="#3cb4a4">x</text>
</g>
<!-- node38&#45;&gt;node5 -->
<g id="edge17" class="edge">
<title>node38&#45;&gt;node5</title>
<path fill="none" stroke="#da2d4f" stroke-width="2" d="M294.92,-420.8C290.03,-408.93 283.44,-392.93 277.89,-379.45"/>
<polygon fill="#da2d4f" stroke="#da2d4f" stroke-width="2" points="281.12,-378.09 274.07,-370.18 274.64,-380.75 281.12,-378.09"/>
</g>
<!-- inline14x15 -->
<g id="node13" class="node">
<title>inline14x15</title>
<ellipse fill="#d7ede7" stroke="black" cx="27" cy="-279" rx="27" ry="18"/>
<text text-anchor="middle" x="27" y="-277.1" font-family="Arial" font-size="8.00" fill="#1a1919">14 C(1)</text>
</g>
<!-- inline14x15&#45;&gt;node15 -->
<g id="edge3" class="edge">
<title>inline14x15&#45;&gt;node15</title>
<path fill="none" stroke="#3cb4a4" d="M35.1,-261.61C42.92,-245.79 54.63,-222.08 62.04,-207.08"/>
<text text-anchor="middle" x="53" y="-233.6" font-family="arial" font-size="8.00" fill="#3cb4a4">y</text>
</g>
<!-- inline20x21 -->
<g id="node14" class="node">
<title>inline20x21</title>
<ellipse fill="#d7ede7" stroke="black" cx="99" cy="-279" rx="27" ry="18"/>
<text text-anchor="middle" x="99" y="-277.1" font-family="Arial" font-size="8.00" fill="#1a1919">20 C(&#45;1)</text>
</g>
<!-- inline20x21&#45;&gt;node21 -->
<g id="edge6" class="edge">
<title>inline20x21&#45;&gt;node21</title>
<path fill="none" stroke="#3cb4a4" d="M97.33,-260.91C97.17,-250.57 98.56,-237.58 105,-228 114.35,-214.08 131.17,-205.15 145.08,-199.79"/>
<text text-anchor="middle" x="107" y="-233.6" font-family="arial" font-size="8.00" fill="#3cb4a4">y</text>
</g>
<!-- inline14x27 -->
<g id="node15" class="node">
<title>inline14x27</title>
<ellipse fill="#d7ede7" stroke="black" cx="369" cy="-613" rx="27" ry="18"/>
<text text-anchor="middle" x="369" y="-611.1" font-family="Arial" font-size="8.00" fill="#1a1919">14 C(1)</text>
</g>
<!-- inline14x27&#45;&gt;node27 -->
<g id="edge9" class="edge">
<title>inline14x27&#45;&gt;node27</title>
<path fill="none" stroke="#3cb4a4" d="M369,-594.8C369,-580.05 369,-558.92 369,-544.18"/>
<text text-anchor="middle" x="371" y="-567.6" font-family="arial" font-size="8.00" fill="#3cb4a4">y</text>
</g>
<!-- inline20x32 -->
<g id="node16" class="node">
<title>inline20x32</title>
<ellipse fill="#d7ede7" stroke="black" cx="159" cy="-613" rx="27" ry="18"/>
<text text-anchor="middle" x="159" y="-611.1" font-family="Arial" font-size="8.00" fill="#1a1919">20 C(&#45;1)</text>
</g>
<!-- inline20x32&#45;&gt;node32 -->
<g id="edge11" class="edge">
<title>inline20x32&#45;&gt;node32</title>
<path fill="none" stroke="#3cb4a4" d="M159,-594.8C159,-580.05 159,-558.92 159,-544.18"/>
<text text-anchor="middle" x="161" y="-567.6" font-family="arial" font-size="8.00" fill="#3cb4a4">y</text>
</g>
</g>
</svg>
