<?xml version="1.0" encoding="UTF-8" standalone="no"?>
<!DOCTYPE svg PUBLIC "-//W3C//DTD SVG 1.1//EN"
 "http://www.w3.org/Graphics/SVG/1.1/DTD/svg11.dtd">
<!-- Generated by graphviz version 2.43.0 (0)
 -->
<!-- Title: G Pages: 1 -->
<svg width="611pt" height="479pt"
 viewBox="0.00 0.00 610.50 479.00" xmlns="http://www.w3.org/2000/svg" xmlns:xlink="http://www.w3.org/1999/xlink">
<g id="graph0" class="graph" transform="scale(1 1) rotate(0) translate(4 475)">
<title>G</title>
<polygon fill="white" stroke="transparent" points="-4,4 -4,-475 606.5,-475 606.5,4 -4,4"/>
<!-- node5 -->
<g id="node1" class="node">
<title>node5</title>
<polygon fill="#e98693" stroke="black" points="239.5,-384 147.5,-384 147.5,-348 239.5,-348 239.5,-384"/>
<text text-anchor="middle" x="193.5" y="-362.3" font-family="Arial" font-size="14.00" fill="#1a1919">5 LoopBegin</text>
</g>
<!-- node19 -->
<g id="node4" class="node">
<title>node19</title>
<polygon fill="#e98693" stroke="black" points="173.5,-123 119.5,-123 119.5,-87 173.5,-87 173.5,-123"/>
<text text-anchor="middle" x="146.5" y="-101.3" font-family="Arial" font-size="14.00" fill="#1a1919">19 If</text>
</g>
<!-- node5&#45;&gt;node19 -->
<g id="edge1" class="edge">
<title>node5&#45;&gt;node19</title>
<path fill="none" stroke="#da2d4f" stroke-width="2" d="M190.92,-347.83C185.83,-314.31 173.89,-237.87 161.5,-174 158.87,-160.46 155.61,-145.49 152.8,-133.05"/>
<polygon fill="#da2d4f" stroke="#da2d4f" stroke-width="2" points="156.21,-132.25 150.57,-123.28 149.38,-133.81 156.21,-132.25"/>
</g>
<!-- node22 -->
<g id="node6" class="node">
<title>node22</title>
<polygon fill="#e98693" stroke="black" points="89,-36 0,-36 0,0 89,0 89,-36"/>
<text text-anchor="middle" x="44.5" y="-14.3" font-family="Arial" font-size="14.00" fill="#1a1919">22 LoopEnd</text>
</g>
<!-- node5&#45;&gt;node22 -->
<g id="edge7" class="edge">
<title>node5&#45;&gt;node22</title>
<path fill="none" stroke="#da2d4f" stroke-width="4" d="M137.21,-356.13C95.01,-345.9 44.5,-324.39 44.5,-280 44.5,-280 44.5,-280 44.5,-104 44.5,-80.54 44.5,-53.43 44.5,-36.26"/>
<polygon fill="#da2d4f" stroke="#da2d4f" stroke-width="4" points="136.65,-359.59 147.17,-358.38 138.19,-352.76 136.65,-359.59"/>
</g>
<!-- node35 -->
<g id="node9" class="node">
<title>node35</title>
<polygon fill="#f9f9f9" stroke="black" points="262.5,-297 208.5,-297 208.5,-261 262.5,-261 262.5,-297"/>
<text text-anchor="middle" x="235.5" y="-275.3" font-family="Arial" font-size="14.00" fill="#1a1919">35 ϕ</text>
</g>
<!-- node5&#45;&gt;node35 -->
<g id="edge12" class="edge">
<title>node5&#45;&gt;node35</title>
<path fill="none" stroke="#343d46" stroke-dasharray="5,2" d="M206.58,-338.52C213.25,-325.04 221.15,-309.04 227.01,-297.18"/>
<polygon fill="#343d46" stroke="#343d46" points="203.29,-337.28 202,-347.8 209.57,-340.38 203.29,-337.28"/>
</g>
<!-- node15 -->
<g id="node2" class="node">
<title>node15</title>
<polygon fill="#3cb4a4" stroke="black" points="112.5,-210 72.11,-192 112.5,-174 152.89,-192 112.5,-210"/>
<text text-anchor="middle" x="112.5" y="-188.3" font-family="Arial" font-size="14.00" fill="#1a1919">15 &lt;</text>
</g>
<!-- node15&#45;&gt;node19 -->
<g id="edge4" class="edge">
<title>node15&#45;&gt;node19</title>
<path fill="none" stroke="#3cb4a4" d="M118.42,-176.19C123.21,-164.21 130.09,-147.03 135.83,-132.67"/>
<polygon fill="#3cb4a4" stroke="#3cb4a4" points="139.13,-133.86 139.59,-123.27 132.63,-131.26 139.13,-133.86"/>
<text text-anchor="middle" x="135.5" y="-144.8" font-family="arial" font-size="14.00" fill="#3cb4a4">?</text>
</g>
<!-- node17 -->
<g id="node3" class="node">
<title>node17</title>
<polygon fill="#e98693" stroke="black" points="280,-36 107,-36 107,0 280,0 280,-36"/>
<text text-anchor="middle" x="193.5" y="-14.3" font-family="Arial" font-size="14.00" fill="#1a1919">17 Deopt UnreachedCode</text>
</g>
<!-- node19&#45;&gt;node17 -->
<g id="edge19" class="edge">
<title>node19&#45;&gt;node17</title>
<path fill="none" stroke="#da2d4f" stroke-width="2" d="M156.01,-86.8C162.64,-74.82 171.59,-58.62 179.09,-45.06"/>
<polygon fill="#da2d4f" stroke="#da2d4f" stroke-width="2" points="182.23,-46.62 184,-36.18 176.1,-43.23 182.23,-46.62"/>
<text text-anchor="middle" x="177" y="-57.8" font-family="arial" font-size="14.00" fill="#da2d4f">T</text>
</g>
<!-- node19&#45;&gt;node22 -->
<g id="edge18" class="edge">
<title>node19&#45;&gt;node22</title>
<path fill="none" stroke="#da2d4f" stroke-width="2" d="M125.86,-86.8C110.65,-74.13 89.78,-56.73 72.99,-42.74"/>
<polygon fill="#da2d4f" stroke="#da2d4f" stroke-width="2" points="75.03,-39.89 65.11,-36.18 70.55,-45.27 75.03,-39.89"/>
<text text-anchor="middle" x="107" y="-57.8" font-family="arial" font-size="14.00" fill="#da2d4f">F</text>
</g>
<!-- node21 -->
<g id="node5" class="node">
<title>node21</title>
<polygon fill="#3cb4a4" stroke="black" points="250.5,-210 210.11,-192 250.5,-174 290.89,-192 250.5,-210"/>
<text text-anchor="middle" x="250.5" y="-188.3" font-family="Arial" font-size="14.00" fill="#1a1919">21 +</text>
</g>
<!-- node21&#45;&gt;node35 -->
<g id="edge14" class="edge">
<title>node21&#45;&gt;node35</title>
<path fill="none" stroke="#3cb4a4" d="M247.67,-209.03C245.59,-220.8 242.72,-237.07 240.29,-250.86"/>
<polygon fill="#3cb4a4" stroke="#3cb4a4" points="236.83,-250.34 238.54,-260.8 243.72,-251.56 236.83,-250.34"/>
<text text-anchor="middle" x="267" y="-231.8" font-family="arial" font-size="14.00" fill="#3cb4a4">from 22</text>
</g>
<!-- node27 -->
<g id="node7" class="node">
<title>node27</title>
<polygon fill="#3cb4a4" stroke="black" points="492.5,-384 452.11,-366 492.5,-348 532.89,-366 492.5,-384"/>
<text text-anchor="middle" x="492.5" y="-362.3" font-family="Arial" font-size="14.00" fill="#1a1919">27 &lt;</text>
</g>
<!-- node39 -->
<g id="node12" class="node">
<title>node39</title>
<polygon fill="#ffa500" stroke="black" points="602.5,-297 372.5,-297 372.5,-261 602.5,-261 602.5,-297"/>
<text text-anchor="middle" x="487.5" y="-275.3" font-family="Arial" font-size="14.00" fill="#1a1919">39 Guard not, else UnreachedCode</text>
</g>
<!-- node27&#45;&gt;node39 -->
<g id="edge16" class="edge">
<title>node27&#45;&gt;node39</title>
<path fill="none" stroke="#3cb4a4" d="M491.51,-348.21C490.82,-336.52 489.89,-320.69 489.1,-307.22"/>
<polygon fill="#3cb4a4" stroke="#3cb4a4" points="492.58,-306.83 488.5,-297.05 485.6,-307.24 492.58,-306.83"/>
<text text-anchor="middle" x="493.5" y="-318.8" font-family="arial" font-size="14.00" fill="#3cb4a4">?</text>
</g>
<!-- node32 -->
<g id="node8" class="node">
<title>node32</title>
<polygon fill="#3cb4a4" stroke="black" points="393.5,-384 353.11,-366 393.5,-348 433.89,-366 393.5,-384"/>
<text text-anchor="middle" x="393.5" y="-362.3" font-family="Arial" font-size="14.00" fill="#1a1919">32 +</text>
</g>
<!-- node32&#45;&gt;node35 -->
<g id="edge13" class="edge">
<title>node32&#45;&gt;node35</title>
<path fill="none" stroke="#3cb4a4" d="M375.99,-355.58C350.98,-342.12 304.45,-317.09 271.82,-299.54"/>
<polygon fill="#3cb4a4" stroke="#3cb4a4" points="273.06,-296.23 262.59,-294.57 269.74,-302.39 273.06,-296.23"/>
<text text-anchor="middle" x="343.5" y="-318.8" font-family="arial" font-size="14.00" fill="#3cb4a4">from 4</text>
</g>
<!-- node35&#45;&gt;node15 -->
<g id="edge2" class="edge">
<title>node35&#45;&gt;node15</title>
<path fill="none" stroke="#3cb4a4" d="M210.61,-260.8C188.87,-245.77 157.52,-224.11 136.15,-209.35"/>
<polygon fill="#3cb4a4" stroke="#3cb4a4" points="137.88,-206.28 127.66,-203.48 133.9,-212.04 137.88,-206.28"/>
<text text-anchor="middle" x="184" y="-231.8" font-family="arial" font-size="14.00" fill="#3cb4a4">x</text>
</g>
<!-- node35&#45;&gt;node21 -->
<g id="edge5" class="edge">
<title>node35&#45;&gt;node21</title>
<path fill="none" stroke="#3cb4a4" d="M226.55,-260.65C222.72,-250.93 219.87,-238.65 223.5,-228 225.36,-222.55 228.44,-217.29 231.88,-212.58"/>
<polygon fill="#3cb4a4" stroke="#3cb4a4" points="234.65,-214.72 238.25,-204.76 229.22,-210.3 234.65,-214.72"/>
<text text-anchor="middle" x="227" y="-231.8" font-family="arial" font-size="14.00" fill="#3cb4a4">x</text>
</g>
<!-- node36 -->
<g id="node10" class="node">
<title>node36</title>
<polygon fill="#f9f9f9" stroke="black" points="294.5,-471 200.5,-471 200.5,-435 294.5,-435 294.5,-471"/>
<text text-anchor="middle" x="247.5" y="-449.3" font-family="Arial" font-size="14.00" fill="#1a1919">36 OSRStart</text>
</g>
<!-- node36&#45;&gt;node5 -->
<g id="edge17" class="edge">
<title>node36&#45;&gt;node5</title>
<path fill="none" stroke="#da2d4f" stroke-width="2" d="M236.57,-434.8C228.89,-422.7 218.47,-406.3 209.81,-392.67"/>
<polygon fill="#da2d4f" stroke="#da2d4f" stroke-width="2" points="212.73,-390.74 204.41,-384.18 206.82,-394.49 212.73,-390.74"/>
</g>
<!-- node36&#45;&gt;node39 -->
<g id="edge15" class="edge">
<title>node36&#45;&gt;node39</title>
<path fill="none" stroke="#3cb4a4" d="M252.33,-434.81C259.59,-411.94 275.43,-371.66 302.5,-348 328.07,-325.65 361.61,-310.41 393.11,-300.13"/>
<polygon fill="#3cb4a4" stroke="#3cb4a4" points="394.31,-303.42 402.8,-297.09 392.21,-296.74 394.31,-303.42"/>
<text text-anchor="middle" x="323.5" y="-362.3" font-family="arial" font-size="14.00" fill="#3cb4a4">anchor</text>
</g>
<!-- node37 -->
<g id="node11" class="node">
<title>node37</title>
<polygon fill="#f9f9f9" stroke="black" points="505.5,-471 391.5,-471 391.5,-435 505.5,-435 505.5,-471"/>
<text text-anchor="middle" x="448.5" y="-449.3" font-family="Arial" font-size="14.00" fill="#1a1919">37 OSRLocal(0)</text>
</g>
<!-- node37&#45;&gt;node27 -->
<g id="edge8" class="edge">
<title>node37&#45;&gt;node27</title>
<path fill="none" stroke="#3cb4a4" d="M457.4,-434.8C464.06,-421.95 473.22,-404.25 480.51,-390.16"/>
<polygon fill="#3cb4a4" stroke="#3cb4a4" points="483.72,-391.57 485.21,-381.08 477.51,-388.35 483.72,-391.57"/>
<text text-anchor="middle" x="476" y="-405.8" font-family="arial" font-size="14.00" fill="#3cb4a4">x</text>
</g>
<!-- node37&#45;&gt;node32 -->
<g id="edge10" class="edge">
<title>node37&#45;&gt;node32</title>
<path fill="none" stroke="#3cb4a4" d="M437.37,-434.8C428.82,-421.59 416.95,-403.25 407.72,-388.97"/>
<polygon fill="#3cb4a4" stroke="#3cb4a4" points="410.46,-386.77 402.09,-380.28 404.58,-390.57 410.46,-386.77"/>
<text text-anchor="middle" x="427" y="-405.8" font-family="arial" font-size="14.00" fill="#3cb4a4">x</text>
</g>
<!-- inline14x15 -->
<g id="node13" class="node">
<title>inline14x15</title>
<ellipse fill="#d7ede7" stroke="black" cx="112.5" cy="-279" rx="27" ry="18"/>
<text text-anchor="middle" x="112.5" y="-277.1" font-family="Arial" font-size="8.00" fill="#1a1919">14 C(1)</text>
</g>
<!-- inline14x15&#45;&gt;node15 -->
<g id="edge3" class="edge">
<title>inline14x15&#45;&gt;node15</title>
<path fill="none" stroke="#3cb4a4" d="M112.5,-260.8C112.5,-246.05 112.5,-224.92 112.5,-210.18"/>
<text text-anchor="middle" x="114.5" y="-233.6" font-family="arial" font-size="8.00" fill="#3cb4a4">y</text>
</g>
<!-- inline20x21 -->
<g id="node14" class="node">
<title>inline20x21</title>
<ellipse fill="#d7ede7" stroke="black" cx="320.5" cy="-279" rx="27" ry="18"/>
<text text-anchor="middle" x="320.5" y="-277.1" font-family="Arial" font-size="8.00" fill="#1a1919">20 C(&#45;1)</text>
</g>
<!-- inline20x21&#45;&gt;node21 -->
<g id="edge6" class="edge">
<title>inline20x21&#45;&gt;node21</title>
<path fill="none" stroke="#3cb4a4" d="M313.89,-261.19C309.37,-250.95 302.71,-237.97 294.5,-228 286.56,-218.36 275.56,-209.61 266.54,-203.27"/>
<text text-anchor="middle" x="305.5" y="-233.6" font-family="arial" font-size="8.00" fill="#3cb4a4">y</text>
</g>
<!-- inline14x27 -->
<g id="node15" class="node">
<title>inline14x27</title>
<ellipse fill="#d7ede7" stroke="black" cx="550.5" cy="-453" rx="27" ry="18"/>
<text text-anchor="middle" x="550.5" y="-451.1" font-family="Arial" font-size="8.00" fill="#1a1919">14 C(1)</text>
</g>
<!-- inline14x27&#45;&gt;node27 -->
<g id="edge9" class="edge">
<title>inline14x27&#45;&gt;node27</title>
<path fill="none" stroke="#3cb4a4" d="M539.86,-436.41C528.87,-420.31 511.91,-395.45 501.55,-380.26"/>
<text text-anchor="middle" x="526.5" y="-407.6" font-family="arial" font-size="8.00" fill="#3cb4a4">y</text>
</g>
<!-- inline20x32 -->
<g id="node16" class="node">
<title>inline20x32</title>
<ellipse fill="#d7ede7" stroke="black" cx="346.5" cy="-453" rx="27" ry="18"/>
<text text-anchor="middle" x="346.5" y="-451.1" font-family="Arial" font-size="8.00" fill="#1a1919">20 C(&#45;1)</text>
</g>
<!-- inline20x32&#45;&gt;node32 -->
<g id="edge11" class="edge">
<title>inline20x32&#45;&gt;node32</title>
<path fill="none" stroke="#3cb4a4" d="M355.56,-435.61C364.36,-419.69 377.58,-395.79 385.86,-380.81"/>
<text text-anchor="middle" x="374.5" y="-407.6" font-family="arial" font-size="8.00" fill="#3cb4a4">y</text>
</g>
</g>
</svg>
