<?xml version="1.0" encoding="UTF-8" standalone="no"?>
<!DOCTYPE svg PUBLIC "-//W3C//DTD SVG 1.1//EN"
 "http://www.w3.org/Graphics/SVG/1.1/DTD/svg11.dtd">
<!-- Generated by graphviz version 2.43.0 (0)
 -->
<!-- Title: G Pages: 1 -->
<svg width="620pt" height="880pt"
 viewBox="0.00 0.00 619.50 880.00" xmlns="http://www.w3.org/2000/svg" xmlns:xlink="http://www.w3.org/1999/xlink">
<g id="graph0" class="graph" transform="scale(1 1) rotate(0) translate(4 876)">
<title>G</title>
<polygon fill="white" stroke="transparent" points="-4,4 -4,-876 615.5,-876 615.5,4 -4,4"/>
<!-- node5 -->
<g id="node1" class="node">
<title>node5</title>
<polygon fill="#e98693" stroke="black" points="320,-443 228,-443 228,-407 320,-407 320,-443"/>
<text text-anchor="middle" x="274" y="-421.3" font-family="Arial" font-size="14.00" fill="#1a1919">5 LoopBegin</text>
</g>
<!-- node19 -->
<g id="node4" class="node">
<title>node19</title>
<polygon fill="#e98693" stroke="black" points="198,-196 144,-196 144,-160 198,-160 198,-196"/>
<text text-anchor="middle" x="171" y="-174.3" font-family="Arial" font-size="14.00" fill="#1a1919">19 If</text>
</g>
<!-- node5&#45;&gt;node19 -->
<g id="edge1" class="edge">
<title>node5&#45;&gt;node19</title>
<path fill="none" stroke="#da2d4f" stroke-width="2" d="M274.32,-406.76C274.22,-373.73 270.52,-300.09 242,-247 232.75,-229.78 217.57,-214.36 203.61,-202.57"/>
<polygon fill="#da2d4f" stroke="#da2d4f" stroke-width="2" points="205.56,-199.65 195.59,-196.07 201.15,-205.08 205.56,-199.65"/>
</g>
<!-- node22 -->
<g id="node6" class="node">
<title>node22</title>
<polygon fill="#e98693" stroke="black" points="223.5,-36 134.5,-36 134.5,0 223.5,0 223.5,-36"/>
<text text-anchor="middle" x="179" y="-14.3" font-family="Arial" font-size="14.00" fill="#1a1919">22 LoopEnd</text>
</g>
<!-- node5&#45;&gt;node22 -->
<g id="edge7" class="edge">
<title>node5&#45;&gt;node22</title>
<path fill="none" stroke="#da2d4f" stroke-width="4" d="M295.26,-398.67C303.95,-385.82 312,-369.47 312,-353 312,-353 312,-353 312,-90 312,-49.04 262.29,-31.62 223.66,-24.28"/>
<polygon fill="#da2d4f" stroke="#da2d4f" stroke-width="4" points="292.28,-396.82 289.24,-406.96 297.95,-400.93 292.28,-396.82"/>
</g>
<!-- node35 -->
<g id="node9" class="node">
<title>node35</title>
<polygon fill="#f9f9f9" stroke="black" points="171,-370 117,-370 117,-334 171,-334 171,-370"/>
<text text-anchor="middle" x="144" y="-348.3" font-family="Arial" font-size="14.00" fill="#1a1919">35 ϕ</text>
</g>
<!-- node5&#45;&gt;node35 -->
<g id="edge12" class="edge">
<title>node5&#45;&gt;node35</title>
<path fill="none" stroke="#343d46" stroke-dasharray="5,2" d="M233.84,-402.07C213.56,-390.99 189.48,-377.84 171.36,-367.94"/>
<polygon fill="#343d46" stroke="#343d46" points="232.41,-405.27 242.86,-406.99 235.76,-399.13 232.41,-405.27"/>
</g>
<!-- node15 -->
<g id="node2" class="node">
<title>node15</title>
<polygon fill="#3cb4a4" stroke="black" points="93,-283 52.61,-265 93,-247 133.39,-265 93,-283"/>
<text text-anchor="middle" x="93" y="-261.3" font-family="Arial" font-size="14.00" fill="#1a1919">15 &lt;</text>
</g>
<!-- node15&#45;&gt;node19 -->
<g id="edge4" class="edge">
<title>node15&#45;&gt;node19</title>
<path fill="none" stroke="#3cb4a4" d="M104.18,-251.82C115.69,-239.28 133.95,-219.38 148.47,-203.55"/>
<polygon fill="#3cb4a4" stroke="#3cb4a4" points="151.08,-205.89 155.26,-196.15 145.92,-201.16 151.08,-205.89"/>
<text text-anchor="middle" x="140" y="-217.8" font-family="arial" font-size="14.00" fill="#3cb4a4">?</text>
</g>
<!-- node17 -->
<g id="node3" class="node">
<title>node17</title>
<polygon fill="#e98693" stroke="black" points="283.5,-109 110.5,-109 110.5,-73 283.5,-73 283.5,-109"/>
<text text-anchor="middle" x="197" y="-87.3" font-family="Arial" font-size="14.00" fill="#1a1919">17 Deopt UnreachedCode</text>
</g>
<!-- node19&#45;&gt;node17 -->
<g id="edge25" class="edge">
<title>node19&#45;&gt;node17</title>
<path fill="none" stroke="#da2d4f" stroke-width="2" d="M176.26,-159.8C179.86,-148.05 184.69,-132.24 188.79,-118.84"/>
<polygon fill="#da2d4f" stroke="#da2d4f" stroke-width="2" points="192.17,-119.76 191.75,-109.18 185.47,-117.71 192.17,-119.76"/>
<text text-anchor="middle" x="189.5" y="-130.8" font-family="arial" font-size="14.00" fill="#da2d4f">T</text>
</g>
<!-- node40 -->
<g id="node10" class="node">
<title>node40</title>
<polygon fill="#f9f9f9" stroke="black" points="92,-109 0,-109 0,-73 92,-73 92,-109"/>
<text text-anchor="middle" x="46" y="-87.3" font-family="Arial" font-size="14.00" fill="#1a1919">40 Safepoint</text>
</g>
<!-- node19&#45;&gt;node40 -->
<g id="edge24" class="edge">
<title>node19&#45;&gt;node40</title>
<path fill="none" stroke="#da2d4f" stroke-width="2" d="M145.7,-159.8C126.73,-146.9 100.56,-129.1 79.79,-114.98"/>
<polygon fill="#da2d4f" stroke="#da2d4f" stroke-width="2" points="81.5,-111.9 71.26,-109.18 77.56,-117.69 81.5,-111.9"/>
<text text-anchor="middle" x="119.5" y="-130.8" font-family="arial" font-size="14.00" fill="#da2d4f">F</text>
</g>
<!-- node21 -->
<g id="node5" class="node">
<title>node21</title>
<polygon fill="#3cb4a4" stroke="black" points="193,-283 152.61,-265 193,-247 233.39,-265 193,-283"/>
<text text-anchor="middle" x="193" y="-261.3" font-family="Arial" font-size="14.00" fill="#1a1919">21 +</text>
</g>
<!-- node21&#45;&gt;node35 -->
<g id="edge14" class="edge">
<title>node21&#45;&gt;node35</title>
<path fill="none" stroke="#3cb4a4" d="M171.33,-273.47C152,-280.61 125.88,-291.66 120,-301 115.18,-308.66 117.13,-317.44 121.54,-325.48"/>
<polygon fill="#3cb4a4" stroke="#3cb4a4" points="118.63,-327.42 127.08,-333.82 124.46,-323.55 118.63,-327.42"/>
<text text-anchor="middle" x="143.5" y="-304.8" font-family="arial" font-size="14.00" fill="#3cb4a4">from 22</text>
</g>
<!-- node27 -->
<g id="node7" class="node">
<title>node27</title>
<polygon fill="#3cb4a4" stroke="black" points="258,-617 217.61,-599 258,-581 298.39,-599 258,-617"/>
<text text-anchor="middle" x="258" y="-595.3" font-family="Arial" font-size="14.00" fill="#1a1919">27 &lt;</text>
</g>
<!-- node44 -->
<g id="node12" class="node">
<title>node44</title>
<polygon fill="#e98693" stroke="black" points="378,-530 324,-530 324,-494 378,-494 378,-530"/>
<text text-anchor="middle" x="351" y="-508.3" font-family="Arial" font-size="14.00" fill="#1a1919">44 If</text>
</g>
<!-- node27&#45;&gt;node44 -->
<g id="edge16" class="edge">
<title>node27&#45;&gt;node44</title>
<path fill="none" stroke="#3cb4a4" d="M270.54,-586.54C284.3,-573.96 306.78,-553.42 324.49,-537.23"/>
<polygon fill="#3cb4a4" stroke="#3cb4a4" points="327.22,-539.48 332.24,-530.15 322.49,-534.31 327.22,-539.48"/>
<text text-anchor="middle" x="314" y="-551.8" font-family="arial" font-size="14.00" fill="#3cb4a4">?</text>
</g>
<!-- node32 -->
<g id="node8" class="node">
<title>node32</title>
<polygon fill="#3cb4a4" stroke="black" points="144,-617 103.61,-599 144,-581 184.39,-599 144,-617"/>
<text text-anchor="middle" x="144" y="-595.3" font-family="Arial" font-size="14.00" fill="#1a1919">32 +</text>
</g>
<!-- node32&#45;&gt;node35 -->
<g id="edge13" class="edge">
<title>node32&#45;&gt;node35</title>
<path fill="none" stroke="#3cb4a4" d="M144,-580.77C144,-538.86 144,-431.31 144,-380.44"/>
<polygon fill="#3cb4a4" stroke="#3cb4a4" points="147.5,-380.21 144,-370.21 140.5,-380.21 147.5,-380.21"/>
<text text-anchor="middle" x="164" y="-464.8" font-family="arial" font-size="14.00" fill="#3cb4a4">from 4</text>
</g>
<!-- node35&#45;&gt;node15 -->
<g id="edge2" class="edge">
<title>node35&#45;&gt;node15</title>
<path fill="none" stroke="#3cb4a4" d="M121.23,-333.95C115.56,-328.73 109.97,-322.61 106,-316 101.7,-308.83 98.81,-300.26 96.87,-292.25"/>
<polygon fill="#3cb4a4" stroke="#3cb4a4" points="100.25,-291.32 94.83,-282.22 93.39,-292.72 100.25,-291.32"/>
<text text-anchor="middle" x="109.5" y="-304.8" font-family="arial" font-size="14.00" fill="#3cb4a4">x</text>
</g>
<!-- node35&#45;&gt;node21 -->
<g id="edge5" class="edge">
<title>node35&#45;&gt;node21</title>
<path fill="none" stroke="#3cb4a4" d="M158.61,-333.79C162.89,-328.3 167.4,-322.07 171,-316 175.8,-307.91 180.19,-298.58 183.75,-290.19"/>
<polygon fill="#3cb4a4" stroke="#3cb4a4" points="187.01,-291.48 187.55,-280.9 180.53,-288.84 187.01,-291.48"/>
<text text-anchor="middle" x="181.5" y="-304.8" font-family="arial" font-size="14.00" fill="#3cb4a4">x</text>
</g>
<!-- node40&#45;&gt;node22 -->
<g id="edge15" class="edge">
<title>node40&#45;&gt;node22</title>
<path fill="none" stroke="#da2d4f" stroke-width="2" d="M77.86,-72.99C95.9,-63.36 118.67,-51.21 138.03,-40.87"/>
<polygon fill="#da2d4f" stroke="#da2d4f" stroke-width="2" points="139.77,-43.91 146.94,-36.11 136.47,-37.74 139.77,-43.91"/>
</g>
<!-- node42 -->
<g id="node11" class="node">
<title>node42</title>
<polygon fill="#e98693" stroke="black" points="511.5,-443 338.5,-443 338.5,-407 511.5,-407 511.5,-443"/>
<text text-anchor="middle" x="425" y="-421.3" font-family="Arial" font-size="14.00" fill="#1a1919">42 Deopt UnreachedCode</text>
</g>
<!-- node44&#45;&gt;node5 -->
<g id="edge26" class="edge">
<title>node44&#45;&gt;node5</title>
<path fill="none" stroke="#da2d4f" stroke-width="2" d="M335.42,-493.8C324.25,-481.47 309.04,-464.68 296.55,-450.89"/>
<polygon fill="#da2d4f" stroke="#da2d4f" stroke-width="2" points="298.87,-448.24 289.56,-443.18 293.68,-452.94 298.87,-448.24"/>
<text text-anchor="middle" x="321.5" y="-464.8" font-family="arial" font-size="14.00" fill="#da2d4f">F</text>
</g>
<!-- node44&#45;&gt;node42 -->
<g id="edge27" class="edge">
<title>node44&#45;&gt;node42</title>
<path fill="none" stroke="#da2d4f" stroke-width="2" d="M365.98,-493.8C376.71,-481.47 391.33,-464.68 403.33,-450.89"/>
<polygon fill="#da2d4f" stroke="#da2d4f" stroke-width="2" points="406.12,-453.02 410.05,-443.18 400.84,-448.42 406.12,-453.02"/>
<text text-anchor="middle" x="396.5" y="-464.8" font-family="arial" font-size="14.00" fill="#da2d4f">T</text>
</g>
<!-- node45 -->
<g id="node13" class="node">
<title>node45</title>
<polygon fill="#e98693" stroke="black" points="253,-791 189,-791 189,-755 253,-755 253,-791"/>
<text text-anchor="middle" x="221" y="-769.3" font-family="Arial" font-size="14.00" fill="#1a1919">45 Start</text>
</g>
<!-- node50 -->
<g id="node16" class="node">
<title>node50</title>
<polygon fill="#c39bd3" stroke="black" points="347,-704 167,-704 167,-668 347,-668 347,-704"/>
<text text-anchor="middle" x="257" y="-682.3" font-family="Arial" font-size="14.00" fill="#1a1919">50 Read#ANY_LOCATION</text>
</g>
<!-- node45&#45;&gt;node50 -->
<g id="edge17" class="edge">
<title>node45&#45;&gt;node50</title>
<path fill="none" stroke="#da2d4f" stroke-width="2" d="M228.29,-754.8C233.31,-742.93 240.09,-726.93 245.8,-713.45"/>
<polygon fill="#da2d4f" stroke="#da2d4f" stroke-width="2" points="249.05,-714.75 249.73,-704.18 242.6,-712.02 249.05,-714.75"/>
</g>
<!-- node47 -->
<g id="node14" class="node">
<title>node47</title>
<polygon fill="#f9f9f9" stroke="black" points="611.5,-617 316.5,-617 316.5,-581 611.5,-581 611.5,-617"/>
<text text-anchor="middle" x="464" y="-595.3" font-family="Arial" font-size="14.00" fill="#1a1919">47 ForeignCall#OSR_migration_end(long)void</text>
</g>
<!-- node47&#45;&gt;node44 -->
<g id="edge19" class="edge">
<title>node47&#45;&gt;node44</title>
<path fill="none" stroke="#da2d4f" stroke-width="2" d="M441.13,-580.8C424.13,-568.01 400.74,-550.42 382.05,-536.36"/>
<polygon fill="#da2d4f" stroke="#da2d4f" stroke-width="2" points="383.93,-533.39 373.83,-530.18 379.72,-538.98 383.93,-533.39"/>
</g>
<!-- node49 -->
<g id="node15" class="node">
<title>node49</title>
<polygon fill="#f9f9f9" stroke="black" points="393,-791 271,-791 271,-755 393,-755 393,-791"/>
<text text-anchor="middle" x="332" y="-769.3" font-family="Arial" font-size="14.00" fill="#1a1919">49 OffsetAddress</text>
</g>
<!-- node49&#45;&gt;node50 -->
<g id="edge22" class="edge">
<title>node49&#45;&gt;node50</title>
<path fill="none" stroke="#3cb4a4" d="M316.82,-754.8C305.95,-742.47 291.13,-725.68 278.96,-711.89"/>
<polygon fill="#3cb4a4" stroke="#3cb4a4" points="281.4,-709.36 272.15,-704.18 276.15,-713.99 281.4,-709.36"/>
<text text-anchor="middle" x="322.5" y="-725.8" font-family="arial" font-size="14.00" fill="#3cb4a4">address</text>
</g>
<!-- node50&#45;&gt;node27 -->
<g id="edge8" class="edge">
<title>node50&#45;&gt;node27</title>
<path fill="none" stroke="#3cb4a4" d="M257.2,-667.8C257.34,-656.16 257.52,-640.55 257.68,-627.24"/>
<polygon fill="#3cb4a4" stroke="#3cb4a4" points="261.18,-627.22 257.8,-617.18 254.18,-627.13 261.18,-627.22"/>
<text text-anchor="middle" x="260.5" y="-638.8" font-family="arial" font-size="14.00" fill="#3cb4a4">x</text>
</g>
<!-- node50&#45;&gt;node32 -->
<g id="edge10" class="edge">
<title>node50&#45;&gt;node32</title>
<path fill="none" stroke="#3cb4a4" d="M234.13,-667.8C214.36,-652.92 185.94,-631.55 166.33,-616.8"/>
<polygon fill="#3cb4a4" stroke="#3cb4a4" points="168.35,-613.94 158.25,-610.72 164.14,-619.53 168.35,-613.94"/>
<text text-anchor="middle" x="210.5" y="-638.8" font-family="arial" font-size="14.00" fill="#3cb4a4">x</text>
</g>
<!-- node50&#45;&gt;node47 -->
<g id="edge23" class="edge">
<title>node50&#45;&gt;node47</title>
<path fill="none" stroke="#da2d4f" stroke-width="2" d="M298.89,-667.8C331.82,-654.27 377.85,-635.38 412.94,-620.97"/>
<polygon fill="#da2d4f" stroke="#da2d4f" stroke-width="2" points="414.61,-624.07 422.53,-617.03 411.95,-617.59 414.61,-624.07"/>
</g>
<!-- inline14x15 -->
<g id="node17" class="node">
<title>inline14x15</title>
<ellipse fill="#d7ede7" stroke="black" cx="66" cy="-352" rx="27" ry="18"/>
<text text-anchor="middle" x="66" y="-350.1" font-family="Arial" font-size="8.00" fill="#1a1919">14 C(1)</text>
</g>
<!-- inline14x15&#45;&gt;node15 -->
<g id="edge3" class="edge">
<title>inline14x15&#45;&gt;node15</title>
<path fill="none" stroke="#3cb4a4" d="M66.28,-333.94C66.87,-324.09 68.37,-311.59 72,-301 74.66,-293.22 79.22,-285.31 83.42,-278.98"/>
<text text-anchor="middle" x="74" y="-306.6" font-family="arial" font-size="8.00" fill="#3cb4a4">y</text>
</g>
<!-- inline20x21 -->
<g id="node18" class="node">
<title>inline20x21</title>
<ellipse fill="#d7ede7" stroke="black" cx="219" cy="-352" rx="27" ry="18"/>
<text text-anchor="middle" x="219" y="-350.1" font-family="Arial" font-size="8.00" fill="#1a1919">20 C(&#45;1)</text>
</g>
<!-- inline20x21&#45;&gt;node21 -->
<g id="edge6" class="edge">
<title>inline20x21&#45;&gt;node21</title>
<path fill="none" stroke="#3cb4a4" d="M213.86,-334.21C209.13,-318.72 202.16,-295.95 197.6,-281.05"/>
<text text-anchor="middle" x="209" y="-306.6" font-family="arial" font-size="8.00" fill="#3cb4a4">y</text>
</g>
<!-- inline14x27 -->
<g id="node19" class="node">
<title>inline14x27</title>
<ellipse fill="#d7ede7" stroke="black" cx="392" cy="-686" rx="27" ry="18"/>
<text text-anchor="middle" x="392" y="-684.1" font-family="Arial" font-size="8.00" fill="#1a1919">14 C(1)</text>
</g>
<!-- inline14x27&#45;&gt;node27 -->
<g id="edge9" class="edge">
<title>inline14x27&#45;&gt;node27</title>
<path fill="none" stroke="#3cb4a4" d="M373.09,-673C346.54,-656.16 298.7,-625.82 273.89,-610.08"/>
<text text-anchor="middle" x="335" y="-640.6" font-family="arial" font-size="8.00" fill="#3cb4a4">y</text>
</g>
<!-- inline20x32 -->
<g id="node20" class="node">
<title>inline20x32</title>
<ellipse fill="#d7ede7" stroke="black" cx="122" cy="-686" rx="27" ry="18"/>
<text text-anchor="middle" x="122" y="-684.1" font-family="Arial" font-size="8.00" fill="#1a1919">20 C(&#45;1)</text>
</g>
<!-- inline20x32&#45;&gt;node32 -->
<g id="edge11" class="edge">
<title>inline20x32&#45;&gt;node32</title>
<path fill="none" stroke="#3cb4a4" d="M126.35,-668.21C130.33,-652.82 136.17,-630.24 140.03,-615.33"/>
<text text-anchor="middle" x="136" y="-640.6" font-family="arial" font-size="8.00" fill="#3cb4a4">y</text>
</g>
<!-- inline46x47 -->
<g id="node21" class="node">
<title>inline46x47</title>
<ellipse fill="#d7ede7" stroke="black" cx="464" cy="-686" rx="27" ry="18"/>
<text text-anchor="middle" x="464" y="-684.1" font-family="Arial" font-size="8.00" fill="#1a1919">46 P(0)</text>
</g>
<!-- inline46x47&#45;&gt;node47 -->
<g id="edge18" class="edge">
<title>inline46x47&#45;&gt;node47</title>
<path fill="none" stroke="#3cb4a4" d="M464,-667.8C464,-653.05 464,-631.92 464,-617.18"/>
<text text-anchor="middle" x="475" y="-640.6" font-family="arial" font-size="8.00" fill="#3cb4a4">arg[0]</text>
</g>
<!-- inline46x49 -->
<g id="node22" class="node">
<title>inline46x49</title>
<ellipse fill="#d7ede7" stroke="black" cx="296" cy="-854" rx="27" ry="18"/>
<text text-anchor="middle" x="296" y="-852.1" font-family="Arial" font-size="8.00" fill="#1a1919">46 P(0)</text>
</g>
<!-- inline46x49&#45;&gt;node49 -->
<g id="edge20" class="edge">
<title>inline46x49&#45;&gt;node49</title>
<path fill="none" stroke="#3cb4a4" d="M303.46,-836.63C309.51,-823.34 318.03,-804.67 324.18,-791.17"/>
<text text-anchor="middle" x="324" y="-811.6" font-family="arial" font-size="8.00" fill="#3cb4a4">base</text>
</g>
<!-- inline48x49 -->
<g id="node23" class="node">
<title>inline48x49</title>
<ellipse fill="#d7ede7" stroke="black" cx="368" cy="-854" rx="27" ry="18"/>
<text text-anchor="middle" x="368" y="-852.1" font-family="Arial" font-size="8.00" fill="#1a1919">48 C(0)</text>
</g>
<!-- inline48x49&#45;&gt;node49 -->
<g id="edge21" class="edge">
<title>inline48x49&#45;&gt;node49</title>
<path fill="none" stroke="#3cb4a4" d="M360.54,-836.63C354.49,-823.34 345.97,-804.67 339.82,-791.17"/>
<text text-anchor="middle" x="361" y="-811.6" font-family="arial" font-size="8.00" fill="#3cb4a4">offset</text>
</g>
</g>
</svg>
