<?xml version="1.0" encoding="UTF-8" standalone="no"?>
<!DOCTYPE svg PUBLIC "-//W3C//DTD SVG 1.1//EN"
 "http://www.w3.org/Graphics/SVG/1.1/DTD/svg11.dtd">
<!-- Generated by graphviz version 2.43.0 (0)
 -->
<!-- Title: G Pages: 1 -->
<svg width="619pt" height="706pt"
 viewBox="0.00 0.00 619.00 706.00" xmlns="http://www.w3.org/2000/svg" xmlns:xlink="http://www.w3.org/1999/xlink">
<g id="graph0" class="graph" transform="scale(1 1) rotate(0) translate(4 702)">
<title>G</title>
<polygon fill="white" stroke="transparent" points="-4,4 -4,-702 615,-702 615,4 -4,4"/>
<!-- node0 -->
<g id="node1" class="node">
<title>node0</title>
<polygon fill="#e98693" stroke="black" points="160,-698 104,-698 104,-662 160,-662 160,-698"/>
<text text-anchor="middle" x="132" y="-676.3" font-family="Arial" font-size="14.00" fill="#1a1919">0 Start</text>
</g>
<!-- node7 -->
<g id="node2" class="node">
<title>node7</title>
<polygon fill="#e98693" stroke="black" points="178,-625 86,-625 86,-589 178,-589 178,-625"/>
<text text-anchor="middle" x="132" y="-603.3" font-family="Arial" font-size="14.00" fill="#1a1919">7 LoopBegin</text>
</g>
<!-- node0&#45;&gt;node7 -->
<g id="edge24" class="edge">
<title>node0&#45;&gt;node7</title>
<path fill="none" stroke="#da2d4f" stroke-width="2" d="M132,-661.81C132,-653.79 132,-644.05 132,-635.07"/>
<polygon fill="#da2d4f" stroke="#da2d4f" stroke-width="2" points="135.5,-635.03 132,-625.03 128.5,-635.03 135.5,-635.03"/>
</g>
<!-- node8 -->
<g id="node3" class="node">
<title>node8</title>
<polygon fill="#f9f9f9" stroke="black" points="322,-544 268,-544 268,-508 322,-508 322,-544"/>
<text text-anchor="middle" x="295" y="-522.3" font-family="Arial" font-size="14.00" fill="#1a1919">8 ϕ</text>
</g>
<!-- node7&#45;&gt;node8 -->
<g id="edge2" class="edge">
<title>node7&#45;&gt;node8</title>
<path fill="none" stroke="#343d46" stroke-dasharray="5,2" d="M176.53,-584.42C205.71,-570.27 242.92,-552.24 267.77,-540.2"/>
<polygon fill="#343d46" stroke="#343d46" points="174.84,-581.35 167.37,-588.86 177.89,-587.65 174.84,-581.35"/>
</g>
<!-- node17 -->
<g id="node5" class="node">
<title>node17</title>
<polygon fill="#e98693" stroke="black" points="88,-283 0,-283 0,-247 88,-247 88,-283"/>
<text text-anchor="middle" x="44" y="-261.3" font-family="Arial" font-size="14.00" fill="#1a1919">17 LoopExit</text>
</g>
<!-- node7&#45;&gt;node17 -->
<g id="edge7" class="edge">
<title>node7&#45;&gt;node17</title>
<path fill="none" stroke="#343d46" stroke-dasharray="5,2" d="M76.64,-587.01C51.38,-574.5 27,-555.14 27,-527 27,-527 27,-527 27,-351 27,-327.07 33.56,-300.08 38.53,-283.06"/>
<polygon fill="#343d46" stroke="#343d46" points="75.4,-590.3 85.95,-591.32 78.34,-583.94 75.4,-590.3"/>
</g>
<!-- node19 -->
<g id="node6" class="node">
<title>node19</title>
<polygon fill="#e98693" stroke="black" points="123,-370 69,-370 69,-334 123,-334 123,-370"/>
<text text-anchor="middle" x="96" y="-348.3" font-family="Arial" font-size="14.00" fill="#1a1919">19 If</text>
</g>
<!-- node7&#45;&gt;node19 -->
<g id="edge1" class="edge">
<title>node7&#45;&gt;node19</title>
<path fill="none" stroke="#da2d4f" stroke-width="2" d="M119.67,-588.98C111.62,-576.99 101.59,-560.24 96,-544 78.12,-492.07 79.21,-475.72 84,-421 85.18,-407.51 87.65,-392.7 90.05,-380.34"/>
<polygon fill="#da2d4f" stroke="#da2d4f" stroke-width="2" points="93.55,-380.71 92.1,-370.22 86.69,-379.32 93.55,-380.71"/>
</g>
<!-- node30 -->
<g id="node13" class="node">
<title>node30</title>
<polygon fill="#e98693" stroke="black" points="593.5,-36 504.5,-36 504.5,0 593.5,0 593.5,-36"/>
<text text-anchor="middle" x="549" y="-14.3" font-family="Arial" font-size="14.00" fill="#1a1919">30 LoopEnd</text>
</g>
<!-- node7&#45;&gt;node30 -->
<g id="edge23" class="edge">
<title>node7&#45;&gt;node30</title>
<path fill="none" stroke="#da2d4f" stroke-width="4" d="M188.65,-598.12C315.43,-580.29 611,-537.59 611,-527 611,-527 611,-527 611,-90 611,-67.58 593.24,-48.82 576.74,-36.23"/>
<polygon fill="#da2d4f" stroke="#da2d4f" stroke-width="4" points="187.78,-594.71 178.36,-599.56 188.75,-601.64 187.78,-594.71"/>
</g>
<!-- node14 -->
<g id="node4" class="node">
<title>node14</title>
<polygon fill="#3cb4a4" stroke="black" points="133,-457 92.61,-439 133,-421 173.39,-439 133,-457"/>
<text text-anchor="middle" x="133" y="-435.3" font-family="Arial" font-size="14.00" fill="#1a1919">14 &lt;</text>
</g>
<!-- node8&#45;&gt;node14 -->
<g id="edge5" class="edge">
<title>node8&#45;&gt;node14</title>
<path fill="none" stroke="#3cb4a4" d="M267.88,-510.77C237.81,-494.99 189.6,-469.7 159.7,-454.01"/>
<polygon fill="#3cb4a4" stroke="#3cb4a4" points="161.16,-450.82 150.68,-449.28 157.91,-457.02 161.16,-450.82"/>
<text text-anchor="middle" x="227.5" y="-478.8" font-family="arial" font-size="14.00" fill="#3cb4a4">x</text>
</g>
<!-- node21 -->
<g id="node8" class="node">
<title>node21</title>
<polygon fill="#3cb4a4" stroke="black" points="295,-457 191.27,-439 295,-421 398.73,-439 295,-457"/>
<text text-anchor="middle" x="295" y="-435.3" font-family="Arial" font-size="14.00" fill="#1a1919">21 FloatConvert</text>
</g>
<!-- node8&#45;&gt;node21 -->
<g id="edge13" class="edge">
<title>node8&#45;&gt;node21</title>
<path fill="none" stroke="#3cb4a4" d="M295,-507.8C295,-496.16 295,-480.55 295,-467.24"/>
<polygon fill="#3cb4a4" stroke="#3cb4a4" points="298.5,-467.18 295,-457.18 291.5,-467.18 298.5,-467.18"/>
<text text-anchor="middle" x="311.5" y="-478.8" font-family="arial" font-size="14.00" fill="#3cb4a4">value</text>
</g>
<!-- node29 -->
<g id="node12" class="node">
<title>node29</title>
<polygon fill="#3cb4a4" stroke="black" points="457,-457 416.61,-439 457,-421 497.39,-439 457,-457"/>
<text text-anchor="middle" x="457" y="-435.3" font-family="Arial" font-size="14.00" fill="#1a1919">29 +</text>
</g>
<!-- node8&#45;&gt;node29 -->
<g id="edge21" class="edge">
<title>node8&#45;&gt;node29</title>
<path fill="none" stroke="#3cb4a4" d="M322.38,-519.77C345.32,-514.57 378.33,-505.16 404,-490 417.24,-482.18 429.85,-470.52 439.45,-460.43"/>
<polygon fill="#3cb4a4" stroke="#3cb4a4" points="442.28,-462.51 446.45,-452.77 437.12,-457.78 442.28,-462.51"/>
<text text-anchor="middle" x="426.5" y="-478.8" font-family="arial" font-size="14.00" fill="#3cb4a4">x</text>
</g>
<!-- node14&#45;&gt;node19 -->
<g id="edge9" class="edge">
<title>node14&#45;&gt;node19</title>
<path fill="none" stroke="#3cb4a4" d="M126.72,-423.58C121.5,-411.57 113.91,-394.15 107.59,-379.63"/>
<polygon fill="#3cb4a4" stroke="#3cb4a4" points="110.66,-377.9 103.46,-370.13 104.24,-380.7 110.66,-377.9"/>
<text text-anchor="middle" x="121" y="-391.8" font-family="arial" font-size="14.00" fill="#3cb4a4">?</text>
</g>
<!-- node31 -->
<g id="node14" class="node">
<title>node31</title>
<polygon fill="#e98693" stroke="black" points="82,-196 6,-196 6,-160 82,-160 82,-196"/>
<text text-anchor="middle" x="44" y="-174.3" font-family="Arial" font-size="14.00" fill="#1a1919">31 Return</text>
</g>
<!-- node17&#45;&gt;node31 -->
<g id="edge8" class="edge">
<title>node17&#45;&gt;node31</title>
<path fill="none" stroke="#da2d4f" stroke-width="2" d="M44,-246.8C44,-235.16 44,-219.55 44,-206.24"/>
<polygon fill="#da2d4f" stroke="#da2d4f" stroke-width="2" points="47.5,-206.18 44,-196.18 40.5,-206.18 47.5,-206.18"/>
</g>
<!-- node19&#45;&gt;node17 -->
<g id="edge10" class="edge">
<title>node19&#45;&gt;node17</title>
<path fill="none" stroke="#da2d4f" stroke-width="2" d="M85.48,-333.8C78.15,-321.82 68.24,-305.62 59.94,-292.06"/>
<polygon fill="#da2d4f" stroke="#da2d4f" stroke-width="2" points="62.71,-289.88 54.51,-283.18 56.74,-293.53 62.71,-289.88"/>
<text text-anchor="middle" x="78.5" y="-304.8" font-family="arial" font-size="14.00" fill="#da2d4f">T</text>
</g>
<!-- node20 -->
<g id="node7" class="node">
<title>node20</title>
<polygon fill="#c39bd3" stroke="black" points="328,-283 138,-283 138,-247 328,-247 328,-283"/>
<text text-anchor="middle" x="233" y="-261.3" font-family="Arial" font-size="14.00" fill="#1a1919">20 LoadField ComplexNum.r</text>
</g>
<!-- node19&#45;&gt;node20 -->
<g id="edge25" class="edge">
<title>node19&#45;&gt;node20</title>
<path fill="none" stroke="#da2d4f" stroke-width="2" d="M123.07,-334.21C144.23,-321.08 173.83,-302.71 196.99,-288.34"/>
<polygon fill="#da2d4f" stroke="#da2d4f" stroke-width="2" points="198.87,-291.3 205.52,-283.05 195.18,-285.35 198.87,-291.3"/>
<text text-anchor="middle" x="177.5" y="-304.8" font-family="arial" font-size="14.00" fill="#da2d4f">F</text>
</g>
<!-- node24 -->
<g id="node10" class="node">
<title>node24</title>
<polygon fill="#3cb4a4" stroke="black" points="348,-196 307.61,-178 348,-160 388.39,-178 348,-196"/>
<text text-anchor="middle" x="348" y="-174.3" font-family="Arial" font-size="14.00" fill="#1a1919">24 +</text>
</g>
<!-- node20&#45;&gt;node24 -->
<g id="edge16" class="edge">
<title>node20&#45;&gt;node24</title>
<path fill="none" stroke="#3cb4a4" d="M256.27,-246.8C276.4,-231.92 305.32,-210.55 325.28,-195.8"/>
<polygon fill="#3cb4a4" stroke="#3cb4a4" points="327.53,-198.48 333.49,-189.72 323.37,-192.85 327.53,-198.48"/>
<text text-anchor="middle" x="300.5" y="-217.8" font-family="arial" font-size="14.00" fill="#3cb4a4">x</text>
</g>
<!-- node25 -->
<g id="node11" class="node">
<title>node25</title>
<polygon fill="#c39bd3" stroke="black" points="550,-109 358,-109 358,-73 550,-73 550,-109"/>
<text text-anchor="middle" x="454" y="-87.3" font-family="Arial" font-size="14.00" fill="#1a1919">25 StoreField ComplexNum.r</text>
</g>
<!-- node20&#45;&gt;node25 -->
<g id="edge12" class="edge">
<title>node20&#45;&gt;node25</title>
<path fill="none" stroke="#da2d4f" stroke-width="2" d="M301.8,-246.93C333.59,-236.36 370.16,-220.08 397,-196 420.5,-174.92 436.29,-141.79 445.19,-118.6"/>
<polygon fill="#da2d4f" stroke="#da2d4f" stroke-width="2" points="448.54,-119.63 448.68,-109.03 441.96,-117.22 448.54,-119.63"/>
</g>
<!-- node23 -->
<g id="node9" class="node">
<title>node23</title>
<polygon fill="#3cb4a4" stroke="black" points="364,-370 328.31,-352 364,-334 399.69,-352 364,-370"/>
<text text-anchor="middle" x="364" y="-348.3" font-family="Arial" font-size="14.00" fill="#1a1919">23 /</text>
</g>
<!-- node21&#45;&gt;node23 -->
<g id="edge14" class="edge">
<title>node21&#45;&gt;node23</title>
<path fill="none" stroke="#3cb4a4" d="M307.34,-422.8C318.59,-408.94 335.29,-388.37 347.65,-373.14"/>
<polygon fill="#3cb4a4" stroke="#3cb4a4" points="350.42,-375.28 354.01,-365.31 344.99,-370.87 350.42,-375.28"/>
<text text-anchor="middle" x="336.5" y="-391.8" font-family="arial" font-size="14.00" fill="#3cb4a4">x</text>
</g>
<!-- node23&#45;&gt;node24 -->
<g id="edge17" class="edge">
<title>node23&#45;&gt;node24</title>
<path fill="none" stroke="#3cb4a4" d="M362.47,-334.51C359.69,-304.71 353.83,-241.68 350.48,-205.68"/>
<polygon fill="#3cb4a4" stroke="#3cb4a4" points="353.94,-205.07 349.53,-195.44 346.97,-205.72 353.94,-205.07"/>
<text text-anchor="middle" x="360.5" y="-261.3" font-family="arial" font-size="14.00" fill="#3cb4a4">y</text>
</g>
<!-- node24&#45;&gt;node25 -->
<g id="edge19" class="edge">
<title>node24&#45;&gt;node25</title>
<path fill="none" stroke="#3cb4a4" d="M351.27,-161.23C354.24,-150.37 359.65,-136.29 369,-127 373.95,-122.09 379.68,-117.84 385.78,-114.16"/>
<polygon fill="#3cb4a4" stroke="#3cb4a4" points="387.84,-117.02 394.95,-109.17 384.49,-110.87 387.84,-117.02"/>
<text text-anchor="middle" x="385.5" y="-130.8" font-family="arial" font-size="14.00" fill="#3cb4a4">value</text>
</g>
<!-- node25&#45;&gt;node30 -->
<g id="edge20" class="edge">
<title>node25&#45;&gt;node30</title>
<path fill="none" stroke="#da2d4f" stroke-width="2" d="M477,-72.81C489.37,-63.57 504.79,-52.04 518.18,-42.03"/>
<polygon fill="#da2d4f" stroke="#da2d4f" stroke-width="2" points="520.3,-44.82 526.21,-36.03 516.11,-39.21 520.3,-44.82"/>
</g>
<!-- node29&#45;&gt;node8 -->
<g id="edge4" class="edge">
<title>node29&#45;&gt;node8</title>
<path fill="none" stroke="#3cb4a4" d="M435.55,-447.46C406.43,-457.59 357.9,-474.5 357,-475 344.1,-482.18 331.17,-492.07 320.49,-501.16"/>
<polygon fill="#3cb4a4" stroke="#3cb4a4" points="318.01,-498.67 312.79,-507.89 322.62,-503.94 318.01,-498.67"/>
<text text-anchor="middle" x="380.5" y="-478.8" font-family="arial" font-size="14.00" fill="#3cb4a4">from 30</text>
</g>
<!-- inline4x8 -->
<g id="node15" class="node">
<title>inline4x8</title>
<ellipse fill="#d7ede7" stroke="black" cx="295" cy="-607" rx="32.8" ry="18"/>
<text text-anchor="middle" x="295" y="-605.1" font-family="Arial" font-size="8.00" fill="#1a1919">4 C(10000)</text>
</g>
<!-- inline4x8&#45;&gt;node8 -->
<g id="edge3" class="edge">
<title>inline4x8&#45;&gt;node8</title>
<path fill="none" stroke="#3cb4a4" d="M295,-588.86C295,-575.61 295,-557.35 295,-544.11"/>
<text text-anchor="middle" x="307" y="-564.6" font-family="arial" font-size="8.00" fill="#3cb4a4">from 6</text>
</g>
<!-- inline13x14 -->
<g id="node16" class="node">
<title>inline13x14</title>
<ellipse fill="#d7ede7" stroke="black" cx="133" cy="-526" rx="27.59" ry="18"/>
<text text-anchor="middle" x="133" y="-524.1" font-family="Arial" font-size="8.00" fill="#1a1919">13 C(12)</text>
</g>
<!-- inline13x14&#45;&gt;node14 -->
<g id="edge6" class="edge">
<title>inline13x14&#45;&gt;node14</title>
<path fill="none" stroke="#3cb4a4" d="M133,-507.8C133,-493.05 133,-471.92 133,-457.18"/>
<text text-anchor="middle" x="135" y="-480.6" font-family="arial" font-size="8.00" fill="#3cb4a4">y</text>
</g>
<!-- inline2x20 -->
<g id="node17" class="node">
<title>inline2x20</title>
<ellipse fill="#d7ede7" stroke="black" cx="233" cy="-352" rx="27" ry="18"/>
<text text-anchor="middle" x="233" y="-350.1" font-family="Arial" font-size="8.00" fill="#1a1919">2 P(1)</text>
</g>
<!-- inline2x20&#45;&gt;node20 -->
<g id="edge11" class="edge">
<title>inline2x20&#45;&gt;node20</title>
<path fill="none" stroke="#3cb4a4" d="M233,-333.8C233,-319.05 233,-297.92 233,-283.18"/>
<text text-anchor="middle" x="244" y="-306.6" font-family="arial" font-size="8.00" fill="#3cb4a4">object</text>
</g>
<!-- inline22x23 -->
<g id="node18" class="node">
<title>inline22x23</title>
<ellipse fill="#d7ede7" stroke="black" cx="549" cy="-439" rx="34.07" ry="18"/>
<text text-anchor="middle" x="549" y="-437.1" font-family="Arial" font-size="8.00" fill="#1a1919">22 C(153.0)</text>
</g>
<!-- inline22x23&#45;&gt;node23 -->
<g id="edge15" class="edge">
<title>inline22x23&#45;&gt;node23</title>
<path fill="none" stroke="#3cb4a4" d="M524.05,-426.54C486.08,-409.09 414.72,-376.3 381.65,-361.11"/>
<text text-anchor="middle" x="469" y="-393.6" font-family="arial" font-size="8.00" fill="#3cb4a4">y</text>
</g>
<!-- inline2x25 -->
<g id="node19" class="node">
<title>inline2x25</title>
<ellipse fill="#d7ede7" stroke="black" cx="471" cy="-178" rx="27" ry="18"/>
<text text-anchor="middle" x="471" y="-176.1" font-family="Arial" font-size="8.00" fill="#1a1919">2 P(1)</text>
</g>
<!-- inline2x25&#45;&gt;node25 -->
<g id="edge18" class="edge">
<title>inline2x25&#45;&gt;node25</title>
<path fill="none" stroke="#3cb4a4" d="M467.56,-159.8C464.61,-145.05 460.38,-123.92 457.44,-109.18"/>
<text text-anchor="middle" x="474" y="-132.6" font-family="arial" font-size="8.00" fill="#3cb4a4">object</text>
</g>
<!-- inline28x29 -->
<g id="node20" class="node">
<title>inline28x29</title>
<ellipse fill="#d7ede7" stroke="black" cx="457" cy="-526" rx="27" ry="18"/>
<text text-anchor="middle" x="457" y="-524.1" font-family="Arial" font-size="8.00" fill="#1a1919">28 C(&#45;1)</text>
</g>
<!-- inline28x29&#45;&gt;node29 -->
<g id="edge22" class="edge">
<title>inline28x29&#45;&gt;node29</title>
<path fill="none" stroke="#3cb4a4" d="M457,-507.8C457,-493.05 457,-471.92 457,-457.18"/>
<text text-anchor="middle" x="459" y="-480.6" font-family="arial" font-size="8.00" fill="#3cb4a4">y</text>
</g>
</g>
</svg>
