<?xml version="1.0" encoding="UTF-8" standalone="no"?>
<!DOCTYPE svg PUBLIC "-//W3C//DTD SVG 1.1//EN"
 "http://www.w3.org/Graphics/SVG/1.1/DTD/svg11.dtd">
<!-- Generated by graphviz version 2.43.0 (0)
 -->
<!-- Title: G Pages: 1 -->
<svg width="722pt" height="793pt"
 viewBox="0.00 0.00 721.94 793.00" xmlns="http://www.w3.org/2000/svg" xmlns:xlink="http://www.w3.org/1999/xlink">
<g id="graph0" class="graph" transform="scale(1 1) rotate(0) translate(4 789)">
<title>G</title>
<polygon fill="white" stroke="transparent" points="-4,4 -4,-789 717.94,-789 717.94,4 -4,4"/>
<!-- node0 -->
<g id="node1" class="node">
<title>node0</title>
<polygon fill="#e98693" stroke="black" points="167.5,-785 111.5,-785 111.5,-749 167.5,-749 167.5,-785"/>
<text text-anchor="middle" x="139.5" y="-763.3" font-family="Arial" font-size="14.00" fill="#1a1919">0 Start</text>
</g>
<!-- node7 -->
<g id="node2" class="node">
<title>node7</title>
<polygon fill="#e98693" stroke="black" points="185.5,-712 93.5,-712 93.5,-676 185.5,-676 185.5,-712"/>
<text text-anchor="middle" x="139.5" y="-690.3" font-family="Arial" font-size="14.00" fill="#1a1919">7 LoopBegin</text>
</g>
<!-- node0&#45;&gt;node7 -->
<g id="edge31" class="edge">
<title>node0&#45;&gt;node7</title>
<path fill="none" stroke="#da2d4f" stroke-width="2" d="M139.5,-748.81C139.5,-740.79 139.5,-731.05 139.5,-722.07"/>
<polygon fill="#da2d4f" stroke="#da2d4f" stroke-width="2" points="143,-722.03 139.5,-712.03 136,-722.03 143,-722.03"/>
</g>
<!-- node8 -->
<g id="node3" class="node">
<title>node8</title>
<polygon fill="#f9f9f9" stroke="black" points="389.5,-631 335.5,-631 335.5,-595 389.5,-595 389.5,-631"/>
<text text-anchor="middle" x="362.5" y="-609.3" font-family="Arial" font-size="14.00" fill="#1a1919">8 ϕ</text>
</g>
<!-- node7&#45;&gt;node8 -->
<g id="edge2" class="edge">
<title>node7&#45;&gt;node8</title>
<path fill="none" stroke="#343d46" stroke-dasharray="5,2" d="M195.52,-676.38C233,-664.78 283.21,-648.32 326.5,-631 329.32,-629.87 332.24,-628.63 335.13,-627.34"/>
<polygon fill="#343d46" stroke="#343d46" points="194.32,-673.08 185.78,-679.37 196.37,-679.77 194.32,-673.08"/>
</g>
<!-- node17 -->
<g id="node6" class="node">
<title>node17</title>
<polygon fill="#e98693" stroke="black" points="164.5,-370 76.5,-370 76.5,-334 164.5,-334 164.5,-370"/>
<text text-anchor="middle" x="120.5" y="-348.3" font-family="Arial" font-size="14.00" fill="#1a1919">17 LoopExit</text>
</g>
<!-- node7&#45;&gt;node17 -->
<g id="edge8" class="edge">
<title>node7&#45;&gt;node17</title>
<path fill="none" stroke="#343d46" stroke-dasharray="5,2" d="M129.68,-666.01C125.04,-650.92 120.5,-631.65 120.5,-614 120.5,-614 120.5,-614 120.5,-438 120.5,-414.54 120.5,-387.43 120.5,-370.26"/>
<polygon fill="#343d46" stroke="#343d46" points="126.42,-667.3 132.85,-675.72 133.07,-665.12 126.42,-667.3"/>
</g>
<!-- node19 -->
<g id="node7" class="node">
<title>node19</title>
<polygon fill="#e98693" stroke="black" points="242.5,-457 188.5,-457 188.5,-421 242.5,-421 242.5,-457"/>
<text text-anchor="middle" x="215.5" y="-435.3" font-family="Arial" font-size="14.00" fill="#1a1919">19 If</text>
</g>
<!-- node7&#45;&gt;node19 -->
<g id="edge1" class="edge">
<title>node7&#45;&gt;node19</title>
<path fill="none" stroke="#da2d4f" stroke-width="2" d="M141.23,-675.94C144.99,-642.73 155.38,-567.47 177.5,-508 182.91,-493.45 191.1,-478.29 198.5,-465.98"/>
<polygon fill="#da2d4f" stroke="#da2d4f" stroke-width="2" points="201.66,-467.52 203.94,-457.18 195.71,-463.84 201.66,-467.52"/>
</g>
<!-- node30 -->
<g id="node12" class="node">
<title>node30</title>
<polygon fill="#e98693" stroke="black" points="89,-36 0,-36 0,0 89,0 89,-36"/>
<text text-anchor="middle" x="44.5" y="-14.3" font-family="Arial" font-size="14.00" fill="#1a1919">30 LoopEnd</text>
</g>
<!-- node7&#45;&gt;node30 -->
<g id="edge20" class="edge">
<title>node7&#45;&gt;node30</title>
<path fill="none" stroke="#da2d4f" stroke-width="4" d="M83.99,-674.72C57.92,-662.31 32.5,-642.81 32.5,-614 32.5,-614 32.5,-614 32.5,-90 32.5,-71.37 36.57,-50.38 39.96,-36.08"/>
<polygon fill="#da2d4f" stroke="#da2d4f" stroke-width="4" points="82.63,-677.95 93.19,-678.82 85.48,-671.56 82.63,-677.95"/>
</g>
<!-- node14 -->
<g id="node4" class="node">
<title>node14</title>
<polygon fill="#3cb4a4" stroke="black" points="226.5,-544 186.11,-526 226.5,-508 266.89,-526 226.5,-544"/>
<text text-anchor="middle" x="226.5" y="-522.3" font-family="Arial" font-size="14.00" fill="#1a1919">14 &lt;</text>
</g>
<!-- node8&#45;&gt;node14 -->
<g id="edge5" class="edge">
<title>node8&#45;&gt;node14</title>
<path fill="none" stroke="#3cb4a4" d="M341.44,-594.81C328.56,-584.68 311.53,-571.95 295.5,-562 282.58,-553.99 267.61,-546.22 254.91,-540.05"/>
<polygon fill="#3cb4a4" stroke="#3cb4a4" points="256.25,-536.81 245.72,-535.66 253.24,-543.13 256.25,-536.81"/>
<text text-anchor="middle" x="320" y="-565.8" font-family="arial" font-size="14.00" fill="#3cb4a4">x</text>
</g>
<!-- node21 -->
<g id="node8" class="node">
<title>node21</title>
<polygon fill="#3cb4a4" stroke="black" points="510.5,-544 406.77,-526 510.5,-508 614.23,-526 510.5,-544"/>
<text text-anchor="middle" x="510.5" y="-522.3" font-family="Arial" font-size="14.00" fill="#1a1919">21 FloatConvert</text>
</g>
<!-- node8&#45;&gt;node21 -->
<g id="edge13" class="edge">
<title>node8&#45;&gt;node21</title>
<path fill="none" stroke="#3cb4a4" d="M389.65,-596.41C414.73,-582 452.01,-560.59 478.52,-545.36"/>
<polygon fill="#3cb4a4" stroke="#3cb4a4" points="480.49,-548.27 487.42,-540.26 477,-542.2 480.49,-548.27"/>
<text text-anchor="middle" x="461" y="-565.8" font-family="arial" font-size="14.00" fill="#3cb4a4">value</text>
</g>
<!-- node29 -->
<g id="node11" class="node">
<title>node29</title>
<polygon fill="#3cb4a4" stroke="black" points="347.5,-544 307.11,-526 347.5,-508 387.89,-526 347.5,-544"/>
<text text-anchor="middle" x="347.5" y="-522.3" font-family="Arial" font-size="14.00" fill="#1a1919">29 +</text>
</g>
<!-- node8&#45;&gt;node29 -->
<g id="edge18" class="edge">
<title>node8&#45;&gt;node29</title>
<path fill="none" stroke="#3cb4a4" d="M355.57,-594.81C353.6,-589.22 351.67,-582.92 350.5,-577 349.07,-569.78 348.26,-561.86 347.81,-554.51"/>
<polygon fill="#3cb4a4" stroke="#3cb4a4" points="351.3,-554.12 347.39,-544.27 344.31,-554.41 351.3,-554.12"/>
<text text-anchor="middle" x="354" y="-565.8" font-family="arial" font-size="14.00" fill="#3cb4a4">x</text>
</g>
<!-- node14&#45;&gt;node19 -->
<g id="edge10" class="edge">
<title>node14&#45;&gt;node19</title>
<path fill="none" stroke="#3cb4a4" d="M224.38,-508.61C222.87,-496.96 220.81,-481.04 219.05,-467.47"/>
<polygon fill="#3cb4a4" stroke="#3cb4a4" points="222.48,-466.68 217.73,-457.21 215.54,-467.58 222.48,-466.68"/>
<text text-anchor="middle" x="226.5" y="-478.8" font-family="arial" font-size="14.00" fill="#3cb4a4">?</text>
</g>
<!-- node15 -->
<g id="node5" class="node">
<title>node15</title>
<polygon fill="#e98693" stroke="black" points="286.5,-370 216.5,-370 216.5,-334 286.5,-334 286.5,-370"/>
<text text-anchor="middle" x="251.5" y="-348.3" font-family="Arial" font-size="14.00" fill="#1a1919">15 Begin</text>
</g>
<!-- node33 -->
<g id="node15" class="node">
<title>node33</title>
<polygon fill="#ffa500" stroke="black" points="408,-283 155,-283 155,-247 408,-247 408,-283"/>
<text text-anchor="middle" x="281.5" y="-261.3" font-family="Arial" font-size="14.00" fill="#1a1919">33 Guard not, else NullCheckException</text>
</g>
<!-- node15&#45;&gt;node33 -->
<g id="edge22" class="edge">
<title>node15&#45;&gt;node33</title>
<path fill="none" stroke="#3cb4a4" d="M257.57,-333.8C261.72,-322.05 267.3,-306.24 272.03,-292.84"/>
<polygon fill="#3cb4a4" stroke="#3cb4a4" points="275.41,-293.77 275.44,-283.18 268.81,-291.44 275.41,-293.77"/>
<text text-anchor="middle" x="289.5" y="-304.8" font-family="arial" font-size="14.00" fill="#3cb4a4">anchor</text>
</g>
<!-- node37 -->
<g id="node17" class="node">
<title>node37</title>
<polygon fill="#c39bd3" stroke="black" points="593,-283 426,-283 426,-247 593,-247 593,-283"/>
<text text-anchor="middle" x="509.5" y="-261.3" font-family="Arial" font-size="14.00" fill="#1a1919">37 Read#ComplexNum.r</text>
</g>
<!-- node15&#45;&gt;node37 -->
<g id="edge7" class="edge">
<title>node15&#45;&gt;node37</title>
<path fill="none" stroke="#da2d4f" stroke-width="2" d="M280.63,-333.84C303.79,-320.31 333.29,-303.34 339.5,-301 347.36,-298.04 380.63,-291.02 415.68,-284.03"/>
<polygon fill="#da2d4f" stroke="#da2d4f" stroke-width="2" points="416.47,-287.45 425.6,-282.07 415.11,-280.58 416.47,-287.45"/>
</g>
<!-- node31 -->
<g id="node13" class="node">
<title>node31</title>
<polygon fill="#e98693" stroke="black" points="136.5,-283 60.5,-283 60.5,-247 136.5,-247 136.5,-283"/>
<text text-anchor="middle" x="98.5" y="-261.3" font-family="Arial" font-size="14.00" fill="#1a1919">31 Return</text>
</g>
<!-- node17&#45;&gt;node31 -->
<g id="edge9" class="edge">
<title>node17&#45;&gt;node31</title>
<path fill="none" stroke="#da2d4f" stroke-width="2" d="M116.05,-333.8C113.04,-322.16 108.99,-306.55 105.55,-293.24"/>
<polygon fill="#da2d4f" stroke="#da2d4f" stroke-width="2" points="108.84,-291.98 102.95,-283.18 102.06,-293.73 108.84,-291.98"/>
</g>
<!-- node19&#45;&gt;node15 -->
<g id="edge12" class="edge">
<title>node19&#45;&gt;node15</title>
<path fill="none" stroke="#da2d4f" stroke-width="2" d="M222.79,-420.8C227.81,-408.93 234.59,-392.93 240.3,-379.45"/>
<polygon fill="#da2d4f" stroke="#da2d4f" stroke-width="2" points="243.55,-380.75 244.23,-370.18 237.1,-378.02 243.55,-380.75"/>
<text text-anchor="middle" x="241" y="-391.8" font-family="arial" font-size="14.00" fill="#da2d4f">F</text>
</g>
<!-- node19&#45;&gt;node17 -->
<g id="edge11" class="edge">
<title>node19&#45;&gt;node17</title>
<path fill="none" stroke="#da2d4f" stroke-width="2" d="M196.28,-420.8C182.24,-408.24 163.03,-391.05 147.46,-377.12"/>
<polygon fill="#da2d4f" stroke="#da2d4f" stroke-width="2" points="149.48,-374.24 139.7,-370.18 144.81,-379.45 149.48,-374.24"/>
<text text-anchor="middle" x="179" y="-391.8" font-family="arial" font-size="14.00" fill="#da2d4f">T</text>
</g>
<!-- node23 -->
<g id="node9" class="node">
<title>node23</title>
<polygon fill="#3cb4a4" stroke="black" points="672.5,-457 636.81,-439 672.5,-421 708.19,-439 672.5,-457"/>
<text text-anchor="middle" x="672.5" y="-435.3" font-family="Arial" font-size="14.00" fill="#1a1919">23 /</text>
</g>
<!-- node21&#45;&gt;node23 -->
<g id="edge14" class="edge">
<title>node21&#45;&gt;node23</title>
<path fill="none" stroke="#3cb4a4" d="M535.1,-512.09C565.14,-496.33 615.7,-469.8 646.39,-453.7"/>
<polygon fill="#3cb4a4" stroke="#3cb4a4" points="648.38,-456.61 655.61,-448.86 645.13,-450.41 648.38,-456.61"/>
<text text-anchor="middle" x="604" y="-478.8" font-family="arial" font-size="14.00" fill="#3cb4a4">x</text>
</g>
<!-- node24 -->
<g id="node10" class="node">
<title>node24</title>
<polygon fill="#3cb4a4" stroke="black" points="673.5,-196 633.11,-178 673.5,-160 713.89,-178 673.5,-196"/>
<text text-anchor="middle" x="673.5" y="-174.3" font-family="Arial" font-size="14.00" fill="#1a1919">24 +</text>
</g>
<!-- node23&#45;&gt;node24 -->
<g id="edge16" class="edge">
<title>node23&#45;&gt;node24</title>
<path fill="none" stroke="#3cb4a4" d="M672.57,-421.01C672.74,-377.1 673.19,-259.6 673.4,-206.15"/>
<polygon fill="#3cb4a4" stroke="#3cb4a4" points="676.9,-206.07 673.43,-196.06 669.9,-206.04 676.9,-206.07"/>
<text text-anchor="middle" x="676" y="-304.8" font-family="arial" font-size="14.00" fill="#3cb4a4">x</text>
</g>
<!-- node38 -->
<g id="node18" class="node">
<title>node38</title>
<polygon fill="#c39bd3" stroke="black" points="650.5,-109 484.5,-109 484.5,-73 650.5,-73 650.5,-109"/>
<text text-anchor="middle" x="567.5" y="-87.3" font-family="Arial" font-size="14.00" fill="#1a1919">38 Write#ComplexNum.r</text>
</g>
<!-- node24&#45;&gt;node38 -->
<g id="edge28" class="edge">
<title>node24&#45;&gt;node38</title>
<path fill="none" stroke="#3cb4a4" d="M661.54,-164.92C650.91,-154.42 634.73,-139.06 619.5,-127 614.35,-122.92 608.74,-118.82 603.16,-114.93"/>
<polygon fill="#3cb4a4" stroke="#3cb4a4" points="604.75,-111.78 594.52,-109.04 600.81,-117.56 604.75,-111.78"/>
<text text-anchor="middle" x="652" y="-130.8" font-family="arial" font-size="14.00" fill="#3cb4a4">value</text>
</g>
<!-- node29&#45;&gt;node8 -->
<g id="edge4" class="edge">
<title>node29&#45;&gt;node8</title>
<path fill="none" stroke="#3cb4a4" d="M351.37,-542.62C352.79,-548.65 354.33,-555.62 355.5,-562 356.86,-569.38 358.09,-577.42 359.13,-584.85"/>
<polygon fill="#3cb4a4" stroke="#3cb4a4" points="355.67,-585.37 360.46,-594.82 362.61,-584.44 355.67,-585.37"/>
<text text-anchor="middle" x="382" y="-565.8" font-family="arial" font-size="14.00" fill="#3cb4a4">from 30</text>
</g>
<!-- node32 -->
<g id="node14" class="node">
<title>node32</title>
<polygon fill="#3cb4a4" stroke="black" points="367.5,-370 304.16,-352 367.5,-334 430.84,-352 367.5,-370"/>
<text text-anchor="middle" x="367.5" y="-348.3" font-family="Arial" font-size="14.00" fill="#1a1919">32 IsNull</text>
</g>
<!-- node32&#45;&gt;node33 -->
<g id="edge23" class="edge">
<title>node32&#45;&gt;node33</title>
<path fill="none" stroke="#3cb4a4" d="M354.06,-337.72C341.31,-325.12 321.85,-305.88 306.29,-290.5"/>
<polygon fill="#3cb4a4" stroke="#3cb4a4" points="308.58,-287.84 299.01,-283.3 303.66,-292.82 308.58,-287.84"/>
<text text-anchor="middle" x="334.5" y="-304.8" font-family="arial" font-size="14.00" fill="#3cb4a4">?</text>
</g>
<!-- node36 -->
<g id="node16" class="node">
<title>node36</title>
<polygon fill="#f9f9f9" stroke="black" points="575.5,-370 453.5,-370 453.5,-334 575.5,-334 575.5,-370"/>
<text text-anchor="middle" x="514.5" y="-348.3" font-family="Arial" font-size="14.00" fill="#1a1919">36 OffsetAddress</text>
</g>
<!-- node36&#45;&gt;node37 -->
<g id="edge25" class="edge">
<title>node36&#45;&gt;node37</title>
<path fill="none" stroke="#3cb4a4" d="M513.49,-333.8C512.8,-322.16 511.89,-306.55 511.1,-293.24"/>
<polygon fill="#3cb4a4" stroke="#3cb4a4" points="514.59,-292.95 510.51,-283.18 507.6,-293.36 514.59,-292.95"/>
<text text-anchor="middle" x="536" y="-304.8" font-family="arial" font-size="14.00" fill="#3cb4a4">address</text>
</g>
<!-- node36&#45;&gt;node38 -->
<g id="edge27" class="edge">
<title>node36&#45;&gt;node38</title>
<path fill="none" stroke="#3cb4a4" d="M550.81,-333.86C570.25,-322.49 592.25,-305.49 602.5,-283 627.54,-228.09 600.45,-156.59 581.89,-118.54"/>
<polygon fill="#3cb4a4" stroke="#3cb4a4" points="584.79,-116.53 577.16,-109.18 578.54,-119.68 584.79,-116.53"/>
<text text-anchor="middle" x="637" y="-217.8" font-family="arial" font-size="14.00" fill="#3cb4a4">address</text>
</g>
<!-- node37&#45;&gt;node24 -->
<g id="edge17" class="edge">
<title>node37&#45;&gt;node24</title>
<path fill="none" stroke="#3cb4a4" d="M529.61,-246.84C542.64,-236.34 560.32,-223.2 577.5,-214 597.38,-203.35 621.2,-194.64 640.13,-188.58"/>
<polygon fill="#3cb4a4" stroke="#3cb4a4" points="641.31,-191.88 649.82,-185.57 639.23,-185.19 641.31,-191.88"/>
<text text-anchor="middle" x="581" y="-217.8" font-family="arial" font-size="14.00" fill="#3cb4a4">y</text>
</g>
<!-- node37&#45;&gt;node38 -->
<g id="edge26" class="edge">
<title>node37&#45;&gt;node38</title>
<path fill="none" stroke="#da2d4f" stroke-width="2" d="M515.27,-246.88C525.39,-216.87 546.4,-154.58 558.46,-118.81"/>
<polygon fill="#da2d4f" stroke="#da2d4f" stroke-width="2" points="561.87,-119.65 561.75,-109.05 555.24,-117.41 561.87,-119.65"/>
</g>
<!-- node38&#45;&gt;node30 -->
<g id="edge29" class="edge">
<title>node38&#45;&gt;node30</title>
<path fill="none" stroke="#da2d4f" stroke-width="2" d="M484.34,-78.71C376.39,-64.06 190.98,-38.89 99.23,-26.43"/>
<polygon fill="#da2d4f" stroke="#da2d4f" stroke-width="2" points="99.43,-22.92 89.05,-25.05 98.48,-29.86 99.43,-22.92"/>
</g>
<!-- inline4x8 -->
<g id="node19" class="node">
<title>inline4x8</title>
<ellipse fill="#d7ede7" stroke="black" cx="362.5" cy="-694" rx="32.8" ry="18"/>
<text text-anchor="middle" x="362.5" y="-692.1" font-family="Arial" font-size="8.00" fill="#1a1919">4 C(10000)</text>
</g>
<!-- inline4x8&#45;&gt;node8 -->
<g id="edge3" class="edge">
<title>inline4x8&#45;&gt;node8</title>
<path fill="none" stroke="#3cb4a4" d="M362.5,-675.86C362.5,-662.61 362.5,-644.35 362.5,-631.11"/>
<text text-anchor="middle" x="374.5" y="-651.6" font-family="arial" font-size="8.00" fill="#3cb4a4">from 6</text>
</g>
<!-- inline13x14 -->
<g id="node20" class="node">
<title>inline13x14</title>
<ellipse fill="#d7ede7" stroke="black" cx="217.5" cy="-613" rx="27.59" ry="18"/>
<text text-anchor="middle" x="217.5" y="-611.1" font-family="Arial" font-size="8.00" fill="#1a1919">13 C(12)</text>
</g>
<!-- inline13x14&#45;&gt;node14 -->
<g id="edge6" class="edge">
<title>inline13x14&#45;&gt;node14</title>
<path fill="none" stroke="#3cb4a4" d="M219.32,-594.8C220.91,-579.76 223.21,-558.08 224.77,-543.31"/>
<text text-anchor="middle" x="225.5" y="-567.6" font-family="arial" font-size="8.00" fill="#3cb4a4">y</text>
</g>
<!-- inline22x23 -->
<g id="node21" class="node">
<title>inline22x23</title>
<ellipse fill="#d7ede7" stroke="black" cx="672.5" cy="-526" rx="34.07" ry="18"/>
<text text-anchor="middle" x="672.5" y="-524.1" font-family="Arial" font-size="8.00" fill="#1a1919">22 C(153.0)</text>
</g>
<!-- inline22x23&#45;&gt;node23 -->
<g id="edge15" class="edge">
<title>inline22x23&#45;&gt;node23</title>
<path fill="none" stroke="#3cb4a4" d="M672.5,-507.8C672.5,-493.05 672.5,-471.92 672.5,-457.18"/>
<text text-anchor="middle" x="674.5" y="-480.6" font-family="arial" font-size="8.00" fill="#3cb4a4">y</text>
</g>
<!-- inline28x29 -->
<g id="node22" class="node">
<title>inline28x29</title>
<ellipse fill="#d7ede7" stroke="black" cx="290.5" cy="-613" rx="27" ry="18"/>
<text text-anchor="middle" x="290.5" y="-611.1" font-family="Arial" font-size="8.00" fill="#1a1919">28 C(&#45;1)</text>
</g>
<!-- inline28x29&#45;&gt;node29 -->
<g id="edge19" class="edge">
<title>inline28x29&#45;&gt;node29</title>
<path fill="none" stroke="#3cb4a4" d="M289.15,-594.65C289.16,-584.46 290.61,-571.72 296.5,-562 303.73,-550.06 316.77,-541.22 327.85,-535.41"/>
<text text-anchor="middle" x="298.5" y="-567.6" font-family="arial" font-size="8.00" fill="#3cb4a4">y</text>
</g>
<!-- inline2x32 -->
<g id="node23" class="node">
<title>inline2x32</title>
<ellipse fill="#d7ede7" stroke="black" cx="367.5" cy="-439" rx="27" ry="18"/>
<text text-anchor="middle" x="367.5" y="-437.1" font-family="Arial" font-size="8.00" fill="#1a1919">2 P(1)</text>
</g>
<!-- inline2x32&#45;&gt;node32 -->
<g id="edge21" class="edge">
<title>inline2x32&#45;&gt;node32</title>
<path fill="none" stroke="#3cb4a4" d="M367.5,-420.8C367.5,-406.05 367.5,-384.92 367.5,-370.18"/>
<text text-anchor="middle" x="377" y="-393.6" font-family="arial" font-size="8.00" fill="#3cb4a4">value</text>
</g>
<!-- inline35x36 -->
<g id="node24" class="node">
<title>inline35x36</title>
<ellipse fill="#d7ede7" stroke="black" cx="515.5" cy="-439" rx="27.59" ry="18"/>
<text text-anchor="middle" x="515.5" y="-437.1" font-family="Arial" font-size="8.00" fill="#1a1919">35 C(16)</text>
</g>
<!-- inline35x36&#45;&gt;node36 -->
<g id="edge24" class="edge">
<title>inline35x36&#45;&gt;node36</title>
<path fill="none" stroke="#3cb4a4" d="M515.3,-420.8C515.12,-406.05 514.88,-384.92 514.7,-370.18"/>
<text text-anchor="middle" x="524.5" y="-393.6" font-family="arial" font-size="8.00" fill="#3cb4a4">offset</text>
</g>
<!-- inline2x36 -->
<g id="node25" class="node">
<title>inline2x36</title>
<ellipse fill="#d7ede7" stroke="black" cx="442.5" cy="-439" rx="27" ry="18"/>
<text text-anchor="middle" x="442.5" y="-437.1" font-family="Arial" font-size="8.00" fill="#1a1919">2 P(1)</text>
</g>
<!-- inline2x36&#45;&gt;node36 -->
<g id="edge30" class="edge">
<title>inline2x36&#45;&gt;node36</title>
<path fill="none" stroke="#3cb4a4" d="M455.37,-422.8C467.91,-408 486.94,-385.53 500.01,-370.11"/>
<text text-anchor="middle" x="491.5" y="-393.6" font-family="arial" font-size="8.00" fill="#3cb4a4">base</text>
</g>
</g>
</svg>
