<?xml version="1.0" encoding="UTF-8" standalone="no"?>
<!DOCTYPE svg PUBLIC "-//W3C//DTD SVG 1.1//EN"
 "http://www.w3.org/Graphics/SVG/1.1/DTD/svg11.dtd">
<!-- Generated by graphviz version 2.43.0 (0)
 -->
<!-- Title: G Pages: 1 -->
<svg width="962pt" height="894pt"
 viewBox="0.00 0.00 961.85 894.00" xmlns="http://www.w3.org/2000/svg" xmlns:xlink="http://www.w3.org/1999/xlink">
<g id="graph0" class="graph" transform="scale(1 1) rotate(0) translate(4 890)">
<title>G</title>
<polygon fill="white" stroke="transparent" points="-4,4 -4,-890 957.85,-890 957.85,4 -4,4"/>
<!-- node0 -->
<g id="node1" class="node">
<title>node0</title>
<polygon fill="#e98693" stroke="black" points="56,-886 0,-886 0,-850 56,-850 56,-886"/>
<text text-anchor="middle" x="28" y="-864.3" font-family="Arial" font-size="14.00" fill="#1a1919">0 Start</text>
</g>
<!-- node7 -->
<g id="node2" class="node">
<title>node7</title>
<polygon fill="#e98693" stroke="black" points="402,-813 310,-813 310,-777 402,-777 402,-813"/>
<text text-anchor="middle" x="356" y="-791.3" font-family="Arial" font-size="14.00" fill="#1a1919">7 LoopBegin</text>
</g>
<!-- node0&#45;&gt;node7 -->
<g id="edge38" class="edge">
<title>node0&#45;&gt;node7</title>
<path fill="none" stroke="#da2d4f" stroke-width="2" d="M56.25,-860.89C110.23,-849.2 228.97,-823.5 299.73,-808.18"/>
<polygon fill="#da2d4f" stroke="#da2d4f" stroke-width="2" points="300.77,-811.54 309.8,-806 299.29,-804.69 300.77,-811.54"/>
</g>
<!-- node39 -->
<g id="node16" class="node">
<title>node39</title>
<polygon fill="#f9f9f9" stroke="black" points="324.5,-210 135.5,-210 135.5,-174 324.5,-174 324.5,-210"/>
<text text-anchor="middle" x="230" y="-188.3" font-family="Arial" font-size="14.00" fill="#1a1919">39 Phi(0, 38) ComplexNum.r</text>
</g>
<!-- node0&#45;&gt;node39 -->
<g id="edge26" class="edge">
<title>node0&#45;&gt;node39</title>
<path fill="none" stroke="#3cb4a4" d="M23.46,-849.92C20.07,-835.62 16,-814.63 16,-796 16,-796 16,-796 16,-278 16,-250.18 79.27,-227.48 137,-212.56"/>
<polygon fill="#3cb4a4" stroke="#3cb4a4" points="138.12,-215.89 146.96,-210.05 136.4,-209.1 138.12,-215.89"/>
<text text-anchor="middle" x="36" y="-536.3" font-family="arial" font-size="14.00" fill="#3cb4a4">values</text>
</g>
<!-- node8 -->
<g id="node3" class="node">
<title>node8</title>
<polygon fill="#f9f9f9" stroke="black" points="654,-732 600,-732 600,-696 654,-696 654,-732"/>
<text text-anchor="middle" x="627" y="-710.3" font-family="Arial" font-size="14.00" fill="#1a1919">8 ϕ</text>
</g>
<!-- node7&#45;&gt;node8 -->
<g id="edge2" class="edge">
<title>node7&#45;&gt;node8</title>
<path fill="none" stroke="#343d46" stroke-dasharray="5,2" d="M412.4,-782.35C440.69,-776.13 475.36,-767.92 506,-759 540.82,-748.86 548.97,-744.54 583,-732 588.38,-730.02 594.11,-727.85 599.59,-725.74"/>
<polygon fill="#343d46" stroke="#343d46" points="411.32,-779.01 402.29,-784.55 412.8,-785.85 411.32,-779.01"/>
</g>
<!-- node17 -->
<g id="node5" class="node">
<title>node17</title>
<polygon fill="#e98693" stroke="black" points="536,-471 448,-471 448,-435 536,-435 536,-471"/>
<text text-anchor="middle" x="492" y="-449.3" font-family="Arial" font-size="14.00" fill="#1a1919">17 LoopExit</text>
</g>
<!-- node7&#45;&gt;node17 -->
<g id="edge7" class="edge">
<title>node7&#45;&gt;node17</title>
<path fill="none" stroke="#343d46" stroke-dasharray="5,2" d="M411.94,-784.28C449.44,-774.18 492,-754.1 492,-715 492,-715 492,-715 492,-539 492,-515.54 492,-488.43 492,-471.26"/>
<polygon fill="#343d46" stroke="#343d46" points="410.9,-780.93 402.04,-786.75 412.59,-787.72 410.9,-780.93"/>
</g>
<!-- node19 -->
<g id="node6" class="node">
<title>node19</title>
<polygon fill="#e98693" stroke="black" points="464,-558 410,-558 410,-522 464,-522 464,-558"/>
<text text-anchor="middle" x="437" y="-536.3" font-family="Arial" font-size="14.00" fill="#1a1919">19 If</text>
</g>
<!-- node7&#45;&gt;node19 -->
<g id="edge1" class="edge">
<title>node7&#45;&gt;node19</title>
<path fill="none" stroke="#da2d4f" stroke-width="2" d="M354.3,-776.76C351.69,-742.93 349.41,-666.17 375,-609 382.46,-592.34 395.61,-577 407.89,-565.12"/>
<polygon fill="#da2d4f" stroke="#da2d4f" stroke-width="2" points="410.41,-567.56 415.37,-558.2 405.65,-562.43 410.41,-567.56"/>
</g>
<!-- node30 -->
<g id="node11" class="node">
<title>node30</title>
<polygon fill="#e98693" stroke="black" points="829.5,-123 740.5,-123 740.5,-87 829.5,-87 829.5,-123"/>
<text text-anchor="middle" x="785" y="-101.3" font-family="Arial" font-size="14.00" fill="#1a1919">30 LoopEnd</text>
</g>
<!-- node7&#45;&gt;node30 -->
<g id="edge18" class="edge">
<title>node7&#45;&gt;node30</title>
<path fill="none" stroke="#da2d4f" stroke-width="4" d="M412.6,-790.87C543.1,-782.9 854,-759.27 854,-715 854,-715 854,-715 854,-191 854,-162.68 830.63,-138.53 811.09,-123.29"/>
<polygon fill="#da2d4f" stroke="#da2d4f" stroke-width="4" points="412.18,-787.39 402.4,-791.48 412.6,-794.38 412.18,-787.39"/>
</g>
<!-- node7&#45;&gt;node39 -->
<g id="edge25" class="edge">
<title>node7&#45;&gt;node39</title>
<path fill="none" stroke="#343d46" stroke-dasharray="5,2" d="M299.68,-788.33C255,-780.34 200,-761.15 200,-715 200,-715 200,-715 200,-278 200,-253.43 211.28,-227.03 220.01,-210.28"/>
<polygon fill="#343d46" stroke="#343d46" points="299.18,-791.79 309.62,-789.95 300.31,-784.88 299.18,-791.79"/>
</g>
<!-- node45 -->
<g id="node21" class="node">
<title>node45</title>
<polygon fill="#e98693" stroke="black" points="443,-384 355,-384 355,-348 443,-348 443,-384"/>
<text text-anchor="middle" x="399" y="-362.3" font-family="Arial" font-size="14.00" fill="#1a1919">45 LoopExit</text>
</g>
<!-- node7&#45;&gt;node45 -->
<g id="edge32" class="edge">
<title>node7&#45;&gt;node45</title>
<path fill="none" stroke="#343d46" stroke-dasharray="5,2" d="M299.9,-779.31C269.46,-767.59 238,-747.59 238,-715 238,-715 238,-715 238,-452 238,-438.41 310.68,-404.71 358.37,-384.06"/>
<polygon fill="#343d46" stroke="#343d46" points="299.11,-782.74 309.7,-782.83 301.47,-776.15 299.11,-782.74"/>
</g>
<!-- node14 -->
<g id="node4" class="node">
<title>node14</title>
<polygon fill="#3cb4a4" stroke="black" points="424,-645 383.61,-627 424,-609 464.39,-627 424,-645"/>
<text text-anchor="middle" x="424" y="-623.3" font-family="Arial" font-size="14.00" fill="#1a1919">14 &lt;</text>
</g>
<!-- node8&#45;&gt;node14 -->
<g id="edge5" class="edge">
<title>node8&#45;&gt;node14</title>
<path fill="none" stroke="#3cb4a4" d="M603.12,-695.86C585.33,-683.33 562.4,-667.74 552,-663 522.76,-649.68 487.38,-640.48 461.24,-634.87"/>
<polygon fill="#3cb4a4" stroke="#3cb4a4" points="461.85,-631.43 451.35,-632.83 460.43,-638.28 461.85,-631.43"/>
<text text-anchor="middle" x="580.5" y="-666.8" font-family="arial" font-size="14.00" fill="#3cb4a4">x</text>
</g>
<!-- node21 -->
<g id="node7" class="node">
<title>node21</title>
<polygon fill="#3cb4a4" stroke="black" points="722,-645 618.27,-627 722,-609 825.73,-627 722,-645"/>
<text text-anchor="middle" x="722" y="-623.3" font-family="Arial" font-size="14.00" fill="#1a1919">21 FloatConvert</text>
</g>
<!-- node8&#45;&gt;node21 -->
<g id="edge11" class="edge">
<title>node8&#45;&gt;node21</title>
<path fill="none" stroke="#3cb4a4" d="M649.3,-695.99C656.37,-690.41 664.12,-684.08 671,-678 681.02,-669.15 691.64,-658.88 700.59,-649.97"/>
<polygon fill="#3cb4a4" stroke="#3cb4a4" points="703.09,-652.41 707.65,-642.85 698.12,-647.48 703.09,-652.41"/>
<text text-anchor="middle" x="703.5" y="-666.8" font-family="arial" font-size="14.00" fill="#3cb4a4">value</text>
</g>
<!-- node29 -->
<g id="node10" class="node">
<title>node29</title>
<polygon fill="#3cb4a4" stroke="black" points="560,-645 519.61,-627 560,-609 600.39,-627 560,-645"/>
<text text-anchor="middle" x="560" y="-623.3" font-family="Arial" font-size="14.00" fill="#1a1919">29 +</text>
</g>
<!-- node8&#45;&gt;node29 -->
<g id="edge16" class="edge">
<title>node8&#45;&gt;node29</title>
<path fill="none" stroke="#3cb4a4" d="M613.44,-695.8C602.7,-682.17 587.66,-663.09 576.27,-648.64"/>
<polygon fill="#3cb4a4" stroke="#3cb4a4" points="578.99,-646.44 570.05,-640.75 573.49,-650.77 578.99,-646.44"/>
<text text-anchor="middle" x="601.5" y="-666.8" font-family="arial" font-size="14.00" fill="#3cb4a4">x</text>
</g>
<!-- node14&#45;&gt;node19 -->
<g id="edge9" class="edge">
<title>node14&#45;&gt;node19</title>
<path fill="none" stroke="#3cb4a4" d="M426.45,-610.01C428.25,-598.21 430.75,-581.86 432.86,-568.04"/>
<polygon fill="#3cb4a4" stroke="#3cb4a4" points="436.34,-568.5 434.39,-558.08 429.42,-567.44 436.34,-568.5"/>
<text text-anchor="middle" x="436" y="-579.8" font-family="arial" font-size="14.00" fill="#3cb4a4">?</text>
</g>
<!-- node31 -->
<g id="node12" class="node">
<title>node31</title>
<polygon fill="#e98693" stroke="black" points="537,-384 461,-384 461,-348 537,-348 537,-384"/>
<text text-anchor="middle" x="499" y="-362.3" font-family="Arial" font-size="14.00" fill="#1a1919">31 Return</text>
</g>
<!-- node17&#45;&gt;node31 -->
<g id="edge8" class="edge">
<title>node17&#45;&gt;node31</title>
<path fill="none" stroke="#da2d4f" stroke-width="2" d="M493.42,-434.8C494.37,-423.16 495.66,-407.55 496.76,-394.24"/>
<polygon fill="#da2d4f" stroke="#da2d4f" stroke-width="2" points="500.25,-394.43 497.59,-384.18 493.28,-393.85 500.25,-394.43"/>
</g>
<!-- node19&#45;&gt;node17 -->
<g id="edge10" class="edge">
<title>node19&#45;&gt;node17</title>
<path fill="none" stroke="#da2d4f" stroke-width="2" d="M447.91,-521.84C454.07,-512.18 461.93,-499.9 469,-489 470.96,-485.98 473.02,-482.82 475.07,-479.69"/>
<polygon fill="#da2d4f" stroke="#da2d4f" stroke-width="2" points="478.17,-481.34 480.73,-471.06 472.32,-477.5 478.17,-481.34"/>
<text text-anchor="middle" x="473.5" y="-492.8" font-family="arial" font-size="14.00" fill="#da2d4f">T</text>
</g>
<!-- node46 -->
<g id="node22" class="node">
<title>node46</title>
<polygon fill="#e98693" stroke="black" points="423,-471 369,-471 369,-435 423,-435 423,-471"/>
<text text-anchor="middle" x="396" y="-449.3" font-family="Arial" font-size="14.00" fill="#1a1919">46 If</text>
</g>
<!-- node19&#45;&gt;node46 -->
<g id="edge39" class="edge">
<title>node19&#45;&gt;node46</title>
<path fill="none" stroke="#da2d4f" stroke-width="2" d="M428.7,-521.8C422.98,-509.93 415.26,-493.93 408.76,-480.45"/>
<polygon fill="#da2d4f" stroke="#da2d4f" stroke-width="2" points="411.78,-478.66 404.28,-471.18 405.48,-481.7 411.78,-478.66"/>
<text text-anchor="middle" x="423.5" y="-492.8" font-family="arial" font-size="14.00" fill="#da2d4f">F</text>
</g>
<!-- node23 -->
<g id="node8" class="node">
<title>node23</title>
<polygon fill="#3cb4a4" stroke="black" points="918,-558 882.31,-540 918,-522 953.69,-540 918,-558"/>
<text text-anchor="middle" x="918" y="-536.3" font-family="Arial" font-size="14.00" fill="#1a1919">23 /</text>
</g>
<!-- node21&#45;&gt;node23 -->
<g id="edge12" class="edge">
<title>node21&#45;&gt;node23</title>
<path fill="none" stroke="#3cb4a4" d="M750.08,-613.82C787.49,-597.6 853.26,-569.07 890.42,-552.96"/>
<polygon fill="#3cb4a4" stroke="#3cb4a4" points="891.87,-556.15 899.65,-548.96 889.09,-549.72 891.87,-556.15"/>
<text text-anchor="middle" x="835.5" y="-579.8" font-family="arial" font-size="14.00" fill="#3cb4a4">x</text>
</g>
<!-- node24 -->
<g id="node9" class="node">
<title>node24</title>
<polygon fill="#3cb4a4" stroke="black" points="427,-36 386.61,-18 427,0 467.39,-18 427,-36"/>
<text text-anchor="middle" x="427" y="-14.3" font-family="Arial" font-size="14.00" fill="#1a1919">24 +</text>
</g>
<!-- node23&#45;&gt;node24 -->
<g id="edge14" class="edge">
<title>node23&#45;&gt;node24</title>
<path fill="none" stroke="#3cb4a4" d="M915.3,-523.07C912.65,-506.03 909,-478.19 909,-454 909,-454 909,-454 909,-104 909,-59.67 588.66,-31.13 470.28,-22.09"/>
<polygon fill="#3cb4a4" stroke="#3cb4a4" points="470.36,-18.59 460.13,-21.33 469.84,-25.57 470.36,-18.59"/>
<text text-anchor="middle" x="912.5" y="-275.3" font-family="arial" font-size="14.00" fill="#3cb4a4">x</text>
</g>
<!-- node38 -->
<g id="node15" class="node">
<title>node38</title>
<polygon fill="#c39bd3" stroke="black" points="394,-297 228,-297 228,-261 394,-261 394,-297"/>
<text text-anchor="middle" x="311" y="-275.3" font-family="Arial" font-size="14.00" fill="#1a1919">38 Write#ComplexNum.r</text>
</g>
<!-- node24&#45;&gt;node38 -->
<g id="edge22" class="edge">
<title>node24&#45;&gt;node38</title>
<path fill="none" stroke="#3cb4a4" d="M429.91,-34.85C436.25,-74.54 447.07,-179.58 398,-243 394.3,-247.78 389.84,-251.92 384.92,-255.49"/>
<polygon fill="#3cb4a4" stroke="#3cb4a4" points="382.83,-252.67 376.26,-260.98 386.58,-258.58 382.83,-252.67"/>
<text text-anchor="middle" x="450.5" y="-144.8" font-family="arial" font-size="14.00" fill="#3cb4a4">value</text>
</g>
<!-- node29&#45;&gt;node8 -->
<g id="edge4" class="edge">
<title>node29&#45;&gt;node8</title>
<path fill="none" stroke="#3cb4a4" d="M579.04,-636.68C590.13,-642.63 603.54,-651.52 612,-663 616.99,-669.77 620.33,-678.21 622.57,-686.21"/>
<polygon fill="#3cb4a4" stroke="#3cb4a4" points="619.16,-687.01 624.85,-695.95 625.98,-685.42 619.16,-687.01"/>
<text text-anchor="middle" x="643.5" y="-666.8" font-family="arial" font-size="14.00" fill="#3cb4a4">from 30</text>
</g>
<!-- node32 -->
<g id="node13" class="node">
<title>node32</title>
<polygon fill="#3cb4a4" stroke="black" points="329,-558 265.66,-540 329,-522 392.34,-540 329,-558"/>
<text text-anchor="middle" x="329" y="-536.3" font-family="Arial" font-size="14.00" fill="#1a1919">32 IsNull</text>
</g>
<!-- node32&#45;&gt;node46 -->
<g id="edge34" class="edge">
<title>node32&#45;&gt;node46</title>
<path fill="none" stroke="#3cb4a4" d="M340.06,-524.96C349.85,-512.55 364.36,-494.14 376.15,-479.19"/>
<polygon fill="#3cb4a4" stroke="#3cb4a4" points="378.93,-481.31 382.37,-471.29 373.43,-476.98 378.93,-481.31"/>
<text text-anchor="middle" x="371" y="-492.8" font-family="arial" font-size="14.00" fill="#3cb4a4">?</text>
</g>
<!-- node36 -->
<g id="node14" class="node">
<title>node36</title>
<polygon fill="#f9f9f9" stroke="black" points="169,-384 47,-384 47,-348 169,-348 169,-384"/>
<text text-anchor="middle" x="108" y="-362.3" font-family="Arial" font-size="14.00" fill="#1a1919">36 OffsetAddress</text>
</g>
<!-- node36&#45;&gt;node38 -->
<g id="edge21" class="edge">
<title>node36&#45;&gt;node38</title>
<path fill="none" stroke="#3cb4a4" d="M149.08,-347.8C181.38,-334.27 226.51,-315.38 260.93,-300.97"/>
<polygon fill="#3cb4a4" stroke="#3cb4a4" points="262.46,-304.12 270.33,-297.03 259.75,-297.66 262.46,-304.12"/>
<text text-anchor="middle" x="246.5" y="-318.8" font-family="arial" font-size="14.00" fill="#3cb4a4">address</text>
</g>
<!-- node40 -->
<g id="node17" class="node">
<title>node40</title>
<polygon fill="#f9f9f9" stroke="black" points="313.5,-123 146.5,-123 146.5,-87 313.5,-87 313.5,-123"/>
<text text-anchor="middle" x="230" y="-101.3" font-family="Arial" font-size="14.00" fill="#1a1919">40 Read#ComplexNum.r</text>
</g>
<!-- node36&#45;&gt;node40 -->
<g id="edge28" class="edge">
<title>node36&#45;&gt;node40</title>
<path fill="none" stroke="#3cb4a4" d="M104.99,-347.92C99.68,-312.58 92.19,-230.04 126,-174 138.08,-153.98 158.58,-138.72 178.2,-127.78"/>
<polygon fill="#3cb4a4" stroke="#3cb4a4" points="179.92,-130.83 187.11,-123.06 176.64,-124.64 179.92,-130.83"/>
<text text-anchor="middle" x="130.5" y="-231.8" font-family="arial" font-size="14.00" fill="#3cb4a4">address</text>
</g>
<!-- node38&#45;&gt;node39 -->
<g id="edge27" class="edge">
<title>node38&#45;&gt;node39</title>
<path fill="none" stroke="#3cb4a4" d="M337.4,-261C349.01,-251.38 358.32,-239.1 350,-228 345.39,-221.85 339.76,-216.74 333.48,-212.48"/>
<polygon fill="#3cb4a4" stroke="#3cb4a4" points="334.94,-209.28 324.55,-207.2 331.37,-215.31 334.94,-209.28"/>
<text text-anchor="middle" x="374" y="-231.8" font-family="arial" font-size="14.00" fill="#3cb4a4">values</text>
</g>
<!-- node41 -->
<g id="node18" class="node">
<title>node41</title>
<polygon fill="#f9f9f9" stroke="black" points="687,-210 595,-210 595,-174 687,-174 687,-210"/>
<text text-anchor="middle" x="641" y="-188.3" font-family="Arial" font-size="14.00" fill="#1a1919">41 Safepoint</text>
</g>
<!-- node38&#45;&gt;node41 -->
<g id="edge24" class="edge">
<title>node38&#45;&gt;node41</title>
<path fill="none" stroke="#da2d4f" stroke-width="2" d="M377.38,-260.9C438.28,-245.21 527.5,-222.24 584.91,-207.45"/>
<polygon fill="#da2d4f" stroke="#da2d4f" stroke-width="2" points="586.09,-210.76 594.9,-204.87 584.34,-203.98 586.09,-210.76"/>
</g>
<!-- node39&#45;&gt;node38 -->
<g id="edge23" class="edge">
<title>node39&#45;&gt;node38</title>
<path fill="none" stroke="#3cb4a4" d="M227.26,-210.21C226.54,-220.59 227.4,-233.59 234,-243 237.22,-247.58 241.18,-251.58 245.6,-255.05"/>
<polygon fill="#3cb4a4" stroke="#3cb4a4" points="243.76,-258.03 253.99,-260.78 247.7,-252.25 243.76,-258.03"/>
<text text-anchor="middle" x="292" y="-231.8" font-family="arial" font-size="14.00" fill="#3cb4a4">lastLocationAccess</text>
</g>
<!-- node39&#45;&gt;node40 -->
<g id="edge29" class="edge">
<title>node39&#45;&gt;node40</title>
<path fill="none" stroke="#3cb4a4" d="M230,-173.8C230,-162.16 230,-146.55 230,-133.24"/>
<polygon fill="#3cb4a4" stroke="#3cb4a4" points="233.5,-133.18 230,-123.18 226.5,-133.18 233.5,-133.18"/>
<text text-anchor="middle" x="288" y="-144.8" font-family="arial" font-size="14.00" fill="#3cb4a4">lastLocationAccess</text>
</g>
<!-- node40&#45;&gt;node24 -->
<g id="edge15" class="edge">
<title>node40&#45;&gt;node24</title>
<path fill="none" stroke="#3cb4a4" d="M269.87,-86.8C307.93,-70.37 364.37,-46.02 398.23,-31.41"/>
<polygon fill="#3cb4a4" stroke="#3cb4a4" points="399.77,-34.56 407.56,-27.39 396.99,-28.14 399.77,-34.56"/>
<text text-anchor="middle" x="344.5" y="-57.8" font-family="arial" font-size="14.00" fill="#3cb4a4">y</text>
</g>
<!-- node41&#45;&gt;node30 -->
<g id="edge30" class="edge">
<title>node41&#45;&gt;node30</title>
<path fill="none" stroke="#da2d4f" stroke-width="2" d="M670.14,-173.8C692.29,-160.72 722.96,-142.62 747.03,-128.41"/>
<polygon fill="#da2d4f" stroke="#da2d4f" stroke-width="2" points="749.07,-131.27 755.9,-123.18 745.51,-125.24 749.07,-131.27"/>
</g>
<!-- node42 -->
<g id="node19" class="node">
<title>node42</title>
<polygon fill="#e98693" stroke="black" points="337,-384 267,-384 267,-348 337,-348 337,-384"/>
<text text-anchor="middle" x="302" y="-362.3" font-family="Arial" font-size="14.00" fill="#1a1919">42 Begin</text>
</g>
<!-- node42&#45;&gt;node38 -->
<g id="edge31" class="edge">
<title>node42&#45;&gt;node38</title>
<path fill="none" stroke="#da2d4f" stroke-width="2" d="M303.82,-347.8C305.05,-336.16 306.71,-320.55 308.12,-307.24"/>
<polygon fill="#da2d4f" stroke="#da2d4f" stroke-width="2" points="311.61,-307.49 309.18,-297.18 304.65,-306.75 311.61,-307.49"/>
</g>
<!-- node43 -->
<g id="node20" class="node">
<title>node43</title>
<polygon fill="#e98693" stroke="black" points="608,-297 412,-297 412,-261 608,-261 608,-297"/>
<text text-anchor="middle" x="510" y="-275.3" font-family="Arial" font-size="14.00" fill="#1a1919">43 Deopt NullCheckException</text>
</g>
<!-- node45&#45;&gt;node43 -->
<g id="edge33" class="edge">
<title>node45&#45;&gt;node43</title>
<path fill="none" stroke="#da2d4f" stroke-width="2" d="M421.46,-347.8C438.16,-335.01 461.14,-317.42 479.5,-303.36"/>
<polygon fill="#da2d4f" stroke="#da2d4f" stroke-width="2" points="481.76,-306.03 487.57,-297.18 477.5,-300.48 481.76,-306.03"/>
</g>
<!-- node46&#45;&gt;node42 -->
<g id="edge36" class="edge">
<title>node46&#45;&gt;node42</title>
<path fill="none" stroke="#da2d4f" stroke-width="2" d="M376.98,-434.8C363.09,-422.24 344.08,-405.05 328.67,-391.12"/>
<polygon fill="#da2d4f" stroke="#da2d4f" stroke-width="2" points="330.76,-388.29 320.99,-384.18 326.06,-393.48 330.76,-388.29"/>
<text text-anchor="middle" x="359.5" y="-405.8" font-family="arial" font-size="14.00" fill="#da2d4f">F</text>
</g>
<!-- node46&#45;&gt;node45 -->
<g id="edge35" class="edge">
<title>node46&#45;&gt;node45</title>
<path fill="none" stroke="#da2d4f" stroke-width="2" d="M396.61,-434.8C397.02,-423.16 397.57,-407.55 398.04,-394.24"/>
<polygon fill="#da2d4f" stroke="#da2d4f" stroke-width="2" points="401.54,-394.29 398.39,-384.18 394.54,-394.05 401.54,-394.29"/>
<text text-anchor="middle" x="402.5" y="-405.8" font-family="arial" font-size="14.00" fill="#da2d4f">T</text>
</g>
<!-- inline4x8 -->
<g id="node23" class="node">
<title>inline4x8</title>
<ellipse fill="#d7ede7" stroke="black" cx="887" cy="-795" rx="32.8" ry="18"/>
<text text-anchor="middle" x="887" y="-793.1" font-family="Arial" font-size="8.00" fill="#1a1919">4 C(10000)</text>
</g>
<!-- inline4x8&#45;&gt;node8 -->
<g id="edge3" class="edge">
<title>inline4x8&#45;&gt;node8</title>
<path fill="none" stroke="#3cb4a4" d="M858.68,-785.4C808.27,-770.08 703.64,-738.29 654.11,-723.24"/>
<text text-anchor="middle" x="777" y="-752.6" font-family="arial" font-size="8.00" fill="#3cb4a4">from 6</text>
</g>
<!-- inline13x14 -->
<g id="node24" class="node">
<title>inline13x14</title>
<ellipse fill="#d7ede7" stroke="black" cx="424" cy="-714" rx="27.59" ry="18"/>
<text text-anchor="middle" x="424" y="-712.1" font-family="Arial" font-size="8.00" fill="#1a1919">13 C(12)</text>
</g>
<!-- inline13x14&#45;&gt;node14 -->
<g id="edge6" class="edge">
<title>inline13x14&#45;&gt;node14</title>
<path fill="none" stroke="#3cb4a4" d="M424,-695.8C424,-681.05 424,-659.92 424,-645.18"/>
<text text-anchor="middle" x="426" y="-668.6" font-family="arial" font-size="8.00" fill="#3cb4a4">y</text>
</g>
<!-- inline22x23 -->
<g id="node25" class="node">
<title>inline22x23</title>
<ellipse fill="#d7ede7" stroke="black" cx="918" cy="-627" rx="34.07" ry="18"/>
<text text-anchor="middle" x="918" y="-625.1" font-family="Arial" font-size="8.00" fill="#1a1919">22 C(153.0)</text>
</g>
<!-- inline22x23&#45;&gt;node23 -->
<g id="edge13" class="edge">
<title>inline22x23&#45;&gt;node23</title>
<path fill="none" stroke="#3cb4a4" d="M918,-608.8C918,-594.05 918,-572.92 918,-558.18"/>
<text text-anchor="middle" x="920" y="-581.6" font-family="arial" font-size="8.00" fill="#3cb4a4">y</text>
</g>
<!-- inline28x29 -->
<g id="node26" class="node">
<title>inline28x29</title>
<ellipse fill="#d7ede7" stroke="black" cx="547" cy="-714" rx="27" ry="18"/>
<text text-anchor="middle" x="547" y="-712.1" font-family="Arial" font-size="8.00" fill="#1a1919">28 C(&#45;1)</text>
</g>
<!-- inline28x29&#45;&gt;node29 -->
<g id="edge17" class="edge">
<title>inline28x29&#45;&gt;node29</title>
<path fill="none" stroke="#3cb4a4" d="M548.73,-695.83C549.78,-686.16 551.26,-673.88 553,-663 554.02,-656.64 555.36,-649.67 556.6,-643.63"/>
<text text-anchor="middle" x="555" y="-668.6" font-family="arial" font-size="8.00" fill="#3cb4a4">y</text>
</g>
<!-- inline2x32 -->
<g id="node27" class="node">
<title>inline2x32</title>
<ellipse fill="#d7ede7" stroke="black" cx="301" cy="-627" rx="27" ry="18"/>
<text text-anchor="middle" x="301" y="-625.1" font-family="Arial" font-size="8.00" fill="#1a1919">2 P(1)</text>
</g>
<!-- inline2x32&#45;&gt;node32 -->
<g id="edge19" class="edge">
<title>inline2x32&#45;&gt;node32</title>
<path fill="none" stroke="#3cb4a4" d="M306.53,-609.21C311.57,-593.92 318.95,-571.52 323.86,-556.61"/>
<text text-anchor="middle" x="326.5" y="-581.6" font-family="arial" font-size="8.00" fill="#3cb4a4">value</text>
</g>
<!-- inline35x36 -->
<g id="node28" class="node">
<title>inline35x36</title>
<ellipse fill="#d7ede7" stroke="black" cx="144" cy="-453" rx="27.59" ry="18"/>
<text text-anchor="middle" x="144" y="-451.1" font-family="Arial" font-size="8.00" fill="#1a1919">35 C(16)</text>
</g>
<!-- inline35x36&#45;&gt;node36 -->
<g id="edge20" class="edge">
<title>inline35x36&#45;&gt;node36</title>
<path fill="none" stroke="#3cb4a4" d="M136.89,-435.21C130.62,-420.4 121.52,-398.93 115.22,-384.05"/>
<text text-anchor="middle" x="139" y="-407.6" font-family="arial" font-size="8.00" fill="#3cb4a4">offset</text>
</g>
<!-- inline2x36 -->
<g id="node29" class="node">
<title>inline2x36</title>
<ellipse fill="#d7ede7" stroke="black" cx="71" cy="-453" rx="27" ry="18"/>
<text text-anchor="middle" x="71" y="-451.1" font-family="Arial" font-size="8.00" fill="#1a1919">2 P(1)</text>
</g>
<!-- inline2x36&#45;&gt;node36 -->
<g id="edge37" class="edge">
<title>inline2x36&#45;&gt;node36</title>
<path fill="none" stroke="#3cb4a4" d="M78.13,-435.61C84.56,-420.85 93.97,-399.22 100.51,-384.21"/>
<text text-anchor="middle" x="101" y="-407.6" font-family="arial" font-size="8.00" fill="#3cb4a4">base</text>
</g>
</g>
</svg>
