<?xml version="1.0" encoding="UTF-8" standalone="no"?>
<!DOCTYPE svg PUBLIC "-//W3C//DTD SVG 1.1//EN"
 "http://www.w3.org/Graphics/SVG/1.1/DTD/svg11.dtd">
<!-- Generated by graphviz version 2.43.0 (0)
 -->
<!-- Title: G Pages: 1 -->
<svg width="710pt" height="866pt"
 viewBox="0.00 0.00 709.50 866.00" xmlns="http://www.w3.org/2000/svg" xmlns:xlink="http://www.w3.org/1999/xlink">
<g id="graph0" class="graph" transform="scale(1 1) rotate(0) translate(4 862)">
<title>G</title>
<polygon fill="white" stroke="transparent" points="-4,4 -4,-862 705.5,-862 705.5,4 -4,4"/>
<!-- node0 -->
<g id="node1" class="node">
<title>node0</title>
<polygon fill="#e98693" stroke="black" points="202,-858 146,-858 146,-822 202,-822 202,-858"/>
<text text-anchor="middle" x="174" y="-836.3" font-family="Arial" font-size="14.00" fill="#1a1919">0 Start</text>
</g>
<!-- node7 -->
<g id="node2" class="node">
<title>node7</title>
<polygon fill="#e98693" stroke="black" points="220,-785 128,-785 128,-749 220,-749 220,-785"/>
<text text-anchor="middle" x="174" y="-763.3" font-family="Arial" font-size="14.00" fill="#1a1919">7 LoopBegin</text>
</g>
<!-- node0&#45;&gt;node7 -->
<g id="edge31" class="edge">
<title>node0&#45;&gt;node7</title>
<path fill="none" stroke="#da2d4f" stroke-width="2" d="M174,-821.81C174,-813.79 174,-804.05 174,-795.07"/>
<polygon fill="#da2d4f" stroke="#da2d4f" stroke-width="2" points="177.5,-795.03 174,-785.03 170.5,-795.03 177.5,-795.03"/>
</g>
<!-- node8 -->
<g id="node3" class="node">
<title>node8</title>
<polygon fill="#f9f9f9" stroke="black" points="405,-704 351,-704 351,-668 405,-668 405,-704"/>
<text text-anchor="middle" x="378" y="-682.3" font-family="Arial" font-size="14.00" fill="#1a1919">8 ϕ</text>
</g>
<!-- node7&#45;&gt;node8 -->
<g id="edge2" class="edge">
<title>node7&#45;&gt;node8</title>
<path fill="none" stroke="#343d46" stroke-dasharray="5,2" d="M227.55,-745.26C267.21,-729.91 319.6,-709.62 350.94,-697.48"/>
<polygon fill="#343d46" stroke="#343d46" points="226.08,-742.08 218.01,-748.96 228.6,-748.61 226.08,-742.08"/>
</g>
<!-- node17 -->
<g id="node5" class="node">
<title>node17</title>
<polygon fill="#e98693" stroke="black" points="94,-443 6,-443 6,-407 94,-407 94,-443"/>
<text text-anchor="middle" x="50" y="-421.3" font-family="Arial" font-size="14.00" fill="#1a1919">17 LoopExit</text>
</g>
<!-- node7&#45;&gt;node17 -->
<g id="edge7" class="edge">
<title>node7&#45;&gt;node17</title>
<path fill="none" stroke="#343d46" stroke-dasharray="5,2" d="M117.58,-763.24C66.76,-757.35 0,-739.61 0,-687 0,-687 0,-687 0,-511 0,-484.63 18.09,-459.23 32.51,-443.17"/>
<polygon fill="#343d46" stroke="#343d46" points="117.52,-766.75 127.83,-764.3 118.24,-759.79 117.52,-766.75"/>
</g>
<!-- node19 -->
<g id="node6" class="node">
<title>node19</title>
<polygon fill="#e98693" stroke="black" points="110,-530 56,-530 56,-494 110,-494 110,-530"/>
<text text-anchor="middle" x="83" y="-508.3" font-family="Arial" font-size="14.00" fill="#1a1919">19 If</text>
</g>
<!-- node7&#45;&gt;node19 -->
<g id="edge1" class="edge">
<title>node7&#45;&gt;node19</title>
<path fill="none" stroke="#da2d4f" stroke-width="2" d="M127.96,-749.75C106.63,-739.84 82.96,-724.97 69,-704 38.57,-658.28 47.03,-635.01 57,-581 59.63,-566.78 65.1,-551.69 70.35,-539.34"/>
<polygon fill="#da2d4f" stroke="#da2d4f" stroke-width="2" points="73.59,-540.66 74.45,-530.1 67.19,-537.82 73.59,-540.66"/>
</g>
<!-- node30 -->
<g id="node11" class="node">
<title>node30</title>
<polygon fill="#e98693" stroke="black" points="701.5,-36 612.5,-36 612.5,0 701.5,0 701.5,-36"/>
<text text-anchor="middle" x="657" y="-14.3" font-family="Arial" font-size="14.00" fill="#1a1919">30 LoopEnd</text>
</g>
<!-- node7&#45;&gt;node30 -->
<g id="edge18" class="edge">
<title>node7&#45;&gt;node30</title>
<path fill="none" stroke="#da2d4f" stroke-width="4" d="M230.26,-760.37C364.79,-746.52 694,-710.25 694,-687 694,-687 694,-687 694,-90 694,-69.85 682.13,-49.74 671.84,-36.1"/>
<polygon fill="#da2d4f" stroke="#da2d4f" stroke-width="4" points="229.74,-756.9 220.15,-761.4 230.45,-763.86 229.74,-756.9"/>
</g>
<!-- node45 -->
<g id="node17" class="node">
<title>node45</title>
<polygon fill="#e98693" stroke="black" points="231,-356 143,-356 143,-320 231,-320 231,-356"/>
<text text-anchor="middle" x="187" y="-334.3" font-family="Arial" font-size="14.00" fill="#1a1919">45 LoopExit</text>
</g>
<!-- node7&#45;&gt;node45 -->
<g id="edge24" class="edge">
<title>node7&#45;&gt;node45</title>
<path fill="none" stroke="#343d46" stroke-dasharray="5,2" d="M174,-738.48C174,-723.3 174,-704.11 174,-687 174,-687 174,-687 174,-424 174,-400.26 179.01,-373.22 182.82,-356.14"/>
<polygon fill="#343d46" stroke="#343d46" points="170.5,-738.74 174,-748.74 177.5,-738.74 170.5,-738.74"/>
</g>
<!-- node14 -->
<g id="node4" class="node">
<title>node14</title>
<polygon fill="#3cb4a4" stroke="black" points="106,-617 65.61,-599 106,-581 146.39,-599 106,-617"/>
<text text-anchor="middle" x="106" y="-595.3" font-family="Arial" font-size="14.00" fill="#1a1919">14 &lt;</text>
</g>
<!-- node8&#45;&gt;node14 -->
<g id="edge5" class="edge">
<title>node8&#45;&gt;node14</title>
<path fill="none" stroke="#3cb4a4" d="M350.93,-676.54C300.56,-660.8 192.66,-627.08 138.47,-610.15"/>
<polygon fill="#3cb4a4" stroke="#3cb4a4" points="139.28,-606.73 128.69,-607.09 137.19,-613.41 139.28,-606.73"/>
<text text-anchor="middle" x="262.5" y="-638.8" font-family="arial" font-size="14.00" fill="#3cb4a4">x</text>
</g>
<!-- node21 -->
<g id="node7" class="node">
<title>node21</title>
<polygon fill="#3cb4a4" stroke="black" points="378,-617 274.27,-599 378,-581 481.73,-599 378,-617"/>
<text text-anchor="middle" x="378" y="-595.3" font-family="Arial" font-size="14.00" fill="#1a1919">21 FloatConvert</text>
</g>
<!-- node8&#45;&gt;node21 -->
<g id="edge11" class="edge">
<title>node8&#45;&gt;node21</title>
<path fill="none" stroke="#3cb4a4" d="M378,-667.8C378,-656.16 378,-640.55 378,-627.24"/>
<polygon fill="#3cb4a4" stroke="#3cb4a4" points="381.5,-627.18 378,-617.18 374.5,-627.18 381.5,-627.18"/>
<text text-anchor="middle" x="394.5" y="-638.8" font-family="arial" font-size="14.00" fill="#3cb4a4">value</text>
</g>
<!-- node29 -->
<g id="node10" class="node">
<title>node29</title>
<polygon fill="#3cb4a4" stroke="black" points="540,-617 499.61,-599 540,-581 580.39,-599 540,-617"/>
<text text-anchor="middle" x="540" y="-595.3" font-family="Arial" font-size="14.00" fill="#1a1919">29 +</text>
</g>
<!-- node8&#45;&gt;node29 -->
<g id="edge16" class="edge">
<title>node8&#45;&gt;node29</title>
<path fill="none" stroke="#3cb4a4" d="M405.38,-679.77C428.32,-674.57 461.33,-665.16 487,-650 500.24,-642.18 512.85,-630.52 522.45,-620.43"/>
<polygon fill="#3cb4a4" stroke="#3cb4a4" points="525.28,-622.51 529.45,-612.77 520.12,-617.78 525.28,-622.51"/>
<text text-anchor="middle" x="509.5" y="-638.8" font-family="arial" font-size="14.00" fill="#3cb4a4">x</text>
</g>
<!-- node14&#45;&gt;node19 -->
<g id="edge9" class="edge">
<title>node14&#45;&gt;node19</title>
<path fill="none" stroke="#3cb4a4" d="M101.89,-582.8C98.66,-570.89 94.1,-554.02 90.26,-539.84"/>
<polygon fill="#3cb4a4" stroke="#3cb4a4" points="93.62,-538.85 87.63,-530.11 86.86,-540.68 93.62,-538.85"/>
<text text-anchor="middle" x="100" y="-551.8" font-family="arial" font-size="14.00" fill="#3cb4a4">?</text>
</g>
<!-- node31 -->
<g id="node12" class="node">
<title>node31</title>
<polygon fill="#e98693" stroke="black" points="88,-356 12,-356 12,-320 88,-320 88,-356"/>
<text text-anchor="middle" x="50" y="-334.3" font-family="Arial" font-size="14.00" fill="#1a1919">31 Return</text>
</g>
<!-- node17&#45;&gt;node31 -->
<g id="edge8" class="edge">
<title>node17&#45;&gt;node31</title>
<path fill="none" stroke="#da2d4f" stroke-width="2" d="M50,-406.8C50,-395.16 50,-379.55 50,-366.24"/>
<polygon fill="#da2d4f" stroke="#da2d4f" stroke-width="2" points="53.5,-366.18 50,-356.18 46.5,-366.18 53.5,-366.18"/>
</g>
<!-- node19&#45;&gt;node17 -->
<g id="edge10" class="edge">
<title>node19&#45;&gt;node17</title>
<path fill="none" stroke="#da2d4f" stroke-width="2" d="M76.32,-493.8C71.76,-482.05 65.62,-466.24 60.42,-452.84"/>
<polygon fill="#da2d4f" stroke="#da2d4f" stroke-width="2" points="63.55,-451.23 56.67,-443.18 57.02,-453.76 63.55,-451.23"/>
<text text-anchor="middle" x="73.5" y="-464.8" font-family="arial" font-size="14.00" fill="#da2d4f">T</text>
</g>
<!-- node46 -->
<g id="node18" class="node">
<title>node46</title>
<polygon fill="#e98693" stroke="black" points="272,-443 218,-443 218,-407 272,-407 272,-443"/>
<text text-anchor="middle" x="245" y="-421.3" font-family="Arial" font-size="14.00" fill="#1a1919">46 If</text>
</g>
<!-- node19&#45;&gt;node46 -->
<g id="edge32" class="edge">
<title>node19&#45;&gt;node46</title>
<path fill="none" stroke="#da2d4f" stroke-width="2" d="M110.12,-496.77C137.22,-482.55 179.04,-460.61 208.93,-444.92"/>
<polygon fill="#da2d4f" stroke="#da2d4f" stroke-width="2" points="210.57,-448.02 217.8,-440.27 207.32,-441.82 210.57,-448.02"/>
<text text-anchor="middle" x="178.5" y="-464.8" font-family="arial" font-size="14.00" fill="#da2d4f">F</text>
</g>
<!-- node23 -->
<g id="node8" class="node">
<title>node23</title>
<polygon fill="#3cb4a4" stroke="black" points="455,-530 419.31,-512 455,-494 490.69,-512 455,-530"/>
<text text-anchor="middle" x="455" y="-508.3" font-family="Arial" font-size="14.00" fill="#1a1919">23 /</text>
</g>
<!-- node21&#45;&gt;node23 -->
<g id="edge12" class="edge">
<title>node21&#45;&gt;node23</title>
<path fill="none" stroke="#3cb4a4" d="M391.41,-583.19C404.18,-569.1 423.47,-547.8 437.46,-532.37"/>
<polygon fill="#3cb4a4" stroke="#3cb4a4" points="440.1,-534.66 444.22,-524.9 434.91,-529.96 440.1,-534.66"/>
<text text-anchor="middle" x="424.5" y="-551.8" font-family="arial" font-size="14.00" fill="#3cb4a4">x</text>
</g>
<!-- node24 -->
<g id="node9" class="node">
<title>node24</title>
<polygon fill="#3cb4a4" stroke="black" points="455,-269 414.61,-251 455,-233 495.39,-251 455,-269"/>
<text text-anchor="middle" x="455" y="-247.3" font-family="Arial" font-size="14.00" fill="#1a1919">24 +</text>
</g>
<!-- node23&#45;&gt;node24 -->
<g id="edge14" class="edge">
<title>node23&#45;&gt;node24</title>
<path fill="none" stroke="#3cb4a4" d="M455,-493.6C455,-449.46 455,-332.83 455,-279.42"/>
<polygon fill="#3cb4a4" stroke="#3cb4a4" points="458.5,-279.32 455,-269.32 451.5,-279.32 458.5,-279.32"/>
<text text-anchor="middle" x="458.5" y="-377.8" font-family="arial" font-size="14.00" fill="#3cb4a4">x</text>
</g>
<!-- node38 -->
<g id="node14" class="node">
<title>node38</title>
<polygon fill="#c39bd3" stroke="black" points="585,-182 419,-182 419,-146 585,-146 585,-182"/>
<text text-anchor="middle" x="502" y="-160.3" font-family="Arial" font-size="14.00" fill="#1a1919">38 Write#ComplexNum.r</text>
</g>
<!-- node24&#45;&gt;node38 -->
<g id="edge21" class="edge">
<title>node24&#45;&gt;node38</title>
<path fill="none" stroke="#3cb4a4" d="M462.55,-236.34C469.3,-224.14 479.37,-205.93 487.64,-190.96"/>
<polygon fill="#3cb4a4" stroke="#3cb4a4" points="490.74,-192.59 492.52,-182.15 484.62,-189.2 490.74,-192.59"/>
<text text-anchor="middle" x="497.5" y="-203.8" font-family="arial" font-size="14.00" fill="#3cb4a4">value</text>
</g>
<!-- node29&#45;&gt;node8 -->
<g id="edge4" class="edge">
<title>node29&#45;&gt;node8</title>
<path fill="none" stroke="#3cb4a4" d="M518.55,-607.46C489.43,-617.59 440.9,-634.5 440,-635 427.1,-642.18 414.17,-652.07 403.49,-661.16"/>
<polygon fill="#3cb4a4" stroke="#3cb4a4" points="401.01,-658.67 395.79,-667.89 405.62,-663.94 401.01,-658.67"/>
<text text-anchor="middle" x="463.5" y="-638.8" font-family="arial" font-size="14.00" fill="#3cb4a4">from 30</text>
</g>
<!-- node32 -->
<g id="node13" class="node">
<title>node32</title>
<polygon fill="#3cb4a4" stroke="black" points="265,-530 201.66,-512 265,-494 328.34,-512 265,-530"/>
<text text-anchor="middle" x="265" y="-508.3" font-family="Arial" font-size="14.00" fill="#1a1919">32 IsNull</text>
</g>
<!-- node32&#45;&gt;node46 -->
<g id="edge26" class="edge">
<title>node32&#45;&gt;node46</title>
<path fill="none" stroke="#3cb4a4" d="M261.24,-495.01C258.46,-483.21 254.61,-466.86 251.36,-453.04"/>
<polygon fill="#3cb4a4" stroke="#3cb4a4" points="254.72,-452.02 249.02,-443.08 247.9,-453.62 254.72,-452.02"/>
<text text-anchor="middle" x="261" y="-464.8" font-family="arial" font-size="14.00" fill="#3cb4a4">?</text>
</g>
<!-- node41 -->
<g id="node15" class="node">
<title>node41</title>
<polygon fill="#f9f9f9" stroke="black" points="642,-109 550,-109 550,-73 642,-73 642,-109"/>
<text text-anchor="middle" x="596" y="-87.3" font-family="Arial" font-size="14.00" fill="#1a1919">41 Safepoint</text>
</g>
<!-- node38&#45;&gt;node41 -->
<g id="edge22" class="edge">
<title>node38&#45;&gt;node41</title>
<path fill="none" stroke="#da2d4f" stroke-width="2" d="M524.75,-145.81C536.88,-136.66 551.97,-125.26 565.13,-115.32"/>
<polygon fill="#da2d4f" stroke="#da2d4f" stroke-width="2" points="567.58,-117.85 573.45,-109.03 563.37,-112.26 567.58,-117.85"/>
</g>
<!-- node41&#45;&gt;node30 -->
<g id="edge23" class="edge">
<title>node41&#45;&gt;node30</title>
<path fill="none" stroke="#da2d4f" stroke-width="2" d="M610.77,-72.81C618.26,-64.09 627.5,-53.34 635.74,-43.75"/>
<polygon fill="#da2d4f" stroke="#da2d4f" stroke-width="2" points="638.51,-45.89 642.37,-36.03 633.2,-41.33 638.51,-45.89"/>
</g>
<!-- node43 -->
<g id="node16" class="node">
<title>node43</title>
<polygon fill="#e98693" stroke="black" points="285,-269 89,-269 89,-233 285,-233 285,-269"/>
<text text-anchor="middle" x="187" y="-247.3" font-family="Arial" font-size="14.00" fill="#1a1919">43 Deopt NullCheckException</text>
</g>
<!-- node45&#45;&gt;node43 -->
<g id="edge25" class="edge">
<title>node45&#45;&gt;node43</title>
<path fill="none" stroke="#da2d4f" stroke-width="2" d="M187,-319.8C187,-308.16 187,-292.55 187,-279.24"/>
<polygon fill="#da2d4f" stroke="#da2d4f" stroke-width="2" points="190.5,-279.18 187,-269.18 183.5,-279.18 190.5,-279.18"/>
</g>
<!-- node46&#45;&gt;node45 -->
<g id="edge27" class="edge">
<title>node46&#45;&gt;node45</title>
<path fill="none" stroke="#da2d4f" stroke-width="2" d="M233.26,-406.8C225.01,-394.7 213.82,-378.3 204.51,-364.67"/>
<polygon fill="#da2d4f" stroke="#da2d4f" stroke-width="2" points="207.25,-362.46 198.72,-356.18 201.47,-366.41 207.25,-362.46"/>
<text text-anchor="middle" x="224.5" y="-377.8" font-family="arial" font-size="14.00" fill="#da2d4f">T</text>
</g>
<!-- node47 -->
<g id="node19" class="node">
<title>node47</title>
<polygon fill="#c39bd3" stroke="black" points="427.5,-356 260.5,-356 260.5,-320 427.5,-320 427.5,-356"/>
<text text-anchor="middle" x="344" y="-334.3" font-family="Arial" font-size="14.00" fill="#1a1919">47 Read#ComplexNum.r</text>
</g>
<!-- node46&#45;&gt;node47 -->
<g id="edge33" class="edge">
<title>node46&#45;&gt;node47</title>
<path fill="none" stroke="#da2d4f" stroke-width="2" d="M265.03,-406.8C279.79,-394.13 300.05,-376.73 316.35,-362.74"/>
<polygon fill="#da2d4f" stroke="#da2d4f" stroke-width="2" points="318.69,-365.35 324,-356.18 314.13,-360.03 318.69,-365.35"/>
<text text-anchor="middle" x="305.5" y="-377.8" font-family="arial" font-size="14.00" fill="#da2d4f">F</text>
</g>
<!-- node47&#45;&gt;node24 -->
<g id="edge15" class="edge">
<title>node47&#45;&gt;node24</title>
<path fill="none" stroke="#3cb4a4" d="M366.46,-319.8C385.69,-305.08 413.23,-283.98 432.48,-269.25"/>
<polygon fill="#3cb4a4" stroke="#3cb4a4" points="434.87,-271.83 440.68,-262.97 430.61,-266.27 434.87,-271.83"/>
<text text-anchor="middle" x="409.5" y="-290.8" font-family="arial" font-size="14.00" fill="#3cb4a4">y</text>
</g>
<!-- node47&#45;&gt;node38 -->
<g id="edge29" class="edge">
<title>node47&#45;&gt;node38</title>
<path fill="none" stroke="#da2d4f" stroke-width="2" d="M351.54,-319.71C361.68,-297.81 381.32,-259.71 406,-233 422.4,-215.26 444.13,-199.4 462.77,-187.47"/>
<polygon fill="#da2d4f" stroke="#da2d4f" stroke-width="2" points="464.74,-190.37 471.37,-182.1 461.03,-184.43 464.74,-190.37"/>
</g>
<!-- node49 -->
<g id="node20" class="node">
<title>node49</title>
<polygon fill="#f9f9f9" stroke="black" points="613,-443 483,-443 483,-407 613,-407 613,-443"/>
<text text-anchor="middle" x="548" y="-421.3" font-family="Arial" font-size="14.00" fill="#1a1919">49 AMD64Address</text>
</g>
<!-- node49&#45;&gt;node38 -->
<g id="edge20" class="edge">
<title>node49&#45;&gt;node38</title>
<path fill="none" stroke="#3cb4a4" d="M547.42,-406.79C545.77,-368.76 539.65,-275.02 518,-200 517.18,-197.17 516.17,-194.28 515.06,-191.43"/>
<polygon fill="#3cb4a4" stroke="#3cb4a4" points="518.2,-189.86 511.02,-182.06 511.77,-192.63 518.2,-189.86"/>
<text text-anchor="middle" x="562.5" y="-290.8" font-family="arial" font-size="14.00" fill="#3cb4a4">address</text>
</g>
<!-- node49&#45;&gt;node47 -->
<g id="edge28" class="edge">
<title>node49&#45;&gt;node47</title>
<path fill="none" stroke="#3cb4a4" d="M482.69,-420.3C450.99,-416.04 413.48,-407.2 384,-389 374.25,-382.98 365.87,-373.7 359.33,-364.77"/>
<polygon fill="#3cb4a4" stroke="#3cb4a4" points="362.17,-362.72 353.65,-356.42 356.39,-366.66 362.17,-362.72"/>
<text text-anchor="middle" x="408.5" y="-377.8" font-family="arial" font-size="14.00" fill="#3cb4a4">address</text>
</g>
<!-- inline4x8 -->
<g id="node21" class="node">
<title>inline4x8</title>
<ellipse fill="#d7ede7" stroke="black" cx="378" cy="-767" rx="32.8" ry="18"/>
<text text-anchor="middle" x="378" y="-765.1" font-family="Arial" font-size="8.00" fill="#1a1919">4 C(10000)</text>
</g>
<!-- inline4x8&#45;&gt;node8 -->
<g id="edge3" class="edge">
<title>inline4x8&#45;&gt;node8</title>
<path fill="none" stroke="#3cb4a4" d="M378,-748.86C378,-735.61 378,-717.35 378,-704.11"/>
<text text-anchor="middle" x="390" y="-724.6" font-family="arial" font-size="8.00" fill="#3cb4a4">from 6</text>
</g>
<!-- inline13x14 -->
<g id="node22" class="node">
<title>inline13x14</title>
<ellipse fill="#d7ede7" stroke="black" cx="106" cy="-686" rx="27.59" ry="18"/>
<text text-anchor="middle" x="106" y="-684.1" font-family="Arial" font-size="8.00" fill="#1a1919">13 C(12)</text>
</g>
<!-- inline13x14&#45;&gt;node14 -->
<g id="edge6" class="edge">
<title>inline13x14&#45;&gt;node14</title>
<path fill="none" stroke="#3cb4a4" d="M106,-667.8C106,-653.05 106,-631.92 106,-617.18"/>
<text text-anchor="middle" x="108" y="-640.6" font-family="arial" font-size="8.00" fill="#3cb4a4">y</text>
</g>
<!-- inline22x23 -->
<g id="node23" class="node">
<title>inline22x23</title>
<ellipse fill="#d7ede7" stroke="black" cx="632" cy="-599" rx="34.07" ry="18"/>
<text text-anchor="middle" x="632" y="-597.1" font-family="Arial" font-size="8.00" fill="#1a1919">22 C(153.0)</text>
</g>
<!-- inline22x23&#45;&gt;node23 -->
<g id="edge13" class="edge">
<title>inline22x23&#45;&gt;node23</title>
<path fill="none" stroke="#3cb4a4" d="M607.76,-586.36C571.5,-568.95 504.01,-536.53 472.3,-521.31"/>
<text text-anchor="middle" x="556" y="-553.6" font-family="arial" font-size="8.00" fill="#3cb4a4">y</text>
</g>
<!-- inline28x29 -->
<g id="node24" class="node">
<title>inline28x29</title>
<ellipse fill="#d7ede7" stroke="black" cx="540" cy="-686" rx="27" ry="18"/>
<text text-anchor="middle" x="540" y="-684.1" font-family="Arial" font-size="8.00" fill="#1a1919">28 C(&#45;1)</text>
</g>
<!-- inline28x29&#45;&gt;node29 -->
<g id="edge17" class="edge">
<title>inline28x29&#45;&gt;node29</title>
<path fill="none" stroke="#3cb4a4" d="M540,-667.8C540,-653.05 540,-631.92 540,-617.18"/>
<text text-anchor="middle" x="542" y="-640.6" font-family="arial" font-size="8.00" fill="#3cb4a4">y</text>
</g>
<!-- inline2x32 -->
<g id="node25" class="node">
<title>inline2x32</title>
<ellipse fill="#d7ede7" stroke="black" cx="229" cy="-599" rx="27" ry="18"/>
<text text-anchor="middle" x="229" y="-597.1" font-family="Arial" font-size="8.00" fill="#1a1919">2 P(1)</text>
</g>
<!-- inline2x32&#45;&gt;node32 -->
<g id="edge19" class="edge">
<title>inline2x32&#45;&gt;node32</title>
<path fill="none" stroke="#3cb4a4" d="M236.11,-581.21C242.63,-565.82 252.19,-543.24 258.51,-528.33"/>
<text text-anchor="middle" x="259.5" y="-553.6" font-family="arial" font-size="8.00" fill="#3cb4a4">value</text>
</g>
<!-- inline2x49 -->
<g id="node26" class="node">
<title>inline2x49</title>
<ellipse fill="#d7ede7" stroke="black" cx="548" cy="-512" rx="27" ry="18"/>
<text text-anchor="middle" x="548" y="-510.1" font-family="Arial" font-size="8.00" fill="#1a1919">2 P(1)</text>
</g>
<!-- inline2x49&#45;&gt;node49 -->
<g id="edge30" class="edge">
<title>inline2x49&#45;&gt;node49</title>
<path fill="none" stroke="#3cb4a4" d="M548,-493.8C548,-479.05 548,-457.92 548,-443.18"/>
<text text-anchor="middle" x="557" y="-466.6" font-family="arial" font-size="8.00" fill="#3cb4a4">base</text>
</g>
</g>
</svg>
