<?xml version="1.0" encoding="UTF-8" standalone="no"?>
<!DOCTYPE svg PUBLIC "-//W3C//DTD SVG 1.1//EN"
 "http://www.w3.org/Graphics/SVG/1.1/DTD/svg11.dtd">
<!-- Generated by graphviz version 2.43.0 (0)
 -->
<!-- Title: G Pages: 1 -->
<svg width="1064pt" height="2191pt"
 viewBox="0.00 0.00 1064.00 2191.00" xmlns="http://www.w3.org/2000/svg" xmlns:xlink="http://www.w3.org/1999/xlink">
<g id="graph0" class="graph" transform="scale(1 1) rotate(0) translate(4 2187)">
<title>G</title>
<polygon fill="white" stroke="transparent" points="-4,4 -4,-2187 1060,-2187 1060,4 -4,4"/>
<!-- node0 -->
<g id="node1" class="node">
<title>node0</title>
<polygon fill="#e98693" stroke="black" points="609,-2183 553,-2183 553,-2147 609,-2147 609,-2183"/>
<text text-anchor="middle" x="581" y="-2161.3" font-family="Arial" font-size="14.00" fill="#1a1919">0 Start</text>
</g>
<!-- node4 -->
<g id="node4" class="node">
<title>node4</title>
<polygon fill="#c39bd3" stroke="black" points="966.5,-2096 641.5,-2096 641.5,-2060 966.5,-2060 966.5,-2096"/>
<text text-anchor="middle" x="804" y="-2074.3" font-family="Arial" font-size="14.00" fill="#1a1919">4 LoadField OptimizedCallTarget.compilationProfile</text>
</g>
<!-- node0&#45;&gt;node4 -->
<g id="edge1" class="edge">
<title>node0&#45;&gt;node4</title>
<path fill="none" stroke="#da2d4f" stroke-width="2" d="M581.33,-2146.74C582.5,-2135.79 585.88,-2122.19 595,-2114 602.21,-2107.53 615.29,-2102.23 631.54,-2097.91"/>
<polygon fill="#da2d4f" stroke="#da2d4f" stroke-width="2" points="632.57,-2101.26 641.44,-2095.48 630.9,-2094.47 632.57,-2101.26"/>
</g>
<!-- node1 -->
<g id="node2" class="node">
<title>node1</title>
<polygon fill="#d7ede7" stroke="black" points="831,-2183 777,-2183 777,-2147 831,-2147 831,-2183"/>
<text text-anchor="middle" x="804" y="-2161.3" font-family="Arial" font-size="14.00" fill="#1a1919">1 P(0)</text>
</g>
<!-- node1&#45;&gt;node4 -->
<g id="edge2" class="edge">
<title>node1&#45;&gt;node4</title>
<path fill="none" stroke="#3cb4a4" d="M804,-2146.8C804,-2135.16 804,-2119.55 804,-2106.24"/>
<polygon fill="#3cb4a4" stroke="#3cb4a4" points="807.5,-2106.18 804,-2096.18 800.5,-2106.18 807.5,-2106.18"/>
<text text-anchor="middle" x="822.5" y="-2117.8" font-family="arial" font-size="14.00" fill="#3cb4a4">object</text>
</g>
<!-- node26 -->
<g id="node18" class="node">
<title>node26</title>
<polygon fill="#f9f9f9" stroke="black" points="576,-2042 434,-2042 434,-2006 576,-2006 576,-2042"/>
<text text-anchor="middle" x="505" y="-2020.3" font-family="Arial" font-size="14.00" fill="#1a1919">26 MethodCallTarget</text>
</g>
<!-- node1&#45;&gt;node26 -->
<g id="edge25" class="edge">
<title>node1&#45;&gt;node26</title>
<path fill="none" stroke="#3cb4a4" d="M776.89,-2154.44C742.78,-2142.14 682.66,-2119.53 633,-2096 601.71,-2081.17 567.46,-2062.01 542.27,-2047.34"/>
<polygon fill="#3cb4a4" stroke="#3cb4a4" points="543.82,-2044.19 533.42,-2042.15 540.28,-2050.23 543.82,-2044.19"/>
<text text-anchor="middle" x="727.5" y="-2117.8" font-family="arial" font-size="14.00" fill="#3cb4a4">arg[0]</text>
</g>
<!-- node50 -->
<g id="node36" class="node">
<title>node50</title>
<polygon fill="#f9f9f9" stroke="black" points="800,-864 658,-864 658,-828 800,-828 800,-864"/>
<text text-anchor="middle" x="729" y="-842.3" font-family="Arial" font-size="14.00" fill="#1a1919">50 MethodCallTarget</text>
</g>
<!-- node1&#45;&gt;node50 -->
<g id="edge58" class="edge">
<title>node1&#45;&gt;node50</title>
<path fill="none" stroke="#3cb4a4" d="M831.39,-2164.21C885.52,-2163.05 1001,-2152.01 1001,-2079 1001,-2079 1001,-2079 1001,-1367 1001,-1266.17 1005.77,-1235.22 965,-1143 913.8,-1027.17 805.97,-918.01 755.77,-871.1"/>
<polygon fill="#3cb4a4" stroke="#3cb4a4" points="757.94,-868.34 748.22,-864.12 753.18,-873.48 757.94,-868.34"/>
<text text-anchor="middle" x="1018.5" y="-1480.8" font-family="arial" font-size="14.00" fill="#3cb4a4">arg[0]</text>
</g>
<!-- node2 -->
<g id="node3" class="node">
<title>node2</title>
<polygon fill="#d7ede7" stroke="black" points="905,-1814 851,-1814 851,-1778 905,-1778 905,-1814"/>
<text text-anchor="middle" x="878" y="-1792.3" font-family="Arial" font-size="14.00" fill="#1a1919">2 P(1)</text>
</g>
<!-- node14 -->
<g id="node10" class="node">
<title>node14</title>
<polygon fill="#f9f9f9" stroke="black" points="872,-1727 730,-1727 730,-1691 872,-1691 872,-1727"/>
<text text-anchor="middle" x="801" y="-1705.3" font-family="Arial" font-size="14.00" fill="#1a1919">14 MethodCallTarget</text>
</g>
<!-- node2&#45;&gt;node14 -->
<g id="edge13" class="edge">
<title>node2&#45;&gt;node14</title>
<path fill="none" stroke="#3cb4a4" d="M862.42,-1777.8C851.25,-1765.47 836.04,-1748.68 823.55,-1734.89"/>
<polygon fill="#3cb4a4" stroke="#3cb4a4" points="825.87,-1732.24 816.56,-1727.18 820.68,-1736.94 825.87,-1732.24"/>
<text text-anchor="middle" x="861.5" y="-1748.8" font-family="arial" font-size="14.00" fill="#3cb4a4">arg[1]</text>
</g>
<!-- node24 -->
<g id="node17" class="node">
<title>node24</title>
<polygon fill="#f9f9f9" stroke="black" points="800,-1299 746,-1299 746,-1263 800,-1263 800,-1299"/>
<text text-anchor="middle" x="773" y="-1277.3" font-family="Arial" font-size="14.00" fill="#1a1919">24 ϕ</text>
</g>
<!-- node2&#45;&gt;node24 -->
<g id="edge23" class="edge">
<title>node2&#45;&gt;node24</title>
<path fill="none" stroke="#3cb4a4" d="M880.93,-1777.96C881.77,-1772.27 882.58,-1765.88 883,-1760 887.47,-1697.05 891.28,-1680.57 883,-1618 867.16,-1498.32 810.72,-1364.2 785.43,-1308.48"/>
<polygon fill="#3cb4a4" stroke="#3cb4a4" points="788.57,-1306.94 781.22,-1299.31 782.21,-1309.86 788.57,-1306.94"/>
<text text-anchor="middle" x="892.5" y="-1524.3" font-family="arial" font-size="14.00" fill="#3cb4a4">from 21</text>
</g>
<!-- node5 -->
<g id="node5" class="node">
<title>node5</title>
<polygon fill="#f9f9f9" stroke="black" points="860,-1988 740,-1988 740,-1952 860,-1952 860,-1988"/>
<text text-anchor="middle" x="800" y="-1966.3" font-family="Arial" font-size="14.00" fill="#1a1919">5 StateSplitProxy</text>
</g>
<!-- node4&#45;&gt;node5 -->
<g id="edge3" class="edge">
<title>node4&#45;&gt;node5</title>
<path fill="none" stroke="#da2d4f" stroke-width="2" d="M803.36,-2059.97C802.73,-2043.38 801.77,-2017.88 801.04,-1998.43"/>
<polygon fill="#da2d4f" stroke="#da2d4f" stroke-width="2" points="804.53,-1998.2 800.65,-1988.34 797.53,-1998.47 804.53,-1998.2"/>
</g>
<!-- node4&#45;&gt;node5 -->
<g id="edge4" class="edge">
<title>node4&#45;&gt;node5</title>
<path fill="none" stroke="#3cb4a4" d="M806.08,-2059.75C807.5,-2045.34 808.81,-2024.29 807,-2006 806.75,-2003.46 806.4,-2000.84 805.99,-1998.22"/>
<polygon fill="#3cb4a4" stroke="#3cb4a4" points="809.42,-1997.55 804.17,-1988.34 802.54,-1998.81 809.42,-1997.55"/>
<text text-anchor="middle" x="825.5" y="-2020.3" font-family="arial" font-size="14.00" fill="#3cb4a4">object</text>
</g>
<!-- node10 -->
<g id="node6" class="node">
<title>node10</title>
<polygon fill="#3cb4a4" stroke="black" points="672,-1901 608.66,-1883 672,-1865 735.34,-1883 672,-1901"/>
<text text-anchor="middle" x="672" y="-1879.3" font-family="Arial" font-size="14.00" fill="#1a1919">10 IsNull</text>
</g>
<!-- node5&#45;&gt;node10 -->
<g id="edge6" class="edge">
<title>node5&#45;&gt;node10</title>
<path fill="none" stroke="#3cb4a4" d="M748.73,-1951.99C737.43,-1947.08 725.89,-1941.09 716,-1934 705.39,-1926.39 695.58,-1915.77 687.92,-1906.27"/>
<polygon fill="#3cb4a4" stroke="#3cb4a4" points="690.67,-1904.09 681.79,-1898.31 685.13,-1908.37 690.67,-1904.09"/>
<text text-anchor="middle" x="732.5" y="-1922.8" font-family="arial" font-size="14.00" fill="#3cb4a4">value</text>
</g>
<!-- node13 -->
<g id="node9" class="node">
<title>node13</title>
<polygon fill="#e98693" stroke="black" points="702,-1814 648,-1814 648,-1778 702,-1778 702,-1814"/>
<text text-anchor="middle" x="675" y="-1792.3" font-family="Arial" font-size="14.00" fill="#1a1919">13 If</text>
</g>
<!-- node5&#45;&gt;node13 -->
<g id="edge5" class="edge">
<title>node5&#45;&gt;node13</title>
<path fill="none" stroke="#da2d4f" stroke-width="2" d="M792.7,-1951.87C783.16,-1930.47 765.16,-1893.22 744,-1865 732.02,-1849.03 716.32,-1833.25 702.92,-1820.91"/>
<polygon fill="#da2d4f" stroke="#da2d4f" stroke-width="2" points="705.11,-1818.18 695.34,-1814.08 700.42,-1823.37 705.11,-1818.18"/>
</g>
<!-- node5&#45;&gt;node14 -->
<g id="edge12" class="edge">
<title>node5&#45;&gt;node14</title>
<path fill="none" stroke="#3cb4a4" d="M800.07,-1951.6C800.24,-1907.46 800.69,-1790.83 800.89,-1737.42"/>
<polygon fill="#3cb4a4" stroke="#3cb4a4" points="804.39,-1737.33 800.93,-1727.32 797.39,-1737.31 804.39,-1737.33"/>
<text text-anchor="middle" x="817.5" y="-1835.8" font-family="arial" font-size="14.00" fill="#3cb4a4">arg[0]</text>
</g>
<!-- node60 -->
<g id="node44" class="node">
<title>node60</title>
<polygon fill="#f9f9f9" stroke="black" points="961,-690 819,-690 819,-654 961,-654 961,-690"/>
<text text-anchor="middle" x="890" y="-668.3" font-family="Arial" font-size="14.00" fill="#1a1919">60 MethodCallTarget</text>
</g>
<!-- node5&#45;&gt;node60 -->
<g id="edge70" class="edge">
<title>node5&#45;&gt;node60</title>
<path fill="none" stroke="#3cb4a4" d="M860.11,-1959.63C902.22,-1949.24 951,-1927.77 951,-1884 951,-1884 951,-1884 951,-758 951,-734.27 935.12,-712.63 919.56,-697.12"/>
<polygon fill="#3cb4a4" stroke="#3cb4a4" points="921.7,-694.33 912.02,-690.02 916.9,-699.42 921.7,-694.33"/>
<text text-anchor="middle" x="968.5" y="-1320.8" font-family="arial" font-size="14.00" fill="#3cb4a4">arg[0]</text>
</g>
<!-- node10&#45;&gt;node13 -->
<g id="edge9" class="edge">
<title>node10&#45;&gt;node13</title>
<path fill="none" stroke="#3cb4a4" d="M672.61,-1864.8C673.02,-1853.16 673.57,-1837.55 674.04,-1824.24"/>
<polygon fill="#3cb4a4" stroke="#3cb4a4" points="677.54,-1824.29 674.39,-1814.18 670.54,-1824.05 677.54,-1824.29"/>
<text text-anchor="middle" x="678" y="-1835.8" font-family="arial" font-size="14.00" fill="#3cb4a4">?</text>
</g>
<!-- node59 -->
<g id="node43" class="node">
<title>node59</title>
<polygon fill="#e98693" stroke="black" points="519,-603 465,-603 465,-567 519,-567 519,-603"/>
<text text-anchor="middle" x="492" y="-581.3" font-family="Arial" font-size="14.00" fill="#1a1919">59 If</text>
</g>
<!-- node10&#45;&gt;node59 -->
<g id="edge67" class="edge">
<title>node10&#45;&gt;node59</title>
<path fill="none" stroke="#3cb4a4" d="M632.1,-1876.29C563.85,-1865.4 432,-1838.94 432,-1797 432,-1797 432,-1797 432,-1581 432,-1502.7 424,-1483.3 424,-1405 424,-1405 424,-1405 424,-671 424,-646.42 441.56,-624.87 458.83,-609.62"/>
<polygon fill="#3cb4a4" stroke="#3cb4a4" points="461.24,-612.16 466.68,-603.07 456.76,-606.79 461.24,-612.16"/>
<text text-anchor="middle" x="428" y="-1233.8" font-family="arial" font-size="14.00" fill="#3cb4a4">?</text>
</g>
<!-- node11 -->
<g id="node7" class="node">
<title>node11</title>
<polygon fill="#e98693" stroke="black" points="710.5,-1727 641.5,-1727 641.5,-1691 710.5,-1691 710.5,-1727"/>
<text text-anchor="middle" x="676" y="-1705.3" font-family="Arial" font-size="14.00" fill="#1a1919">11 Begin</text>
</g>
<!-- node18 -->
<g id="node12" class="node">
<title>node18</title>
<polygon fill="#da2d4f" stroke="black" points="873.5,-1654 498.5,-1654 498.5,-1618 873.5,-1618 873.5,-1654"/>
<text text-anchor="middle" x="686" y="-1632.3" font-family="Arial" font-size="14.00" fill="#ffffff">18 Call OptimizedCompilationProfile.injectArgumentProfile !</text>
</g>
<!-- node11&#45;&gt;node18 -->
<g id="edge7" class="edge">
<title>node11&#45;&gt;node18</title>
<path fill="none" stroke="#da2d4f" stroke-width="2" d="M678.42,-1690.81C679.55,-1682.79 680.92,-1673.05 682.19,-1664.07"/>
<polygon fill="#da2d4f" stroke="#da2d4f" stroke-width="2" points="685.67,-1664.42 683.6,-1654.03 678.74,-1663.44 685.67,-1664.42"/>
</g>
<!-- node12 -->
<g id="node8" class="node">
<title>node12</title>
<polygon fill="#e98693" stroke="black" points="575,-1727 505,-1727 505,-1691 575,-1691 575,-1727"/>
<text text-anchor="middle" x="540" y="-1705.3" font-family="Arial" font-size="14.00" fill="#1a1919">12 Begin</text>
</g>
<!-- node21 -->
<g id="node14" class="node">
<title>node21</title>
<polygon fill="#e98693" stroke="black" points="529.5,-1600 470.5,-1600 470.5,-1564 529.5,-1564 529.5,-1600"/>
<text text-anchor="middle" x="500" y="-1578.3" font-family="Arial" font-size="14.00" fill="#1a1919">21 End</text>
</g>
<!-- node12&#45;&gt;node21 -->
<g id="edge8" class="edge">
<title>node12&#45;&gt;node21</title>
<path fill="none" stroke="#da2d4f" stroke-width="2" d="M517.22,-1690.88C506.47,-1681.36 494.76,-1668.5 489,-1654 483.45,-1640.05 485.55,-1623.53 489.33,-1609.94"/>
<polygon fill="#da2d4f" stroke="#da2d4f" stroke-width="2" points="492.73,-1610.79 492.45,-1600.2 486.07,-1608.66 492.73,-1610.79"/>
</g>
<!-- node13&#45;&gt;node11 -->
<g id="edge11" class="edge">
<title>node13&#45;&gt;node11</title>
<path fill="none" stroke="#da2d4f" stroke-width="2" d="M675.2,-1777.8C675.34,-1766.16 675.52,-1750.55 675.68,-1737.24"/>
<polygon fill="#da2d4f" stroke="#da2d4f" stroke-width="2" points="679.18,-1737.22 675.8,-1727.18 672.18,-1737.13 679.18,-1737.22"/>
<text text-anchor="middle" x="680.5" y="-1748.8" font-family="arial" font-size="14.00" fill="#da2d4f">F</text>
</g>
<!-- node13&#45;&gt;node12 -->
<g id="edge10" class="edge">
<title>node13&#45;&gt;node12</title>
<path fill="none" stroke="#da2d4f" stroke-width="2" d="M647.68,-1777.8C627,-1764.78 598.42,-1746.78 575.89,-1732.6"/>
<polygon fill="#da2d4f" stroke="#da2d4f" stroke-width="2" points="577.61,-1729.54 567.28,-1727.18 573.88,-1735.47 577.61,-1729.54"/>
<text text-anchor="middle" x="620.5" y="-1748.8" font-family="arial" font-size="14.00" fill="#da2d4f">T</text>
</g>
<!-- node14&#45;&gt;node18 -->
<g id="edge15" class="edge">
<title>node14&#45;&gt;node18</title>
<path fill="none" stroke="#343d46" stroke-dasharray="5,2" d="M764.62,-1685.54C748.15,-1675.37 729,-1663.55 713.72,-1654.11"/>
<polygon fill="#343d46" stroke="#343d46" points="763.11,-1688.72 773.45,-1690.99 766.78,-1682.76 763.11,-1688.72"/>
</g>
<!-- node15 -->
<g id="node11" class="node">
<title>node15</title>
<polygon fill="#f9f9f9" stroke="black" points="1056,-356 922,-356 922,-320 1056,-320 1056,-356"/>
<text text-anchor="middle" x="989" y="-334.3" font-family="Arial" font-size="14.00" fill="#1a1919">15 ExceptionObject</text>
</g>
<!-- node29 -->
<g id="node20" class="node">
<title>node29</title>
<polygon fill="#e98693" stroke="black" points="950.5,-283 891.5,-283 891.5,-247 950.5,-247 950.5,-283"/>
<text text-anchor="middle" x="921" y="-261.3" font-family="Arial" font-size="14.00" fill="#1a1919">29 End</text>
</g>
<!-- node15&#45;&gt;node29 -->
<g id="edge14" class="edge">
<title>node15&#45;&gt;node29</title>
<path fill="none" stroke="#da2d4f" stroke-width="2" d="M972.54,-319.81C964.1,-311 953.68,-300.13 944.42,-290.46"/>
<polygon fill="#da2d4f" stroke="#da2d4f" stroke-width="2" points="946.75,-287.83 937.31,-283.03 941.7,-292.67 946.75,-287.83"/>
</g>
<!-- node32 -->
<g id="node23" class="node">
<title>node32</title>
<polygon fill="#f9f9f9" stroke="black" points="384,-123 330,-123 330,-87 384,-87 384,-123"/>
<text text-anchor="middle" x="357" y="-101.3" font-family="Arial" font-size="14.00" fill="#1a1919">32 ϕ</text>
</g>
<!-- node15&#45;&gt;node32 -->
<g id="edge35" class="edge">
<title>node15&#45;&gt;node32</title>
<path fill="none" stroke="#3cb4a4" d="M988.31,-319.78C986.53,-299.44 980.46,-265.98 960,-247 875.85,-168.92 512.48,-122.99 394.29,-109.9"/>
<polygon fill="#3cb4a4" stroke="#3cb4a4" points="394.6,-106.42 384.28,-108.81 393.84,-113.37 394.6,-106.42"/>
<text text-anchor="middle" x="956.5" y="-217.8" font-family="arial" font-size="14.00" fill="#3cb4a4">from 29</text>
</g>
<!-- node18&#45;&gt;node15 -->
<g id="edge17" class="edge">
<title>node18&#45;&gt;node15</title>
<path fill="none" stroke="#da2d4f" stroke-width="2" d="M708.52,-1617.76C714.62,-1612.46 720.93,-1606.34 726,-1600 812.7,-1491.6 875,-1464.31 875,-1325.5 875,-1325.5 875,-1325.5 875,-1062.5 875,-900.59 989,-878.41 989,-716.5 989,-716.5 989,-716.5 989,-424 989,-404.75 989,-383.05 989,-366.4"/>
<polygon fill="#da2d4f" stroke="#da2d4f" stroke-width="2" points="992.5,-366.26 989,-356.26 985.5,-366.26 992.5,-366.26"/>
<text text-anchor="middle" x="911.5" y="-972.8" font-family="arial" font-size="14.00" fill="#da2d4f">unwind</text>
</g>
<!-- node20 -->
<g id="node13" class="node">
<title>node20</title>
<polygon fill="#e98693" stroke="black" points="689,-1546 583,-1546 583,-1510 689,-1510 689,-1546"/>
<text text-anchor="middle" x="636" y="-1524.3" font-family="Arial" font-size="14.00" fill="#1a1919">20 KillingBegin</text>
</g>
<!-- node18&#45;&gt;node20 -->
<g id="edge16" class="edge">
<title>node18&#45;&gt;node20</title>
<path fill="none" stroke="#da2d4f" stroke-width="2" d="M677.97,-1617.97C670.03,-1601.15 657.78,-1575.17 648.56,-1555.62"/>
<polygon fill="#da2d4f" stroke="#da2d4f" stroke-width="2" points="651.61,-1553.89 644.18,-1546.34 645.28,-1556.88 651.61,-1553.89"/>
</g>
<!-- node18&#45;&gt;node24 -->
<g id="edge24" class="edge">
<title>node18&#45;&gt;node24</title>
<path fill="none" stroke="#3cb4a4" d="M696.11,-1617.64C707.07,-1597.16 723,-1561.75 723,-1529 723,-1529 723,-1529 723,-1367 723,-1344.55 736.12,-1322.79 748.92,-1306.91"/>
<polygon fill="#3cb4a4" stroke="#3cb4a4" points="751.69,-1309.05 755.51,-1299.17 746.36,-1304.52 751.69,-1309.05"/>
<text text-anchor="middle" x="746.5" y="-1437.3" font-family="arial" font-size="14.00" fill="#3cb4a4">from 23</text>
</g>
<!-- node23 -->
<g id="node16" class="node">
<title>node23</title>
<polygon fill="#e98693" stroke="black" points="656.5,-1459 597.5,-1459 597.5,-1423 656.5,-1423 656.5,-1459"/>
<text text-anchor="middle" x="627" y="-1437.3" font-family="Arial" font-size="14.00" fill="#1a1919">23 End</text>
</g>
<!-- node20&#45;&gt;node23 -->
<g id="edge18" class="edge">
<title>node20&#45;&gt;node23</title>
<path fill="none" stroke="#da2d4f" stroke-width="2" d="M634.18,-1509.8C632.95,-1498.16 631.29,-1482.55 629.88,-1469.24"/>
<polygon fill="#da2d4f" stroke="#da2d4f" stroke-width="2" points="633.35,-1468.75 628.82,-1459.18 626.39,-1469.49 633.35,-1468.75"/>
</g>
<!-- node22 -->
<g id="node15" class="node">
<title>node22</title>
<polygon fill="#e98693" stroke="black" points="652,-1386 578,-1386 578,-1350 652,-1350 652,-1386"/>
<text text-anchor="middle" x="615" y="-1364.3" font-family="Arial" font-size="14.00" fill="#1a1919">22 Merge</text>
</g>
<!-- node21&#45;&gt;node22 -->
<g id="edge19" class="edge">
<title>node21&#45;&gt;node22</title>
<path fill="none" stroke="#da2d4f" stroke-width="2" d="M509.41,-1563.65C529.55,-1526.52 576.93,-1439.18 600.77,-1395.23"/>
<polygon fill="#da2d4f" stroke="#da2d4f" stroke-width="2" points="603.93,-1396.75 605.62,-1386.29 597.78,-1393.41 603.93,-1396.75"/>
</g>
<!-- node22&#45;&gt;node24 -->
<g id="edge22" class="edge">
<title>node22&#45;&gt;node24</title>
<path fill="none" stroke="#343d46" stroke-dasharray="5,2" d="M655.84,-1345.03C684.14,-1329.8 721.05,-1309.95 745.81,-1296.63"/>
<polygon fill="#343d46" stroke="#343d46" points="654.12,-1341.98 646.97,-1349.8 657.44,-1348.14 654.12,-1341.98"/>
</g>
<!-- node33 -->
<g id="node24" class="node">
<title>node33</title>
<polygon fill="#da2d4f" stroke="black" points="728,-1299 452,-1299 452,-1263 728,-1263 728,-1299"/>
<text text-anchor="middle" x="590" y="-1277.3" font-family="Arial" font-size="14.00" fill="#ffffff">33 Call OptimizedCallTarget.getRootNode !</text>
</g>
<!-- node22&#45;&gt;node33 -->
<g id="edge21" class="edge">
<title>node22&#45;&gt;node33</title>
<path fill="none" stroke="#da2d4f" stroke-width="2" d="M609.94,-1349.8C606.48,-1338.05 601.83,-1322.24 597.89,-1308.84"/>
<polygon fill="#da2d4f" stroke="#da2d4f" stroke-width="2" points="601.23,-1307.78 595.05,-1299.18 594.52,-1309.76 601.23,-1307.78"/>
</g>
<!-- node23&#45;&gt;node22 -->
<g id="edge20" class="edge">
<title>node23&#45;&gt;node22</title>
<path fill="none" stroke="#da2d4f" stroke-width="2" d="M624.1,-1422.81C622.74,-1414.79 621.09,-1405.05 619.58,-1396.07"/>
<polygon fill="#da2d4f" stroke="#da2d4f" stroke-width="2" points="623,-1395.31 617.88,-1386.03 616.09,-1396.47 623,-1395.31"/>
</g>
<!-- node43 -->
<g id="node31" class="node">
<title>node43</title>
<polygon fill="#f9f9f9" stroke="black" points="653,-1038 511,-1038 511,-1002 653,-1002 653,-1038"/>
<text text-anchor="middle" x="582" y="-1016.3" font-family="Arial" font-size="14.00" fill="#1a1919">43 MethodCallTarget</text>
</g>
<!-- node24&#45;&gt;node43 -->
<g id="edge52" class="edge">
<title>node24&#45;&gt;node43</title>
<path fill="none" stroke="#3cb4a4" d="M772.52,-1262.85C770.65,-1226.63 761.58,-1141.4 718,-1089 700.34,-1067.76 674.39,-1052.53 649.89,-1041.93"/>
<polygon fill="#3cb4a4" stroke="#3cb4a4" points="651.17,-1038.67 640.59,-1038.1 648.5,-1045.15 651.17,-1038.67"/>
<text text-anchor="middle" x="771.5" y="-1146.8" font-family="arial" font-size="14.00" fill="#3cb4a4">arg[1]</text>
</g>
<!-- node26&#45;&gt;node33 -->
<g id="edge41" class="edge">
<title>node26&#45;&gt;node33</title>
<path fill="none" stroke="#343d46" stroke-dasharray="5,2" d="M452.23,-2001.18C423.6,-1985.47 394,-1961.11 394,-1927.5 394,-1927.5 394,-1927.5 394,-1581 394,-1455.31 516.64,-1341.38 567.9,-1299.25"/>
<polygon fill="#343d46" stroke="#343d46" points="450.96,-2004.46 461.45,-2005.97 454.19,-1998.25 450.96,-2004.46"/>
</g>
<!-- node27 -->
<g id="node19" class="node">
<title>node27</title>
<polygon fill="#f9f9f9" stroke="black" points="134,-356 0,-356 0,-320 134,-320 134,-356"/>
<text text-anchor="middle" x="67" y="-334.3" font-family="Arial" font-size="14.00" fill="#1a1919">27 ExceptionObject</text>
</g>
<!-- node31 -->
<g id="node22" class="node">
<title>node31</title>
<polygon fill="#e98693" stroke="black" points="178.5,-283 119.5,-283 119.5,-247 178.5,-247 178.5,-283"/>
<text text-anchor="middle" x="149" y="-261.3" font-family="Arial" font-size="14.00" fill="#1a1919">31 End</text>
</g>
<!-- node27&#45;&gt;node31 -->
<g id="edge26" class="edge">
<title>node27&#45;&gt;node31</title>
<path fill="none" stroke="#da2d4f" stroke-width="2" d="M86.85,-319.81C97.33,-310.74 110.34,-299.48 121.74,-289.6"/>
<polygon fill="#da2d4f" stroke="#da2d4f" stroke-width="2" points="124.06,-292.22 129.33,-283.03 119.48,-286.93 124.06,-292.22"/>
</g>
<!-- node27&#45;&gt;node32 -->
<g id="edge36" class="edge">
<title>node27&#45;&gt;node32</title>
<path fill="none" stroke="#3cb4a4" d="M72.1,-319.85C78.52,-300.48 91.04,-268.83 110,-247 168.25,-179.93 266.61,-137.49 319.94,-118.19"/>
<polygon fill="#3cb4a4" stroke="#3cb4a4" points="321.41,-121.38 329.67,-114.75 319.08,-114.78 321.41,-121.38"/>
<text text-anchor="middle" x="167.5" y="-217.8" font-family="arial" font-size="14.00" fill="#3cb4a4">from 31</text>
</g>
<!-- node30 -->
<g id="node21" class="node">
<title>node30</title>
<polygon fill="#e98693" stroke="black" points="491,-196 417,-196 417,-160 491,-160 491,-196"/>
<text text-anchor="middle" x="454" y="-174.3" font-family="Arial" font-size="14.00" fill="#1a1919">30 Merge</text>
</g>
<!-- node29&#45;&gt;node30 -->
<g id="edge27" class="edge">
<title>node29&#45;&gt;node30</title>
<path fill="none" stroke="#da2d4f" stroke-width="2" d="M891.41,-254.49C883.21,-251.95 874.29,-249.28 866,-247 806.04,-230.48 791.17,-225.26 730,-214 650.34,-199.33 556.62,-188.86 501.43,-183.38"/>
<polygon fill="#da2d4f" stroke="#da2d4f" stroke-width="2" points="501.55,-179.88 491.26,-182.39 500.87,-186.85 501.55,-179.88"/>
</g>
<!-- node30&#45;&gt;node32 -->
<g id="edge34" class="edge">
<title>node30&#45;&gt;node32</title>
<path fill="none" stroke="#343d46" stroke-dasharray="5,2" d="M422.3,-153.8C408.6,-143.77 392.86,-132.25 380.26,-123.03"/>
<polygon fill="#343d46" stroke="#343d46" points="420.38,-156.73 430.52,-159.81 424.52,-151.08 420.38,-156.73"/>
</g>
<!-- node73 -->
<g id="node49" class="node">
<title>node73</title>
<polygon fill="#e98693" stroke="black" points="440,-36 360,-36 360,0 440,0 440,-36"/>
<text text-anchor="middle" x="400" y="-14.3" font-family="Arial" font-size="14.00" fill="#1a1919">73 Unwind</text>
</g>
<!-- node30&#45;&gt;node73 -->
<g id="edge33" class="edge">
<title>node30&#45;&gt;node73</title>
<path fill="none" stroke="#da2d4f" stroke-width="2" d="M452.37,-159.98C449.55,-135.56 442.39,-89.61 426,-54 424.53,-50.81 422.74,-47.62 420.79,-44.55"/>
<polygon fill="#da2d4f" stroke="#da2d4f" stroke-width="2" points="423.61,-42.47 415.03,-36.26 417.86,-46.47 423.61,-42.47"/>
</g>
<!-- node31&#45;&gt;node30 -->
<g id="edge28" class="edge">
<title>node31&#45;&gt;node30</title>
<path fill="none" stroke="#da2d4f" stroke-width="2" d="M178.76,-262.24C237.06,-258.42 364.04,-248.12 403,-229 415,-223.11 425.94,-213.31 434.58,-203.95"/>
<polygon fill="#da2d4f" stroke="#da2d4f" stroke-width="2" points="437.34,-206.11 441.27,-196.27 432.06,-201.51 437.34,-206.11"/>
</g>
<!-- node32&#45;&gt;node73 -->
<g id="edge77" class="edge">
<title>node32&#45;&gt;node73</title>
<path fill="none" stroke="#3cb4a4" d="M358.57,-86.57C360.01,-76.6 362.76,-64.1 368,-54 369.82,-50.48 372.09,-47.05 374.58,-43.8"/>
<polygon fill="#3cb4a4" stroke="#3cb4a4" points="377.28,-46.03 381.06,-36.13 371.93,-41.51 377.28,-46.03"/>
<text text-anchor="middle" x="397" y="-57.8" font-family="arial" font-size="14.00" fill="#3cb4a4">exception</text>
</g>
<!-- node33&#45;&gt;node27 -->
<g id="edge43" class="edge">
<title>node33&#45;&gt;node27</title>
<path fill="none" stroke="#da2d4f" stroke-width="2" d="M451.71,-1267.75C315.28,-1253.73 127,-1228.35 127,-1195 127,-1195 127,-1195 127,-424 127,-400.41 111.38,-378.76 96.08,-363.22"/>
<polygon fill="#da2d4f" stroke="#da2d4f" stroke-width="2" points="98.3,-360.5 88.66,-356.09 93.45,-365.54 98.3,-360.5"/>
<text text-anchor="middle" x="148.5" y="-798.8" font-family="arial" font-size="14.00" fill="#da2d4f">unwind</text>
</g>
<!-- node35 -->
<g id="node25" class="node">
<title>node35</title>
<polygon fill="#e98693" stroke="black" points="729,-1212 623,-1212 623,-1176 729,-1176 729,-1212"/>
<text text-anchor="middle" x="676" y="-1190.3" font-family="Arial" font-size="14.00" fill="#1a1919">35 KillingBegin</text>
</g>
<!-- node33&#45;&gt;node35 -->
<g id="edge42" class="edge">
<title>node33&#45;&gt;node35</title>
<path fill="none" stroke="#da2d4f" stroke-width="2" d="M607.4,-1262.8C619.99,-1250.36 637.18,-1233.36 651.21,-1219.5"/>
<polygon fill="#da2d4f" stroke="#da2d4f" stroke-width="2" points="653.97,-1221.69 658.62,-1212.18 649.05,-1216.72 653.97,-1221.69"/>
</g>
<!-- node36 -->
<g id="node26" class="node">
<title>node36</title>
<polygon fill="#f9f9f9" stroke="black" points="605,-1212 463,-1212 463,-1176 605,-1176 605,-1212"/>
<text text-anchor="middle" x="534" y="-1190.3" font-family="Arial" font-size="14.00" fill="#1a1919">36 MethodCallTarget</text>
</g>
<!-- node33&#45;&gt;node36 -->
<g id="edge45" class="edge">
<title>node33&#45;&gt;node36</title>
<path fill="none" stroke="#3cb4a4" d="M578.67,-1262.8C570.7,-1250.7 559.89,-1234.3 550.91,-1220.67"/>
<polygon fill="#3cb4a4" stroke="#3cb4a4" points="553.74,-1218.6 545.32,-1212.18 547.89,-1222.45 553.74,-1218.6"/>
<text text-anchor="middle" x="583.5" y="-1233.8" font-family="arial" font-size="14.00" fill="#3cb4a4">arg[0]</text>
</g>
<!-- node40 -->
<g id="node29" class="node">
<title>node40</title>
<polygon fill="#da2d4f" stroke="black" points="709,-1125 455,-1125 455,-1089 709,-1089 709,-1125"/>
<text text-anchor="middle" x="582" y="-1103.3" font-family="Arial" font-size="14.00" fill="#ffffff">40 Call RootNode.getFrameDescriptor !</text>
</g>
<!-- node35&#45;&gt;node40 -->
<g id="edge44" class="edge">
<title>node35&#45;&gt;node40</title>
<path fill="none" stroke="#da2d4f" stroke-width="2" d="M656.98,-1175.8C643.09,-1163.24 624.08,-1146.05 608.67,-1132.12"/>
<polygon fill="#da2d4f" stroke="#da2d4f" stroke-width="2" points="610.76,-1129.29 600.99,-1125.18 606.06,-1134.48 610.76,-1129.29"/>
</g>
<!-- node36&#45;&gt;node40 -->
<g id="edge47" class="edge">
<title>node36&#45;&gt;node40</title>
<path fill="none" stroke="#343d46" stroke-dasharray="5,2" d="M548.73,-1166.91C556.39,-1153.35 565.54,-1137.15 572.3,-1125.18"/>
<polygon fill="#343d46" stroke="#343d46" points="545.58,-1165.37 543.71,-1175.8 551.68,-1168.81 545.58,-1165.37"/>
</g>
<!-- node37 -->
<g id="node27" class="node">
<title>node37</title>
<polygon fill="#f9f9f9" stroke="black" points="286,-356 152,-356 152,-320 286,-320 286,-356"/>
<text text-anchor="middle" x="219" y="-334.3" font-family="Arial" font-size="14.00" fill="#1a1919">37 ExceptionObject</text>
</g>
<!-- node37&#45;&gt;node32 -->
<g id="edge37" class="edge">
<title>node37&#45;&gt;node32</title>
<path fill="none" stroke="#3cb4a4" d="M217.86,-319.79C216.92,-295.15 217.8,-248.93 234,-214 252.09,-174.98 291.78,-144.35 321.21,-125.83"/>
<polygon fill="#3cb4a4" stroke="#3cb4a4" points="323.27,-128.67 329.98,-120.47 319.62,-122.7 323.27,-128.67"/>
<text text-anchor="middle" x="257.5" y="-217.8" font-family="arial" font-size="14.00" fill="#3cb4a4">from 39</text>
</g>
<!-- node39 -->
<g id="node28" class="node">
<title>node39</title>
<polygon fill="#e98693" stroke="black" points="419.5,-283 360.5,-283 360.5,-247 419.5,-247 419.5,-283"/>
<text text-anchor="middle" x="390" y="-261.3" font-family="Arial" font-size="14.00" fill="#1a1919">39 End</text>
</g>
<!-- node37&#45;&gt;node39 -->
<g id="edge46" class="edge">
<title>node37&#45;&gt;node39</title>
<path fill="none" stroke="#da2d4f" stroke-width="2" d="M259.96,-319.99C287.5,-308.56 323.6,-293.57 350.78,-282.29"/>
<polygon fill="#da2d4f" stroke="#da2d4f" stroke-width="2" points="352.46,-285.38 360.35,-278.31 349.77,-278.91 352.46,-285.38"/>
</g>
<!-- node39&#45;&gt;node30 -->
<g id="edge29" class="edge">
<title>node39&#45;&gt;node30</title>
<path fill="none" stroke="#da2d4f" stroke-width="2" d="M411.42,-246.66C417.22,-241.36 423.2,-235.27 428,-229 433.55,-221.74 438.52,-213.12 442.58,-205.1"/>
<polygon fill="#da2d4f" stroke="#da2d4f" stroke-width="2" points="445.74,-206.6 446.92,-196.07 439.43,-203.57 445.74,-206.6"/>
</g>
<!-- node40&#45;&gt;node37 -->
<g id="edge49" class="edge">
<title>node40&#45;&gt;node37</title>
<path fill="none" stroke="#da2d4f" stroke-width="2" d="M454.59,-1097.42C359.16,-1087.37 245,-1065.95 245,-1021 245,-1021 245,-1021 245,-424 245,-403.81 238.21,-382.05 231.57,-365.61"/>
<polygon fill="#da2d4f" stroke="#da2d4f" stroke-width="2" points="234.66,-363.93 227.51,-356.11 228.22,-366.68 234.66,-363.93"/>
<text text-anchor="middle" x="266.5" y="-711.8" font-family="arial" font-size="14.00" fill="#da2d4f">unwind</text>
</g>
<!-- node42 -->
<g id="node30" class="node">
<title>node42</title>
<polygon fill="#e98693" stroke="black" points="777,-1038 671,-1038 671,-1002 777,-1002 777,-1038"/>
<text text-anchor="middle" x="724" y="-1016.3" font-family="Arial" font-size="14.00" fill="#1a1919">42 KillingBegin</text>
</g>
<!-- node40&#45;&gt;node42 -->
<g id="edge48" class="edge">
<title>node40&#45;&gt;node42</title>
<path fill="none" stroke="#da2d4f" stroke-width="2" d="M610.74,-1088.8C632.58,-1075.72 662.82,-1057.62 686.56,-1043.41"/>
<polygon fill="#da2d4f" stroke="#da2d4f" stroke-width="2" points="688.52,-1046.31 695.31,-1038.18 684.93,-1040.31 688.52,-1046.31"/>
</g>
<!-- node40&#45;&gt;node43 -->
<g id="edge51" class="edge">
<title>node40&#45;&gt;node43</title>
<path fill="none" stroke="#3cb4a4" d="M582,-1088.8C582,-1077.16 582,-1061.55 582,-1048.24"/>
<polygon fill="#3cb4a4" stroke="#3cb4a4" points="585.5,-1048.18 582,-1038.18 578.5,-1048.18 585.5,-1048.18"/>
<text text-anchor="middle" x="599.5" y="-1059.8" font-family="arial" font-size="14.00" fill="#3cb4a4">arg[0]</text>
</g>
<!-- node47 -->
<g id="node34" class="node">
<title>node47</title>
<polygon fill="#da2d4f" stroke="black" points="726,-951 452,-951 452,-915 726,-915 726,-951"/>
<text text-anchor="middle" x="589" y="-929.3" font-family="Arial" font-size="14.00" fill="#ffffff">47 Call OptimizedCallTarget.createFrame !</text>
</g>
<!-- node42&#45;&gt;node47 -->
<g id="edge50" class="edge">
<title>node42&#45;&gt;node47</title>
<path fill="none" stroke="#da2d4f" stroke-width="2" d="M696.68,-1001.8C676,-988.78 647.42,-970.78 624.89,-956.6"/>
<polygon fill="#da2d4f" stroke="#da2d4f" stroke-width="2" points="626.61,-953.54 616.28,-951.18 622.88,-959.47 626.61,-953.54"/>
</g>
<!-- node43&#45;&gt;node47 -->
<g id="edge54" class="edge">
<title>node43&#45;&gt;node47</title>
<path fill="none" stroke="#343d46" stroke-dasharray="5,2" d="M584.25,-991.73C585.34,-978.42 586.63,-962.81 587.59,-951.18"/>
<polygon fill="#343d46" stroke="#343d46" points="580.75,-991.55 583.42,-1001.8 587.73,-992.12 580.75,-991.55"/>
</g>
<!-- node44 -->
<g id="node32" class="node">
<title>node44</title>
<polygon fill="#f9f9f9" stroke="black" points="438,-356 304,-356 304,-320 438,-320 438,-356"/>
<text text-anchor="middle" x="371" y="-334.3" font-family="Arial" font-size="14.00" fill="#1a1919">44 ExceptionObject</text>
</g>
<!-- node44&#45;&gt;node32 -->
<g id="edge38" class="edge">
<title>node44&#45;&gt;node32</title>
<path fill="none" stroke="#3cb4a4" d="M338.63,-319.87C331.17,-314.84 323.75,-308.83 318,-302 295.17,-274.91 293.27,-263.67 286,-229 278.11,-191.33 306.24,-153.86 329.4,-130.36"/>
<polygon fill="#3cb4a4" stroke="#3cb4a4" points="331.98,-132.73 336.69,-123.24 327.09,-127.72 331.98,-132.73"/>
<text text-anchor="middle" x="309.5" y="-217.8" font-family="arial" font-size="14.00" fill="#3cb4a4">from 46</text>
</g>
<!-- node46 -->
<g id="node33" class="node">
<title>node46</title>
<polygon fill="#e98693" stroke="black" points="496.5,-283 437.5,-283 437.5,-247 496.5,-247 496.5,-283"/>
<text text-anchor="middle" x="467" y="-261.3" font-family="Arial" font-size="14.00" fill="#1a1919">46 End</text>
</g>
<!-- node44&#45;&gt;node46 -->
<g id="edge53" class="edge">
<title>node44&#45;&gt;node46</title>
<path fill="none" stroke="#da2d4f" stroke-width="2" d="M394.24,-319.81C406.74,-310.57 422.32,-299.04 435.86,-289.03"/>
<polygon fill="#da2d4f" stroke="#da2d4f" stroke-width="2" points="438.02,-291.79 443.98,-283.03 433.85,-286.16 438.02,-291.79"/>
</g>
<!-- node46&#45;&gt;node30 -->
<g id="edge30" class="edge">
<title>node46&#45;&gt;node30</title>
<path fill="none" stroke="#da2d4f" stroke-width="2" d="M464.37,-246.8C462.59,-235.16 460.2,-219.55 458.17,-206.24"/>
<polygon fill="#da2d4f" stroke="#da2d4f" stroke-width="2" points="461.6,-205.53 456.63,-196.18 454.68,-206.59 461.6,-205.53"/>
</g>
<!-- node47&#45;&gt;node44 -->
<g id="edge56" class="edge">
<title>node47&#45;&gt;node44</title>
<path fill="none" stroke="#da2d4f" stroke-width="2" d="M471.48,-914.99C402.2,-901.53 328,-879.52 328,-847 328,-847 328,-847 328,-424 328,-402.37 339.22,-380.66 350.2,-364.59"/>
<polygon fill="#da2d4f" stroke="#da2d4f" stroke-width="2" points="353.18,-366.44 356.2,-356.28 347.51,-362.34 353.18,-366.44"/>
<text text-anchor="middle" x="349.5" y="-624.8" font-family="arial" font-size="14.00" fill="#da2d4f">unwind</text>
</g>
<!-- node49 -->
<g id="node35" class="node">
<title>node49</title>
<polygon fill="#e98693" stroke="black" points="640,-864 534,-864 534,-828 640,-828 640,-864"/>
<text text-anchor="middle" x="587" y="-842.3" font-family="Arial" font-size="14.00" fill="#1a1919">49 KillingBegin</text>
</g>
<!-- node47&#45;&gt;node49 -->
<g id="edge55" class="edge">
<title>node47&#45;&gt;node49</title>
<path fill="none" stroke="#da2d4f" stroke-width="2" d="M588.6,-914.8C588.32,-903.16 587.95,-887.55 587.64,-874.24"/>
<polygon fill="#da2d4f" stroke="#da2d4f" stroke-width="2" points="591.14,-874.09 587.4,-864.18 584.14,-874.26 591.14,-874.09"/>
</g>
<!-- node47&#45;&gt;node50 -->
<g id="edge59" class="edge">
<title>node47&#45;&gt;node50</title>
<path fill="none" stroke="#3cb4a4" d="M617.33,-914.8C638.87,-901.72 668.68,-883.62 692.09,-869.41"/>
<polygon fill="#3cb4a4" stroke="#3cb4a4" points="693.98,-872.36 700.71,-864.18 690.35,-866.37 693.98,-872.36"/>
<text text-anchor="middle" x="685.5" y="-885.8" font-family="arial" font-size="14.00" fill="#3cb4a4">arg[1]</text>
</g>
<!-- node54 -->
<g id="node39" class="node">
<title>node54</title>
<polygon fill="#da2d4f" stroke="black" points="712.5,-777 461.5,-777 461.5,-741 712.5,-741 712.5,-777"/>
<text text-anchor="middle" x="587" y="-755.3" font-family="Arial" font-size="14.00" fill="#ffffff">54 Call OptimizedCallTarget.callProxy !</text>
</g>
<!-- node49&#45;&gt;node54 -->
<g id="edge57" class="edge">
<title>node49&#45;&gt;node54</title>
<path fill="none" stroke="#da2d4f" stroke-width="2" d="M587,-827.8C587,-816.16 587,-800.55 587,-787.24"/>
<polygon fill="#da2d4f" stroke="#da2d4f" stroke-width="2" points="590.5,-787.18 587,-777.18 583.5,-787.18 590.5,-787.18"/>
</g>
<!-- node50&#45;&gt;node54 -->
<g id="edge61" class="edge">
<title>node50&#45;&gt;node54</title>
<path fill="none" stroke="#343d46" stroke-dasharray="5,2" d="M691.51,-822.56C667.76,-808.35 637.53,-790.25 615.69,-777.18"/>
<polygon fill="#343d46" stroke="#343d46" points="689.89,-825.67 700.26,-827.8 693.48,-819.66 689.89,-825.67"/>
</g>
<!-- node51 -->
<g id="node37" class="node">
<title>node51</title>
<polygon fill="#f9f9f9" stroke="black" points="590,-356 456,-356 456,-320 590,-320 590,-356"/>
<text text-anchor="middle" x="523" y="-334.3" font-family="Arial" font-size="14.00" fill="#1a1919">51 ExceptionObject</text>
</g>
<!-- node51&#45;&gt;node32 -->
<g id="edge39" class="edge">
<title>node51&#45;&gt;node32</title>
<path fill="none" stroke="#3cb4a4" d="M455.92,-320C410.51,-307.81 357.62,-292.02 351,-283 334.06,-259.93 344.93,-176.82 352.12,-133.19"/>
<polygon fill="#3cb4a4" stroke="#3cb4a4" points="355.58,-133.7 353.81,-123.26 348.68,-132.53 355.58,-133.7"/>
<text text-anchor="middle" x="366.5" y="-217.8" font-family="arial" font-size="14.00" fill="#3cb4a4">from 53</text>
</g>
<!-- node53 -->
<g id="node38" class="node">
<title>node53</title>
<polygon fill="#e98693" stroke="black" points="573.5,-283 514.5,-283 514.5,-247 573.5,-247 573.5,-283"/>
<text text-anchor="middle" x="544" y="-261.3" font-family="Arial" font-size="14.00" fill="#1a1919">53 End</text>
</g>
<!-- node51&#45;&gt;node53 -->
<g id="edge60" class="edge">
<title>node51&#45;&gt;node53</title>
<path fill="none" stroke="#da2d4f" stroke-width="2" d="M528.08,-319.81C530.48,-311.7 533.4,-301.84 536.08,-292.78"/>
<polygon fill="#da2d4f" stroke="#da2d4f" stroke-width="2" points="539.48,-293.61 538.96,-283.03 532.77,-291.63 539.48,-293.61"/>
</g>
<!-- node53&#45;&gt;node30 -->
<g id="edge31" class="edge">
<title>node53&#45;&gt;node30</title>
<path fill="none" stroke="#da2d4f" stroke-width="2" d="M525.79,-246.8C512.49,-234.24 494.29,-217.05 479.54,-203.12"/>
<polygon fill="#da2d4f" stroke="#da2d4f" stroke-width="2" points="481.86,-200.5 472.19,-196.18 477.05,-205.59 481.86,-200.5"/>
</g>
<!-- node54&#45;&gt;node51 -->
<g id="edge63" class="edge">
<title>node54&#45;&gt;node51</title>
<path fill="none" stroke="#da2d4f" stroke-width="2" d="M461.42,-746.18C420.79,-734.84 386,-713.35 386,-673 386,-673 386,-673 386,-424 386,-391.15 414.79,-370.56 445.98,-357.88"/>
<polygon fill="#da2d4f" stroke="#da2d4f" stroke-width="2" points="447.59,-361.02 455.7,-354.2 445.11,-354.47 447.59,-361.02"/>
<text text-anchor="middle" x="407.5" y="-537.8" font-family="arial" font-size="14.00" fill="#da2d4f">unwind</text>
</g>
<!-- node56 -->
<g id="node40" class="node">
<title>node56</title>
<polygon fill="#e98693" stroke="black" points="559,-690 453,-690 453,-654 559,-654 559,-690"/>
<text text-anchor="middle" x="506" y="-668.3" font-family="Arial" font-size="14.00" fill="#1a1919">56 KillingBegin</text>
</g>
<!-- node54&#45;&gt;node56 -->
<g id="edge62" class="edge">
<title>node54&#45;&gt;node56</title>
<path fill="none" stroke="#da2d4f" stroke-width="2" d="M570.61,-740.8C558.75,-728.36 542.56,-711.36 529.35,-697.5"/>
<polygon fill="#da2d4f" stroke="#da2d4f" stroke-width="2" points="531.8,-695 522.37,-690.18 526.73,-699.83 531.8,-695"/>
</g>
<!-- node54&#45;&gt;node60 -->
<g id="edge71" class="edge">
<title>node54&#45;&gt;node60</title>
<path fill="none" stroke="#3cb4a4" d="M712.67,-745.99C743.43,-740.83 775.88,-733.48 805,-723 823.45,-716.36 842.4,-705.65 857.72,-695.85"/>
<polygon fill="#3cb4a4" stroke="#3cb4a4" points="859.85,-698.64 866.28,-690.22 856,-692.79 859.85,-698.64"/>
<text text-anchor="middle" x="853.5" y="-711.8" font-family="arial" font-size="14.00" fill="#3cb4a4">arg[1]</text>
</g>
<!-- node74 -->
<g id="node50" class="node">
<title>node74</title>
<polygon fill="#e98693" stroke="black" points="490,-443 414,-443 414,-407 490,-407 490,-443"/>
<text text-anchor="middle" x="452" y="-421.3" font-family="Arial" font-size="14.00" fill="#1a1919">74 Return</text>
</g>
<!-- node54&#45;&gt;node74 -->
<g id="edge78" class="edge">
<title>node54&#45;&gt;node74</title>
<path fill="none" stroke="#3cb4a4" d="M587,-740.74C587,-723.57 587,-696.46 587,-673 587,-673 587,-673 587,-497 587,-486.87 538.76,-463.48 499.95,-446.3"/>
<polygon fill="#3cb4a4" stroke="#3cb4a4" points="500.89,-442.89 490.32,-442.08 498.08,-449.3 500.89,-442.89"/>
<text text-anchor="middle" x="604" y="-581.3" font-family="arial" font-size="14.00" fill="#3cb4a4">result</text>
</g>
<!-- node75 -->
<g id="node51" class="node">
<title>node75</title>
<polygon fill="#e98693" stroke="black" points="857,-283 781,-283 781,-247 857,-247 857,-283"/>
<text text-anchor="middle" x="819" y="-261.3" font-family="Arial" font-size="14.00" fill="#1a1919">75 Return</text>
</g>
<!-- node54&#45;&gt;node75 -->
<g id="edge79" class="edge">
<title>node54&#45;&gt;node75</title>
<path fill="none" stroke="#3cb4a4" d="M612.36,-740.81C672.1,-698.56 820.69,-582.88 875,-443 894.78,-392.04 896.38,-370.31 875,-320 870.09,-308.44 861.36,-298.16 852.23,-289.75"/>
<polygon fill="#3cb4a4" stroke="#3cb4a4" points="854.41,-287 844.55,-283.13 849.85,-292.31 854.41,-287"/>
<text text-anchor="middle" x="874" y="-494.3" font-family="arial" font-size="14.00" fill="#3cb4a4">result</text>
</g>
<!-- node56&#45;&gt;node59 -->
<g id="edge64" class="edge">
<title>node56&#45;&gt;node59</title>
<path fill="none" stroke="#da2d4f" stroke-width="2" d="M503.17,-653.8C501.25,-642.16 498.68,-626.55 496.49,-613.24"/>
<polygon fill="#da2d4f" stroke="#da2d4f" stroke-width="2" points="499.91,-612.47 494.83,-603.18 493,-613.61 499.91,-612.47"/>
</g>
<!-- node57 -->
<g id="node41" class="node">
<title>node57</title>
<polygon fill="#e98693" stroke="black" points="694,-516 624,-516 624,-480 694,-480 694,-516"/>
<text text-anchor="middle" x="659" y="-494.3" font-family="Arial" font-size="14.00" fill="#1a1919">57 Begin</text>
</g>
<!-- node64 -->
<g id="node47" class="node">
<title>node64</title>
<polygon fill="#da2d4f" stroke="black" points="865.5,-443 508.5,-443 508.5,-407 865.5,-407 865.5,-443"/>
<text text-anchor="middle" x="687" y="-421.3" font-family="Arial" font-size="14.00" fill="#ffffff">64 Call OptimizedCompilationProfile.profileReturnValue !</text>
</g>
<!-- node57&#45;&gt;node64 -->
<g id="edge65" class="edge">
<title>node57&#45;&gt;node64</title>
<path fill="none" stroke="#da2d4f" stroke-width="2" d="M665.78,-479.81C669.01,-471.62 672.95,-461.62 676.56,-452.48"/>
<polygon fill="#da2d4f" stroke="#da2d4f" stroke-width="2" points="679.87,-453.62 680.28,-443.03 673.36,-451.05 679.87,-453.62"/>
</g>
<!-- node58 -->
<g id="node42" class="node">
<title>node58</title>
<polygon fill="#e98693" stroke="black" points="496,-516 426,-516 426,-480 496,-480 496,-516"/>
<text text-anchor="middle" x="461" y="-494.3" font-family="Arial" font-size="14.00" fill="#1a1919">58 Begin</text>
</g>
<!-- node58&#45;&gt;node74 -->
<g id="edge66" class="edge">
<title>node58&#45;&gt;node74</title>
<path fill="none" stroke="#da2d4f" stroke-width="2" d="M458.82,-479.81C457.8,-471.79 456.57,-462.05 455.43,-453.07"/>
<polygon fill="#da2d4f" stroke="#da2d4f" stroke-width="2" points="458.89,-452.51 454.16,-443.03 451.94,-453.39 458.89,-452.51"/>
</g>
<!-- node59&#45;&gt;node57 -->
<g id="edge69" class="edge">
<title>node59&#45;&gt;node57</title>
<path fill="none" stroke="#da2d4f" stroke-width="2" d="M519.2,-570.15C545.5,-556.77 585.75,-536.28 616.32,-520.72"/>
<polygon fill="#da2d4f" stroke="#da2d4f" stroke-width="2" points="618.15,-523.72 625.47,-516.07 614.97,-517.48 618.15,-523.72"/>
<text text-anchor="middle" x="590.5" y="-537.8" font-family="arial" font-size="14.00" fill="#da2d4f">F</text>
</g>
<!-- node59&#45;&gt;node58 -->
<g id="edge68" class="edge">
<title>node59&#45;&gt;node58</title>
<path fill="none" stroke="#da2d4f" stroke-width="2" d="M485.73,-566.8C481.44,-555.05 475.68,-539.24 470.79,-525.84"/>
<polygon fill="#da2d4f" stroke="#da2d4f" stroke-width="2" points="473.98,-524.37 467.26,-516.18 467.4,-526.77 473.98,-524.37"/>
<text text-anchor="middle" x="483.5" y="-537.8" font-family="arial" font-size="14.00" fill="#da2d4f">T</text>
</g>
<!-- node60&#45;&gt;node64 -->
<g id="edge73" class="edge">
<title>node60&#45;&gt;node64</title>
<path fill="none" stroke="#343d46" stroke-dasharray="5,2" d="M869.32,-646.05C828.09,-596.28 736.55,-485.8 701.26,-443.21"/>
<polygon fill="#343d46" stroke="#343d46" points="866.65,-648.3 875.73,-653.77 872.04,-643.84 866.65,-648.3"/>
</g>
<!-- node61 -->
<g id="node45" class="node">
<title>node61</title>
<polygon fill="#f9f9f9" stroke="black" points="742,-356 608,-356 608,-320 742,-320 742,-356"/>
<text text-anchor="middle" x="675" y="-334.3" font-family="Arial" font-size="14.00" fill="#1a1919">61 ExceptionObject</text>
</g>
<!-- node61&#45;&gt;node32 -->
<g id="edge40" class="edge">
<title>node61&#45;&gt;node32</title>
<path fill="none" stroke="#3cb4a4" d="M676.15,-319.73C676.56,-300.27 674.46,-268.52 659,-247 594.9,-157.79 459.79,-123.35 394.24,-111.51"/>
<polygon fill="#3cb4a4" stroke="#3cb4a4" points="394.79,-108.05 384.34,-109.8 393.6,-114.95 394.79,-108.05"/>
<text text-anchor="middle" x="667.5" y="-217.8" font-family="arial" font-size="14.00" fill="#3cb4a4">from 63</text>
</g>
<!-- node63 -->
<g id="node46" class="node">
<title>node63</title>
<polygon fill="#e98693" stroke="black" points="650.5,-283 591.5,-283 591.5,-247 650.5,-247 650.5,-283"/>
<text text-anchor="middle" x="621" y="-261.3" font-family="Arial" font-size="14.00" fill="#1a1919">63 End</text>
</g>
<!-- node61&#45;&gt;node63 -->
<g id="edge72" class="edge">
<title>node61&#45;&gt;node63</title>
<path fill="none" stroke="#da2d4f" stroke-width="2" d="M661.93,-319.81C655.36,-311.18 647.28,-300.56 640.04,-291.03"/>
<polygon fill="#da2d4f" stroke="#da2d4f" stroke-width="2" points="642.79,-288.87 633.95,-283.03 637.22,-293.11 642.79,-288.87"/>
</g>
<!-- node63&#45;&gt;node30 -->
<g id="edge32" class="edge">
<title>node63&#45;&gt;node30</title>
<path fill="none" stroke="#da2d4f" stroke-width="2" d="M591.14,-248.8C564.9,-235.45 526.4,-215.85 496.86,-200.82"/>
<polygon fill="#da2d4f" stroke="#da2d4f" stroke-width="2" points="498.12,-197.53 487.62,-196.11 494.94,-203.77 498.12,-197.53"/>
</g>
<!-- node64&#45;&gt;node61 -->
<g id="edge75" class="edge">
<title>node64&#45;&gt;node61</title>
<path fill="none" stroke="#da2d4f" stroke-width="2" d="M684.57,-406.8C682.93,-395.16 680.72,-379.55 678.85,-366.24"/>
<polygon fill="#da2d4f" stroke="#da2d4f" stroke-width="2" points="682.29,-365.59 677.42,-356.18 675.36,-366.57 682.29,-365.59"/>
<text text-anchor="middle" x="703.5" y="-377.8" font-family="arial" font-size="14.00" fill="#da2d4f">unwind</text>
</g>
<!-- node66 -->
<g id="node48" class="node">
<title>node66</title>
<polygon fill="#e98693" stroke="black" points="866,-356 760,-356 760,-320 866,-320 866,-356"/>
<text text-anchor="middle" x="813" y="-334.3" font-family="Arial" font-size="14.00" fill="#1a1919">66 KillingBegin</text>
</g>
<!-- node64&#45;&gt;node66 -->
<g id="edge74" class="edge">
<title>node64&#45;&gt;node66</title>
<path fill="none" stroke="#da2d4f" stroke-width="2" d="M712.5,-406.8C731.71,-393.84 758.24,-375.94 779.22,-361.79"/>
<polygon fill="#da2d4f" stroke="#da2d4f" stroke-width="2" points="781.21,-364.67 787.54,-356.18 777.29,-358.87 781.21,-364.67"/>
</g>
<!-- node66&#45;&gt;node75 -->
<g id="edge76" class="edge">
<title>node66&#45;&gt;node75</title>
<path fill="none" stroke="#da2d4f" stroke-width="2" d="M814.45,-319.81C815.13,-311.79 815.95,-302.05 816.71,-293.07"/>
<polygon fill="#da2d4f" stroke="#da2d4f" stroke-width="2" points="820.21,-293.29 817.56,-283.03 813.23,-292.7 820.21,-293.29"/>
</g>
</g>
</svg>
