<?xml version="1.0" encoding="UTF-8" standalone="no"?>
<!DOCTYPE svg PUBLIC "-//W3C//DTD SVG 1.1//EN"
 "http://www.w3.org/Graphics/SVG/1.1/DTD/svg11.dtd">
<!-- Generated by graphviz version 2.43.0 (0)
 -->
<!-- Title: G Pages: 1 -->
<svg width="2410pt" height="620pt"
 viewBox="0.00 0.00 2409.50 620.00" xmlns="http://www.w3.org/2000/svg" xmlns:xlink="http://www.w3.org/1999/xlink">
<g id="graph0" class="graph" transform="scale(1 1) rotate(0) translate(4 616)">
<title>G</title>
<polygon fill="white" stroke="transparent" points="-4,4 -4,-616 2405.5,-616 2405.5,4 -4,4"/>
<!-- node0 -->
<g id="node1" class="node">
<title>node0</title>
<polygon fill="#f9f9f9" stroke="black" points="1699,-612 1591,-612 1591,-576 1699,-576 1699,-612"/>
<text text-anchor="middle" x="1645" y="-590.3" font-family="Arial" font-size="14.00" fill="#1a1919">0 FunctionRoot</text>
</g>
<!-- node1 -->
<g id="node2" class="node">
<title>node1</title>
<polygon fill="#f9f9f9" stroke="black" points="1599.5,-540 1512.5,-540 1512.5,-504 1599.5,-504 1599.5,-540"/>
<text text-anchor="middle" x="1556" y="-518.3" font-family="Arial" font-size="14.00" fill="#1a1919">1 InnerRoot</text>
</g>
<!-- node0&#45;&gt;node1 -->
<g id="edge1" class="edge">
<title>node0&#45;&gt;node1</title>
<path fill="none" stroke="#1a1919" d="M1623,-575.7C1611.79,-566.88 1598,-556.03 1585.85,-546.47"/>
<polygon fill="#1a1919" stroke="#1a1919" points="1587.77,-543.54 1577.75,-540.1 1583.44,-549.04 1587.77,-543.54"/>
</g>
<!-- node25 -->
<g id="node26" class="node">
<title>node25</title>
<polygon fill="#f9f9f9" stroke="black" points="1850.5,-540 1617.5,-540 1617.5,-504 1850.5,-504 1850.5,-540"/>
<text text-anchor="middle" x="1734" y="-518.3" font-family="Arial" font-size="14.00" fill="#1a1919">25 ExecutionContext$CalleeContext</text>
</g>
<!-- node0&#45;&gt;node25 -->
<g id="edge2" class="edge">
<title>node0&#45;&gt;node25</title>
<path fill="none" stroke="#1a1919" d="M1667,-575.7C1678.21,-566.88 1692,-556.03 1704.15,-546.47"/>
<polygon fill="#1a1919" stroke="#1a1919" points="1706.56,-549.04 1712.25,-540.1 1702.23,-543.54 1706.56,-549.04"/>
</g>
<!-- node2 -->
<g id="node3" class="node">
<title>node2</title>
<polygon fill="#f9f9f9" stroke="black" points="1609,-468 1503,-468 1503,-432 1609,-432 1609,-468"/>
<text text-anchor="middle" x="1556" y="-446.3" font-family="Arial" font-size="14.00" fill="#1a1919">2 ReturnTarget</text>
</g>
<!-- node1&#45;&gt;node2 -->
<g id="edge3" class="edge">
<title>node1&#45;&gt;node2</title>
<path fill="none" stroke="#1a1919" d="M1556,-503.7C1556,-495.98 1556,-486.71 1556,-478.11"/>
<polygon fill="#1a1919" stroke="#1a1919" points="1559.5,-478.1 1556,-468.1 1552.5,-478.1 1559.5,-478.1"/>
</g>
<!-- node3 -->
<g id="node4" class="node">
<title>node3</title>
<polygon fill="#f9f9f9" stroke="black" points="1525.5,-396 1464.5,-396 1464.5,-360 1525.5,-360 1525.5,-396"/>
<text text-anchor="middle" x="1495" y="-374.3" font-family="Arial" font-size="14.00" fill="#1a1919">3 Block</text>
</g>
<!-- node2&#45;&gt;node3 -->
<g id="edge4" class="edge">
<title>node2&#45;&gt;node3</title>
<path fill="none" stroke="#1a1919" d="M1540.92,-431.7C1533.61,-423.3 1524.69,-413.07 1516.66,-403.86"/>
<polygon fill="#1a1919" stroke="#1a1919" points="1519.11,-401.34 1509.91,-396.1 1513.84,-405.94 1519.11,-401.34"/>
</g>
<!-- node23 -->
<g id="node24" class="node">
<title>node23</title>
<polygon fill="#f9f9f9" stroke="black" points="1750.5,-396 1601.5,-396 1601.5,-360 1750.5,-360 1750.5,-396"/>
<text text-anchor="middle" x="1676" y="-374.3" font-family="Arial" font-size="14.00" fill="#1a1919">23 ReadLocalVariable</text>
</g>
<!-- node2&#45;&gt;node23 -->
<g id="edge5" class="edge">
<title>node2&#45;&gt;node23</title>
<path fill="none" stroke="#1a1919" d="M1585.36,-431.88C1601.05,-422.72 1620.56,-411.34 1637.45,-401.48"/>
<polygon fill="#1a1919" stroke="#1a1919" points="1639.66,-404.25 1646.53,-396.19 1636.13,-398.21 1639.66,-404.25"/>
</g>
<!-- node4 -->
<g id="node5" class="node">
<title>node4</title>
<polygon fill="#f9f9f9" stroke="black" points="1088.5,-324 1027.5,-324 1027.5,-288 1088.5,-288 1088.5,-324"/>
<text text-anchor="middle" x="1058" y="-302.3" font-family="Arial" font-size="14.00" fill="#1a1919">4 Block</text>
</g>
<!-- node3&#45;&gt;node4 -->
<g id="edge6" class="edge">
<title>node3&#45;&gt;node4</title>
<path fill="none" stroke="#1a1919" d="M1464.27,-372.08C1387.17,-359.73 1185.5,-327.42 1098.69,-313.52"/>
<polygon fill="#1a1919" stroke="#1a1919" points="1099.12,-310.04 1088.7,-311.92 1098.02,-316.95 1099.12,-310.04"/>
</g>
<!-- node13 -->
<g id="node14" class="node">
<title>node13</title>
<polygon fill="#f9f9f9" stroke="black" points="1593,-324 1397,-324 1397,-288 1593,-288 1593,-324"/>
<text text-anchor="middle" x="1495" y="-302.3" font-family="Arial" font-size="14.00" fill="#1a1919">13 ReturnNode$FrameReturn</text>
</g>
<!-- node3&#45;&gt;node13 -->
<g id="edge7" class="edge">
<title>node3&#45;&gt;node13</title>
<path fill="none" stroke="#1a1919" d="M1495,-359.7C1495,-351.98 1495,-342.71 1495,-334.11"/>
<polygon fill="#1a1919" stroke="#1a1919" points="1498.5,-334.1 1495,-324.1 1491.5,-334.1 1498.5,-334.1"/>
</g>
<!-- node5 -->
<g id="node6" class="node">
<title>node5</title>
<polygon fill="#f9f9f9" stroke="black" points="652.5,-252 453.5,-252 453.5,-216 652.5,-216 652.5,-252"/>
<text text-anchor="middle" x="553" y="-230.3" font-family="Arial" font-size="14.00" fill="#1a1919">5 WriteLocalVariableNodeGen</text>
</g>
<!-- node4&#45;&gt;node5 -->
<g id="edge8" class="edge">
<title>node4&#45;&gt;node5</title>
<path fill="none" stroke="#1a1919" d="M1027.17,-300.73C956.37,-290.91 779.29,-266.37 662.71,-250.21"/>
<polygon fill="#1a1919" stroke="#1a1919" points="663.06,-246.72 652.68,-248.82 662.1,-253.66 663.06,-246.72"/>
</g>
<!-- node9 -->
<g id="node10" class="node">
<title>node9</title>
<polygon fill="#f9f9f9" stroke="black" points="1157.5,-252 958.5,-252 958.5,-216 1157.5,-216 1157.5,-252"/>
<text text-anchor="middle" x="1058" y="-230.3" font-family="Arial" font-size="14.00" fill="#1a1919">9 WriteLocalVariableNodeGen</text>
</g>
<!-- node4&#45;&gt;node9 -->
<g id="edge9" class="edge">
<title>node4&#45;&gt;node9</title>
<path fill="none" stroke="#1a1919" d="M1058,-287.7C1058,-279.98 1058,-270.71 1058,-262.11"/>
<polygon fill="#1a1919" stroke="#1a1919" points="1061.5,-262.1 1058,-252.1 1054.5,-262.1 1061.5,-262.1"/>
</g>
<!-- node6 -->
<g id="node7" class="node">
<title>node6</title>
<polygon fill="#f9f9f9" stroke="black" points="392,-180 0,-180 0,-144 392,-144 392,-180"/>
<text text-anchor="middle" x="196" y="-158.3" font-family="Arial" font-size="14.00" fill="#1a1919">6 WriteLocalVariableNodeGen$WriteLocalFrameSlotNodeGen</text>
</g>
<!-- node5&#45;&gt;node6 -->
<g id="edge10" class="edge">
<title>node5&#45;&gt;node6</title>
<path fill="none" stroke="#1a1919" d="M466.12,-215.97C413.76,-205.7 346.96,-192.6 292.9,-182"/>
<polygon fill="#1a1919" stroke="#1a1919" points="293.44,-178.54 282.96,-180.05 292.09,-185.41 293.44,-178.54"/>
</g>
<!-- node7 -->
<g id="node8" class="node">
<title>node7</title>
<polygon fill="#f9f9f9" stroke="black" points="695.5,-180 410.5,-180 410.5,-144 695.5,-144 695.5,-180"/>
<text text-anchor="middle" x="553" y="-158.3" font-family="Arial" font-size="14.00" fill="#1a1919">7 ReadArgumentNode$ArgumentExpression</text>
</g>
<!-- node5&#45;&gt;node7 -->
<g id="edge11" class="edge">
<title>node5&#45;&gt;node7</title>
<path fill="none" stroke="#1a1919" d="M553,-215.7C553,-207.98 553,-198.71 553,-190.11"/>
<polygon fill="#1a1919" stroke="#1a1919" points="556.5,-190.1 553,-180.1 549.5,-190.1 556.5,-190.1"/>
</g>
<!-- node8 -->
<g id="node9" class="node">
<title>node8</title>
<polygon fill="#f9f9f9" stroke="black" points="666,-108 440,-108 440,-72 666,-72 666,-108"/>
<text text-anchor="middle" x="553" y="-86.3" font-family="Arial" font-size="14.00" fill="#1a1919">8 ReadIndexedArgumentNodeGen</text>
</g>
<!-- node7&#45;&gt;node8 -->
<g id="edge12" class="edge">
<title>node7&#45;&gt;node8</title>
<path fill="none" stroke="#1a1919" d="M553,-143.7C553,-135.98 553,-126.71 553,-118.11"/>
<polygon fill="#1a1919" stroke="#1a1919" points="556.5,-118.1 553,-108.1 549.5,-118.1 556.5,-118.1"/>
</g>
<!-- node10 -->
<g id="node11" class="node">
<title>node10</title>
<polygon fill="#f9f9f9" stroke="black" points="1112.5,-180 713.5,-180 713.5,-144 1112.5,-144 1112.5,-180"/>
<text text-anchor="middle" x="913" y="-158.3" font-family="Arial" font-size="14.00" fill="#1a1919">10 WriteLocalVariableNodeGen$WriteLocalFrameSlotNodeGen</text>
</g>
<!-- node9&#45;&gt;node10 -->
<g id="edge13" class="edge">
<title>node9&#45;&gt;node10</title>
<path fill="none" stroke="#1a1919" d="M1022.53,-215.88C1002.88,-206.39 978.28,-194.51 957.37,-184.42"/>
<polygon fill="#1a1919" stroke="#1a1919" points="958.88,-181.26 948.36,-180.07 955.84,-187.57 958.88,-181.26"/>
</g>
<!-- node11 -->
<g id="node12" class="node">
<title>node11</title>
<polygon fill="#f9f9f9" stroke="black" points="1423,-180 1131,-180 1131,-144 1423,-144 1423,-180"/>
<text text-anchor="middle" x="1277" y="-158.3" font-family="Arial" font-size="14.00" fill="#1a1919">11 ReadArgumentNode$ArgumentExpression</text>
</g>
<!-- node9&#45;&gt;node11 -->
<g id="edge14" class="edge">
<title>node9&#45;&gt;node11</title>
<path fill="none" stroke="#1a1919" d="M1111.29,-215.97C1142.16,-206.1 1181.2,-193.62 1213.63,-183.25"/>
<polygon fill="#1a1919" stroke="#1a1919" points="1215.01,-186.49 1223.47,-180.11 1212.88,-179.82 1215.01,-186.49"/>
</g>
<!-- node12 -->
<g id="node13" class="node">
<title>node12</title>
<polygon fill="#f9f9f9" stroke="black" points="1393.5,-108 1160.5,-108 1160.5,-72 1393.5,-72 1393.5,-108"/>
<text text-anchor="middle" x="1277" y="-86.3" font-family="Arial" font-size="14.00" fill="#1a1919">12 ReadIndexedArgumentNodeGen</text>
</g>
<!-- node11&#45;&gt;node12 -->
<g id="edge15" class="edge">
<title>node11&#45;&gt;node12</title>
<path fill="none" stroke="#1a1919" d="M1277,-143.7C1277,-135.98 1277,-126.71 1277,-118.11"/>
<polygon fill="#1a1919" stroke="#1a1919" points="1280.5,-118.1 1277,-108.1 1273.5,-118.1 1280.5,-118.1"/>
</g>
<!-- node14 -->
<g id="node15" class="node">
<title>node14</title>
<polygon fill="#f9f9f9" stroke="black" points="1744,-252 1538,-252 1538,-216 1744,-216 1744,-252"/>
<text text-anchor="middle" x="1641" y="-230.3" font-family="Arial" font-size="14.00" fill="#1a1919">14 WriteLocalVariableNodeGen</text>
</g>
<!-- node13&#45;&gt;node14 -->
<g id="edge16" class="edge">
<title>node13&#45;&gt;node14</title>
<path fill="none" stroke="#1a1919" d="M1530.72,-287.88C1550.5,-278.39 1575.27,-266.51 1596.33,-256.42"/>
<polygon fill="#1a1919" stroke="#1a1919" points="1597.9,-259.55 1605.4,-252.07 1594.87,-253.24 1597.9,-259.55"/>
</g>
<!-- node15 -->
<g id="node16" class="node">
<title>node15</title>
<polygon fill="#f9f9f9" stroke="black" points="1840.5,-180 1441.5,-180 1441.5,-144 1840.5,-144 1840.5,-180"/>
<text text-anchor="middle" x="1641" y="-158.3" font-family="Arial" font-size="14.00" fill="#1a1919">15 WriteLocalVariableNodeGen$WriteLocalFrameSlotNodeGen</text>
</g>
<!-- node14&#45;&gt;node15 -->
<g id="edge17" class="edge">
<title>node14&#45;&gt;node15</title>
<path fill="none" stroke="#1a1919" d="M1641,-215.7C1641,-207.98 1641,-198.71 1641,-190.11"/>
<polygon fill="#1a1919" stroke="#1a1919" points="1644.5,-190.1 1641,-180.1 1637.5,-190.1 1644.5,-190.1"/>
</g>
<!-- node16 -->
<g id="node17" class="node">
<title>node16</title>
<polygon fill="#f9f9f9" stroke="black" points="2167,-180 1859,-180 1859,-144 2167,-144 2167,-180"/>
<text text-anchor="middle" x="2013" y="-158.3" font-family="Arial" font-size="14.00" fill="#1a1919">16 BinaryArithmetic$BinaryArithmeticExpression</text>
</g>
<!-- node14&#45;&gt;node16 -->
<g id="edge18" class="edge">
<title>node14&#45;&gt;node16</title>
<path fill="none" stroke="#1a1919" d="M1731.53,-215.97C1786.2,-205.68 1855.98,-192.55 1912.38,-181.93"/>
<polygon fill="#1a1919" stroke="#1a1919" points="1913.21,-185.34 1922.39,-180.05 1911.92,-178.46 1913.21,-185.34"/>
</g>
<!-- node17 -->
<g id="node18" class="node">
<title>node17</title>
<polygon fill="#f9f9f9" stroke="black" points="1867,-108 1643,-108 1643,-72 1867,-72 1867,-108"/>
<text text-anchor="middle" x="1755" y="-86.3" font-family="Arial" font-size="14.00" fill="#1a1919">17 LookupAndCallBinaryNodeGen</text>
</g>
<!-- node16&#45;&gt;node17 -->
<g id="edge19" class="edge">
<title>node16&#45;&gt;node17</title>
<path fill="none" stroke="#1a1919" d="M1950.22,-143.97C1913.38,-133.97 1866.67,-121.3 1828.18,-110.85"/>
<polygon fill="#1a1919" stroke="#1a1919" points="1828.63,-107.35 1818.07,-108.11 1826.8,-114.11 1828.63,-107.35"/>
</g>
<!-- node19 -->
<g id="node20" class="node">
<title>node19</title>
<polygon fill="#f9f9f9" stroke="black" points="2087.5,-108 1938.5,-108 1938.5,-72 2087.5,-72 2087.5,-108"/>
<text text-anchor="middle" x="2013" y="-86.3" font-family="Arial" font-size="14.00" fill="#1a1919">19 ReadLocalVariable</text>
</g>
<!-- node16&#45;&gt;node19 -->
<g id="edge20" class="edge">
<title>node16&#45;&gt;node19</title>
<path fill="none" stroke="#1a1919" d="M2013,-143.7C2013,-135.98 2013,-126.71 2013,-118.11"/>
<polygon fill="#1a1919" stroke="#1a1919" points="2016.5,-118.1 2013,-108.1 2009.5,-118.1 2016.5,-118.1"/>
</g>
<!-- node21 -->
<g id="node22" class="node">
<title>node21</title>
<polygon fill="#f9f9f9" stroke="black" points="2303.5,-108 2154.5,-108 2154.5,-72 2303.5,-72 2303.5,-108"/>
<text text-anchor="middle" x="2229" y="-86.3" font-family="Arial" font-size="14.00" fill="#1a1919">21 ReadLocalVariable</text>
</g>
<!-- node16&#45;&gt;node21 -->
<g id="edge21" class="edge">
<title>node16&#45;&gt;node21</title>
<path fill="none" stroke="#1a1919" d="M2065.56,-143.97C2096.01,-134.1 2134.51,-121.62 2166.5,-111.25"/>
<polygon fill="#1a1919" stroke="#1a1919" points="2167.77,-114.52 2176.2,-108.11 2165.61,-107.86 2167.77,-114.52"/>
</g>
<!-- node18 -->
<g id="node19" class="node">
<title>node18</title>
<polygon fill="#f9f9f9" stroke="black" points="1871,-36 1533,-36 1533,0 1871,0 1871,-36"/>
<text text-anchor="middle" x="1702" y="-14.3" font-family="Arial" font-size="14.00" fill="#1a1919">18 IntBuiltinsFactory$AddNodeFactory$AddNodeGen</text>
</g>
<!-- node17&#45;&gt;node18 -->
<g id="edge22" class="edge">
<title>node17&#45;&gt;node18</title>
<path fill="none" stroke="#1a1919" d="M1741.9,-71.7C1735.61,-63.39 1727.95,-53.28 1721.04,-44.14"/>
<polygon fill="#1a1919" stroke="#1a1919" points="1723.78,-41.96 1714.95,-36.1 1718.2,-46.19 1723.78,-41.96"/>
</g>
<!-- node20 -->
<g id="node21" class="node">
<title>node20</title>
<polygon fill="#f9f9f9" stroke="black" points="2136.5,-36 1889.5,-36 1889.5,0 2136.5,0 2136.5,-36"/>
<text text-anchor="middle" x="2013" y="-14.3" font-family="Arial" font-size="14.00" fill="#1a1919">20 ReadVariableFromFrameNodeGen</text>
</g>
<!-- node19&#45;&gt;node20 -->
<g id="edge23" class="edge">
<title>node19&#45;&gt;node20</title>
<path fill="none" stroke="#1a1919" d="M2013,-71.7C2013,-63.98 2013,-54.71 2013,-46.11"/>
<polygon fill="#1a1919" stroke="#1a1919" points="2016.5,-46.1 2013,-36.1 2009.5,-46.1 2016.5,-46.1"/>
</g>
<!-- node22 -->
<g id="node23" class="node">
<title>node22</title>
<polygon fill="#f9f9f9" stroke="black" points="2401.5,-36 2154.5,-36 2154.5,0 2401.5,0 2401.5,-36"/>
<text text-anchor="middle" x="2278" y="-14.3" font-family="Arial" font-size="14.00" fill="#1a1919">22 ReadVariableFromFrameNodeGen</text>
</g>
<!-- node21&#45;&gt;node22 -->
<g id="edge24" class="edge">
<title>node21&#45;&gt;node22</title>
<path fill="none" stroke="#1a1919" d="M2241.11,-71.7C2246.87,-63.47 2253.86,-53.48 2260.21,-44.42"/>
<polygon fill="#1a1919" stroke="#1a1919" points="2263.16,-46.3 2266.03,-36.1 2257.42,-42.29 2263.16,-46.3"/>
</g>
<!-- node24 -->
<g id="node25" class="node">
<title>node24</title>
<polygon fill="#f9f9f9" stroke="black" points="1858.5,-324 1611.5,-324 1611.5,-288 1858.5,-288 1858.5,-324"/>
<text text-anchor="middle" x="1735" y="-302.3" font-family="Arial" font-size="14.00" fill="#1a1919">24 ReadVariableFromFrameNodeGen</text>
</g>
<!-- node23&#45;&gt;node24 -->
<g id="edge25" class="edge">
<title>node23&#45;&gt;node24</title>
<path fill="none" stroke="#1a1919" d="M1690.58,-359.7C1697.66,-351.3 1706.28,-341.07 1714.05,-331.86"/>
<polygon fill="#1a1919" stroke="#1a1919" points="1716.81,-334.01 1720.58,-324.1 1711.46,-329.49 1716.81,-334.01"/>
</g>
</g>
</svg>
