<?xml version="1.0" encoding="UTF-8" standalone="no"?>
<!DOCTYPE svg PUBLIC "-//W3C//DTD SVG 1.1//EN"
 "http://www.w3.org/Graphics/SVG/1.1/DTD/svg11.dtd">
<!-- Generated by graphviz version 2.43.0 (0)
 -->
<!-- Title: G Pages: 1 -->
<svg width="1210pt" height="1817pt"
 viewBox="0.00 0.00 1209.50 1817.00" xmlns="http://www.w3.org/2000/svg" xmlns:xlink="http://www.w3.org/1999/xlink">
<g id="graph0" class="graph" transform="scale(1 1) rotate(0) translate(4 1813)">
<title>G</title>
<polygon fill="white" stroke="transparent" points="-4,4 -4,-1813 1205.5,-1813 1205.5,4 -4,4"/>
<!-- node0 -->
<g id="node1" class="node">
<title>node0</title>
<polygon fill="#e98693" stroke="black" points="572.5,-1809 516.5,-1809 516.5,-1773 572.5,-1773 572.5,-1809"/>
<text text-anchor="middle" x="544.5" y="-1787.3" font-family="Arial" font-size="14.00" fill="#1a1919">0 Start</text>
</g>
<!-- node4 -->
<g id="node2" class="node">
<title>node4</title>
<polygon fill="#c39bd3" stroke="black" points="743,-1728 418,-1728 418,-1692 743,-1692 743,-1728"/>
<text text-anchor="middle" x="580.5" y="-1706.3" font-family="Arial" font-size="14.00" fill="#1a1919">4 LoadField OptimizedCallTarget.compilationProfile</text>
</g>
<!-- node0&#45;&gt;node4 -->
<g id="edge1" class="edge">
<title>node0&#45;&gt;node4</title>
<path fill="none" stroke="#da2d4f" stroke-width="2" d="M552.31,-1772.86C557.03,-1762.51 563.14,-1749.1 568.46,-1737.41"/>
<polygon fill="#da2d4f" stroke="#da2d4f" stroke-width="2" points="571.74,-1738.66 572.7,-1728.11 565.37,-1735.76 571.74,-1738.66"/>
</g>
<!-- node5 -->
<g id="node3" class="node">
<title>node5</title>
<polygon fill="#f9f9f9" stroke="black" points="640.5,-1641 520.5,-1641 520.5,-1605 640.5,-1605 640.5,-1641"/>
<text text-anchor="middle" x="580.5" y="-1619.3" font-family="Arial" font-size="14.00" fill="#1a1919">5 StateSplitProxy</text>
</g>
<!-- node4&#45;&gt;node5 -->
<g id="edge3" class="edge">
<title>node4&#45;&gt;node5</title>
<path fill="none" stroke="#da2d4f" stroke-width="2" d="M579.23,-1691.88C578.67,-1682.23 578.19,-1669.94 578.5,-1659 578.57,-1656.44 578.68,-1653.79 578.8,-1651.13"/>
<polygon fill="#da2d4f" stroke="#da2d4f" stroke-width="2" points="582.29,-1651.25 579.33,-1641.08 575.3,-1650.88 582.29,-1651.25"/>
</g>
<!-- node4&#45;&gt;node5 -->
<g id="edge4" class="edge">
<title>node4&#45;&gt;node5</title>
<path fill="none" stroke="#3cb4a4" d="M580.5,-1691.8C580.5,-1680.16 580.5,-1664.55 580.5,-1651.24"/>
<polygon fill="#3cb4a4" stroke="#3cb4a4" points="584,-1651.18 580.5,-1641.18 577,-1651.18 584,-1651.18"/>
<text text-anchor="middle" x="599" y="-1662.8" font-family="arial" font-size="14.00" fill="#3cb4a4">object</text>
</g>
<!-- node10 -->
<g id="node4" class="node">
<title>node10</title>
<polygon fill="#3cb4a4" stroke="black" points="525.5,-1554 462.16,-1536 525.5,-1518 588.84,-1536 525.5,-1554"/>
<text text-anchor="middle" x="525.5" y="-1532.3" font-family="Arial" font-size="14.00" fill="#1a1919">10 IsNull</text>
</g>
<!-- node5&#45;&gt;node10 -->
<g id="edge6" class="edge">
<title>node5&#45;&gt;node10</title>
<path fill="none" stroke="#3cb4a4" d="M569.37,-1604.8C561.08,-1591.99 549.67,-1574.35 540.56,-1560.27"/>
<polygon fill="#3cb4a4" stroke="#3cb4a4" points="543.34,-1558.12 534.96,-1551.63 537.46,-1561.92 543.34,-1558.12"/>
<text text-anchor="middle" x="573" y="-1575.8" font-family="arial" font-size="14.00" fill="#3cb4a4">value</text>
</g>
<!-- node13 -->
<g id="node5" class="node">
<title>node13</title>
<polygon fill="#e98693" stroke="black" points="643.5,-1467 589.5,-1467 589.5,-1431 643.5,-1431 643.5,-1467"/>
<text text-anchor="middle" x="616.5" y="-1445.3" font-family="Arial" font-size="14.00" fill="#1a1919">13 If</text>
</g>
<!-- node5&#45;&gt;node13 -->
<g id="edge5" class="edge">
<title>node5&#45;&gt;node13</title>
<path fill="none" stroke="#da2d4f" stroke-width="2" d="M587.64,-1604.76C589.76,-1599.17 591.93,-1592.89 593.5,-1587 603.5,-1549.56 610.01,-1505.15 613.47,-1477.27"/>
<polygon fill="#da2d4f" stroke="#da2d4f" stroke-width="2" points="616.97,-1477.44 614.68,-1467.09 610.02,-1476.61 616.97,-1477.44"/>
</g>
<!-- node14 -->
<g id="node6" class="node">
<title>node14</title>
<polygon fill="#f9f9f9" stroke="black" points="789.5,-1554 647.5,-1554 647.5,-1518 789.5,-1518 789.5,-1554"/>
<text text-anchor="middle" x="718.5" y="-1532.3" font-family="Arial" font-size="14.00" fill="#1a1919">14 MethodCallTarget</text>
</g>
<!-- node5&#45;&gt;node14 -->
<g id="edge8" class="edge">
<title>node5&#45;&gt;node14</title>
<path fill="none" stroke="#3cb4a4" d="M608.43,-1604.8C629.56,-1591.78 658.78,-1573.78 681.81,-1559.6"/>
<polygon fill="#3cb4a4" stroke="#3cb4a4" points="683.94,-1562.4 690.62,-1554.18 680.27,-1556.44 683.94,-1562.4"/>
<text text-anchor="middle" x="675" y="-1575.8" font-family="arial" font-size="14.00" fill="#3cb4a4">arg[0]</text>
</g>
<!-- node60 -->
<g id="node31" class="node">
<title>node60</title>
<polygon fill="#f9f9f9" stroke="black" points="251.5,-530 109.5,-530 109.5,-494 251.5,-494 251.5,-530"/>
<text text-anchor="middle" x="180.5" y="-508.3" font-family="Arial" font-size="14.00" fill="#1a1919">60 MethodCallTarget</text>
</g>
<!-- node5&#45;&gt;node60 -->
<g id="edge48" class="edge">
<title>node5&#45;&gt;node60</title>
<path fill="none" stroke="#3cb4a4" d="M520.36,-1621.42C409.58,-1618.71 184.5,-1604.85 184.5,-1537 184.5,-1537 184.5,-1537 184.5,-598 184.5,-578.73 183.46,-557.03 182.44,-540.38"/>
<polygon fill="#3cb4a4" stroke="#3cb4a4" points="185.93,-540 181.79,-530.25 178.94,-540.45 185.93,-540"/>
<text text-anchor="middle" x="202" y="-1059.8" font-family="arial" font-size="14.00" fill="#3cb4a4">arg[0]</text>
</g>
<!-- node10&#45;&gt;node13 -->
<g id="edge7" class="edge">
<title>node10&#45;&gt;node13</title>
<path fill="none" stroke="#3cb4a4" d="M539.72,-1521.72C553.21,-1509.12 573.81,-1489.88 590.27,-1474.5"/>
<polygon fill="#3cb4a4" stroke="#3cb4a4" points="593.06,-1476.69 597.98,-1467.3 588.28,-1471.57 593.06,-1476.69"/>
<text text-anchor="middle" x="580.5" y="-1488.8" font-family="arial" font-size="14.00" fill="#3cb4a4">?</text>
</g>
<!-- node59 -->
<g id="node30" class="node">
<title>node59</title>
<polygon fill="#e98693" stroke="black" points="333.5,-443 279.5,-443 279.5,-407 333.5,-407 333.5,-443"/>
<text text-anchor="middle" x="306.5" y="-421.3" font-family="Arial" font-size="14.00" fill="#1a1919">59 If</text>
</g>
<!-- node10&#45;&gt;node59 -->
<g id="edge47" class="edge">
<title>node10&#45;&gt;node59</title>
<path fill="none" stroke="#3cb4a4" d="M484.88,-1529.52C415.01,-1518.96 279.5,-1492.93 279.5,-1450 279.5,-1450 279.5,-1450 279.5,-511 279.5,-490.74 286.55,-468.99 293.45,-452.56"/>
<polygon fill="#3cb4a4" stroke="#3cb4a4" points="296.8,-453.64 297.66,-443.08 290.4,-450.8 296.8,-453.64"/>
<text text-anchor="middle" x="283.5" y="-972.8" font-family="arial" font-size="14.00" fill="#3cb4a4">?</text>
</g>
<!-- node18 -->
<g id="node8" class="node">
<title>node18</title>
<polygon fill="#da2d4f" stroke="black" points="1020,-1380 645,-1380 645,-1344 1020,-1344 1020,-1380"/>
<text text-anchor="middle" x="832.5" y="-1358.3" font-family="Arial" font-size="14.00" fill="#ffffff">18 Call OptimizedCompilationProfile.injectArgumentProfile !</text>
</g>
<!-- node13&#45;&gt;node18 -->
<g id="edge57" class="edge">
<title>node13&#45;&gt;node18</title>
<path fill="none" stroke="#da2d4f" stroke-width="2" d="M643.86,-1437.23C677.84,-1423.86 736.57,-1400.75 779.5,-1383.86"/>
<polygon fill="#da2d4f" stroke="#da2d4f" stroke-width="2" points="780.92,-1387.06 788.95,-1380.14 778.36,-1380.54 780.92,-1387.06"/>
<text text-anchor="middle" x="741" y="-1401.8" font-family="arial" font-size="14.00" fill="#da2d4f">F</text>
</g>
<!-- node22 -->
<g id="node10" class="node">
<title>node22</title>
<polygon fill="#e98693" stroke="black" points="750.5,-1206 676.5,-1206 676.5,-1170 750.5,-1170 750.5,-1206"/>
<text text-anchor="middle" x="713.5" y="-1184.3" font-family="Arial" font-size="14.00" fill="#1a1919">22 Merge</text>
</g>
<!-- node13&#45;&gt;node22 -->
<g id="edge58" class="edge">
<title>node13&#45;&gt;node22</title>
<path fill="none" stroke="#da2d4f" stroke-width="2" d="M618.57,-1430.77C621.36,-1409.89 627.09,-1373.81 636.5,-1344 649.25,-1303.59 656.48,-1294.87 675.5,-1257 682.56,-1242.94 691.05,-1227.61 698.22,-1215.08"/>
<polygon fill="#da2d4f" stroke="#da2d4f" stroke-width="2" points="701.43,-1216.51 703.39,-1206.1 695.36,-1213.02 701.43,-1216.51"/>
<text text-anchor="middle" x="652" y="-1314.8" font-family="arial" font-size="14.00" fill="#da2d4f">T</text>
</g>
<!-- node14&#45;&gt;node18 -->
<g id="edge10" class="edge">
<title>node14&#45;&gt;node18</title>
<path fill="none" stroke="#343d46" stroke-dasharray="5,2" d="M735.42,-1509.48C758.99,-1473.91 801.09,-1410.39 821.2,-1380.05"/>
<polygon fill="#343d46" stroke="#343d46" points="732.45,-1507.61 729.85,-1517.88 738.29,-1511.48 732.45,-1507.61"/>
</g>
<!-- node15 -->
<g id="node7" class="node">
<title>node15</title>
<polygon fill="#f9f9f9" stroke="black" points="1201.5,-269 1067.5,-269 1067.5,-233 1201.5,-233 1201.5,-269"/>
<text text-anchor="middle" x="1134.5" y="-247.3" font-family="Arial" font-size="14.00" fill="#1a1919">15 ExceptionObject</text>
</g>
<!-- node30 -->
<g id="node14" class="node">
<title>node30</title>
<polygon fill="#e98693" stroke="black" points="887.5,-196 813.5,-196 813.5,-160 887.5,-160 887.5,-196"/>
<text text-anchor="middle" x="850.5" y="-174.3" font-family="Arial" font-size="14.00" fill="#1a1919">30 Merge</text>
</g>
<!-- node15&#45;&gt;node30 -->
<g id="edge60" class="edge">
<title>node15&#45;&gt;node30</title>
<path fill="none" stroke="#da2d4f" stroke-width="2" d="M1067.23,-234.75C1004.23,-220.41 917.46,-200.5 901.5,-196 900.24,-195.64 898.96,-195.28 897.67,-194.9"/>
<polygon fill="#da2d4f" stroke="#da2d4f" stroke-width="2" points="898.28,-191.43 887.7,-191.85 896.24,-198.12 898.28,-191.43"/>
</g>
<!-- node32 -->
<g id="node15" class="node">
<title>node32</title>
<polygon fill="#f9f9f9" stroke="black" points="801.5,-123 747.5,-123 747.5,-87 801.5,-87 801.5,-123"/>
<text text-anchor="middle" x="774.5" y="-101.3" font-family="Arial" font-size="14.00" fill="#1a1919">32 ϕ</text>
</g>
<!-- node15&#45;&gt;node32 -->
<g id="edge20" class="edge">
<title>node15&#45;&gt;node32</title>
<path fill="none" stroke="#3cb4a4" d="M1111.07,-232.7C1082.84,-212.61 1033.35,-179.69 986.5,-160 927.79,-135.32 855.04,-119.81 811.83,-112.04"/>
<polygon fill="#3cb4a4" stroke="#3cb4a4" points="812.22,-108.55 801.77,-110.27 811.01,-115.45 812.22,-108.55"/>
<text text-anchor="middle" x="1077" y="-174.3" font-family="arial" font-size="14.00" fill="#3cb4a4">from 29</text>
</g>
<!-- node18&#45;&gt;node15 -->
<g id="edge12" class="edge">
<title>node18&#45;&gt;node15</title>
<path fill="none" stroke="#da2d4f" stroke-width="2" d="M932.05,-1343.98C997.27,-1329.9 1070.5,-1307.15 1070.5,-1276 1070.5,-1276 1070.5,-1276 1070.5,-337 1070.5,-313.03 1086.94,-291.52 1103.16,-276.14"/>
<polygon fill="#da2d4f" stroke="#da2d4f" stroke-width="2" points="1105.92,-278.37 1111.03,-269.09 1101.25,-273.15 1105.92,-278.37"/>
<text text-anchor="middle" x="1092" y="-798.8" font-family="arial" font-size="14.00" fill="#da2d4f">unwind</text>
</g>
<!-- node20 -->
<g id="node9" class="node">
<title>node20</title>
<polygon fill="#e98693" stroke="black" points="790.5,-1293 684.5,-1293 684.5,-1257 790.5,-1257 790.5,-1293"/>
<text text-anchor="middle" x="737.5" y="-1271.3" font-family="Arial" font-size="14.00" fill="#1a1919">20 KillingBegin</text>
</g>
<!-- node18&#45;&gt;node20 -->
<g id="edge11" class="edge">
<title>node18&#45;&gt;node20</title>
<path fill="none" stroke="#da2d4f" stroke-width="2" d="M813.28,-1343.8C799.24,-1331.24 780.03,-1314.05 764.46,-1300.12"/>
<polygon fill="#da2d4f" stroke="#da2d4f" stroke-width="2" points="766.48,-1297.24 756.7,-1293.18 761.81,-1302.45 766.48,-1297.24"/>
</g>
<!-- node24 -->
<g id="node11" class="node">
<title>node24</title>
<polygon fill="#f9f9f9" stroke="black" points="897.5,-1125 843.5,-1125 843.5,-1089 897.5,-1089 897.5,-1125"/>
<text text-anchor="middle" x="870.5" y="-1103.3" font-family="Arial" font-size="14.00" fill="#1a1919">24 ϕ</text>
</g>
<!-- node18&#45;&gt;node24 -->
<g id="edge16" class="edge">
<title>node18&#45;&gt;node24</title>
<path fill="none" stroke="#3cb4a4" d="M833.06,-1343.97C834.42,-1310.39 838.77,-1233.38 851.5,-1170 853.85,-1158.29 857.52,-1145.64 861.01,-1134.83"/>
<polygon fill="#3cb4a4" stroke="#3cb4a4" points="864.4,-1135.73 864.24,-1125.14 857.76,-1133.51 864.4,-1135.73"/>
<text text-anchor="middle" x="866" y="-1227.8" font-family="arial" font-size="14.00" fill="#3cb4a4">from 23</text>
</g>
<!-- node20&#45;&gt;node22 -->
<g id="edge59" class="edge">
<title>node20&#45;&gt;node22</title>
<path fill="none" stroke="#da2d4f" stroke-width="2" d="M732.64,-1256.8C729.33,-1245.05 724.86,-1229.24 721.08,-1215.84"/>
<polygon fill="#da2d4f" stroke="#da2d4f" stroke-width="2" points="724.44,-1214.85 718.35,-1206.18 717.7,-1216.75 724.44,-1214.85"/>
</g>
<!-- node22&#45;&gt;node24 -->
<g id="edge14" class="edge">
<title>node22&#45;&gt;node24</title>
<path fill="none" stroke="#343d46" stroke-dasharray="5,2" d="M756.64,-1165.29C784.32,-1151.36 819.42,-1133.7 843.28,-1121.7"/>
<polygon fill="#343d46" stroke="#343d46" points="754.93,-1162.24 747.57,-1169.86 758.07,-1168.49 754.93,-1162.24"/>
</g>
<!-- node33 -->
<g id="node16" class="node">
<title>node33</title>
<polygon fill="#da2d4f" stroke="black" points="825.5,-1125 549.5,-1125 549.5,-1089 825.5,-1089 825.5,-1125"/>
<text text-anchor="middle" x="687.5" y="-1103.3" font-family="Arial" font-size="14.00" fill="#ffffff">33 Call OptimizedCallTarget.getRootNode !</text>
</g>
<!-- node22&#45;&gt;node33 -->
<g id="edge13" class="edge">
<title>node22&#45;&gt;node33</title>
<path fill="none" stroke="#da2d4f" stroke-width="2" d="M707.86,-1169.86C704.49,-1159.61 700.13,-1146.37 696.31,-1134.76"/>
<polygon fill="#da2d4f" stroke="#da2d4f" stroke-width="2" points="699.58,-1133.51 693.13,-1125.11 692.93,-1135.7 699.58,-1133.51"/>
</g>
<!-- node43 -->
<g id="node22" class="node">
<title>node43</title>
<polygon fill="#f9f9f9" stroke="black" points="802.5,-864 660.5,-864 660.5,-828 802.5,-828 802.5,-864"/>
<text text-anchor="middle" x="731.5" y="-842.3" font-family="Arial" font-size="14.00" fill="#1a1919">43 MethodCallTarget</text>
</g>
<!-- node24&#45;&gt;node43 -->
<g id="edge36" class="edge">
<title>node24&#45;&gt;node43</title>
<path fill="none" stroke="#3cb4a4" d="M873.69,-1088.74C879.3,-1053.04 887.23,-969.87 851.5,-915 837.89,-894.11 815.5,-878.96 793.73,-868.34"/>
<polygon fill="#3cb4a4" stroke="#3cb4a4" points="795,-865.08 784.46,-864.06 792.07,-871.43 795,-865.08"/>
<text text-anchor="middle" x="893" y="-972.8" font-family="arial" font-size="14.00" fill="#3cb4a4">arg[1]</text>
</g>
<!-- node26 -->
<g id="node12" class="node">
<title>node26</title>
<polygon fill="#f9f9f9" stroke="black" points="640.5,-1206 498.5,-1206 498.5,-1170 640.5,-1170 640.5,-1206"/>
<text text-anchor="middle" x="569.5" y="-1184.3" font-family="Arial" font-size="14.00" fill="#1a1919">26 MethodCallTarget</text>
</g>
<!-- node26&#45;&gt;node33 -->
<g id="edge26" class="edge">
<title>node26&#45;&gt;node33</title>
<path fill="none" stroke="#343d46" stroke-dasharray="5,2" d="M603.6,-1164.17C622.21,-1151.71 644.87,-1136.54 661.95,-1125.11"/>
<polygon fill="#343d46" stroke="#343d46" points="601.47,-1161.39 595.1,-1169.86 605.36,-1167.2 601.47,-1161.39"/>
</g>
<!-- node27 -->
<g id="node13" class="node">
<title>node27</title>
<polygon fill="#f9f9f9" stroke="black" points="1049.5,-269 915.5,-269 915.5,-233 1049.5,-233 1049.5,-269"/>
<text text-anchor="middle" x="982.5" y="-247.3" font-family="Arial" font-size="14.00" fill="#1a1919">27 ExceptionObject</text>
</g>
<!-- node27&#45;&gt;node30 -->
<g id="edge61" class="edge">
<title>node27&#45;&gt;node30</title>
<path fill="none" stroke="#da2d4f" stroke-width="2" d="M920.79,-232.97C908.26,-228.16 895.54,-222.21 884.5,-215 879.64,-211.83 874.98,-207.82 870.75,-203.65"/>
<polygon fill="#da2d4f" stroke="#da2d4f" stroke-width="2" points="873.05,-200.99 863.66,-196.09 867.95,-205.78 873.05,-200.99"/>
</g>
<!-- node27&#45;&gt;node32 -->
<g id="edge21" class="edge">
<title>node27&#45;&gt;node32</title>
<path fill="none" stroke="#3cb4a4" d="M969.53,-232.81C953.96,-213.11 926.21,-180.87 896.5,-160 870.23,-141.55 836.64,-127.25 811.37,-118.01"/>
<polygon fill="#3cb4a4" stroke="#3cb4a4" points="812.37,-114.65 801.77,-114.6 810.03,-121.25 812.37,-114.65"/>
<text text-anchor="middle" x="959" y="-174.3" font-family="arial" font-size="14.00" fill="#3cb4a4">from 31</text>
</g>
<!-- node30&#45;&gt;node32 -->
<g id="edge19" class="edge">
<title>node30&#45;&gt;node32</title>
<path fill="none" stroke="#343d46" stroke-dasharray="5,2" d="M824.75,-152.94C814.23,-143.12 802.32,-131.99 792.73,-123.03"/>
<polygon fill="#343d46" stroke="#343d46" points="822.41,-155.54 832.1,-159.81 827.18,-150.43 822.41,-155.54"/>
</g>
<!-- node73 -->
<g id="node35" class="node">
<title>node73</title>
<polygon fill="#e98693" stroke="black" points="913.5,-36 833.5,-36 833.5,0 913.5,0 913.5,-36"/>
<text text-anchor="middle" x="873.5" y="-14.3" font-family="Arial" font-size="14.00" fill="#1a1919">73 Unwind</text>
</g>
<!-- node30&#45;&gt;node73 -->
<g id="edge18" class="edge">
<title>node30&#45;&gt;node73</title>
<path fill="none" stroke="#da2d4f" stroke-width="2" d="M859.19,-159.98C869.29,-139.16 885.35,-102.54 891.5,-69 892.7,-62.44 893.07,-60.48 891.5,-54 890.81,-51.14 889.84,-48.24 888.7,-45.41"/>
<polygon fill="#da2d4f" stroke="#da2d4f" stroke-width="2" points="891.78,-43.74 884.38,-36.17 885.44,-46.71 891.78,-43.74"/>
</g>
<!-- node32&#45;&gt;node73 -->
<g id="edge54" class="edge">
<title>node32&#45;&gt;node73</title>
<path fill="none" stroke="#3cb4a4" d="M794.53,-86.8C809.29,-74.13 829.55,-56.73 845.85,-42.74"/>
<polygon fill="#3cb4a4" stroke="#3cb4a4" points="848.19,-45.35 853.5,-36.18 843.63,-40.03 848.19,-45.35"/>
<text text-anchor="middle" x="858.5" y="-57.8" font-family="arial" font-size="14.00" fill="#3cb4a4">exception</text>
</g>
<!-- node33&#45;&gt;node27 -->
<g id="edge28" class="edge">
<title>node33&#45;&gt;node27</title>
<path fill="none" stroke="#da2d4f" stroke-width="2" d="M751.17,-1088.94C820.16,-1066.15 920.5,-1018.47 920.5,-934 920.5,-934 920.5,-934 920.5,-337 920.5,-313.3 936.43,-291.78 952.14,-276.33"/>
<polygon fill="#da2d4f" stroke="#da2d4f" stroke-width="2" points="954.82,-278.62 959.77,-269.25 950.06,-273.49 954.82,-278.62"/>
<text text-anchor="middle" x="942" y="-668.3" font-family="arial" font-size="14.00" fill="#da2d4f">unwind</text>
</g>
<!-- node35 -->
<g id="node17" class="node">
<title>node35</title>
<polygon fill="#e98693" stroke="black" points="640.5,-1038 534.5,-1038 534.5,-1002 640.5,-1002 640.5,-1038"/>
<text text-anchor="middle" x="587.5" y="-1016.3" font-family="Arial" font-size="14.00" fill="#1a1919">35 KillingBegin</text>
</g>
<!-- node33&#45;&gt;node35 -->
<g id="edge27" class="edge">
<title>node33&#45;&gt;node35</title>
<path fill="none" stroke="#da2d4f" stroke-width="2" d="M667.26,-1088.8C652.35,-1076.13 631.89,-1058.73 615.43,-1044.74"/>
<polygon fill="#da2d4f" stroke="#da2d4f" stroke-width="2" points="617.59,-1041.99 607.71,-1038.18 613.06,-1047.32 617.59,-1041.99"/>
</g>
<!-- node36 -->
<g id="node18" class="node">
<title>node36</title>
<polygon fill="#f9f9f9" stroke="black" points="800.5,-1038 658.5,-1038 658.5,-1002 800.5,-1002 800.5,-1038"/>
<text text-anchor="middle" x="729.5" y="-1016.3" font-family="Arial" font-size="14.00" fill="#1a1919">36 MethodCallTarget</text>
</g>
<!-- node33&#45;&gt;node36 -->
<g id="edge30" class="edge">
<title>node33&#45;&gt;node36</title>
<path fill="none" stroke="#3cb4a4" d="M696,-1088.8C701.86,-1076.93 709.77,-1060.93 716.43,-1047.45"/>
<polygon fill="#3cb4a4" stroke="#3cb4a4" points="719.72,-1048.69 721.01,-1038.18 713.45,-1045.59 719.72,-1048.69"/>
<text text-anchor="middle" x="728" y="-1059.8" font-family="arial" font-size="14.00" fill="#3cb4a4">arg[0]</text>
</g>
<!-- node40 -->
<g id="node20" class="node">
<title>node40</title>
<polygon fill="#da2d4f" stroke="black" points="842.5,-951 588.5,-951 588.5,-915 842.5,-915 842.5,-951"/>
<text text-anchor="middle" x="715.5" y="-929.3" font-family="Arial" font-size="14.00" fill="#ffffff">40 Call RootNode.getFrameDescriptor !</text>
</g>
<!-- node35&#45;&gt;node40 -->
<g id="edge29" class="edge">
<title>node35&#45;&gt;node40</title>
<path fill="none" stroke="#da2d4f" stroke-width="2" d="M613.4,-1001.8C632.92,-988.84 659.87,-970.94 681.18,-956.79"/>
<polygon fill="#da2d4f" stroke="#da2d4f" stroke-width="2" points="683.24,-959.62 689.64,-951.18 679.37,-953.79 683.24,-959.62"/>
</g>
<!-- node36&#45;&gt;node40 -->
<g id="edge31" class="edge">
<title>node36&#45;&gt;node40</title>
<path fill="none" stroke="#343d46" stroke-dasharray="5,2" d="M725.01,-991.73C722.82,-978.42 720.24,-962.81 718.33,-951.18"/>
<polygon fill="#343d46" stroke="#343d46" points="721.59,-992.5 726.67,-1001.8 728.5,-991.36 721.59,-992.5"/>
</g>
<!-- node37 -->
<g id="node19" class="node">
<title>node37</title>
<polygon fill="#f9f9f9" stroke="black" points="897.5,-269 763.5,-269 763.5,-233 897.5,-233 897.5,-269"/>
<text text-anchor="middle" x="830.5" y="-247.3" font-family="Arial" font-size="14.00" fill="#1a1919">37 ExceptionObject</text>
</g>
<!-- node37&#45;&gt;node30 -->
<g id="edge62" class="edge">
<title>node37&#45;&gt;node30</title>
<path fill="none" stroke="#da2d4f" stroke-width="2" d="M835.34,-232.81C837.63,-224.7 840.41,-214.84 842.96,-205.78"/>
<polygon fill="#da2d4f" stroke="#da2d4f" stroke-width="2" points="846.36,-206.6 845.7,-196.03 839.62,-204.71 846.36,-206.6"/>
</g>
<!-- node37&#45;&gt;node32 -->
<g id="edge22" class="edge">
<title>node37&#45;&gt;node32</title>
<path fill="none" stroke="#3cb4a4" d="M794.74,-232.93C780.41,-224.07 765.45,-211.77 757.5,-196 747.49,-176.14 753.49,-151.12 761,-132.5"/>
<polygon fill="#3cb4a4" stroke="#3cb4a4" points="764.29,-133.71 765.11,-123.15 757.88,-130.9 764.29,-133.71"/>
<text text-anchor="middle" x="781" y="-174.3" font-family="arial" font-size="14.00" fill="#3cb4a4">from 39</text>
</g>
<!-- node40&#45;&gt;node37 -->
<g id="edge33" class="edge">
<title>node40&#45;&gt;node37</title>
<path fill="none" stroke="#da2d4f" stroke-width="2" d="M769.63,-914.86C799.46,-901.67 830.5,-880.02 830.5,-847 830.5,-847 830.5,-847 830.5,-337 830.5,-317.75 830.5,-296.05 830.5,-279.4"/>
<polygon fill="#da2d4f" stroke="#da2d4f" stroke-width="2" points="834,-279.26 830.5,-269.26 827,-279.26 834,-279.26"/>
<text text-anchor="middle" x="852" y="-595.3" font-family="arial" font-size="14.00" fill="#da2d4f">unwind</text>
</g>
<!-- node42 -->
<g id="node21" class="node">
<title>node42</title>
<polygon fill="#e98693" stroke="black" points="642.5,-864 536.5,-864 536.5,-828 642.5,-828 642.5,-864"/>
<text text-anchor="middle" x="589.5" y="-842.3" font-family="Arial" font-size="14.00" fill="#1a1919">42 KillingBegin</text>
</g>
<!-- node40&#45;&gt;node42 -->
<g id="edge32" class="edge">
<title>node40&#45;&gt;node42</title>
<path fill="none" stroke="#da2d4f" stroke-width="2" d="M690,-914.8C670.79,-901.84 644.26,-883.94 623.28,-869.79"/>
<polygon fill="#da2d4f" stroke="#da2d4f" stroke-width="2" points="625.21,-866.87 614.96,-864.18 621.29,-872.67 625.21,-866.87"/>
</g>
<!-- node40&#45;&gt;node43 -->
<g id="edge35" class="edge">
<title>node40&#45;&gt;node43</title>
<path fill="none" stroke="#3cb4a4" d="M718.74,-914.8C720.93,-903.16 723.87,-887.55 726.37,-874.24"/>
<polygon fill="#3cb4a4" stroke="#3cb4a4" points="729.86,-874.65 728.27,-864.18 722.98,-873.36 729.86,-874.65"/>
<text text-anchor="middle" x="741" y="-885.8" font-family="arial" font-size="14.00" fill="#3cb4a4">arg[0]</text>
</g>
<!-- node47 -->
<g id="node24" class="node">
<title>node47</title>
<polygon fill="#da2d4f" stroke="black" points="754.5,-777 480.5,-777 480.5,-741 754.5,-741 754.5,-777"/>
<text text-anchor="middle" x="617.5" y="-755.3" font-family="Arial" font-size="14.00" fill="#ffffff">47 Call OptimizedCallTarget.createFrame !</text>
</g>
<!-- node42&#45;&gt;node47 -->
<g id="edge34" class="edge">
<title>node42&#45;&gt;node47</title>
<path fill="none" stroke="#da2d4f" stroke-width="2" d="M595.17,-827.8C599.04,-816.05 604.25,-800.24 608.66,-786.84"/>
<polygon fill="#da2d4f" stroke="#da2d4f" stroke-width="2" points="612.04,-787.77 611.84,-777.18 605.39,-785.58 612.04,-787.77"/>
</g>
<!-- node43&#45;&gt;node47 -->
<g id="edge37" class="edge">
<title>node43&#45;&gt;node47</title>
<path fill="none" stroke="#343d46" stroke-dasharray="5,2" d="M700.39,-821.8C681.49,-807.71 657.76,-790.02 640.54,-777.18"/>
<polygon fill="#343d46" stroke="#343d46" points="698.32,-824.63 708.43,-827.8 702.51,-819.02 698.32,-824.63"/>
</g>
<!-- node44 -->
<g id="node23" class="node">
<title>node44</title>
<polygon fill="#f9f9f9" stroke="black" points="745.5,-269 611.5,-269 611.5,-233 745.5,-233 745.5,-269"/>
<text text-anchor="middle" x="678.5" y="-247.3" font-family="Arial" font-size="14.00" fill="#1a1919">44 ExceptionObject</text>
</g>
<!-- node44&#45;&gt;node30 -->
<g id="edge63" class="edge">
<title>node44&#45;&gt;node30</title>
<path fill="none" stroke="#da2d4f" stroke-width="2" d="M740.19,-232.97C756.18,-227.86 773.2,-221.78 788.5,-215 797.45,-211.03 806.76,-206.1 815.35,-201.18"/>
<polygon fill="#da2d4f" stroke="#da2d4f" stroke-width="2" points="817.16,-204.18 824.01,-196.09 813.62,-198.14 817.16,-204.18"/>
</g>
<!-- node44&#45;&gt;node32 -->
<g id="edge23" class="edge">
<title>node44&#45;&gt;node32</title>
<path fill="none" stroke="#3cb4a4" d="M679.24,-232.68C680.8,-213.44 685.64,-182.19 700.5,-160 710.08,-145.69 724.8,-133.83 738.59,-124.9"/>
<polygon fill="#3cb4a4" stroke="#3cb4a4" points="740.76,-127.67 747.46,-119.46 737.1,-121.7 740.76,-127.67"/>
<text text-anchor="middle" x="724" y="-174.3" font-family="arial" font-size="14.00" fill="#3cb4a4">from 46</text>
</g>
<!-- node47&#45;&gt;node44 -->
<g id="edge39" class="edge">
<title>node47&#45;&gt;node44</title>
<path fill="none" stroke="#da2d4f" stroke-width="2" d="M638.8,-740.83C655.7,-725.15 676.5,-700.3 676.5,-673 676.5,-673 676.5,-673 676.5,-337 676.5,-317.75 677.02,-296.05 677.53,-279.39"/>
<polygon fill="#da2d4f" stroke="#da2d4f" stroke-width="2" points="681.03,-279.36 677.86,-269.25 674.03,-279.14 681.03,-279.36"/>
<text text-anchor="middle" x="698" y="-508.3" font-family="arial" font-size="14.00" fill="#da2d4f">unwind</text>
</g>
<!-- node49 -->
<g id="node25" class="node">
<title>node49</title>
<polygon fill="#e98693" stroke="black" points="644.5,-690 538.5,-690 538.5,-654 644.5,-654 644.5,-690"/>
<text text-anchor="middle" x="591.5" y="-668.3" font-family="Arial" font-size="14.00" fill="#1a1919">49 KillingBegin</text>
</g>
<!-- node47&#45;&gt;node49 -->
<g id="edge38" class="edge">
<title>node47&#45;&gt;node49</title>
<path fill="none" stroke="#da2d4f" stroke-width="2" d="M612.24,-740.8C608.64,-729.05 603.81,-713.24 599.71,-699.84"/>
<polygon fill="#da2d4f" stroke="#da2d4f" stroke-width="2" points="603.03,-698.71 596.75,-690.18 596.33,-700.76 603.03,-698.71"/>
</g>
<!-- node50 -->
<g id="node26" class="node">
<title>node50</title>
<polygon fill="#f9f9f9" stroke="black" points="515.5,-690 373.5,-690 373.5,-654 515.5,-654 515.5,-690"/>
<text text-anchor="middle" x="444.5" y="-668.3" font-family="Arial" font-size="14.00" fill="#1a1919">50 MethodCallTarget</text>
</g>
<!-- node47&#45;&gt;node50 -->
<g id="edge42" class="edge">
<title>node47&#45;&gt;node50</title>
<path fill="none" stroke="#3cb4a4" d="M582.49,-740.8C555.32,-727.45 517.49,-708.86 488.31,-694.52"/>
<polygon fill="#3cb4a4" stroke="#3cb4a4" points="489.68,-691.3 479.16,-690.03 486.59,-697.58 489.68,-691.3"/>
<text text-anchor="middle" x="559" y="-711.8" font-family="arial" font-size="14.00" fill="#3cb4a4">arg[1]</text>
</g>
<!-- node54 -->
<g id="node28" class="node">
<title>node54</title>
<polygon fill="#da2d4f" stroke="black" points="570,-617 319,-617 319,-581 570,-581 570,-617"/>
<text text-anchor="middle" x="444.5" y="-595.3" font-family="Arial" font-size="14.00" fill="#ffffff">54 Call OptimizedCallTarget.callProxy !</text>
</g>
<!-- node49&#45;&gt;node54 -->
<g id="edge40" class="edge">
<title>node49&#45;&gt;node54</title>
<path fill="none" stroke="#da2d4f" stroke-width="2" d="M556.29,-653.99C536.16,-644.27 510.73,-631.99 489.2,-621.59"/>
<polygon fill="#da2d4f" stroke="#da2d4f" stroke-width="2" points="490.46,-618.31 479.93,-617.11 487.41,-624.61 490.46,-618.31"/>
</g>
<!-- node50&#45;&gt;node54 -->
<g id="edge43" class="edge">
<title>node50&#45;&gt;node54</title>
<path fill="none" stroke="#343d46" stroke-dasharray="5,2" d="M444.5,-643.75C444.5,-634.77 444.5,-625.03 444.5,-617.03"/>
<polygon fill="#343d46" stroke="#343d46" points="441,-643.81 444.5,-653.81 448,-643.81 441,-643.81"/>
</g>
<!-- node51 -->
<g id="node27" class="node">
<title>node51</title>
<polygon fill="#f9f9f9" stroke="black" points="593.5,-269 459.5,-269 459.5,-233 593.5,-233 593.5,-269"/>
<text text-anchor="middle" x="526.5" y="-247.3" font-family="Arial" font-size="14.00" fill="#1a1919">51 ExceptionObject</text>
</g>
<!-- node51&#45;&gt;node30 -->
<g id="edge64" class="edge">
<title>node51&#45;&gt;node30</title>
<path fill="none" stroke="#da2d4f" stroke-width="2" d="M593.61,-234.86C596.61,-234.22 599.59,-233.6 602.5,-233 689.76,-215.05 713.27,-218.36 799.5,-196 800.77,-195.67 802.06,-195.33 803.35,-194.97"/>
<polygon fill="#da2d4f" stroke="#da2d4f" stroke-width="2" points="804.74,-198.21 813.35,-192.03 802.77,-191.49 804.74,-198.21"/>
</g>
<!-- node51&#45;&gt;node32 -->
<g id="edge24" class="edge">
<title>node51&#45;&gt;node32</title>
<path fill="none" stroke="#3cb4a4" d="M543.28,-232.75C563.26,-212.99 598.37,-180.7 633.5,-160 666.63,-140.48 708.09,-125.6 737.46,-116.45"/>
<polygon fill="#3cb4a4" stroke="#3cb4a4" points="738.76,-119.71 747.31,-113.45 736.72,-113.01 738.76,-119.71"/>
<text text-anchor="middle" x="657" y="-174.3" font-family="arial" font-size="14.00" fill="#3cb4a4">from 53</text>
</g>
<!-- node54&#45;&gt;node51 -->
<g id="edge45" class="edge">
<title>node54&#45;&gt;node51</title>
<path fill="none" stroke="#da2d4f" stroke-width="2" d="M478.18,-580.88C501.55,-566.36 528.5,-543.08 528.5,-513 528.5,-513 528.5,-513 528.5,-337 528.5,-317.75 527.98,-296.05 527.47,-279.39"/>
<polygon fill="#da2d4f" stroke="#da2d4f" stroke-width="2" points="530.97,-279.14 527.14,-269.25 523.97,-279.36 530.97,-279.14"/>
<text text-anchor="middle" x="550" y="-421.3" font-family="arial" font-size="14.00" fill="#da2d4f">unwind</text>
</g>
<!-- node56 -->
<g id="node29" class="node">
<title>node56</title>
<polygon fill="#e98693" stroke="black" points="413.5,-530 307.5,-530 307.5,-494 413.5,-494 413.5,-530"/>
<text text-anchor="middle" x="360.5" y="-508.3" font-family="Arial" font-size="14.00" fill="#1a1919">56 KillingBegin</text>
</g>
<!-- node54&#45;&gt;node56 -->
<g id="edge44" class="edge">
<title>node54&#45;&gt;node56</title>
<path fill="none" stroke="#da2d4f" stroke-width="2" d="M427.5,-580.8C415.2,-568.36 398.41,-551.36 384.72,-537.5"/>
<polygon fill="#da2d4f" stroke="#da2d4f" stroke-width="2" points="386.99,-534.83 377.47,-530.18 382.01,-539.75 386.99,-534.83"/>
</g>
<!-- node54&#45;&gt;node60 -->
<g id="edge49" class="edge">
<title>node54&#45;&gt;node60</title>
<path fill="none" stroke="#3cb4a4" d="M391.39,-580.9C348.61,-567.13 288.36,-547.73 243.2,-533.19"/>
<polygon fill="#3cb4a4" stroke="#3cb4a4" points="244.11,-529.8 233.52,-530.07 241.97,-536.47 244.11,-529.8"/>
<text text-anchor="middle" x="346" y="-551.8" font-family="arial" font-size="14.00" fill="#3cb4a4">arg[1]</text>
</g>
<!-- node74 -->
<g id="node36" class="node">
<title>node74</title>
<polygon fill="#e98693" stroke="black" points="451.5,-356 375.5,-356 375.5,-320 451.5,-320 451.5,-356"/>
<text text-anchor="middle" x="413.5" y="-334.3" font-family="Arial" font-size="14.00" fill="#1a1919">74 Return</text>
</g>
<!-- node54&#45;&gt;node74 -->
<g id="edge55" class="edge">
<title>node54&#45;&gt;node74</title>
<path fill="none" stroke="#3cb4a4" d="M442.42,-580.6C437.13,-536.46 423.17,-419.83 416.78,-366.42"/>
<polygon fill="#3cb4a4" stroke="#3cb4a4" points="420.24,-365.83 415.57,-356.32 413.29,-366.67 420.24,-365.83"/>
<text text-anchor="middle" x="447.5" y="-464.8" font-family="arial" font-size="14.00" fill="#3cb4a4">result</text>
</g>
<!-- node75 -->
<g id="node37" class="node">
<title>node75</title>
<polygon fill="#e98693" stroke="black" points="291.5,-196 215.5,-196 215.5,-160 291.5,-160 291.5,-196"/>
<text text-anchor="middle" x="253.5" y="-174.3" font-family="Arial" font-size="14.00" fill="#1a1919">75 Return</text>
</g>
<!-- node54&#45;&gt;node75 -->
<g id="edge56" class="edge">
<title>node54&#45;&gt;node75</title>
<path fill="none" stroke="#3cb4a4" d="M456.15,-580.94C466.34,-564.35 479.5,-538.06 479.5,-513 479.5,-513 479.5,-513 479.5,-380.5 479.5,-352.32 482.2,-337.99 460.5,-320 408.13,-276.58 363.3,-342.3 308.5,-302 277.59,-279.27 263.71,-235.16 257.73,-206.41"/>
<polygon fill="#3cb4a4" stroke="#3cb4a4" points="261.1,-205.4 255.8,-196.22 254.22,-206.7 261.1,-205.4"/>
<text text-anchor="middle" x="496.5" y="-377.8" font-family="arial" font-size="14.00" fill="#3cb4a4">result</text>
</g>
<!-- node56&#45;&gt;node59 -->
<g id="edge46" class="edge">
<title>node56&#45;&gt;node59</title>
<path fill="none" stroke="#da2d4f" stroke-width="2" d="M349.57,-493.8C341.89,-481.7 331.47,-465.3 322.81,-451.67"/>
<polygon fill="#da2d4f" stroke="#da2d4f" stroke-width="2" points="325.73,-449.74 317.41,-443.18 319.82,-453.49 325.73,-449.74"/>
</g>
<!-- node64 -->
<g id="node33" class="node">
<title>node64</title>
<polygon fill="#da2d4f" stroke="black" points="357,-356 0,-356 0,-320 357,-320 357,-356"/>
<text text-anchor="middle" x="178.5" y="-334.3" font-family="Arial" font-size="14.00" fill="#ffffff">64 Call OptimizedCompilationProfile.profileReturnValue !</text>
</g>
<!-- node59&#45;&gt;node64 -->
<g id="edge65" class="edge">
<title>node59&#45;&gt;node64</title>
<path fill="none" stroke="#da2d4f" stroke-width="2" d="M280.6,-406.8C261.08,-393.84 234.13,-375.94 212.82,-361.79"/>
<polygon fill="#da2d4f" stroke="#da2d4f" stroke-width="2" points="214.63,-358.79 204.36,-356.18 210.76,-364.62 214.63,-358.79"/>
<text text-anchor="middle" x="255" y="-377.8" font-family="arial" font-size="14.00" fill="#da2d4f">F</text>
</g>
<!-- node59&#45;&gt;node74 -->
<g id="edge66" class="edge">
<title>node59&#45;&gt;node74</title>
<path fill="none" stroke="#da2d4f" stroke-width="2" d="M328.15,-406.8C344.11,-394.13 366,-376.73 383.62,-362.74"/>
<polygon fill="#da2d4f" stroke="#da2d4f" stroke-width="2" points="386.23,-365.14 391.88,-356.18 381.87,-359.66 386.23,-365.14"/>
<text text-anchor="middle" x="371" y="-377.8" font-family="arial" font-size="14.00" fill="#da2d4f">T</text>
</g>
<!-- node60&#45;&gt;node64 -->
<g id="edge50" class="edge">
<title>node60&#45;&gt;node64</title>
<path fill="none" stroke="#343d46" stroke-dasharray="5,2" d="M180.18,-483.64C179.76,-447.76 179.05,-385.88 178.7,-356.05"/>
<polygon fill="#343d46" stroke="#343d46" points="176.68,-483.92 180.3,-493.88 183.68,-483.84 176.68,-483.92"/>
</g>
<!-- node61 -->
<g id="node32" class="node">
<title>node61</title>
<polygon fill="#f9f9f9" stroke="black" points="441.5,-269 307.5,-269 307.5,-233 441.5,-233 441.5,-269"/>
<text text-anchor="middle" x="374.5" y="-247.3" font-family="Arial" font-size="14.00" fill="#1a1919">61 ExceptionObject</text>
</g>
<!-- node61&#45;&gt;node30 -->
<g id="edge67" class="edge">
<title>node61&#45;&gt;node30</title>
<path fill="none" stroke="#da2d4f" stroke-width="2" d="M441.56,-234.56C444.57,-234.01 447.56,-233.48 450.5,-233 604.42,-207.71 647.07,-229.08 799.5,-196 800.78,-195.72 802.08,-195.42 803.38,-195.11"/>
<polygon fill="#da2d4f" stroke="#da2d4f" stroke-width="2" points="804.7,-198.38 813.44,-192.39 802.87,-191.62 804.7,-198.38"/>
</g>
<!-- node61&#45;&gt;node32 -->
<g id="edge25" class="edge">
<title>node61&#45;&gt;node32</title>
<path fill="none" stroke="#3cb4a4" d="M399.24,-232.92C429.58,-212.71 483.18,-179.39 533.5,-160 603.02,-133.22 689.19,-117.91 737.38,-110.85"/>
<polygon fill="#3cb4a4" stroke="#3cb4a4" points="737.95,-114.3 747.36,-109.42 736.96,-107.37 737.95,-114.3"/>
<text text-anchor="middle" x="557" y="-174.3" font-family="arial" font-size="14.00" fill="#3cb4a4">from 63</text>
</g>
<!-- node64&#45;&gt;node61 -->
<g id="edge52" class="edge">
<title>node64&#45;&gt;node61</title>
<path fill="none" stroke="#da2d4f" stroke-width="2" d="M218.16,-319.8C249.22,-306.33 292.55,-287.54 325.73,-273.15"/>
<polygon fill="#da2d4f" stroke="#da2d4f" stroke-width="2" points="327.45,-276.22 335.23,-269.03 324.66,-269.8 327.45,-276.22"/>
<text text-anchor="middle" x="310" y="-290.8" font-family="arial" font-size="14.00" fill="#da2d4f">unwind</text>
</g>
<!-- node66 -->
<g id="node34" class="node">
<title>node66</title>
<polygon fill="#e98693" stroke="black" points="246.5,-269 140.5,-269 140.5,-233 246.5,-233 246.5,-269"/>
<text text-anchor="middle" x="193.5" y="-247.3" font-family="Arial" font-size="14.00" fill="#1a1919">66 KillingBegin</text>
</g>
<!-- node64&#45;&gt;node66 -->
<g id="edge51" class="edge">
<title>node64&#45;&gt;node66</title>
<path fill="none" stroke="#da2d4f" stroke-width="2" d="M181.54,-319.8C183.59,-308.16 186.34,-292.55 188.69,-279.24"/>
<polygon fill="#da2d4f" stroke="#da2d4f" stroke-width="2" points="192.18,-279.63 190.47,-269.18 185.28,-278.41 192.18,-279.63"/>
</g>
<!-- node66&#45;&gt;node75 -->
<g id="edge53" class="edge">
<title>node66&#45;&gt;node75</title>
<path fill="none" stroke="#da2d4f" stroke-width="2" d="M208.02,-232.81C215.39,-224.09 224.48,-213.34 232.59,-203.75"/>
<polygon fill="#da2d4f" stroke="#da2d4f" stroke-width="2" points="235.33,-205.93 239.11,-196.03 229.98,-201.41 235.33,-205.93"/>
</g>
<!-- inline1x4 -->
<g id="node38" class="node">
<title>inline1x4</title>
<ellipse fill="#d7ede7" stroke="black" cx="617.5" cy="-1791" rx="27" ry="18"/>
<text text-anchor="middle" x="617.5" y="-1789.1" font-family="Arial" font-size="8.00" fill="#1a1919">1 P(0)</text>
</g>
<!-- inline1x4&#45;&gt;node4 -->
<g id="edge2" class="edge">
<title>inline1x4&#45;&gt;node4</title>
<path fill="none" stroke="#3cb4a4" d="M609.83,-1773.63C603.61,-1760.34 594.86,-1741.67 588.54,-1728.17"/>
<text text-anchor="middle" x="610.5" y="-1748.6" font-family="arial" font-size="8.00" fill="#3cb4a4">object</text>
</g>
<!-- inline2x14 -->
<g id="node39" class="node">
<title>inline2x14</title>
<ellipse fill="#d7ede7" stroke="black" cx="718.5" cy="-1623" rx="27" ry="18"/>
<text text-anchor="middle" x="718.5" y="-1621.1" font-family="Arial" font-size="8.00" fill="#1a1919">2 P(1)</text>
</g>
<!-- inline2x14&#45;&gt;node14 -->
<g id="edge9" class="edge">
<title>inline2x14&#45;&gt;node14</title>
<path fill="none" stroke="#3cb4a4" d="M718.5,-1604.8C718.5,-1590.05 718.5,-1568.92 718.5,-1554.18"/>
<text text-anchor="middle" x="729.5" y="-1577.6" font-family="arial" font-size="8.00" fill="#3cb4a4">arg[1]</text>
</g>
<!-- inline2x24 -->
<g id="node40" class="node">
<title>inline2x24</title>
<ellipse fill="#d7ede7" stroke="black" cx="887.5" cy="-1188" rx="27" ry="18"/>
<text text-anchor="middle" x="887.5" y="-1186.1" font-family="Arial" font-size="8.00" fill="#1a1919">2 P(1)</text>
</g>
<!-- inline2x24&#45;&gt;node24 -->
<g id="edge15" class="edge">
<title>inline2x24&#45;&gt;node24</title>
<path fill="none" stroke="#3cb4a4" d="M883.81,-1169.86C880.96,-1156.61 877.03,-1138.35 874.18,-1125.11"/>
<text text-anchor="middle" x="893.5" y="-1145.6" font-family="arial" font-size="8.00" fill="#3cb4a4">from 21</text>
</g>
<!-- inline1x26 -->
<g id="node41" class="node">
<title>inline1x26</title>
<ellipse fill="#d7ede7" stroke="black" cx="561.5" cy="-1275" rx="27" ry="18"/>
<text text-anchor="middle" x="561.5" y="-1273.1" font-family="Arial" font-size="8.00" fill="#1a1919">1 P(0)</text>
</g>
<!-- inline1x26&#45;&gt;node26 -->
<g id="edge17" class="edge">
<title>inline1x26&#45;&gt;node26</title>
<path fill="none" stroke="#3cb4a4" d="M563.12,-1256.8C564.51,-1242.05 566.5,-1220.92 567.88,-1206.18"/>
<text text-anchor="middle" x="577.5" y="-1229.6" font-family="arial" font-size="8.00" fill="#3cb4a4">arg[0]</text>
</g>
<!-- inline1x50 -->
<g id="node42" class="node">
<title>inline1x50</title>
<ellipse fill="#d7ede7" stroke="black" cx="435.5" cy="-759" rx="27" ry="18"/>
<text text-anchor="middle" x="435.5" y="-757.1" font-family="Arial" font-size="8.00" fill="#1a1919">1 P(0)</text>
</g>
<!-- inline1x50&#45;&gt;node50 -->
<g id="edge41" class="edge">
<title>inline1x50&#45;&gt;node50</title>
<path fill="none" stroke="#3cb4a4" d="M437.32,-740.8C438.88,-726.05 441.12,-704.92 442.68,-690.18"/>
<text text-anchor="middle" x="452.5" y="-713.6" font-family="arial" font-size="8.00" fill="#3cb4a4">arg[0]</text>
</g>
</g>
</svg>
