<?xml version="1.0" encoding="UTF-8" standalone="no"?>
<!DOCTYPE svg PUBLIC "-//W3C//DTD SVG 1.1//EN"
 "http://www.w3.org/Graphics/SVG/1.1/DTD/svg11.dtd">
<!-- Generated by graphviz version 2.43.0 (0)
 -->
<!-- Title: G Pages: 1 -->
<svg width="1011pt" height="1255pt"
 viewBox="0.00 0.00 1011.44 1255.00" xmlns="http://www.w3.org/2000/svg" xmlns:xlink="http://www.w3.org/1999/xlink">
<g id="graph0" class="graph" transform="scale(1 1) rotate(0) translate(4 1251)">
<title>G</title>
<polygon fill="white" stroke="transparent" points="-4,4 -4,-1251 1007.44,-1251 1007.44,4 -4,4"/>
<!-- node7 -->
<g id="node1" class="node">
<title>node7</title>
<polygon fill="#e98693" stroke="black" points="822.44,-652 730.44,-652 730.44,-616 822.44,-616 822.44,-652"/>
<text text-anchor="middle" x="776.44" y="-630.3" font-family="Arial" font-size="14.00" fill="#1a1919">7 LoopBegin</text>
</g>
<!-- node22 -->
<g id="node3" class="node">
<title>node22</title>
<polygon fill="#e98693" stroke="black" points="308.44,-283 220.44,-283 220.44,-247 308.44,-247 308.44,-283"/>
<text text-anchor="middle" x="264.44" y="-261.3" font-family="Arial" font-size="14.00" fill="#1a1919">22 LoopExit</text>
</g>
<!-- node7&#45;&gt;node22 -->
<g id="edge4" class="edge">
<title>node7&#45;&gt;node22</title>
<path fill="none" stroke="#343d46" stroke-dasharray="5,2" d="M720.31,-630.09C580.97,-622.12 230.44,-597.19 230.44,-548 230.44,-548 230.44,-548 230.44,-351 230.44,-326.05 243.23,-299.73 253.12,-283.11"/>
<polygon fill="#343d46" stroke="#343d46" points="720.18,-633.59 730.36,-630.66 720.57,-626.6 720.18,-633.59"/>
</g>
<!-- node24 -->
<g id="node4" class="node">
<title>node24</title>
<polygon fill="#e98693" stroke="black" points="747.44,-370 693.44,-370 693.44,-334 747.44,-334 747.44,-370"/>
<text text-anchor="middle" x="720.44" y="-348.3" font-family="Arial" font-size="14.00" fill="#1a1919">24 If</text>
</g>
<!-- node7&#45;&gt;node24 -->
<g id="edge1" class="edge">
<title>node7&#45;&gt;node24</title>
<path fill="none" stroke="#da2d4f" stroke-width="2" d="M777.23,-615.79C778.41,-579.11 778.58,-490.85 757.44,-421 752.98,-406.24 745.08,-391.05 737.73,-378.78"/>
<polygon fill="#da2d4f" stroke="#da2d4f" stroke-width="2" points="740.53,-376.66 732.27,-370.02 734.59,-380.36 740.53,-376.66"/>
</g>
<!-- node35 -->
<g id="node11" class="node">
<title>node35</title>
<polygon fill="#e98693" stroke="black" points="907.94,-36 818.94,-36 818.94,0 907.94,0 907.94,-36"/>
<text text-anchor="middle" x="863.44" y="-14.3" font-family="Arial" font-size="14.00" fill="#1a1919">35 LoopEnd</text>
</g>
<!-- node7&#45;&gt;node35 -->
<g id="edge19" class="edge">
<title>node7&#45;&gt;node35</title>
<path fill="none" stroke="#da2d4f" stroke-width="4" d="M832.73,-624.13C874.93,-613.9 925.44,-592.39 925.44,-548 925.44,-548 925.44,-548 925.44,-90 925.44,-67.58 907.69,-48.82 891.18,-36.23"/>
<polygon fill="#da2d4f" stroke="#da2d4f" stroke-width="4" points="831.75,-620.76 822.77,-626.38 833.3,-627.59 831.75,-620.76"/>
</g>
<!-- node59 -->
<g id="node22" class="node">
<title>node59</title>
<polygon fill="#f9f9f9" stroke="black" points="845.44,-511 791.44,-511 791.44,-475 845.44,-475 845.44,-511"/>
<text text-anchor="middle" x="818.44" y="-489.3" font-family="Arial" font-size="14.00" fill="#1a1919">59 ϕ</text>
</g>
<!-- node7&#45;&gt;node59 -->
<g id="edge33" class="edge">
<title>node7&#45;&gt;node59</title>
<path fill="none" stroke="#343d46" stroke-dasharray="5,2" d="M787.47,-606.38C788.52,-603.57 789.53,-600.74 790.44,-598 800.49,-567.84 809.54,-531.88 814.49,-511.12"/>
<polygon fill="#343d46" stroke="#343d46" points="784.2,-605.11 783.83,-615.7 790.72,-607.66 784.2,-605.11"/>
</g>
<!-- node60 -->
<g id="node23" class="node">
<title>node60</title>
<polygon fill="#f9f9f9" stroke="black" points="453.44,-565 399.44,-565 399.44,-529 453.44,-529 453.44,-565"/>
<text text-anchor="middle" x="426.44" y="-543.3" font-family="Arial" font-size="14.00" fill="#1a1919">60 ϕ</text>
</g>
<!-- node7&#45;&gt;node60 -->
<g id="edge35" class="edge">
<title>node7&#45;&gt;node60</title>
<path fill="none" stroke="#343d46" stroke-dasharray="5,2" d="M720.41,-619.39C644.11,-600.86 510.52,-568.42 453.49,-554.57"/>
<polygon fill="#343d46" stroke="#343d46" points="719.78,-622.84 730.33,-621.8 721.44,-616.04 719.78,-622.84"/>
</g>
<!-- node19 -->
<g id="node2" class="node">
<title>node19</title>
<polygon fill="#3cb4a4" stroke="black" points="708.44,-457 668.06,-439 708.44,-421 748.83,-439 708.44,-457"/>
<text text-anchor="middle" x="708.44" y="-435.3" font-family="Arial" font-size="14.00" fill="#1a1919">19 &lt;</text>
</g>
<!-- node19&#45;&gt;node24 -->
<g id="edge5" class="edge">
<title>node19&#45;&gt;node24</title>
<path fill="none" stroke="#3cb4a4" d="M710.76,-421.61C712.4,-409.96 714.65,-394.04 716.56,-380.47"/>
<polygon fill="#3cb4a4" stroke="#3cb4a4" points="720.08,-380.6 718.01,-370.21 713.15,-379.63 720.08,-380.6"/>
<text text-anchor="middle" x="718.44" y="-391.8" font-family="arial" font-size="14.00" fill="#3cb4a4">?</text>
</g>
<!-- node55 -->
<g id="node21" class="node">
<title>node55</title>
<polygon fill="#e98693" stroke="black" points="254.44,-196 180.44,-196 180.44,-160 254.44,-160 254.44,-196"/>
<text text-anchor="middle" x="217.44" y="-174.3" font-family="Arial" font-size="14.00" fill="#1a1919">55 Merge</text>
</g>
<!-- node22&#45;&gt;node55 -->
<g id="edge48" class="edge">
<title>node22&#45;&gt;node55</title>
<path fill="none" stroke="#da2d4f" stroke-width="2" d="M254.93,-246.8C248.31,-234.82 239.35,-218.62 231.85,-205.06"/>
<polygon fill="#da2d4f" stroke="#da2d4f" stroke-width="2" points="234.84,-203.23 226.94,-196.18 228.72,-206.62 234.84,-203.23"/>
</g>
<!-- node24&#45;&gt;node22 -->
<g id="edge6" class="edge">
<title>node24&#45;&gt;node22</title>
<path fill="none" stroke="#da2d4f" stroke-width="2" d="M693.29,-342.49C683.34,-339.56 671.94,-336.4 661.44,-334 539.94,-306.18 395.17,-284.13 318.44,-273.31"/>
<polygon fill="#da2d4f" stroke="#da2d4f" stroke-width="2" points="318.91,-269.84 308.52,-271.92 317.94,-276.77 318.91,-269.84"/>
<text text-anchor="middle" x="579.94" y="-304.8" font-family="arial" font-size="14.00" fill="#da2d4f">T</text>
</g>
<!-- node25 -->
<g id="node5" class="node">
<title>node25</title>
<polygon fill="#c39bd3" stroke="black" points="835.44,-283 645.44,-283 645.44,-247 835.44,-247 835.44,-283"/>
<text text-anchor="middle" x="740.44" y="-261.3" font-family="Arial" font-size="14.00" fill="#1a1919">25 LoadField ComplexNum.r</text>
</g>
<!-- node24&#45;&gt;node25 -->
<g id="edge45" class="edge">
<title>node24&#45;&gt;node25</title>
<path fill="none" stroke="#da2d4f" stroke-width="2" d="M724.49,-333.8C727.23,-322.16 730.9,-306.55 734.03,-293.24"/>
<polygon fill="#da2d4f" stroke="#da2d4f" stroke-width="2" points="737.52,-293.71 736.4,-283.18 730.7,-292.11 737.52,-293.71"/>
<text text-anchor="middle" x="735.94" y="-304.8" font-family="arial" font-size="14.00" fill="#da2d4f">F</text>
</g>
<!-- node29 -->
<g id="node8" class="node">
<title>node29</title>
<polygon fill="#3cb4a4" stroke="black" points="733.44,-196 693.06,-178 733.44,-160 773.83,-178 733.44,-196"/>
<text text-anchor="middle" x="733.44" y="-174.3" font-family="Arial" font-size="14.00" fill="#1a1919">29 +</text>
</g>
<!-- node25&#45;&gt;node29 -->
<g id="edge12" class="edge">
<title>node25&#45;&gt;node29</title>
<path fill="none" stroke="#3cb4a4" d="M739.03,-246.8C738.06,-235.01 736.75,-219.14 735.64,-205.71"/>
<polygon fill="#3cb4a4" stroke="#3cb4a4" points="739.12,-205.28 734.81,-195.6 732.14,-205.85 739.12,-205.28"/>
<text text-anchor="middle" x="739.94" y="-217.8" font-family="arial" font-size="14.00" fill="#3cb4a4">x</text>
</g>
<!-- node30 -->
<g id="node9" class="node">
<title>node30</title>
<polygon fill="#c39bd3" stroke="black" points="897.44,-109 705.44,-109 705.44,-73 897.44,-73 897.44,-109"/>
<text text-anchor="middle" x="801.44" y="-87.3" font-family="Arial" font-size="14.00" fill="#1a1919">30 StoreField ComplexNum.r</text>
</g>
<!-- node25&#45;&gt;node30 -->
<g id="edge8" class="edge">
<title>node25&#45;&gt;node30</title>
<path fill="none" stroke="#da2d4f" stroke-width="2" d="M753.61,-246.78C763.05,-233.57 775.32,-214.52 782.44,-196 792.08,-170.94 796.9,-140.56 799.27,-119.12"/>
<polygon fill="#da2d4f" stroke="#da2d4f" stroke-width="2" points="802.76,-119.39 800.27,-109.09 795.8,-118.7 802.76,-119.39"/>
</g>
<!-- node26 -->
<g id="node6" class="node">
<title>node26</title>
<polygon fill="#3cb4a4" stroke="black" points="460.44,-457 356.71,-439 460.44,-421 564.17,-439 460.44,-457"/>
<text text-anchor="middle" x="460.44" y="-435.3" font-family="Arial" font-size="14.00" fill="#1a1919">26 FloatConvert</text>
</g>
<!-- node28 -->
<g id="node7" class="node">
<title>node28</title>
<polygon fill="#3cb4a4" stroke="black" points="616.44,-370 580.75,-352 616.44,-334 652.14,-352 616.44,-370"/>
<text text-anchor="middle" x="616.44" y="-348.3" font-family="Arial" font-size="14.00" fill="#1a1919">28 /</text>
</g>
<!-- node26&#45;&gt;node28 -->
<g id="edge10" class="edge">
<title>node26&#45;&gt;node28</title>
<path fill="none" stroke="#3cb4a4" d="M484.14,-425.09C513.05,-409.33 561.75,-382.8 591.3,-366.7"/>
<polygon fill="#3cb4a4" stroke="#3cb4a4" points="593.07,-369.72 600.18,-361.86 589.72,-363.57 593.07,-369.72"/>
<text text-anchor="middle" x="551.94" y="-391.8" font-family="arial" font-size="14.00" fill="#3cb4a4">x</text>
</g>
<!-- node28&#45;&gt;node29 -->
<g id="edge13" class="edge">
<title>node28&#45;&gt;node29</title>
<path fill="none" stroke="#3cb4a4" d="M614.49,-334.84C612.7,-313.14 612.48,-274.17 629.44,-247 646.31,-219.98 678.32,-201.51 702.39,-190.71"/>
<polygon fill="#3cb4a4" stroke="#3cb4a4" points="704,-193.83 711.83,-186.68 701.26,-187.39 704,-193.83"/>
<text text-anchor="middle" x="632.94" y="-261.3" font-family="arial" font-size="14.00" fill="#3cb4a4">y</text>
</g>
<!-- node29&#45;&gt;node30 -->
<g id="edge15" class="edge">
<title>node29&#45;&gt;node30</title>
<path fill="none" stroke="#3cb4a4" d="M737.61,-161.44C740.96,-150.96 746.43,-137.23 754.44,-127 757.65,-122.9 761.46,-119.04 765.49,-115.49"/>
<polygon fill="#3cb4a4" stroke="#3cb4a4" points="767.87,-118.07 773.44,-109.05 763.46,-112.63 767.87,-118.07"/>
<text text-anchor="middle" x="770.94" y="-130.8" font-family="arial" font-size="14.00" fill="#3cb4a4">value</text>
</g>
<!-- node30&#45;&gt;node35 -->
<g id="edge16" class="edge">
<title>node30&#45;&gt;node35</title>
<path fill="none" stroke="#da2d4f" stroke-width="2" d="M816.45,-72.81C824.07,-64.09 833.46,-53.34 841.83,-43.75"/>
<polygon fill="#da2d4f" stroke="#da2d4f" stroke-width="2" points="844.63,-45.86 848.57,-36.03 839.36,-41.26 844.63,-45.86"/>
</g>
<!-- node34 -->
<g id="node10" class="node">
<title>node34</title>
<polygon fill="#3cb4a4" stroke="black" points="298.44,-457 258.06,-439 298.44,-421 338.83,-439 298.44,-457"/>
<text text-anchor="middle" x="298.44" y="-435.3" font-family="Arial" font-size="14.00" fill="#1a1919">34 +</text>
</g>
<!-- node34&#45;&gt;node60 -->
<g id="edge37" class="edge">
<title>node34&#45;&gt;node60</title>
<path fill="none" stroke="#3cb4a4" d="M301.73,-455.66C305.84,-471.62 314.39,-496.09 330.44,-511 346.6,-526.01 369.71,-534.7 389.2,-539.66"/>
<polygon fill="#3cb4a4" stroke="#3cb4a4" points="388.48,-543.08 399.01,-541.93 390.06,-536.26 388.48,-543.08"/>
<text text-anchor="middle" x="353.94" y="-489.3" font-family="arial" font-size="14.00" fill="#3cb4a4">from 35</text>
</g>
<!-- node36 -->
<g id="node12" class="node">
<title>node36</title>
<polygon fill="#e98693" stroke="black" points="255.44,-109 179.44,-109 179.44,-73 255.44,-73 255.44,-109"/>
<text text-anchor="middle" x="217.44" y="-87.3" font-family="Arial" font-size="14.00" fill="#1a1919">36 Return</text>
</g>
<!-- node42 -->
<g id="node13" class="node">
<title>node42</title>
<polygon fill="#3cb4a4" stroke="black" points="139.44,-1073 99.06,-1055 139.44,-1037 179.83,-1055 139.44,-1073"/>
<text text-anchor="middle" x="139.44" y="-1051.3" font-family="Arial" font-size="14.00" fill="#1a1919">42 &lt;</text>
</g>
<!-- node45 -->
<g id="node14" class="node">
<title>node45</title>
<polygon fill="#e98693" stroke="black" points="336.44,-986 282.44,-986 282.44,-950 336.44,-950 336.44,-986"/>
<text text-anchor="middle" x="309.44" y="-964.3" font-family="Arial" font-size="14.00" fill="#1a1919">45 If</text>
</g>
<!-- node42&#45;&gt;node45 -->
<g id="edge22" class="edge">
<title>node42&#45;&gt;node45</title>
<path fill="none" stroke="#3cb4a4" d="M160.86,-1046.4C169.42,-1043.41 179.38,-1039.98 188.44,-1037 214.09,-1028.58 222.58,-1031.6 246.44,-1019 259.73,-1011.98 272.97,-1002.04 283.86,-992.86"/>
<polygon fill="#3cb4a4" stroke="#3cb4a4" points="286.44,-995.25 291.7,-986.05 281.85,-989.97 286.44,-995.25"/>
<text text-anchor="middle" x="273.44" y="-1007.8" font-family="arial" font-size="14.00" fill="#3cb4a4">?</text>
</g>
<!-- node46 -->
<g id="node15" class="node">
<title>node46</title>
<polygon fill="#c39bd3" stroke="black" points="794.44,-899 604.44,-899 604.44,-863 794.44,-863 794.44,-899"/>
<text text-anchor="middle" x="699.44" y="-877.3" font-family="Arial" font-size="14.00" fill="#1a1919">46 LoadField ComplexNum.r</text>
</g>
<!-- node45&#45;&gt;node46 -->
<g id="edge46" class="edge">
<title>node45&#45;&gt;node46</title>
<path fill="none" stroke="#da2d4f" stroke-width="2" d="M336.56,-961.09C392.53,-948.89 522.99,-920.46 611.24,-901.22"/>
<polygon fill="#da2d4f" stroke="#da2d4f" stroke-width="2" points="612.23,-904.59 621.25,-899.04 610.73,-897.75 612.23,-904.59"/>
<text text-anchor="middle" x="532.94" y="-920.8" font-family="arial" font-size="14.00" fill="#da2d4f">F</text>
</g>
<!-- node45&#45;&gt;node55 -->
<g id="edge49" class="edge">
<title>node45&#45;&gt;node55</title>
<path fill="none" stroke="#da2d4f" stroke-width="2" d="M308.55,-949.94C306.52,-916.31 300.63,-839.22 286.44,-776 257.51,-647.09 192.44,-626.11 192.44,-494 192.44,-494 192.44,-494 192.44,-264 192.44,-243.87 198.97,-222.12 205.36,-205.65"/>
<polygon fill="#da2d4f" stroke="#da2d4f" stroke-width="2" points="208.7,-206.73 209.26,-196.15 202.22,-204.07 208.7,-206.73"/>
<text text-anchor="middle" x="215.94" y="-586.8" font-family="arial" font-size="14.00" fill="#da2d4f">T</text>
</g>
<!-- node49 -->
<g id="node18" class="node">
<title>node49</title>
<polygon fill="#3cb4a4" stroke="black" points="776.44,-812 736.06,-794 776.44,-776 816.83,-794 776.44,-812"/>
<text text-anchor="middle" x="776.44" y="-790.3" font-family="Arial" font-size="14.00" fill="#1a1919">49 +</text>
</g>
<!-- node46&#45;&gt;node49 -->
<g id="edge27" class="edge">
<title>node46&#45;&gt;node49</title>
<path fill="none" stroke="#3cb4a4" d="M715.03,-862.8C727.63,-848.88 745.39,-829.28 758.57,-814.73"/>
<polygon fill="#3cb4a4" stroke="#3cb4a4" points="761.24,-816.99 765.36,-807.23 756.06,-812.29 761.24,-816.99"/>
<text text-anchor="middle" x="745.94" y="-833.8" font-family="arial" font-size="14.00" fill="#3cb4a4">x</text>
</g>
<!-- node50 -->
<g id="node19" class="node">
<title>node50</title>
<polygon fill="#c39bd3" stroke="black" points="872.44,-725 680.44,-725 680.44,-689 872.44,-689 872.44,-725"/>
<text text-anchor="middle" x="776.44" y="-703.3" font-family="Arial" font-size="14.00" fill="#1a1919">50 StoreField ComplexNum.r</text>
</g>
<!-- node46&#45;&gt;node50 -->
<g id="edge23" class="edge">
<title>node46&#45;&gt;node50</title>
<path fill="none" stroke="#da2d4f" stroke-width="2" d="M702.11,-862.77C705.83,-841.58 713.72,-804.88 727.44,-776 734.7,-760.73 745.46,-745.31 755.06,-733.03"/>
<polygon fill="#da2d4f" stroke="#da2d4f" stroke-width="2" points="757.92,-735.05 761.45,-725.07 752.46,-730.67 757.92,-735.05"/>
</g>
<!-- node47 -->
<g id="node16" class="node">
<title>node47</title>
<polygon fill="#3cb4a4" stroke="black" points="301.44,-1073 197.71,-1055 301.44,-1037 405.17,-1055 301.44,-1073"/>
<text text-anchor="middle" x="301.44" y="-1051.3" font-family="Arial" font-size="14.00" fill="#1a1919">47 FloatConvert</text>
</g>
<!-- node48 -->
<g id="node17" class="node">
<title>node48</title>
<polygon fill="#3cb4a4" stroke="black" points="826.44,-986 790.75,-968 826.44,-950 862.14,-968 826.44,-986"/>
<text text-anchor="middle" x="826.44" y="-964.3" font-family="Arial" font-size="14.00" fill="#1a1919">48 /</text>
</g>
<!-- node47&#45;&gt;node48 -->
<g id="edge25" class="edge">
<title>node47&#45;&gt;node48</title>
<path fill="none" stroke="#3cb4a4" d="M352.26,-1045.77C457.96,-1028.66 699.23,-989.6 790.54,-974.81"/>
<polygon fill="#3cb4a4" stroke="#3cb4a4" points="791.35,-978.23 800.66,-973.17 790.23,-971.32 791.35,-978.23"/>
<text text-anchor="middle" x="598.94" y="-1007.8" font-family="arial" font-size="14.00" fill="#3cb4a4">x</text>
</g>
<!-- node48&#45;&gt;node49 -->
<g id="edge28" class="edge">
<title>node48&#45;&gt;node49</title>
<path fill="none" stroke="#3cb4a4" d="M823.78,-951.29C820.12,-930.75 812.88,-893.76 803.44,-863 798.86,-848.05 792.44,-831.76 787.01,-818.87"/>
<polygon fill="#3cb4a4" stroke="#3cb4a4" points="790.08,-817.16 782.92,-809.35 783.65,-819.92 790.08,-817.16"/>
<text text-anchor="middle" x="815.94" y="-877.3" font-family="arial" font-size="14.00" fill="#3cb4a4">y</text>
</g>
<!-- node49&#45;&gt;node50 -->
<g id="edge29" class="edge">
<title>node49&#45;&gt;node50</title>
<path fill="none" stroke="#3cb4a4" d="M776.44,-775.8C776.44,-764.16 776.44,-748.55 776.44,-735.24"/>
<polygon fill="#3cb4a4" stroke="#3cb4a4" points="779.94,-735.18 776.44,-725.18 772.94,-735.18 779.94,-735.18"/>
<text text-anchor="middle" x="792.94" y="-746.8" font-family="arial" font-size="14.00" fill="#3cb4a4">value</text>
</g>
<!-- node50&#45;&gt;node7 -->
<g id="edge47" class="edge">
<title>node50&#45;&gt;node7</title>
<path fill="none" stroke="#da2d4f" stroke-width="2" d="M776.44,-688.81C776.44,-680.79 776.44,-671.05 776.44,-662.07"/>
<polygon fill="#da2d4f" stroke="#da2d4f" stroke-width="2" points="779.94,-662.03 776.44,-652.03 772.94,-662.03 779.94,-662.03"/>
</g>
<!-- node52 -->
<g id="node20" class="node">
<title>node52</title>
<polygon fill="#3cb4a4" stroke="black" points="40.44,-1073 0.06,-1055 40.44,-1037 80.83,-1055 40.44,-1073"/>
<text text-anchor="middle" x="40.44" y="-1051.3" font-family="Arial" font-size="14.00" fill="#1a1919">52 +</text>
</g>
<!-- node52&#45;&gt;node60 -->
<g id="edge36" class="edge">
<title>node52&#45;&gt;node60</title>
<path fill="none" stroke="#3cb4a4" d="M60.99,-1046.05C110.52,-1026.75 232.44,-978.3 232.44,-969 232.44,-969 232.44,-969 232.44,-836.5 232.44,-720.82 341.18,-616.64 395.84,-571.59"/>
<polygon fill="#3cb4a4" stroke="#3cb4a4" points="398.25,-574.14 403.81,-565.12 393.84,-568.71 398.25,-574.14"/>
<text text-anchor="middle" x="262.44" y="-790.3" font-family="arial" font-size="14.00" fill="#3cb4a4">from 6</text>
</g>
<!-- node55&#45;&gt;node36 -->
<g id="edge32" class="edge">
<title>node55&#45;&gt;node36</title>
<path fill="none" stroke="#da2d4f" stroke-width="2" d="M217.44,-159.8C217.44,-148.16 217.44,-132.55 217.44,-119.24"/>
<polygon fill="#da2d4f" stroke="#da2d4f" stroke-width="2" points="220.94,-119.18 217.44,-109.18 213.94,-119.18 220.94,-119.18"/>
</g>
<!-- node59&#45;&gt;node25 -->
<g id="edge7" class="edge">
<title>node59&#45;&gt;node25</title>
<path fill="none" stroke="#3cb4a4" d="M814.53,-474.87C809.63,-454.09 800.62,-418.11 790.44,-388 779.1,-354.46 763.21,-316.91 752.41,-292.44"/>
<polygon fill="#3cb4a4" stroke="#3cb4a4" points="755.52,-290.83 748.26,-283.11 749.13,-293.67 755.52,-290.83"/>
<text text-anchor="middle" x="812.94" y="-391.8" font-family="arial" font-size="14.00" fill="#3cb4a4">object</text>
</g>
<!-- node59&#45;&gt;node30 -->
<g id="edge14" class="edge">
<title>node59&#45;&gt;node30</title>
<path fill="none" stroke="#3cb4a4" d="M833.11,-474.99C847.22,-456.82 866.44,-426.56 866.44,-396.5 866.44,-396.5 866.44,-396.5 866.44,-177 866.44,-152.67 849.44,-130.99 832.82,-115.62"/>
<polygon fill="#3cb4a4" stroke="#3cb4a4" points="835.11,-112.97 825.28,-109.01 830.49,-118.23 835.11,-112.97"/>
<text text-anchor="middle" x="884.94" y="-304.8" font-family="arial" font-size="14.00" fill="#3cb4a4">object</text>
</g>
<!-- node59&#45;&gt;node59 -->
<g id="edge34" class="edge">
<title>node59&#45;&gt;node59</title>
<path fill="none" stroke="#3cb4a4" d="M845.68,-503.12C855.47,-503.33 863.44,-499.96 863.44,-493 863.44,-488.76 860.48,-485.85 855.95,-484.27"/>
<polygon fill="#3cb4a4" stroke="#3cb4a4" points="856.06,-480.76 845.68,-482.88 855.12,-487.69 856.06,-480.76"/>
<text text-anchor="middle" x="886.94" y="-489.3" font-family="arial" font-size="14.00" fill="#3cb4a4">from 35</text>
</g>
<!-- node60&#45;&gt;node19 -->
<g id="edge2" class="edge">
<title>node60&#45;&gt;node19</title>
<path fill="none" stroke="#3cb4a4" d="M453.48,-535.84C506.17,-516.03 622.28,-472.39 677.76,-451.53"/>
<polygon fill="#3cb4a4" stroke="#3cb4a4" points="679.25,-454.71 687.38,-447.92 676.79,-448.16 679.25,-454.71"/>
<text text-anchor="middle" x="612.94" y="-489.3" font-family="arial" font-size="14.00" fill="#3cb4a4">x</text>
</g>
<!-- node60&#45;&gt;node26 -->
<g id="edge9" class="edge">
<title>node60&#45;&gt;node26</title>
<path fill="none" stroke="#3cb4a4" d="M431.91,-528.97C437.37,-511.93 445.85,-485.48 452.15,-465.85"/>
<polygon fill="#3cb4a4" stroke="#3cb4a4" points="455.5,-466.88 455.22,-456.29 448.83,-464.75 455.5,-466.88"/>
<text text-anchor="middle" x="465.94" y="-489.3" font-family="arial" font-size="14.00" fill="#3cb4a4">value</text>
</g>
<!-- node60&#45;&gt;node34 -->
<g id="edge17" class="edge">
<title>node60&#45;&gt;node34</title>
<path fill="none" stroke="#3cb4a4" d="M419.3,-529C411.89,-513.15 398.93,-489.8 381.44,-475 373.19,-468.01 349.61,-458.35 329.68,-450.95"/>
<polygon fill="#3cb4a4" stroke="#3cb4a4" points="330.87,-447.66 320.28,-447.52 328.48,-454.24 330.87,-447.66"/>
<text text-anchor="middle" x="413.94" y="-489.3" font-family="arial" font-size="14.00" fill="#3cb4a4">x</text>
</g>
<!-- node61 -->
<g id="node24" class="node">
<title>node61</title>
<polygon fill="#f9f9f9" stroke="black" points="719.44,-1160 625.44,-1160 625.44,-1124 719.44,-1124 719.44,-1160"/>
<text text-anchor="middle" x="672.44" y="-1138.3" font-family="Arial" font-size="14.00" fill="#1a1919">61 OSRStart</text>
</g>
<!-- node64 -->
<g id="node27" class="node">
<title>node64</title>
<polygon fill="#ffa500" stroke="black" points="711.44,-1073 423.44,-1073 423.44,-1037 711.44,-1037 711.44,-1073"/>
<text text-anchor="middle" x="567.44" y="-1051.3" font-family="Arial" font-size="14.00" fill="#1a1919">64 Guard, else OptimizedTypeCheckViolated</text>
</g>
<!-- node61&#45;&gt;node64 -->
<g id="edge38" class="edge">
<title>node61&#45;&gt;node64</title>
<path fill="none" stroke="#da2d4f" stroke-width="2" d="M651.19,-1123.8C635.54,-1111.13 614.05,-1093.73 596.77,-1079.74"/>
<polygon fill="#da2d4f" stroke="#da2d4f" stroke-width="2" points="598.63,-1076.75 588.66,-1073.18 594.23,-1082.19 598.63,-1076.75"/>
</g>
<!-- node62 -->
<g id="node25" class="node">
<title>node62</title>
<polygon fill="#f9f9f9" stroke="black" points="879.44,-1247 765.44,-1247 765.44,-1211 879.44,-1211 879.44,-1247"/>
<text text-anchor="middle" x="822.44" y="-1225.3" font-family="Arial" font-size="14.00" fill="#1a1919">62 OSRLocal(1)</text>
</g>
<!-- node62&#45;&gt;node46 -->
<g id="edge42" class="edge">
<title>node62&#45;&gt;node46</title>
<path fill="none" stroke="#3cb4a4" d="M793.66,-1210.93C772.51,-1195.99 747.44,-1172.13 747.44,-1143 747.44,-1143 747.44,-1143 747.44,-967 747.44,-944.78 734.85,-923.01 722.56,-907.08"/>
<polygon fill="#3cb4a4" stroke="#3cb4a4" points="725.26,-904.85 716.23,-899.3 719.83,-909.26 725.26,-904.85"/>
<text text-anchor="middle" x="765.94" y="-1051.3" font-family="arial" font-size="14.00" fill="#3cb4a4">object</text>
</g>
<!-- node62&#45;&gt;node50 -->
<g id="edge43" class="edge">
<title>node62&#45;&gt;node50</title>
<path fill="none" stroke="#3cb4a4" d="M852.04,-1210.72C873.38,-1195.81 898.44,-1172.1 898.44,-1143 898.44,-1143 898.44,-1143 898.44,-793 898.44,-762.85 873.05,-742.52 845.43,-729.32"/>
<polygon fill="#3cb4a4" stroke="#3cb4a4" points="846.57,-726 836.01,-725.12 843.72,-732.39 846.57,-726"/>
<text text-anchor="middle" x="916.94" y="-964.3" font-family="arial" font-size="14.00" fill="#3cb4a4">object</text>
</g>
<!-- node62&#45;&gt;node59 -->
<g id="edge44" class="edge">
<title>node62&#45;&gt;node59</title>
<path fill="none" stroke="#3cb4a4" d="M879.79,-1217.06C918.83,-1205.91 963.44,-1184.16 963.44,-1143 963.44,-1143 963.44,-1143 963.44,-589.5 963.44,-537.87 898.54,-512.58 855.58,-501.49"/>
<polygon fill="#3cb4a4" stroke="#3cb4a4" points="856.26,-498.06 845.72,-499.09 854.61,-504.86 856.26,-498.06"/>
<text text-anchor="middle" x="983.44" y="-877.3" font-family="arial" font-size="14.00" fill="#3cb4a4">from 6</text>
</g>
<!-- node63 -->
<g id="node26" class="node">
<title>node63</title>
<polygon fill="#f9f9f9" stroke="black" points="606.94,-1160 307.94,-1160 307.94,-1124 606.94,-1124 606.94,-1160"/>
<text text-anchor="middle" x="457.44" y="-1138.3" font-family="Arial" font-size="14.00" fill="#1a1919">63 InstanceOf org/gammaraylab/ComplexNum</text>
</g>
<!-- node62&#45;&gt;node63 -->
<g id="edge39" class="edge">
<title>node62&#45;&gt;node63</title>
<path fill="none" stroke="#3cb4a4" d="M765.41,-1214.72C705.12,-1200.68 609.41,-1178.39 540.69,-1162.39"/>
<polygon fill="#3cb4a4" stroke="#3cb4a4" points="541.29,-1158.93 530.76,-1160.07 539.7,-1165.75 541.29,-1158.93"/>
<text text-anchor="middle" x="678.94" y="-1181.8" font-family="arial" font-size="14.00" fill="#3cb4a4">value</text>
</g>
<!-- node63&#45;&gt;node64 -->
<g id="edge40" class="edge">
<title>node63&#45;&gt;node64</title>
<path fill="none" stroke="#3cb4a4" d="M479.7,-1123.8C496.25,-1111.01 519.02,-1093.42 537.22,-1079.36"/>
<polygon fill="#3cb4a4" stroke="#3cb4a4" points="539.44,-1082.06 545.22,-1073.18 535.16,-1076.52 539.44,-1082.06"/>
<text text-anchor="middle" x="523.44" y="-1094.8" font-family="arial" font-size="14.00" fill="#3cb4a4">?</text>
</g>
<!-- node64&#45;&gt;node45 -->
<g id="edge41" class="edge">
<title>node64&#45;&gt;node45</title>
<path fill="none" stroke="#da2d4f" stroke-width="2" d="M515.54,-1036.9C465.34,-1020.36 390.52,-995.71 346.19,-981.11"/>
<polygon fill="#da2d4f" stroke="#da2d4f" stroke-width="2" points="347.27,-977.78 336.68,-977.97 345.08,-984.43 347.27,-977.78"/>
</g>
<!-- node66 -->
<g id="node28" class="node">
<title>node66</title>
<polygon fill="#f9f9f9" stroke="black" points="196.44,-1160 82.44,-1160 82.44,-1124 196.44,-1124 196.44,-1160"/>
<text text-anchor="middle" x="139.44" y="-1138.3" font-family="Arial" font-size="14.00" fill="#1a1919">66 OSRLocal(2)</text>
</g>
<!-- node66&#45;&gt;node42 -->
<g id="edge20" class="edge">
<title>node66&#45;&gt;node42</title>
<path fill="none" stroke="#3cb4a4" d="M139.44,-1123.8C139.44,-1112.16 139.44,-1096.55 139.44,-1083.24"/>
<polygon fill="#3cb4a4" stroke="#3cb4a4" points="142.94,-1083.18 139.44,-1073.18 135.94,-1083.18 142.94,-1083.18"/>
<text text-anchor="middle" x="142.94" y="-1094.8" font-family="arial" font-size="14.00" fill="#3cb4a4">x</text>
</g>
<!-- node66&#45;&gt;node47 -->
<g id="edge24" class="edge">
<title>node66&#45;&gt;node47</title>
<path fill="none" stroke="#3cb4a4" d="M148.59,-1123.84C155.23,-1112.94 165.19,-1099.35 177.44,-1091 195,-1079.04 216.59,-1071.14 236.81,-1065.93"/>
<polygon fill="#3cb4a4" stroke="#3cb4a4" points="237.7,-1069.32 246.6,-1063.58 236.06,-1062.51 237.7,-1069.32"/>
<text text-anchor="middle" x="193.94" y="-1094.8" font-family="arial" font-size="14.00" fill="#3cb4a4">value</text>
</g>
<!-- node66&#45;&gt;node52 -->
<g id="edge30" class="edge">
<title>node66&#45;&gt;node52</title>
<path fill="none" stroke="#3cb4a4" d="M119.41,-1123.8C102.51,-1109.29 78.41,-1088.6 61.29,-1073.9"/>
<polygon fill="#3cb4a4" stroke="#3cb4a4" points="63.37,-1071.07 53.51,-1067.22 58.81,-1076.39 63.37,-1071.07"/>
<text text-anchor="middle" x="99.94" y="-1094.8" font-family="arial" font-size="14.00" fill="#3cb4a4">x</text>
</g>
<!-- inline18x19 -->
<g id="node29" class="node">
<title>inline18x19</title>
<ellipse fill="#d7ede7" stroke="black" cx="708.44" cy="-547" rx="27.59" ry="18"/>
<text text-anchor="middle" x="708.44" y="-545.1" font-family="Arial" font-size="8.00" fill="#1a1919">18 C(12)</text>
</g>
<!-- inline18x19&#45;&gt;node19 -->
<g id="edge3" class="edge">
<title>inline18x19&#45;&gt;node19</title>
<path fill="none" stroke="#3cb4a4" d="M708.44,-528.97C708.44,-509.31 708.44,-477.13 708.44,-457.34"/>
<text text-anchor="middle" x="710.44" y="-491.1" font-family="arial" font-size="8.00" fill="#3cb4a4">y</text>
</g>
<!-- inline27x28 -->
<g id="node30" class="node">
<title>inline27x28</title>
<ellipse fill="#d7ede7" stroke="black" cx="616.44" cy="-439" rx="34.07" ry="18"/>
<text text-anchor="middle" x="616.44" y="-437.1" font-family="Arial" font-size="8.00" fill="#1a1919">27 C(153.0)</text>
</g>
<!-- inline27x28&#45;&gt;node28 -->
<g id="edge11" class="edge">
<title>inline27x28&#45;&gt;node28</title>
<path fill="none" stroke="#3cb4a4" d="M616.44,-420.8C616.44,-406.05 616.44,-384.92 616.44,-370.18"/>
<text text-anchor="middle" x="618.44" y="-393.6" font-family="arial" font-size="8.00" fill="#3cb4a4">y</text>
</g>
<!-- inline33x34 -->
<g id="node31" class="node">
<title>inline33x34</title>
<ellipse fill="#d7ede7" stroke="black" cx="298.44" cy="-547" rx="27" ry="18"/>
<text text-anchor="middle" x="298.44" y="-545.1" font-family="Arial" font-size="8.00" fill="#1a1919">33 C(&#45;1)</text>
</g>
<!-- inline33x34&#45;&gt;node34 -->
<g id="edge18" class="edge">
<title>inline33x34&#45;&gt;node34</title>
<path fill="none" stroke="#3cb4a4" d="M298.44,-528.97C298.44,-509.31 298.44,-477.13 298.44,-457.34"/>
<text text-anchor="middle" x="300.44" y="-491.1" font-family="arial" font-size="8.00" fill="#3cb4a4">y</text>
</g>
<!-- inline18x42 -->
<g id="node32" class="node">
<title>inline18x42</title>
<ellipse fill="#d7ede7" stroke="black" cx="242.44" cy="-1142" rx="27.59" ry="18"/>
<text text-anchor="middle" x="242.44" y="-1140.1" font-family="Arial" font-size="8.00" fill="#1a1919">18 C(12)</text>
</g>
<!-- inline18x42&#45;&gt;node42 -->
<g id="edge21" class="edge">
<title>inline18x42&#45;&gt;node42</title>
<path fill="none" stroke="#3cb4a4" d="M236.29,-1124.41C231.64,-1113.74 224.36,-1100.21 214.44,-1091 199.81,-1077.41 178.95,-1068.26 162.95,-1062.73"/>
<text text-anchor="middle" x="228.44" y="-1096.6" font-family="arial" font-size="8.00" fill="#3cb4a4">y</text>
</g>
<!-- inline27x48 -->
<g id="node33" class="node">
<title>inline27x48</title>
<ellipse fill="#d7ede7" stroke="black" cx="836.44" cy="-1055" rx="34.07" ry="18"/>
<text text-anchor="middle" x="836.44" y="-1053.1" font-family="Arial" font-size="8.00" fill="#1a1919">27 C(153.0)</text>
</g>
<!-- inline27x48&#45;&gt;node48 -->
<g id="edge26" class="edge">
<title>inline27x48&#45;&gt;node48</title>
<path fill="none" stroke="#3cb4a4" d="M834.42,-1036.8C832.65,-1021.76 830.1,-1000.08 828.36,-985.31"/>
<text text-anchor="middle" x="833.44" y="-1009.6" font-family="arial" font-size="8.00" fill="#3cb4a4">y</text>
</g>
<!-- inline33x52 -->
<g id="node34" class="node">
<title>inline33x52</title>
<ellipse fill="#d7ede7" stroke="black" cx="37.44" cy="-1142" rx="27" ry="18"/>
<text text-anchor="middle" x="37.44" y="-1140.1" font-family="Arial" font-size="8.00" fill="#1a1919">33 C(&#45;1)</text>
</g>
<!-- inline33x52&#45;&gt;node52 -->
<g id="edge31" class="edge">
<title>inline33x52&#45;&gt;node52</title>
<path fill="none" stroke="#3cb4a4" d="M38.05,-1123.8C38.57,-1108.95 39.33,-1087.64 39.85,-1072.89"/>
<text text-anchor="middle" x="41.44" y="-1096.6" font-family="arial" font-size="8.00" fill="#3cb4a4">y</text>
</g>
</g>
</svg>
