<?xml version="1.0" encoding="UTF-8" standalone="no"?>
<!DOCTYPE svg PUBLIC "-//W3C//DTD SVG 1.1//EN"
 "http://www.w3.org/Graphics/SVG/1.1/DTD/svg11.dtd">
<!-- Generated by graphviz version 2.43.0 (0)
 -->
<!-- Title: G Pages: 1 -->
<svg width="962pt" height="1133pt"
 viewBox="0.00 0.00 962.44 1133.00" xmlns="http://www.w3.org/2000/svg" xmlns:xlink="http://www.w3.org/1999/xlink">
<g id="graph0" class="graph" transform="scale(1 1) rotate(0) translate(4 1129)">
<title>G</title>
<polygon fill="white" stroke="transparent" points="-4,4 -4,-1129 958.44,-1129 958.44,4 -4,4"/>
<!-- node7 -->
<g id="node1" class="node">
<title>node7</title>
<polygon fill="#e98693" stroke="black" points="270,-530 178,-530 178,-494 270,-494 270,-530"/>
<text text-anchor="middle" x="224" y="-508.3" font-family="Arial" font-size="14.00" fill="#1a1919">7 LoopBegin</text>
</g>
<!-- node22 -->
<g id="node3" class="node">
<title>node22</title>
<polygon fill="#e98693" stroke="black" points="230,-196 142,-196 142,-160 230,-160 230,-196"/>
<text text-anchor="middle" x="186" y="-174.3" font-family="Arial" font-size="14.00" fill="#1a1919">22 LoopExit</text>
</g>
<!-- node7&#45;&gt;node22 -->
<g id="edge4" class="edge">
<title>node7&#45;&gt;node22</title>
<path fill="none" stroke="#343d46" stroke-dasharray="5,2" d="M202.74,-485.67C194.05,-472.82 186,-456.47 186,-440 186,-440 186,-440 186,-264 186,-240.54 186,-213.43 186,-196.26"/>
<polygon fill="#343d46" stroke="#343d46" points="200.05,-487.93 208.76,-493.96 205.72,-483.82 200.05,-487.93"/>
</g>
<!-- node24 -->
<g id="node4" class="node">
<title>node24</title>
<polygon fill="#e98693" stroke="black" points="281,-283 227,-283 227,-247 281,-247 281,-283"/>
<text text-anchor="middle" x="254" y="-261.3" font-family="Arial" font-size="14.00" fill="#1a1919">24 If</text>
</g>
<!-- node7&#45;&gt;node24 -->
<g id="edge1" class="edge">
<title>node7&#45;&gt;node24</title>
<path fill="none" stroke="#da2d4f" stroke-width="2" d="M226.11,-493.77C231.24,-451.86 244.41,-344.31 250.64,-293.44"/>
<polygon fill="#da2d4f" stroke="#da2d4f" stroke-width="2" points="254.15,-293.56 251.89,-283.21 247.2,-292.71 254.15,-293.56"/>
</g>
<!-- node35 -->
<g id="node10" class="node">
<title>node35</title>
<polygon fill="#e98693" stroke="black" points="170.5,-36 81.5,-36 81.5,0 170.5,0 170.5,-36"/>
<text text-anchor="middle" x="126" y="-14.3" font-family="Arial" font-size="14.00" fill="#1a1919">35 LoopEnd</text>
</g>
<!-- node7&#45;&gt;node35 -->
<g id="edge17" class="edge">
<title>node7&#45;&gt;node35</title>
<path fill="none" stroke="#da2d4f" stroke-width="4" d="M168.37,-497.08C141.08,-486.57 114,-468.87 114,-440 114,-440 114,-440 114,-90 114,-71.37 118.07,-50.38 121.46,-36.08"/>
<polygon fill="#da2d4f" stroke="#da2d4f" stroke-width="4" points="167.39,-500.45 177.99,-500.5 169.74,-493.85 167.39,-500.45"/>
</g>
<!-- node60 -->
<g id="node19" class="node">
<title>node60</title>
<polygon fill="#f9f9f9" stroke="black" points="550,-457 496,-457 496,-421 550,-421 550,-457"/>
<text text-anchor="middle" x="523" y="-435.3" font-family="Arial" font-size="14.00" fill="#1a1919">60 ϕ</text>
</g>
<!-- node7&#45;&gt;node60 -->
<g id="edge30" class="edge">
<title>node7&#45;&gt;node60</title>
<path fill="none" stroke="#343d46" stroke-dasharray="5,2" d="M280.03,-497.7C344.27,-482.44 446.98,-458.05 495.67,-446.49"/>
<polygon fill="#343d46" stroke="#343d46" points="278.98,-494.35 270.06,-500.06 280.6,-501.16 278.98,-494.35"/>
</g>
<!-- node69 -->
<g id="node27" class="node">
<title>node69</title>
<polygon fill="#f9f9f9" stroke="black" points="758,-109 704,-109 704,-73 758,-73 758,-109"/>
<text text-anchor="middle" x="731" y="-87.3" font-family="Arial" font-size="14.00" fill="#1a1919">69 ϕ</text>
</g>
<!-- node7&#45;&gt;node69 -->
<g id="edge37" class="edge">
<title>node7&#45;&gt;node69</title>
<path fill="none" stroke="#343d46" stroke-dasharray="5,2" d="M238.2,-484.81C239.57,-481.87 240.87,-478.9 242,-476 265.76,-415.02 240.22,-385.19 281,-334 397.07,-188.3 625.52,-118.8 703.88,-98.52"/>
<polygon fill="#343d46" stroke="#343d46" points="235.01,-483.37 233.7,-493.88 241.28,-486.48 235.01,-483.37"/>
</g>
<!-- node19 -->
<g id="node2" class="node">
<title>node19</title>
<polygon fill="#3cb4a4" stroke="black" points="330,-370 289.61,-352 330,-334 370.39,-352 330,-370"/>
<text text-anchor="middle" x="330" y="-348.3" font-family="Arial" font-size="14.00" fill="#1a1919">19 &lt;</text>
</g>
<!-- node19&#45;&gt;node24 -->
<g id="edge6" class="edge">
<title>node19&#45;&gt;node24</title>
<path fill="none" stroke="#3cb4a4" d="M319.11,-338.82C308,-326.39 290.42,-306.74 276.34,-290.98"/>
<polygon fill="#3cb4a4" stroke="#3cb4a4" points="278.61,-288.28 269.34,-283.15 273.39,-292.94 278.61,-288.28"/>
<text text-anchor="middle" x="300" y="-304.8" font-family="arial" font-size="14.00" fill="#3cb4a4">?</text>
</g>
<!-- node67 -->
<g id="node25" class="node">
<title>node67</title>
<polygon fill="#e98693" stroke="black" points="218,-109 142,-109 142,-73 218,-73 218,-109"/>
<text text-anchor="middle" x="180" y="-87.3" font-family="Arial" font-size="14.00" fill="#1a1919">67 Return</text>
</g>
<!-- node22&#45;&gt;node67 -->
<g id="edge5" class="edge">
<title>node22&#45;&gt;node67</title>
<path fill="none" stroke="#da2d4f" stroke-width="2" d="M184.79,-159.8C183.96,-148.16 182.86,-132.55 181.92,-119.24"/>
<polygon fill="#da2d4f" stroke="#da2d4f" stroke-width="2" points="185.41,-118.9 181.21,-109.18 178.43,-119.4 185.41,-118.9"/>
</g>
<!-- node24&#45;&gt;node22 -->
<g id="edge7" class="edge">
<title>node24&#45;&gt;node22</title>
<path fill="none" stroke="#da2d4f" stroke-width="2" d="M240.24,-246.8C230.47,-234.59 217.19,-217.99 206.22,-204.28"/>
<polygon fill="#da2d4f" stroke="#da2d4f" stroke-width="2" points="208.72,-201.8 199.74,-196.18 203.25,-206.17 208.72,-201.8"/>
<text text-anchor="middle" x="228.5" y="-217.8" font-family="arial" font-size="14.00" fill="#da2d4f">T</text>
</g>
<!-- node30 -->
<g id="node8" class="node">
<title>node30</title>
<polygon fill="#c39bd3" stroke="black" points="428,-109 236,-109 236,-73 428,-73 428,-109"/>
<text text-anchor="middle" x="332" y="-87.3" font-family="Arial" font-size="14.00" fill="#1a1919">30 StoreField ComplexNum.r</text>
</g>
<!-- node24&#45;&gt;node30 -->
<g id="edge44" class="edge">
<title>node24&#45;&gt;node30</title>
<path fill="none" stroke="#da2d4f" stroke-width="2" d="M261.76,-246.88C275.43,-216.74 303.86,-154.04 320.05,-118.35"/>
<polygon fill="#da2d4f" stroke="#da2d4f" stroke-width="2" points="323.32,-119.6 324.27,-109.05 316.95,-116.71 323.32,-119.6"/>
<text text-anchor="middle" x="304.5" y="-174.3" font-family="arial" font-size="14.00" fill="#da2d4f">F</text>
</g>
<!-- node26 -->
<g id="node5" class="node">
<title>node26</title>
<polygon fill="#3cb4a4" stroke="black" points="492,-370 388.27,-352 492,-334 595.73,-352 492,-370"/>
<text text-anchor="middle" x="492" y="-348.3" font-family="Arial" font-size="14.00" fill="#1a1919">26 FloatConvert</text>
</g>
<!-- node28 -->
<g id="node6" class="node">
<title>node28</title>
<polygon fill="#3cb4a4" stroke="black" points="702,-283 666.31,-265 702,-247 737.69,-265 702,-283"/>
<text text-anchor="middle" x="702" y="-261.3" font-family="Arial" font-size="14.00" fill="#1a1919">28 /</text>
</g>
<!-- node26&#45;&gt;node28 -->
<g id="edge9" class="edge">
<title>node26&#45;&gt;node28</title>
<path fill="none" stroke="#3cb4a4" d="M521.64,-339C562.08,-322.63 634.04,-293.51 673.75,-277.44"/>
<polygon fill="#3cb4a4" stroke="#3cb4a4" points="675.15,-280.64 683.11,-273.65 672.52,-274.15 675.15,-280.64"/>
<text text-anchor="middle" x="612.5" y="-304.8" font-family="arial" font-size="14.00" fill="#3cb4a4">x</text>
</g>
<!-- node29 -->
<g id="node7" class="node">
<title>node29</title>
<polygon fill="#3cb4a4" stroke="black" points="702,-196 661.61,-178 702,-160 742.39,-178 702,-196"/>
<text text-anchor="middle" x="702" y="-174.3" font-family="Arial" font-size="14.00" fill="#1a1919">29 +</text>
</g>
<!-- node28&#45;&gt;node29 -->
<g id="edge11" class="edge">
<title>node28&#45;&gt;node29</title>
<path fill="none" stroke="#3cb4a4" d="M702,-246.8C702,-235.16 702,-219.55 702,-206.24"/>
<polygon fill="#3cb4a4" stroke="#3cb4a4" points="705.5,-206.18 702,-196.18 698.5,-206.18 705.5,-206.18"/>
<text text-anchor="middle" x="705.5" y="-217.8" font-family="arial" font-size="14.00" fill="#3cb4a4">x</text>
</g>
<!-- node29&#45;&gt;node30 -->
<g id="edge13" class="edge">
<title>node29&#45;&gt;node30</title>
<path fill="none" stroke="#3cb4a4" d="M676.57,-171.16C623.72,-159.02 499.98,-130.59 416.1,-111.32"/>
<polygon fill="#3cb4a4" stroke="#3cb4a4" points="416.86,-107.9 406.33,-109.08 415.3,-114.73 416.86,-107.9"/>
<text text-anchor="middle" x="555.5" y="-130.8" font-family="arial" font-size="14.00" fill="#3cb4a4">value</text>
</g>
<!-- node29&#45;&gt;node69 -->
<g id="edge39" class="edge">
<title>node29&#45;&gt;node69</title>
<path fill="none" stroke="#3cb4a4" d="M711.98,-164.06C716.36,-157.74 721.14,-149.82 724,-142 726.62,-134.84 728.26,-126.77 729.3,-119.24"/>
<polygon fill="#3cb4a4" stroke="#3cb4a4" points="732.8,-119.41 730.39,-109.1 725.84,-118.66 732.8,-119.41"/>
<text text-anchor="middle" x="750.5" y="-130.8" font-family="arial" font-size="14.00" fill="#3cb4a4">from 35</text>
</g>
<!-- node30&#45;&gt;node35 -->
<g id="edge14" class="edge">
<title>node30&#45;&gt;node35</title>
<path fill="none" stroke="#da2d4f" stroke-width="2" d="M282.66,-72.99C251.81,-62.36 212.05,-48.66 180.3,-37.72"/>
<polygon fill="#da2d4f" stroke="#da2d4f" stroke-width="2" points="181.32,-34.36 170.72,-34.41 179.04,-40.98 181.32,-34.36"/>
</g>
<!-- node34 -->
<g id="node9" class="node">
<title>node34</title>
<polygon fill="#3cb4a4" stroke="black" points="654,-370 613.61,-352 654,-334 694.39,-352 654,-370"/>
<text text-anchor="middle" x="654" y="-348.3" font-family="Arial" font-size="14.00" fill="#1a1919">34 +</text>
</g>
<!-- node34&#45;&gt;node60 -->
<g id="edge32" class="edge">
<title>node34&#45;&gt;node60</title>
<path fill="none" stroke="#3cb4a4" d="M632.56,-360.53C624,-363.51 614.04,-366.95 605,-370 580.63,-378.22 569.74,-371.51 550,-388 542.63,-394.16 536.96,-402.86 532.76,-411.29"/>
<polygon fill="#3cb4a4" stroke="#3cb4a4" points="529.52,-409.97 528.64,-420.53 535.91,-412.83 529.52,-409.97"/>
<text text-anchor="middle" x="573.5" y="-391.8" font-family="arial" font-size="14.00" fill="#3cb4a4">from 35</text>
</g>
<!-- node42 -->
<g id="node11" class="node">
<title>node42</title>
<polygon fill="#3cb4a4" stroke="black" points="466,-951 425.61,-933 466,-915 506.39,-933 466,-951"/>
<text text-anchor="middle" x="466" y="-929.3" font-family="Arial" font-size="14.00" fill="#1a1919">42 &lt;</text>
</g>
<!-- node45 -->
<g id="node12" class="node">
<title>node45</title>
<polygon fill="#e98693" stroke="black" points="368,-864 314,-864 314,-828 368,-828 368,-864"/>
<text text-anchor="middle" x="341" y="-842.3" font-family="Arial" font-size="14.00" fill="#1a1919">45 If</text>
</g>
<!-- node42&#45;&gt;node45 -->
<g id="edge20" class="edge">
<title>node42&#45;&gt;node45</title>
<path fill="none" stroke="#3cb4a4" d="M450.67,-921.58C431.89,-908.81 399.53,-886.8 374.82,-870"/>
<polygon fill="#3cb4a4" stroke="#3cb4a4" points="376.66,-867.02 366.43,-864.29 372.73,-872.81 376.66,-867.02"/>
<text text-anchor="middle" x="414" y="-885.8" font-family="arial" font-size="14.00" fill="#3cb4a4">?</text>
</g>
<!-- node46 -->
<g id="node13" class="node">
<title>node46</title>
<polygon fill="#c39bd3" stroke="black" points="319,-777 129,-777 129,-741 319,-741 319,-777"/>
<text text-anchor="middle" x="224" y="-755.3" font-family="Arial" font-size="14.00" fill="#1a1919">46 LoadField ComplexNum.r</text>
</g>
<!-- node45&#45;&gt;node46 -->
<g id="edge45" class="edge">
<title>node45&#45;&gt;node46</title>
<path fill="none" stroke="#da2d4f" stroke-width="2" d="M317.32,-827.8C299.64,-814.95 275.28,-797.26 255.89,-783.17"/>
<polygon fill="#da2d4f" stroke="#da2d4f" stroke-width="2" points="257.79,-780.22 247.64,-777.18 253.67,-785.88 257.79,-780.22"/>
<text text-anchor="middle" x="293.5" y="-798.8" font-family="arial" font-size="14.00" fill="#da2d4f">F</text>
</g>
<!-- node68 -->
<g id="node26" class="node">
<title>node68</title>
<polygon fill="#e98693" stroke="black" points="413,-777 337,-777 337,-741 413,-741 413,-777"/>
<text text-anchor="middle" x="375" y="-755.3" font-family="Arial" font-size="14.00" fill="#1a1919">68 Return</text>
</g>
<!-- node45&#45;&gt;node68 -->
<g id="edge46" class="edge">
<title>node45&#45;&gt;node68</title>
<path fill="none" stroke="#da2d4f" stroke-width="2" d="M347.88,-827.8C352.58,-816.05 358.9,-800.24 364.26,-786.84"/>
<polygon fill="#da2d4f" stroke="#da2d4f" stroke-width="2" points="367.67,-787.76 368.13,-777.18 361.17,-785.16 367.67,-787.76"/>
<text text-anchor="middle" x="364.5" y="-798.8" font-family="arial" font-size="14.00" fill="#da2d4f">T</text>
</g>
<!-- node49 -->
<g id="node16" class="node">
<title>node49</title>
<polygon fill="#3cb4a4" stroke="black" points="491,-690 450.61,-672 491,-654 531.39,-672 491,-690"/>
<text text-anchor="middle" x="491" y="-668.3" font-family="Arial" font-size="14.00" fill="#1a1919">49 +</text>
</g>
<!-- node46&#45;&gt;node49 -->
<g id="edge25" class="edge">
<title>node46&#45;&gt;node49</title>
<path fill="none" stroke="#3cb4a4" d="M277.71,-740.9C331.96,-723.63 413.98,-697.52 458.86,-683.23"/>
<polygon fill="#3cb4a4" stroke="#3cb4a4" points="460.17,-686.49 468.64,-680.12 458.05,-679.82 460.17,-686.49"/>
<text text-anchor="middle" x="376.5" y="-711.8" font-family="arial" font-size="14.00" fill="#3cb4a4">x</text>
</g>
<!-- node50 -->
<g id="node17" class="node">
<title>node50</title>
<polygon fill="#c39bd3" stroke="black" points="320,-603 128,-603 128,-567 320,-567 320,-603"/>
<text text-anchor="middle" x="224" y="-581.3" font-family="Arial" font-size="14.00" fill="#1a1919">50 StoreField ComplexNum.r</text>
</g>
<!-- node46&#45;&gt;node50 -->
<g id="edge21" class="edge">
<title>node46&#45;&gt;node50</title>
<path fill="none" stroke="#da2d4f" stroke-width="2" d="M224,-740.88C224,-711 224,-649.11 224,-613.27"/>
<polygon fill="#da2d4f" stroke="#da2d4f" stroke-width="2" points="227.5,-613.05 224,-603.05 220.5,-613.05 227.5,-613.05"/>
</g>
<!-- node47 -->
<g id="node14" class="node">
<title>node47</title>
<polygon fill="#3cb4a4" stroke="black" points="628,-951 524.27,-933 628,-915 731.73,-933 628,-951"/>
<text text-anchor="middle" x="628" y="-929.3" font-family="Arial" font-size="14.00" fill="#1a1919">47 FloatConvert</text>
</g>
<!-- node48 -->
<g id="node15" class="node">
<title>node48</title>
<polygon fill="#3cb4a4" stroke="black" points="628,-864 592.31,-846 628,-828 663.69,-846 628,-864"/>
<text text-anchor="middle" x="628" y="-842.3" font-family="Arial" font-size="14.00" fill="#1a1919">48 /</text>
</g>
<!-- node47&#45;&gt;node48 -->
<g id="edge23" class="edge">
<title>node47&#45;&gt;node48</title>
<path fill="none" stroke="#3cb4a4" d="M628,-914.8C628,-903.16 628,-887.55 628,-874.24"/>
<polygon fill="#3cb4a4" stroke="#3cb4a4" points="631.5,-874.18 628,-864.18 624.5,-874.18 631.5,-874.18"/>
<text text-anchor="middle" x="631.5" y="-885.8" font-family="arial" font-size="14.00" fill="#3cb4a4">x</text>
</g>
<!-- node48&#45;&gt;node49 -->
<g id="edge26" class="edge">
<title>node48&#45;&gt;node49</title>
<path fill="none" stroke="#3cb4a4" d="M618.15,-832.63C594.86,-803.39 536.22,-729.77 507.44,-693.65"/>
<polygon fill="#3cb4a4" stroke="#3cb4a4" points="510.1,-691.36 501.13,-685.72 504.63,-695.72 510.1,-691.36"/>
<text text-anchor="middle" x="576.5" y="-755.3" font-family="arial" font-size="14.00" fill="#3cb4a4">y</text>
</g>
<!-- node49&#45;&gt;node50 -->
<g id="edge27" class="edge">
<title>node49&#45;&gt;node50</title>
<path fill="none" stroke="#3cb4a4" d="M468.69,-663.9C429.24,-651.34 345.81,-624.78 287.38,-606.18"/>
<polygon fill="#3cb4a4" stroke="#3cb4a4" points="288.1,-602.73 277.51,-603.03 285.98,-609.4 288.1,-602.73"/>
<text text-anchor="middle" x="389.5" y="-624.8" font-family="arial" font-size="14.00" fill="#3cb4a4">value</text>
</g>
<!-- node49&#45;&gt;node69 -->
<g id="edge38" class="edge">
<title>node49&#45;&gt;node69</title>
<path fill="none" stroke="#3cb4a4" d="M523.96,-668.67C601.9,-662.25 791,-641.01 791,-586 791,-586 791,-586 791,-438 791,-415.77 789.55,-410.09 792,-388 795.93,-352.61 808,-345.11 808,-309.5 808,-309.5 808,-309.5 808,-177 808,-150.22 786.75,-128.12 766.58,-113.18"/>
<polygon fill="#3cb4a4" stroke="#3cb4a4" points="768.56,-110.29 758.36,-107.41 764.54,-116.02 768.56,-110.29"/>
<text text-anchor="middle" x="812" y="-391.8" font-family="arial" font-size="14.00" fill="#3cb4a4">from 6</text>
</g>
<!-- node50&#45;&gt;node7 -->
<g id="edge43" class="edge">
<title>node50&#45;&gt;node7</title>
<path fill="none" stroke="#da2d4f" stroke-width="2" d="M224,-566.81C224,-558.79 224,-549.05 224,-540.07"/>
<polygon fill="#da2d4f" stroke="#da2d4f" stroke-width="2" points="227.5,-540.03 224,-530.03 220.5,-540.03 227.5,-540.03"/>
</g>
<!-- node52 -->
<g id="node18" class="node">
<title>node52</title>
<polygon fill="#3cb4a4" stroke="black" points="914,-951 873.61,-933 914,-915 954.39,-933 914,-951"/>
<text text-anchor="middle" x="914" y="-929.3" font-family="Arial" font-size="14.00" fill="#1a1919">52 +</text>
</g>
<!-- node52&#45;&gt;node60 -->
<g id="edge31" class="edge">
<title>node52&#45;&gt;node60</title>
<path fill="none" stroke="#3cb4a4" d="M913.07,-915.39C912.19,-898.26 911,-870.77 911,-847 911,-847 911,-847 911,-627.5 911,-598.57 907.88,-587.02 887,-567 838.59,-520.58 642.86,-469 560.17,-448.79"/>
<polygon fill="#3cb4a4" stroke="#3cb4a4" points="560.74,-445.33 550.2,-446.38 559.09,-452.13 560.74,-445.33"/>
<text text-anchor="middle" x="931" y="-668.3" font-family="arial" font-size="14.00" fill="#3cb4a4">from 6</text>
</g>
<!-- node60&#45;&gt;node19 -->
<g id="edge2" class="edge">
<title>node60&#45;&gt;node19</title>
<path fill="none" stroke="#3cb4a4" d="M495.76,-426C459.42,-410 395.38,-381.79 358.44,-365.53"/>
<polygon fill="#3cb4a4" stroke="#3cb4a4" points="359.79,-362.29 349.23,-361.47 356.97,-368.7 359.79,-362.29"/>
<text text-anchor="middle" x="441.5" y="-391.8" font-family="arial" font-size="14.00" fill="#3cb4a4">x</text>
</g>
<!-- node60&#45;&gt;node26 -->
<g id="edge8" class="edge">
<title>node60&#45;&gt;node26</title>
<path fill="none" stroke="#3cb4a4" d="M507.48,-420.95C503.4,-415.57 499.46,-409.35 497,-403 494.26,-395.92 492.81,-387.88 492.08,-380.35"/>
<polygon fill="#3cb4a4" stroke="#3cb4a4" points="495.56,-379.97 491.48,-370.19 488.57,-380.38 495.56,-379.97"/>
<text text-anchor="middle" x="513.5" y="-391.8" font-family="arial" font-size="14.00" fill="#3cb4a4">value</text>
</g>
<!-- node60&#45;&gt;node34 -->
<g id="edge15" class="edge">
<title>node60&#45;&gt;node34</title>
<path fill="none" stroke="#3cb4a4" d="M550.15,-428.42C565.7,-422.3 585.2,-413.55 601,-403 613.78,-394.46 626.37,-382.76 636.07,-372.83"/>
<polygon fill="#3cb4a4" stroke="#3cb4a4" points="638.84,-375 643.18,-365.33 633.76,-370.18 638.84,-375"/>
<text text-anchor="middle" x="622.5" y="-391.8" font-family="arial" font-size="14.00" fill="#3cb4a4">x</text>
</g>
<!-- node61 -->
<g id="node20" class="node">
<title>node61</title>
<polygon fill="#f9f9f9" stroke="black" points="505,-1038 411,-1038 411,-1002 505,-1002 505,-1038"/>
<text text-anchor="middle" x="458" y="-1016.3" font-family="Arial" font-size="14.00" fill="#1a1919">61 OSRStart</text>
</g>
<!-- node64 -->
<g id="node23" class="node">
<title>node64</title>
<polygon fill="#ffa500" stroke="black" points="408,-951 120,-951 120,-915 408,-915 408,-951"/>
<text text-anchor="middle" x="264" y="-929.3" font-family="Arial" font-size="14.00" fill="#1a1919">64 Guard, else OptimizedTypeCheckViolated</text>
</g>
<!-- node61&#45;&gt;node64 -->
<g id="edge33" class="edge">
<title>node61&#45;&gt;node64</title>
<path fill="none" stroke="#da2d4f" stroke-width="2" d="M418.74,-1001.8C388.01,-988.33 345.11,-969.54 312.28,-955.15"/>
<polygon fill="#da2d4f" stroke="#da2d4f" stroke-width="2" points="313.43,-951.84 302.87,-951.03 310.62,-958.25 313.43,-951.84"/>
</g>
<!-- node62 -->
<g id="node21" class="node">
<title>node62</title>
<polygon fill="#f9f9f9" stroke="black" points="211,-1125 97,-1125 97,-1089 211,-1089 211,-1125"/>
<text text-anchor="middle" x="154" y="-1103.3" font-family="Arial" font-size="14.00" fill="#1a1919">62 OSRLocal(1)</text>
</g>
<!-- node62&#45;&gt;node30 -->
<g id="edge40" class="edge">
<title>node62&#45;&gt;node30</title>
<path fill="none" stroke="#3cb4a4" d="M211.22,-1104.95C377.01,-1101.15 846,-1084.77 846,-1021 846,-1021 846,-1021 846,-307.5 846,-229.52 815.69,-203.54 751,-160 725.38,-142.76 553.69,-118.94 438.19,-104.55"/>
<polygon fill="#3cb4a4" stroke="#3cb4a4" points="438.59,-101.08 428.24,-103.32 437.73,-108.02 438.59,-101.08"/>
<text text-anchor="middle" x="864.5" y="-581.3" font-family="arial" font-size="14.00" fill="#3cb4a4">object</text>
</g>
<!-- node62&#45;&gt;node46 -->
<g id="edge41" class="edge">
<title>node62&#45;&gt;node46</title>
<path fill="none" stroke="#3cb4a4" d="M117.54,-1088.95C92.96,-1074.66 65,-1051.66 65,-1021 65,-1021 65,-1021 65,-845 65,-813.23 89.99,-793.29 120.16,-780.79"/>
<polygon fill="#3cb4a4" stroke="#3cb4a4" points="121.59,-784 129.67,-777.15 119.08,-777.46 121.59,-784"/>
<text text-anchor="middle" x="83.5" y="-929.3" font-family="arial" font-size="14.00" fill="#3cb4a4">object</text>
</g>
<!-- node62&#45;&gt;node50 -->
<g id="edge42" class="edge">
<title>node62&#45;&gt;node50</title>
<path fill="none" stroke="#3cb4a4" d="M96.66,-1097.91C52.87,-1088.12 0,-1066.81 0,-1021 0,-1021 0,-1021 0,-671 0,-642.43 64.48,-620.05 124.25,-605.44"/>
<polygon fill="#3cb4a4" stroke="#3cb4a4" points="125.27,-608.8 134.18,-603.07 123.64,-601.99 125.27,-608.8"/>
<text text-anchor="middle" x="18.5" y="-842.3" font-family="arial" font-size="14.00" fill="#3cb4a4">object</text>
</g>
<!-- node63 -->
<g id="node22" class="node">
<title>node63</title>
<polygon fill="#f9f9f9" stroke="black" points="392.5,-1038 93.5,-1038 93.5,-1002 392.5,-1002 392.5,-1038"/>
<text text-anchor="middle" x="243" y="-1016.3" font-family="Arial" font-size="14.00" fill="#1a1919">63 InstanceOf org/gammaraylab/ComplexNum</text>
</g>
<!-- node62&#45;&gt;node63 -->
<g id="edge34" class="edge">
<title>node62&#45;&gt;node63</title>
<path fill="none" stroke="#3cb4a4" d="M172.01,-1088.8C185.16,-1076.24 203.16,-1059.05 217.74,-1045.12"/>
<polygon fill="#3cb4a4" stroke="#3cb4a4" points="220.2,-1047.61 225.02,-1038.18 215.37,-1042.55 220.2,-1047.61"/>
<text text-anchor="middle" x="220.5" y="-1059.8" font-family="arial" font-size="14.00" fill="#3cb4a4">value</text>
</g>
<!-- node63&#45;&gt;node64 -->
<g id="edge35" class="edge">
<title>node63&#45;&gt;node64</title>
<path fill="none" stroke="#3cb4a4" d="M247.25,-1001.8C250.12,-990.16 253.98,-974.55 257.27,-961.24"/>
<polygon fill="#3cb4a4" stroke="#3cb4a4" points="260.76,-961.72 259.76,-951.18 253.96,-960.04 260.76,-961.72"/>
<text text-anchor="middle" x="258" y="-972.8" font-family="arial" font-size="14.00" fill="#3cb4a4">?</text>
</g>
<!-- node64&#45;&gt;node45 -->
<g id="edge36" class="edge">
<title>node64&#45;&gt;node45</title>
<path fill="none" stroke="#da2d4f" stroke-width="2" d="M279.58,-914.8C290.75,-902.47 305.96,-885.68 318.45,-871.89"/>
<polygon fill="#da2d4f" stroke="#da2d4f" stroke-width="2" points="321.32,-873.94 325.44,-864.18 316.13,-869.24 321.32,-873.94"/>
</g>
<!-- node66 -->
<g id="node24" class="node">
<title>node66</title>
<polygon fill="#f9f9f9" stroke="black" points="711,-1038 597,-1038 597,-1002 711,-1002 711,-1038"/>
<text text-anchor="middle" x="654" y="-1016.3" font-family="Arial" font-size="14.00" fill="#1a1919">66 OSRLocal(2)</text>
</g>
<!-- node66&#45;&gt;node42 -->
<g id="edge18" class="edge">
<title>node66&#45;&gt;node42</title>
<path fill="none" stroke="#3cb4a4" d="M615.96,-1001.8C579.98,-985.53 526.81,-961.49 494.4,-946.84"/>
<polygon fill="#3cb4a4" stroke="#3cb4a4" points="495.6,-943.54 485.04,-942.61 492.71,-949.92 495.6,-943.54"/>
<text text-anchor="middle" x="574.5" y="-972.8" font-family="arial" font-size="14.00" fill="#3cb4a4">x</text>
</g>
<!-- node66&#45;&gt;node47 -->
<g id="edge22" class="edge">
<title>node66&#45;&gt;node47</title>
<path fill="none" stroke="#3cb4a4" d="M648.74,-1001.8C645.07,-989.82 640.12,-973.61 635.97,-960.05"/>
<polygon fill="#3cb4a4" stroke="#3cb4a4" points="639.26,-958.85 632.99,-950.31 632.57,-960.9 639.26,-958.85"/>
<text text-anchor="middle" x="658.5" y="-972.8" font-family="arial" font-size="14.00" fill="#3cb4a4">value</text>
</g>
<!-- node66&#45;&gt;node52 -->
<g id="edge28" class="edge">
<title>node66&#45;&gt;node52</title>
<path fill="none" stroke="#3cb4a4" d="M706.3,-1001.9C758.99,-984.68 838.58,-958.66 882.36,-944.34"/>
<polygon fill="#3cb4a4" stroke="#3cb4a4" points="883.49,-947.66 891.91,-941.22 881.31,-941 883.49,-947.66"/>
<text text-anchor="middle" x="802.5" y="-972.8" font-family="arial" font-size="14.00" fill="#3cb4a4">x</text>
</g>
<!-- node69&#45;&gt;node29 -->
<g id="edge12" class="edge">
<title>node69&#45;&gt;node29</title>
<path fill="none" stroke="#3cb4a4" d="M725.13,-109.09C723.18,-114.78 720.99,-121.16 719,-127 716.17,-135.3 713.08,-144.37 710.32,-152.49"/>
<polygon fill="#3cb4a4" stroke="#3cb4a4" points="706.95,-151.52 707.05,-162.12 713.58,-153.78 706.95,-151.52"/>
<text text-anchor="middle" x="722.5" y="-130.8" font-family="arial" font-size="14.00" fill="#3cb4a4">y</text>
</g>
<!-- inline18x19 -->
<g id="node28" class="node">
<title>inline18x19</title>
<ellipse fill="#d7ede7" stroke="black" cx="330" cy="-439" rx="27.59" ry="18"/>
<text text-anchor="middle" x="330" y="-437.1" font-family="Arial" font-size="8.00" fill="#1a1919">18 C(12)</text>
</g>
<!-- inline18x19&#45;&gt;node19 -->
<g id="edge3" class="edge">
<title>inline18x19&#45;&gt;node19</title>
<path fill="none" stroke="#3cb4a4" d="M330,-420.8C330,-406.05 330,-384.92 330,-370.18"/>
<text text-anchor="middle" x="332" y="-393.6" font-family="arial" font-size="8.00" fill="#3cb4a4">y</text>
</g>
<!-- inline27x28 -->
<g id="node29" class="node">
<title>inline27x28</title>
<ellipse fill="#d7ede7" stroke="black" cx="746" cy="-352" rx="34.07" ry="18"/>
<text text-anchor="middle" x="746" y="-350.1" font-family="Arial" font-size="8.00" fill="#1a1919">27 C(153.0)</text>
</g>
<!-- inline27x28&#45;&gt;node28 -->
<g id="edge10" class="edge">
<title>inline27x28&#45;&gt;node28</title>
<path fill="none" stroke="#3cb4a4" d="M737.31,-334.21C729.04,-318.24 716.76,-294.52 709.08,-279.68"/>
<text text-anchor="middle" x="728" y="-306.6" font-family="arial" font-size="8.00" fill="#3cb4a4">y</text>
</g>
<!-- inline33x34 -->
<g id="node30" class="node">
<title>inline33x34</title>
<ellipse fill="#d7ede7" stroke="black" cx="654" cy="-439" rx="27" ry="18"/>
<text text-anchor="middle" x="654" y="-437.1" font-family="Arial" font-size="8.00" fill="#1a1919">33 C(&#45;1)</text>
</g>
<!-- inline33x34&#45;&gt;node34 -->
<g id="edge16" class="edge">
<title>inline33x34&#45;&gt;node34</title>
<path fill="none" stroke="#3cb4a4" d="M654,-420.8C654,-406.05 654,-384.92 654,-370.18"/>
<text text-anchor="middle" x="656" y="-393.6" font-family="arial" font-size="8.00" fill="#3cb4a4">y</text>
</g>
<!-- inline18x42 -->
<g id="node31" class="node">
<title>inline18x42</title>
<ellipse fill="#d7ede7" stroke="black" cx="551" cy="-1020" rx="27.59" ry="18"/>
<text text-anchor="middle" x="551" y="-1018.1" font-family="Arial" font-size="8.00" fill="#1a1919">18 C(12)</text>
</g>
<!-- inline18x42&#45;&gt;node42 -->
<g id="edge19" class="edge">
<title>inline18x42&#45;&gt;node42</title>
<path fill="none" stroke="#3cb4a4" d="M536.58,-1004.58C520.1,-988.1 493.41,-961.41 478.01,-946.01"/>
<text text-anchor="middle" x="515" y="-974.6" font-family="arial" font-size="8.00" fill="#3cb4a4">y</text>
</g>
<!-- inline27x48 -->
<g id="node32" class="node">
<title>inline27x48</title>
<ellipse fill="#d7ede7" stroke="black" cx="784" cy="-933" rx="34.07" ry="18"/>
<text text-anchor="middle" x="784" y="-931.1" font-family="Arial" font-size="8.00" fill="#1a1919">27 C(153.0)</text>
</g>
<!-- inline27x48&#45;&gt;node48 -->
<g id="edge24" class="edge">
<title>inline27x48&#45;&gt;node48</title>
<path fill="none" stroke="#3cb4a4" d="M760.98,-919.46C729.11,-902.09 672.33,-871.16 644.42,-855.95"/>
<text text-anchor="middle" x="717" y="-887.6" font-family="arial" font-size="8.00" fill="#3cb4a4">y</text>
</g>
<!-- inline33x52 -->
<g id="node33" class="node">
<title>inline33x52</title>
<ellipse fill="#d7ede7" stroke="black" cx="914" cy="-1020" rx="27" ry="18"/>
<text text-anchor="middle" x="914" y="-1018.1" font-family="Arial" font-size="8.00" fill="#1a1919">33 C(&#45;1)</text>
</g>
<!-- inline33x52&#45;&gt;node52 -->
<g id="edge29" class="edge">
<title>inline33x52&#45;&gt;node52</title>
<path fill="none" stroke="#3cb4a4" d="M914,-1001.8C914,-987.05 914,-965.92 914,-951.18"/>
<text text-anchor="middle" x="916" y="-974.6" font-family="arial" font-size="8.00" fill="#3cb4a4">y</text>
</g>
</g>
</svg>
