<?xml version="1.0" encoding="UTF-8" standalone="no"?>
<!DOCTYPE svg PUBLIC "-//W3C//DTD SVG 1.1//EN"
 "http://www.w3.org/Graphics/SVG/1.1/DTD/svg11.dtd">
<!-- Generated by graphviz version 2.43.0 (0)
 -->
<!-- Title: G Pages: 1 -->
<svg width="1572pt" height="1147pt"
 viewBox="0.00 0.00 1572.00 1147.00" xmlns="http://www.w3.org/2000/svg" xmlns:xlink="http://www.w3.org/1999/xlink">
<g id="graph0" class="graph" transform="scale(1 1) rotate(0) translate(4 1143)">
<title>G</title>
<polygon fill="white" stroke="transparent" points="-4,4 -4,-1143 1568,-1143 1568,4 -4,4"/>
<!-- node7 -->
<g id="node1" class="node">
<title>node7</title>
<polygon fill="#e98693" stroke="black" points="960,-544 868,-544 868,-508 960,-508 960,-544"/>
<text text-anchor="middle" x="914" y="-522.3" font-family="Arial" font-size="14.00" fill="#1a1919">7 LoopBegin</text>
</g>
<!-- node22 -->
<g id="node3" class="node">
<title>node22</title>
<polygon fill="#e98693" stroke="black" points="954,-196 866,-196 866,-160 954,-160 954,-196"/>
<text text-anchor="middle" x="910" y="-174.3" font-family="Arial" font-size="14.00" fill="#1a1919">22 LoopExit</text>
</g>
<!-- node7&#45;&gt;node22 -->
<g id="edge4" class="edge">
<title>node7&#45;&gt;node22</title>
<path fill="none" stroke="#343d46" stroke-dasharray="5,2" d="M895.54,-498.92C885.86,-482.74 876,-461.08 876,-440 876,-440 876,-440 876,-264 876,-239.05 888.79,-212.73 898.68,-196.11"/>
<polygon fill="#343d46" stroke="#343d46" points="892.83,-501.19 901.13,-507.77 898.74,-497.44 892.83,-501.19"/>
</g>
<!-- node24 -->
<g id="node4" class="node">
<title>node24</title>
<polygon fill="#e98693" stroke="black" points="975,-283 921,-283 921,-247 975,-247 975,-283"/>
<text text-anchor="middle" x="948" y="-261.3" font-family="Arial" font-size="14.00" fill="#1a1919">24 If</text>
</g>
<!-- node7&#45;&gt;node24 -->
<g id="edge1" class="edge">
<title>node7&#45;&gt;node24</title>
<path fill="none" stroke="#da2d4f" stroke-width="2" d="M915.03,-507.79C917.19,-474.21 922.85,-397.68 933,-334 935.17,-320.38 938.39,-305.4 941.28,-292.97"/>
<polygon fill="#da2d4f" stroke="#da2d4f" stroke-width="2" points="944.69,-293.76 943.61,-283.22 937.88,-292.13 944.69,-293.76"/>
</g>
<!-- node35 -->
<g id="node9" class="node">
<title>node35</title>
<polygon fill="#e98693" stroke="black" points="894.5,-36 805.5,-36 805.5,0 894.5,0 894.5,-36"/>
<text text-anchor="middle" x="850" y="-14.3" font-family="Arial" font-size="14.00" fill="#1a1919">35 LoopEnd</text>
</g>
<!-- node7&#45;&gt;node35 -->
<g id="edge15" class="edge">
<title>node7&#45;&gt;node35</title>
<path fill="none" stroke="#da2d4f" stroke-width="4" d="M876.28,-501.72C857.19,-486.8 838,-465.46 838,-440 838,-440 838,-440 838,-90 838,-71.37 842.07,-50.38 845.46,-36.08"/>
<polygon fill="#da2d4f" stroke="#da2d4f" stroke-width="4" points="874.28,-504.59 884.4,-507.72 878.43,-498.96 874.28,-504.59"/>
</g>
<!-- node60 -->
<g id="node17" class="node">
<title>node60</title>
<polygon fill="#f9f9f9" stroke="black" points="1239,-457 1185,-457 1185,-421 1239,-421 1239,-457"/>
<text text-anchor="middle" x="1212" y="-435.3" font-family="Arial" font-size="14.00" fill="#1a1919">60 ϕ</text>
</g>
<!-- node7&#45;&gt;node60 -->
<g id="edge28" class="edge">
<title>node7&#45;&gt;node60</title>
<path fill="none" stroke="#343d46" stroke-dasharray="5,2" d="M970.57,-521.54C1014.57,-517.48 1076.59,-508.74 1128,-490 1149.84,-482.04 1172.37,-468.28 1188.58,-457.21"/>
<polygon fill="#343d46" stroke="#343d46" points="970,-518.07 960.34,-522.43 970.61,-525.05 970,-518.07"/>
</g>
<!-- node69 -->
<g id="node23" class="node">
<title>node69</title>
<polygon fill="#f9f9f9" stroke="black" points="1243,-109 1189,-109 1189,-73 1243,-73 1243,-109"/>
<text text-anchor="middle" x="1216" y="-87.3" font-family="Arial" font-size="14.00" fill="#1a1919">69 ϕ</text>
</g>
<!-- node7&#45;&gt;node69 -->
<g id="edge32" class="edge">
<title>node7&#45;&gt;node69</title>
<path fill="none" stroke="#343d46" stroke-dasharray="5,2" d="M970.44,-522.11C1019.01,-518.29 1083.75,-509.6 1100,-490 1104.26,-484.87 1100.24,-481.66 1100,-475 1097.33,-401.3 1088,-383.25 1088,-309.5 1088,-309.5 1088,-309.5 1088,-177 1088,-151.53 1096.5,-143.38 1116,-127 1136.85,-109.49 1167.01,-100.53 1188.75,-96.08"/>
<polygon fill="#343d46" stroke="#343d46" points="970.06,-518.62 960.35,-522.85 970.58,-525.61 970.06,-518.62"/>
</g>
<!-- node19 -->
<g id="node2" class="node">
<title>node19</title>
<polygon fill="#3cb4a4" stroke="black" points="982,-370 941.61,-352 982,-334 1022.39,-352 982,-370"/>
<text text-anchor="middle" x="982" y="-348.3" font-family="Arial" font-size="14.00" fill="#1a1919">19 &lt;</text>
</g>
<!-- node19&#45;&gt;node24 -->
<g id="edge6" class="edge">
<title>node19&#45;&gt;node24</title>
<path fill="none" stroke="#3cb4a4" d="M976.08,-336.19C971.29,-324.21 964.41,-307.03 958.67,-292.67"/>
<polygon fill="#3cb4a4" stroke="#3cb4a4" points="961.87,-291.26 954.91,-283.27 955.37,-293.86 961.87,-291.26"/>
<text text-anchor="middle" x="971" y="-304.8" font-family="arial" font-size="14.00" fill="#3cb4a4">?</text>
</g>
<!-- node67 -->
<g id="node21" class="node">
<title>node67</title>
<polygon fill="#e98693" stroke="black" points="948,-109 872,-109 872,-73 948,-73 948,-109"/>
<text text-anchor="middle" x="910" y="-87.3" font-family="Arial" font-size="14.00" fill="#1a1919">67 Return</text>
</g>
<!-- node22&#45;&gt;node67 -->
<g id="edge5" class="edge">
<title>node22&#45;&gt;node67</title>
<path fill="none" stroke="#da2d4f" stroke-width="2" d="M910,-159.8C910,-148.16 910,-132.55 910,-119.24"/>
<polygon fill="#da2d4f" stroke="#da2d4f" stroke-width="2" points="913.5,-119.18 910,-109.18 906.5,-119.18 913.5,-119.18"/>
</g>
<!-- node24&#45;&gt;node22 -->
<g id="edge7" class="edge">
<title>node24&#45;&gt;node22</title>
<path fill="none" stroke="#da2d4f" stroke-width="2" d="M940.31,-246.8C935,-234.93 927.85,-218.93 921.82,-205.45"/>
<polygon fill="#da2d4f" stroke="#da2d4f" stroke-width="2" points="924.96,-203.88 917.68,-196.18 918.56,-206.73 924.96,-203.88"/>
<text text-anchor="middle" x="935.5" y="-217.8" font-family="arial" font-size="14.00" fill="#da2d4f">T</text>
</g>
<!-- node84 -->
<g id="node33" class="node">
<title>node84</title>
<polygon fill="#c39bd3" stroke="black" points="1132,-109 966,-109 966,-73 1132,-73 1132,-109"/>
<text text-anchor="middle" x="1049" y="-87.3" font-family="Arial" font-size="14.00" fill="#1a1919">84 Write#ComplexNum.r</text>
</g>
<!-- node24&#45;&gt;node84 -->
<g id="edge54" class="edge">
<title>node24&#45;&gt;node84</title>
<path fill="none" stroke="#da2d4f" stroke-width="2" d="M958.05,-246.88C975.83,-216.61 1012.88,-153.51 1033.79,-117.9"/>
<polygon fill="#da2d4f" stroke="#da2d4f" stroke-width="2" points="1036.94,-119.45 1038.99,-109.05 1030.91,-115.9 1036.94,-119.45"/>
<text text-anchor="middle" x="1012.5" y="-174.3" font-family="arial" font-size="14.00" fill="#da2d4f">F</text>
</g>
<!-- node26 -->
<g id="node5" class="node">
<title>node26</title>
<polygon fill="#3cb4a4" stroke="black" points="1220,-370 1116.27,-352 1220,-334 1323.73,-352 1220,-370"/>
<text text-anchor="middle" x="1220" y="-348.3" font-family="Arial" font-size="14.00" fill="#1a1919">26 FloatConvert</text>
</g>
<!-- node28 -->
<g id="node6" class="node">
<title>node28</title>
<polygon fill="#3cb4a4" stroke="black" points="1220,-283 1184.31,-265 1220,-247 1255.69,-265 1220,-283"/>
<text text-anchor="middle" x="1220" y="-261.3" font-family="Arial" font-size="14.00" fill="#1a1919">28 /</text>
</g>
<!-- node26&#45;&gt;node28 -->
<g id="edge9" class="edge">
<title>node26&#45;&gt;node28</title>
<path fill="none" stroke="#3cb4a4" d="M1220,-333.8C1220,-322.16 1220,-306.55 1220,-293.24"/>
<polygon fill="#3cb4a4" stroke="#3cb4a4" points="1223.5,-293.18 1220,-283.18 1216.5,-293.18 1223.5,-293.18"/>
<text text-anchor="middle" x="1223.5" y="-304.8" font-family="arial" font-size="14.00" fill="#3cb4a4">x</text>
</g>
<!-- node29 -->
<g id="node7" class="node">
<title>node29</title>
<polygon fill="#3cb4a4" stroke="black" points="1212,-196 1171.61,-178 1212,-160 1252.39,-178 1212,-196"/>
<text text-anchor="middle" x="1212" y="-174.3" font-family="Arial" font-size="14.00" fill="#1a1919">29 +</text>
</g>
<!-- node28&#45;&gt;node29 -->
<g id="edge11" class="edge">
<title>node28&#45;&gt;node29</title>
<path fill="none" stroke="#3cb4a4" d="M1218.46,-247.61C1217.34,-235.73 1215.8,-219.42 1214.51,-205.67"/>
<polygon fill="#3cb4a4" stroke="#3cb4a4" points="1217.96,-204.97 1213.54,-195.34 1210.99,-205.62 1217.96,-204.97"/>
<text text-anchor="middle" x="1219.5" y="-217.8" font-family="arial" font-size="14.00" fill="#3cb4a4">x</text>
</g>
<!-- node29&#45;&gt;node69 -->
<g id="edge34" class="edge">
<title>node29&#45;&gt;node69</title>
<path fill="none" stroke="#3cb4a4" d="M1212.79,-160.21C1213.34,-148.52 1214.09,-132.69 1214.72,-119.22"/>
<polygon fill="#3cb4a4" stroke="#3cb4a4" points="1218.22,-119.2 1215.2,-109.05 1211.23,-118.87 1218.22,-119.2"/>
<text text-anchor="middle" x="1237.5" y="-130.8" font-family="arial" font-size="14.00" fill="#3cb4a4">from 35</text>
</g>
<!-- node29&#45;&gt;node84 -->
<g id="edge49" class="edge">
<title>node29&#45;&gt;node84</title>
<path fill="none" stroke="#3cb4a4" d="M1194.25,-167.74C1169.58,-154.88 1124.22,-131.22 1090.72,-113.76"/>
<polygon fill="#3cb4a4" stroke="#3cb4a4" points="1092.1,-110.53 1081.62,-109.01 1088.87,-116.74 1092.1,-110.53"/>
<text text-anchor="middle" x="1156.5" y="-130.8" font-family="arial" font-size="14.00" fill="#3cb4a4">value</text>
</g>
<!-- node34 -->
<g id="node8" class="node">
<title>node34</title>
<polygon fill="#3cb4a4" stroke="black" points="1382,-370 1341.61,-352 1382,-334 1422.39,-352 1382,-370"/>
<text text-anchor="middle" x="1382" y="-348.3" font-family="Arial" font-size="14.00" fill="#1a1919">34 +</text>
</g>
<!-- node34&#45;&gt;node60 -->
<g id="edge30" class="edge">
<title>node34&#45;&gt;node60</title>
<path fill="none" stroke="#3cb4a4" d="M1360.61,-360.67C1352.05,-363.67 1342.09,-367.08 1333,-370 1306.08,-378.63 1296.93,-374.68 1272,-388 1264.77,-391.86 1250.99,-403.23 1238.45,-414.15"/>
<polygon fill="#3cb4a4" stroke="#3cb4a4" points="1236.07,-411.59 1230.88,-420.82 1240.7,-416.84 1236.07,-411.59"/>
<text text-anchor="middle" x="1295.5" y="-391.8" font-family="arial" font-size="14.00" fill="#3cb4a4">from 35</text>
</g>
<!-- node42 -->
<g id="node10" class="node">
<title>node42</title>
<polygon fill="#3cb4a4" stroke="black" points="488,-1052 447.61,-1034 488,-1016 528.39,-1034 488,-1052"/>
<text text-anchor="middle" x="488" y="-1030.3" font-family="Arial" font-size="14.00" fill="#1a1919">42 &lt;</text>
</g>
<!-- node45 -->
<g id="node12" class="node">
<title>node45</title>
<polygon fill="#e98693" stroke="black" points="186,-965 132,-965 132,-929 186,-929 186,-965"/>
<text text-anchor="middle" x="159" y="-943.3" font-family="Arial" font-size="14.00" fill="#1a1919">45 If</text>
</g>
<!-- node42&#45;&gt;node45 -->
<g id="edge19" class="edge">
<title>node42&#45;&gt;node45</title>
<path fill="none" stroke="#3cb4a4" d="M463.81,-1026.75C406.92,-1012.05 264.37,-975.22 196.3,-957.64"/>
<polygon fill="#3cb4a4" stroke="#3cb4a4" points="196.99,-954.2 186.43,-955.09 195.24,-960.98 196.99,-954.2"/>
<text text-anchor="middle" x="348" y="-986.8" font-family="arial" font-size="14.00" fill="#3cb4a4">?</text>
</g>
<!-- node43 -->
<g id="node11" class="node">
<title>node43</title>
<polygon fill="#e98693" stroke="black" points="255,-878 185,-878 185,-842 255,-842 255,-878"/>
<text text-anchor="middle" x="220" y="-856.3" font-family="Arial" font-size="14.00" fill="#1a1919">43 Begin</text>
</g>
<!-- node78 -->
<g id="node29" class="node">
<title>node78</title>
<polygon fill="#ffa500" stroke="black" points="374.5,-791 121.5,-791 121.5,-755 374.5,-755 374.5,-791"/>
<text text-anchor="middle" x="248" y="-769.3" font-family="Arial" font-size="14.00" fill="#1a1919">78 Guard not, else NullCheckException</text>
</g>
<!-- node43&#45;&gt;node78 -->
<g id="edge41" class="edge">
<title>node43&#45;&gt;node78</title>
<path fill="none" stroke="#3cb4a4" d="M225.67,-841.8C229.54,-830.05 234.75,-814.24 239.16,-800.84"/>
<polygon fill="#3cb4a4" stroke="#3cb4a4" points="242.54,-801.77 242.34,-791.18 235.89,-799.58 242.54,-801.77"/>
<text text-anchor="middle" x="257" y="-812.8" font-family="arial" font-size="14.00" fill="#3cb4a4">anchor</text>
</g>
<!-- node82 -->
<g id="node31" class="node">
<title>node82</title>
<polygon fill="#c39bd3" stroke="black" points="901.5,-791 734.5,-791 734.5,-755 901.5,-755 901.5,-791"/>
<text text-anchor="middle" x="818" y="-769.3" font-family="Arial" font-size="14.00" fill="#1a1919">82 Read#ComplexNum.r</text>
</g>
<!-- node43&#45;&gt;node82 -->
<g id="edge18" class="edge">
<title>node43&#45;&gt;node82</title>
<path fill="none" stroke="#da2d4f" stroke-width="2" d="M248.9,-841.98C272.96,-827.87 303.79,-809.98 307,-809 316.83,-806.01 579.14,-789.08 724.01,-779.9"/>
<polygon fill="#da2d4f" stroke="#da2d4f" stroke-width="2" points="724.47,-783.38 734.23,-779.26 724.03,-776.39 724.47,-783.38"/>
</g>
<!-- node45&#45;&gt;node43 -->
<g id="edge20" class="edge">
<title>node45&#45;&gt;node43</title>
<path fill="none" stroke="#da2d4f" stroke-width="2" d="M171.34,-928.8C180.03,-916.7 191.79,-900.3 201.58,-886.67"/>
<polygon fill="#da2d4f" stroke="#da2d4f" stroke-width="2" points="204.69,-888.34 207.67,-878.18 199,-884.26 204.69,-888.34"/>
<text text-anchor="middle" x="198.5" y="-899.8" font-family="arial" font-size="14.00" fill="#da2d4f">F</text>
</g>
<!-- node68 -->
<g id="node22" class="node">
<title>node68</title>
<polygon fill="#e98693" stroke="black" points="167,-878 91,-878 91,-842 167,-842 167,-878"/>
<text text-anchor="middle" x="129" y="-856.3" font-family="Arial" font-size="14.00" fill="#1a1919">68 Return</text>
</g>
<!-- node45&#45;&gt;node68 -->
<g id="edge55" class="edge">
<title>node45&#45;&gt;node68</title>
<path fill="none" stroke="#da2d4f" stroke-width="2" d="M152.93,-928.8C148.78,-917.05 143.2,-901.24 138.47,-887.84"/>
<polygon fill="#da2d4f" stroke="#da2d4f" stroke-width="2" points="141.69,-886.44 135.06,-878.18 135.09,-888.77 141.69,-886.44"/>
<text text-anchor="middle" x="150.5" y="-899.8" font-family="arial" font-size="14.00" fill="#da2d4f">T</text>
</g>
<!-- node47 -->
<g id="node13" class="node">
<title>node47</title>
<polygon fill="#3cb4a4" stroke="black" points="1034,-1052 930.27,-1034 1034,-1016 1137.73,-1034 1034,-1052"/>
<text text-anchor="middle" x="1034" y="-1030.3" font-family="Arial" font-size="14.00" fill="#1a1919">47 FloatConvert</text>
</g>
<!-- node48 -->
<g id="node14" class="node">
<title>node48</title>
<polygon fill="#3cb4a4" stroke="black" points="1030,-965 994.31,-947 1030,-929 1065.69,-947 1030,-965"/>
<text text-anchor="middle" x="1030" y="-943.3" font-family="Arial" font-size="14.00" fill="#1a1919">48 /</text>
</g>
<!-- node47&#45;&gt;node48 -->
<g id="edge22" class="edge">
<title>node47&#45;&gt;node48</title>
<path fill="none" stroke="#3cb4a4" d="M1033.19,-1015.8C1032.64,-1004.09 1031.9,-988.34 1031.27,-974.97"/>
<polygon fill="#3cb4a4" stroke="#3cb4a4" points="1034.76,-974.71 1030.79,-964.89 1027.77,-975.04 1034.76,-974.71"/>
<text text-anchor="middle" x="1035.5" y="-986.8" font-family="arial" font-size="14.00" fill="#3cb4a4">x</text>
</g>
<!-- node49 -->
<g id="node15" class="node">
<title>node49</title>
<polygon fill="#3cb4a4" stroke="black" points="999,-704 958.61,-686 999,-668 1039.39,-686 999,-704"/>
<text text-anchor="middle" x="999" y="-682.3" font-family="Arial" font-size="14.00" fill="#1a1919">49 +</text>
</g>
<!-- node48&#45;&gt;node49 -->
<g id="edge24" class="edge">
<title>node48&#45;&gt;node49</title>
<path fill="none" stroke="#3cb4a4" d="M1028.06,-929.8C1022.85,-886.28 1008.52,-766.56 1002.14,-713.23"/>
<polygon fill="#3cb4a4" stroke="#3cb4a4" points="1005.6,-712.71 1000.94,-703.2 998.65,-713.54 1005.6,-712.71"/>
<text text-anchor="middle" x="1018.5" y="-812.8" font-family="arial" font-size="14.00" fill="#3cb4a4">x</text>
</g>
<!-- node49&#45;&gt;node69 -->
<g id="edge33" class="edge">
<title>node49&#45;&gt;node69</title>
<path fill="none" stroke="#3cb4a4" d="M1010.15,-672.81C1020.52,-661.95 1036.76,-646.12 1053,-635 1266.6,-488.76 1536,-568.36 1536,-309.5 1536,-309.5 1536,-309.5 1536,-177 1536,-119.05 1337.5,-99.66 1253.18,-94.03"/>
<polygon fill="#3cb4a4" stroke="#3cb4a4" points="1253.21,-90.53 1243.01,-93.38 1252.76,-97.51 1253.21,-90.53"/>
<text text-anchor="middle" x="1544" y="-391.8" font-family="arial" font-size="14.00" fill="#3cb4a4">from 6</text>
</g>
<!-- node83 -->
<g id="node32" class="node">
<title>node83</title>
<polygon fill="#c39bd3" stroke="black" points="999,-617 833,-617 833,-581 999,-581 999,-617"/>
<text text-anchor="middle" x="916" y="-595.3" font-family="Arial" font-size="14.00" fill="#1a1919">83 Write#ComplexNum.r</text>
</g>
<!-- node49&#45;&gt;node83 -->
<g id="edge47" class="edge">
<title>node49&#45;&gt;node83</title>
<path fill="none" stroke="#3cb4a4" d="M987.11,-672.82C974.86,-660.28 955.43,-640.38 939.97,-624.55"/>
<polygon fill="#3cb4a4" stroke="#3cb4a4" points="942.24,-621.86 932.75,-617.15 937.23,-626.75 942.24,-621.86"/>
<text text-anchor="middle" x="978.5" y="-638.8" font-family="arial" font-size="14.00" fill="#3cb4a4">value</text>
</g>
<!-- node52 -->
<g id="node16" class="node">
<title>node52</title>
<polygon fill="#3cb4a4" stroke="black" points="1212,-1052 1171.61,-1034 1212,-1016 1252.39,-1034 1212,-1052"/>
<text text-anchor="middle" x="1212" y="-1030.3" font-family="Arial" font-size="14.00" fill="#1a1919">52 +</text>
</g>
<!-- node52&#45;&gt;node60 -->
<g id="edge29" class="edge">
<title>node52&#45;&gt;node60</title>
<path fill="none" stroke="#3cb4a4" d="M1212,-1015.74C1212,-998.57 1212,-971.46 1212,-948 1212,-948 1212,-948 1212,-525 1212,-505.75 1212,-484.05 1212,-467.4"/>
<polygon fill="#3cb4a4" stroke="#3cb4a4" points="1215.5,-467.26 1212,-457.26 1208.5,-467.26 1215.5,-467.26"/>
<text text-anchor="middle" x="1232" y="-725.8" font-family="arial" font-size="14.00" fill="#3cb4a4">from 6</text>
</g>
<!-- node60&#45;&gt;node19 -->
<g id="edge2" class="edge">
<title>node60&#45;&gt;node19</title>
<path fill="none" stroke="#3cb4a4" d="M1184.71,-427.92C1141.57,-411.97 1057.87,-381.04 1012.69,-364.34"/>
<polygon fill="#3cb4a4" stroke="#3cb4a4" points="1013.73,-361 1003.14,-360.81 1011.31,-367.56 1013.73,-361"/>
<text text-anchor="middle" x="1113.5" y="-391.8" font-family="arial" font-size="14.00" fill="#3cb4a4">x</text>
</g>
<!-- node60&#45;&gt;node26 -->
<g id="edge8" class="edge">
<title>node60&#45;&gt;node26</title>
<path fill="none" stroke="#3cb4a4" d="M1213.62,-420.8C1214.72,-409.09 1216.2,-393.34 1217.46,-379.97"/>
<polygon fill="#3cb4a4" stroke="#3cb4a4" points="1220.96,-380.17 1218.41,-369.89 1213.99,-379.51 1220.96,-380.17"/>
<text text-anchor="middle" x="1232.5" y="-391.8" font-family="arial" font-size="14.00" fill="#3cb4a4">value</text>
</g>
<!-- node60&#45;&gt;node34 -->
<g id="edge13" class="edge">
<title>node60&#45;&gt;node34</title>
<path fill="none" stroke="#3cb4a4" d="M1239.22,-432.61C1262.47,-427.27 1296.29,-417.74 1323,-403 1337.76,-394.86 1352.23,-382.68 1363.15,-372.38"/>
<polygon fill="#3cb4a4" stroke="#3cb4a4" points="1365.7,-374.78 1370.42,-365.3 1360.81,-369.76 1365.7,-374.78"/>
<text text-anchor="middle" x="1347.5" y="-391.8" font-family="arial" font-size="14.00" fill="#3cb4a4">x</text>
</g>
<!-- node61 -->
<g id="node18" class="node">
<title>node61</title>
<polygon fill="#f9f9f9" stroke="black" points="141,-1052 47,-1052 47,-1016 141,-1016 141,-1052"/>
<text text-anchor="middle" x="94" y="-1030.3" font-family="Arial" font-size="14.00" fill="#1a1919">61 OSRStart</text>
</g>
<!-- node61&#45;&gt;node45 -->
<g id="edge31" class="edge">
<title>node61&#45;&gt;node45</title>
<path fill="none" stroke="#da2d4f" stroke-width="2" d="M107.15,-1015.8C116.49,-1003.59 129.18,-986.99 139.67,-973.28"/>
<polygon fill="#da2d4f" stroke="#da2d4f" stroke-width="2" points="142.57,-975.25 145.87,-965.18 137.01,-970.99 142.57,-975.25"/>
</g>
<!-- node76 -->
<g id="node27" class="node">
<title>node76</title>
<polygon fill="#ffa500" stroke="black" points="288,-704 0,-704 0,-668 288,-668 288,-704"/>
<text text-anchor="middle" x="144" y="-682.3" font-family="Arial" font-size="14.00" fill="#1a1919">76 Guard, else OptimizedTypeCheckViolated</text>
</g>
<!-- node61&#45;&gt;node76 -->
<g id="edge39" class="edge">
<title>node61&#45;&gt;node76</title>
<path fill="none" stroke="#3cb4a4" d="M70.9,-1015.83C52.92,-1000.33 31,-975.74 31,-948 31,-948 31,-948 31,-772 31,-742.57 55.77,-722.07 82.12,-708.58"/>
<polygon fill="#3cb4a4" stroke="#3cb4a4" points="83.97,-711.58 91.47,-704.1 80.94,-705.27 83.97,-711.58"/>
<text text-anchor="middle" x="52" y="-856.3" font-family="arial" font-size="14.00" fill="#3cb4a4">anchor</text>
</g>
<!-- node62 -->
<g id="node19" class="node">
<title>node62</title>
<polygon fill="#f9f9f9" stroke="black" points="654,-965 540,-965 540,-929 654,-929 654,-965"/>
<text text-anchor="middle" x="597" y="-943.3" font-family="Arial" font-size="14.00" fill="#1a1919">62 OSRLocal(1)</text>
</g>
<!-- node73 -->
<g id="node24" class="node">
<title>node73</title>
<polygon fill="#f9f9f9" stroke="black" points="861.5,-878 562.5,-878 562.5,-842 861.5,-842 861.5,-878"/>
<text text-anchor="middle" x="712" y="-856.3" font-family="Arial" font-size="14.00" fill="#1a1919">73 InstanceOf org/gammaraylab/ComplexNum</text>
</g>
<!-- node62&#45;&gt;node73 -->
<g id="edge35" class="edge">
<title>node62&#45;&gt;node73</title>
<path fill="none" stroke="#3cb4a4" d="M620.27,-928.8C637.65,-915.95 661.59,-898.26 680.66,-884.17"/>
<polygon fill="#3cb4a4" stroke="#3cb4a4" points="682.8,-886.93 688.76,-878.18 678.64,-881.3 682.8,-886.93"/>
<text text-anchor="middle" x="678.5" y="-899.8" font-family="arial" font-size="14.00" fill="#3cb4a4">value</text>
</g>
<!-- node74 -->
<g id="node25" class="node">
<title>node74</title>
<polygon fill="#3cb4a4" stroke="black" points="481,-878 417.66,-860 481,-842 544.34,-860 481,-878"/>
<text text-anchor="middle" x="481" y="-856.3" font-family="Arial" font-size="14.00" fill="#1a1919">74 IsNull</text>
</g>
<!-- node62&#45;&gt;node74 -->
<g id="edge36" class="edge">
<title>node62&#45;&gt;node74</title>
<path fill="none" stroke="#3cb4a4" d="M573.53,-928.8C554.03,-914.52 526.36,-894.24 506.36,-879.59"/>
<polygon fill="#3cb4a4" stroke="#3cb4a4" points="508.18,-876.58 498.04,-873.49 504.04,-882.22 508.18,-876.58"/>
<text text-anchor="middle" x="562.5" y="-899.8" font-family="arial" font-size="14.00" fill="#3cb4a4">value</text>
</g>
<!-- node77 -->
<g id="node28" class="node">
<title>node77</title>
<polygon fill="#3cb4a4" stroke="black" points="336,-878 272.66,-860 336,-842 399.34,-860 336,-878"/>
<text text-anchor="middle" x="336" y="-856.3" font-family="Arial" font-size="14.00" fill="#1a1919">77 IsNull</text>
</g>
<!-- node62&#45;&gt;node77 -->
<g id="edge51" class="edge">
<title>node62&#45;&gt;node77</title>
<path fill="none" stroke="#3cb4a4" d="M544.5,-928.9C493.84,-912.41 418.43,-887.85 373.54,-873.23"/>
<polygon fill="#3cb4a4" stroke="#3cb4a4" points="374.49,-869.86 363.9,-870.09 372.33,-876.51 374.49,-869.86"/>
<text text-anchor="middle" x="499.5" y="-899.8" font-family="arial" font-size="14.00" fill="#3cb4a4">value</text>
</g>
<!-- node81 -->
<g id="node30" class="node">
<title>node81</title>
<polygon fill="#f9f9f9" stroke="black" points="1002,-878 880,-878 880,-842 1002,-842 1002,-878"/>
<text text-anchor="middle" x="941" y="-856.3" font-family="Arial" font-size="14.00" fill="#1a1919">81 OffsetAddress</text>
</g>
<!-- node62&#45;&gt;node81 -->
<g id="edge52" class="edge">
<title>node62&#45;&gt;node81</title>
<path fill="none" stroke="#3cb4a4" d="M654.19,-931.87C713.4,-917.24 806.02,-894.35 869.9,-878.57"/>
<polygon fill="#3cb4a4" stroke="#3cb4a4" points="871.03,-881.89 879.9,-876.1 869.35,-875.1 871.03,-881.89"/>
<text text-anchor="middle" x="805" y="-899.8" font-family="arial" font-size="14.00" fill="#3cb4a4">base</text>
</g>
<!-- node66 -->
<g id="node20" class="node">
<title>node66</title>
<polygon fill="#f9f9f9" stroke="black" points="1091,-1139 977,-1139 977,-1103 1091,-1103 1091,-1139"/>
<text text-anchor="middle" x="1034" y="-1117.3" font-family="Arial" font-size="14.00" fill="#1a1919">66 OSRLocal(2)</text>
</g>
<!-- node66&#45;&gt;node42 -->
<g id="edge16" class="edge">
<title>node66&#45;&gt;node42</title>
<path fill="none" stroke="#3cb4a4" d="M976.86,-1111.1C865.23,-1093.73 620.86,-1055.68 526.37,-1040.97"/>
<polygon fill="#3cb4a4" stroke="#3cb4a4" points="526.81,-1037.5 516.39,-1039.42 525.73,-1044.42 526.81,-1037.5"/>
<text text-anchor="middle" x="797.5" y="-1073.8" font-family="arial" font-size="14.00" fill="#3cb4a4">x</text>
</g>
<!-- node66&#45;&gt;node47 -->
<g id="edge21" class="edge">
<title>node66&#45;&gt;node47</title>
<path fill="none" stroke="#3cb4a4" d="M1034,-1102.8C1034,-1091.16 1034,-1075.55 1034,-1062.24"/>
<polygon fill="#3cb4a4" stroke="#3cb4a4" points="1037.5,-1062.18 1034,-1052.18 1030.5,-1062.18 1037.5,-1062.18"/>
<text text-anchor="middle" x="1050.5" y="-1073.8" font-family="arial" font-size="14.00" fill="#3cb4a4">value</text>
</g>
<!-- node66&#45;&gt;node52 -->
<g id="edge26" class="edge">
<title>node66&#45;&gt;node52</title>
<path fill="none" stroke="#3cb4a4" d="M1070.02,-1102.8C1103.75,-1086.69 1153.45,-1062.96 1184.22,-1048.27"/>
<polygon fill="#3cb4a4" stroke="#3cb4a4" points="1185.98,-1051.3 1193.5,-1043.84 1182.96,-1044.99 1185.98,-1051.3"/>
<text text-anchor="middle" x="1136.5" y="-1073.8" font-family="arial" font-size="14.00" fill="#3cb4a4">x</text>
</g>
<!-- node69&#45;&gt;node29 -->
<g id="edge12" class="edge">
<title>node69&#45;&gt;node29</title>
<path fill="none" stroke="#3cb4a4" d="M1208.86,-109.15C1206.87,-114.74 1204.99,-121.04 1204,-127 1202.63,-135.2 1203.37,-144.16 1204.84,-152.21"/>
<polygon fill="#3cb4a4" stroke="#3cb4a4" points="1201.46,-153.13 1207.08,-162.11 1208.29,-151.59 1201.46,-153.13"/>
<text text-anchor="middle" x="1207.5" y="-130.8" font-family="arial" font-size="14.00" fill="#3cb4a4">y</text>
</g>
<!-- node75 -->
<g id="node26" class="node">
<title>node75</title>
<polygon fill="#f9f9f9" stroke="black" points="542,-791 420,-791 420,-755 542,-755 542,-791"/>
<text text-anchor="middle" x="481" y="-769.3" font-family="Arial" font-size="14.00" fill="#1a1919">75 ShortCircuitOr</text>
</g>
<!-- node73&#45;&gt;node75 -->
<g id="edge38" class="edge">
<title>node73&#45;&gt;node75</title>
<path fill="none" stroke="#3cb4a4" d="M665.53,-841.9C628.49,-828.27 576.48,-809.13 537.11,-794.65"/>
<polygon fill="#3cb4a4" stroke="#3cb4a4" points="537.99,-791.24 527.39,-791.07 535.57,-797.81 537.99,-791.24"/>
<text text-anchor="middle" x="614.5" y="-812.8" font-family="arial" font-size="14.00" fill="#3cb4a4">y</text>
</g>
<!-- node74&#45;&gt;node75 -->
<g id="edge37" class="edge">
<title>node74&#45;&gt;node75</title>
<path fill="none" stroke="#3cb4a4" d="M481,-841.8C481,-830.16 481,-814.55 481,-801.24"/>
<polygon fill="#3cb4a4" stroke="#3cb4a4" points="484.5,-801.18 481,-791.18 477.5,-801.18 484.5,-801.18"/>
<text text-anchor="middle" x="484.5" y="-812.8" font-family="arial" font-size="14.00" fill="#3cb4a4">x</text>
</g>
<!-- node75&#45;&gt;node76 -->
<g id="edge40" class="edge">
<title>node75&#45;&gt;node76</title>
<path fill="none" stroke="#3cb4a4" d="M419.97,-756.61C364.27,-742.56 281.68,-721.73 221.37,-706.52"/>
<polygon fill="#3cb4a4" stroke="#3cb4a4" points="222.07,-703.08 211.52,-704.03 220.36,-709.87 222.07,-703.08"/>
<text text-anchor="middle" x="337" y="-725.8" font-family="arial" font-size="14.00" fill="#3cb4a4">?</text>
</g>
<!-- node77&#45;&gt;node78 -->
<g id="edge42" class="edge">
<title>node77&#45;&gt;node78</title>
<path fill="none" stroke="#3cb4a4" d="M322.25,-845.72C309.21,-833.12 289.29,-813.88 273.36,-798.5"/>
<polygon fill="#3cb4a4" stroke="#3cb4a4" points="275.54,-795.73 265.91,-791.3 270.68,-800.77 275.54,-795.73"/>
<text text-anchor="middle" x="302" y="-812.8" font-family="arial" font-size="14.00" fill="#3cb4a4">?</text>
</g>
<!-- node81&#45;&gt;node82 -->
<g id="edge44" class="edge">
<title>node81&#45;&gt;node82</title>
<path fill="none" stroke="#3cb4a4" d="M897.43,-841.98C886.72,-836.91 875.58,-830.86 866,-824 856.11,-816.92 846.55,-807.64 838.6,-799"/>
<polygon fill="#3cb4a4" stroke="#3cb4a4" points="841.04,-796.48 831.78,-791.32 835.8,-801.12 841.04,-796.48"/>
<text text-anchor="middle" x="890.5" y="-812.8" font-family="arial" font-size="14.00" fill="#3cb4a4">address</text>
</g>
<!-- node81&#45;&gt;node83 -->
<g id="edge46" class="edge">
<title>node81&#45;&gt;node83</title>
<path fill="none" stroke="#3cb4a4" d="M938.59,-841.66C935.38,-818.03 929.66,-774.38 926,-737 922.29,-699.07 919.31,-655.12 917.6,-627.44"/>
<polygon fill="#3cb4a4" stroke="#3cb4a4" points="921.09,-627.09 916.99,-617.32 914.1,-627.52 921.09,-627.09"/>
<text text-anchor="middle" x="950.5" y="-725.8" font-family="arial" font-size="14.00" fill="#3cb4a4">address</text>
</g>
<!-- node81&#45;&gt;node84 -->
<g id="edge48" class="edge">
<title>node81&#45;&gt;node84</title>
<path fill="none" stroke="#3cb4a4" d="M957.56,-841.66C982.18,-814.68 1027.69,-759.94 1048,-704 1067.42,-650.51 1050,-521.27 1050,-440 1050,-440 1050,-440 1050,-177 1050,-157.75 1049.74,-136.05 1049.49,-119.4"/>
<polygon fill="#3cb4a4" stroke="#3cb4a4" points="1052.98,-119.2 1049.32,-109.26 1045.98,-119.31 1052.98,-119.2"/>
<text text-anchor="middle" x="1075.5" y="-478.8" font-family="arial" font-size="14.00" fill="#3cb4a4">address</text>
</g>
<!-- node82&#45;&gt;node49 -->
<g id="edge25" class="edge">
<title>node82&#45;&gt;node49</title>
<path fill="none" stroke="#3cb4a4" d="M901.91,-761.06C934.43,-755.34 966.77,-747.35 979,-737 986.18,-730.92 990.81,-721.9 993.78,-713.18"/>
<polygon fill="#3cb4a4" stroke="#3cb4a4" points="997.22,-713.86 996.56,-703.29 990.48,-711.97 997.22,-713.86"/>
<text text-anchor="middle" x="993.5" y="-725.8" font-family="arial" font-size="14.00" fill="#3cb4a4">y</text>
</g>
<!-- node82&#45;&gt;node83 -->
<g id="edge45" class="edge">
<title>node82&#45;&gt;node83</title>
<path fill="none" stroke="#da2d4f" stroke-width="2" d="M827.75,-754.88C845,-724.61 880.96,-661.51 901.25,-625.9"/>
<polygon fill="#da2d4f" stroke="#da2d4f" stroke-width="2" points="904.38,-627.47 906.28,-617.05 898.29,-624.01 904.38,-627.47"/>
</g>
<!-- node83&#45;&gt;node7 -->
<g id="edge53" class="edge">
<title>node83&#45;&gt;node7</title>
<path fill="none" stroke="#da2d4f" stroke-width="2" d="M915.52,-580.81C915.29,-572.79 915.02,-563.05 914.76,-554.07"/>
<polygon fill="#da2d4f" stroke="#da2d4f" stroke-width="2" points="918.26,-553.93 914.48,-544.03 911.26,-554.12 918.26,-553.93"/>
</g>
<!-- node84&#45;&gt;node35 -->
<g id="edge50" class="edge">
<title>node84&#45;&gt;node35</title>
<path fill="none" stroke="#da2d4f" stroke-width="2" d="M1001.33,-72.99C972.08,-62.55 934.52,-49.16 904.14,-38.32"/>
<polygon fill="#da2d4f" stroke="#da2d4f" stroke-width="2" points="905.14,-34.96 894.55,-34.89 902.79,-41.55 905.14,-34.96"/>
</g>
<!-- inline18x19 -->
<g id="node34" class="node">
<title>inline18x19</title>
<ellipse fill="#d7ede7" stroke="black" cx="982" cy="-439" rx="27.59" ry="18"/>
<text text-anchor="middle" x="982" y="-437.1" font-family="Arial" font-size="8.00" fill="#1a1919">18 C(12)</text>
</g>
<!-- inline18x19&#45;&gt;node19 -->
<g id="edge3" class="edge">
<title>inline18x19&#45;&gt;node19</title>
<path fill="none" stroke="#3cb4a4" d="M982,-420.8C982,-406.05 982,-384.92 982,-370.18"/>
<text text-anchor="middle" x="984" y="-393.6" font-family="arial" font-size="8.00" fill="#3cb4a4">y</text>
</g>
<!-- inline27x28 -->
<g id="node35" class="node">
<title>inline27x28</title>
<ellipse fill="#d7ede7" stroke="black" cx="1474" cy="-352" rx="34.07" ry="18"/>
<text text-anchor="middle" x="1474" y="-350.1" font-family="Arial" font-size="8.00" fill="#1a1919">27 C(153.0)</text>
</g>
<!-- inline27x28&#45;&gt;node28 -->
<g id="edge10" class="edge">
<title>inline27x28&#45;&gt;node28</title>
<path fill="none" stroke="#3cb4a4" d="M1447.72,-340.3C1442.22,-338.15 1436.44,-335.95 1431,-334 1362.34,-309.39 1279.71,-283.96 1241.42,-272.4"/>
<text text-anchor="middle" x="1375" y="-306.6" font-family="arial" font-size="8.00" fill="#3cb4a4">y</text>
</g>
<!-- inline33x34 -->
<g id="node36" class="node">
<title>inline33x34</title>
<ellipse fill="#d7ede7" stroke="black" cx="1382" cy="-439" rx="27" ry="18"/>
<text text-anchor="middle" x="1382" y="-437.1" font-family="Arial" font-size="8.00" fill="#1a1919">33 C(&#45;1)</text>
</g>
<!-- inline33x34&#45;&gt;node34 -->
<g id="edge14" class="edge">
<title>inline33x34&#45;&gt;node34</title>
<path fill="none" stroke="#3cb4a4" d="M1382,-420.8C1382,-406.05 1382,-384.92 1382,-370.18"/>
<text text-anchor="middle" x="1384" y="-393.6" font-family="arial" font-size="8.00" fill="#3cb4a4">y</text>
</g>
<!-- inline18x42 -->
<g id="node37" class="node">
<title>inline18x42</title>
<ellipse fill="#d7ede7" stroke="black" cx="488" cy="-1121" rx="27.59" ry="18"/>
<text text-anchor="middle" x="488" y="-1119.1" font-family="Arial" font-size="8.00" fill="#1a1919">18 C(12)</text>
</g>
<!-- inline18x42&#45;&gt;node42 -->
<g id="edge17" class="edge">
<title>inline18x42&#45;&gt;node42</title>
<path fill="none" stroke="#3cb4a4" d="M488,-1102.8C488,-1088.05 488,-1066.92 488,-1052.18"/>
<text text-anchor="middle" x="490" y="-1075.6" font-family="arial" font-size="8.00" fill="#3cb4a4">y</text>
</g>
<!-- inline27x48 -->
<g id="node38" class="node">
<title>inline27x48</title>
<ellipse fill="#d7ede7" stroke="black" cx="878" cy="-1034" rx="34.07" ry="18"/>
<text text-anchor="middle" x="878" y="-1032.1" font-family="Arial" font-size="8.00" fill="#1a1919">27 C(153.0)</text>
</g>
<!-- inline27x48&#45;&gt;node48 -->
<g id="edge23" class="edge">
<title>inline27x48&#45;&gt;node48</title>
<path fill="none" stroke="#3cb4a4" d="M900.43,-1020.46C931.48,-1003.09 986.8,-972.16 1014,-956.95"/>
<text text-anchor="middle" x="965" y="-988.6" font-family="arial" font-size="8.00" fill="#3cb4a4">y</text>
</g>
<!-- inline33x52 -->
<g id="node39" class="node">
<title>inline33x52</title>
<ellipse fill="#d7ede7" stroke="black" cx="1212" cy="-1121" rx="27" ry="18"/>
<text text-anchor="middle" x="1212" y="-1119.1" font-family="Arial" font-size="8.00" fill="#1a1919">33 C(&#45;1)</text>
</g>
<!-- inline33x52&#45;&gt;node52 -->
<g id="edge27" class="edge">
<title>inline33x52&#45;&gt;node52</title>
<path fill="none" stroke="#3cb4a4" d="M1212,-1102.8C1212,-1088.05 1212,-1066.92 1212,-1052.18"/>
<text text-anchor="middle" x="1214" y="-1075.6" font-family="arial" font-size="8.00" fill="#3cb4a4">y</text>
</g>
<!-- inline80x81 -->
<g id="node40" class="node">
<title>inline80x81</title>
<ellipse fill="#d7ede7" stroke="black" cx="941" cy="-947" rx="27.59" ry="18"/>
<text text-anchor="middle" x="941" y="-945.1" font-family="Arial" font-size="8.00" fill="#1a1919">80 C(16)</text>
</g>
<!-- inline80x81&#45;&gt;node81 -->
<g id="edge43" class="edge">
<title>inline80x81&#45;&gt;node81</title>
<path fill="none" stroke="#3cb4a4" d="M941,-928.8C941,-914.05 941,-892.92 941,-878.18"/>
<text text-anchor="middle" x="951" y="-901.6" font-family="arial" font-size="8.00" fill="#3cb4a4">offset</text>
</g>
</g>
</svg>
