<?xml version="1.0" encoding="UTF-8" standalone="no"?>
<!DOCTYPE svg PUBLIC "-//W3C//DTD SVG 1.1//EN"
 "http://www.w3.org/Graphics/SVG/1.1/DTD/svg11.dtd">
<!-- Generated by graphviz version 2.43.0 (0)
 -->
<!-- Title: G Pages: 1 -->
<svg width="1047pt" height="2025pt"
 viewBox="0.00 0.00 1047.29 2025.00" xmlns="http://www.w3.org/2000/svg" xmlns:xlink="http://www.w3.org/1999/xlink">
<g id="graph0" class="graph" transform="scale(1 1) rotate(0) translate(4 2021)">
<title>G</title>
<polygon fill="white" stroke="transparent" points="-4,4 -4,-2021 1043.29,-2021 1043.29,4 -4,4"/>
<!-- node7 -->
<g id="node1" class="node">
<title>node7</title>
<polygon fill="#e98693" stroke="black" points="434.85,-617 342.85,-617 342.85,-581 434.85,-581 434.85,-617"/>
<text text-anchor="middle" x="388.85" y="-595.3" font-family="Arial" font-size="14.00" fill="#1a1919">7 LoopBegin</text>
</g>
<!-- node22 -->
<g id="node3" class="node">
<title>node22</title>
<polygon fill="#e98693" stroke="black" points="284.85,-269 196.85,-269 196.85,-233 284.85,-233 284.85,-269"/>
<text text-anchor="middle" x="240.85" y="-247.3" font-family="Arial" font-size="14.00" fill="#1a1919">22 LoopExit</text>
</g>
<!-- node7&#45;&gt;node22 -->
<g id="edge4" class="edge">
<title>node7&#45;&gt;node22</title>
<path fill="none" stroke="#343d46" stroke-dasharray="5,2" d="M347.85,-574.57C343.76,-571.07 339.97,-567.21 336.85,-563 318.53,-538.33 262.04,-331.09 245.46,-269.31"/>
<polygon fill="#343d46" stroke="#343d46" points="345.94,-577.51 356,-580.84 350.21,-571.97 345.94,-577.51"/>
</g>
<!-- node24 -->
<g id="node4" class="node">
<title>node24</title>
<polygon fill="#e98693" stroke="black" points="452.85,-356 398.85,-356 398.85,-320 452.85,-320 452.85,-356"/>
<text text-anchor="middle" x="425.85" y="-334.3" font-family="Arial" font-size="14.00" fill="#1a1919">24 If</text>
</g>
<!-- node7&#45;&gt;node24 -->
<g id="edge1" class="edge">
<title>node7&#45;&gt;node24</title>
<path fill="none" stroke="#da2d4f" stroke-width="2" d="M389.64,-580.75C391.39,-547.1 396.37,-470.45 407.85,-407 410.33,-393.29 414.17,-378.3 417.67,-365.89"/>
<polygon fill="#da2d4f" stroke="#da2d4f" stroke-width="2" points="421.07,-366.74 420.49,-356.16 414.35,-364.79 421.07,-366.74"/>
</g>
<!-- node35 -->
<g id="node9" class="node">
<title>node35</title>
<polygon fill="#e98693" stroke="black" points="976.35,-36 887.35,-36 887.35,0 976.35,0 976.35,-36"/>
<text text-anchor="middle" x="931.85" y="-14.3" font-family="Arial" font-size="14.00" fill="#1a1919">35 LoopEnd</text>
</g>
<!-- node7&#45;&gt;node35 -->
<g id="edge15" class="edge">
<title>node7&#45;&gt;node35</title>
<path fill="none" stroke="#da2d4f" stroke-width="4" d="M445.2,-598.19C581.46,-598.15 920.46,-594.82 959.85,-563 977.8,-548.5 973.85,-536.08 973.85,-513 973.85,-513 973.85,-513 973.85,-90 973.85,-69.38 960.56,-49.49 948.93,-36.04"/>
<polygon fill="#da2d4f" stroke="#da2d4f" stroke-width="4" points="444.98,-594.69 434.98,-598.19 444.97,-601.69 444.98,-594.69"/>
</g>
<!-- node60 -->
<g id="node16" class="node">
<title>node60</title>
<polygon fill="#f9f9f9" stroke="black" points="577.85,-530 523.85,-530 523.85,-494 577.85,-494 577.85,-530"/>
<text text-anchor="middle" x="550.85" y="-508.3" font-family="Arial" font-size="14.00" fill="#1a1919">60 ϕ</text>
</g>
<!-- node7&#45;&gt;node60 -->
<g id="edge26" class="edge">
<title>node7&#45;&gt;node60</title>
<path fill="none" stroke="#343d46" stroke-dasharray="5,2" d="M430.8,-575.99C460.11,-560.61 498.39,-540.52 523.75,-527.22"/>
<polygon fill="#343d46" stroke="#343d46" points="428.86,-573.05 421.63,-580.8 432.11,-579.25 428.86,-573.05"/>
</g>
<!-- node69 -->
<g id="node19" class="node">
<title>node69</title>
<polygon fill="#f9f9f9" stroke="black" points="431.85,-182 377.85,-182 377.85,-146 431.85,-146 431.85,-182"/>
<text text-anchor="middle" x="404.85" y="-160.3" font-family="Arial" font-size="14.00" fill="#1a1919">69 ϕ</text>
</g>
<!-- node7&#45;&gt;node69 -->
<g id="edge29" class="edge">
<title>node7&#45;&gt;node69</title>
<path fill="none" stroke="#343d46" stroke-dasharray="5,2" d="M370.38,-571.92C360.71,-555.74 350.85,-534.08 350.85,-513 350.85,-513 350.85,-513 350.85,-250 350.85,-223.25 370.14,-198.11 385.66,-182.22"/>
<polygon fill="#343d46" stroke="#343d46" points="367.68,-574.19 375.98,-580.77 373.59,-570.44 367.68,-574.19"/>
</g>
<!-- node19 -->
<g id="node2" class="node">
<title>node19</title>
<polygon fill="#3cb4a4" stroke="black" points="456.85,-443 416.46,-425 456.85,-407 497.23,-425 456.85,-443"/>
<text text-anchor="middle" x="456.85" y="-421.3" font-family="Arial" font-size="14.00" fill="#1a1919">19 &lt;</text>
</g>
<!-- node19&#45;&gt;node24 -->
<g id="edge6" class="edge">
<title>node19&#45;&gt;node24</title>
<path fill="none" stroke="#3cb4a4" d="M451.45,-409.19C447.08,-397.21 440.81,-380.03 435.57,-365.67"/>
<polygon fill="#3cb4a4" stroke="#3cb4a4" points="438.86,-364.47 432.15,-356.27 432.28,-366.87 438.86,-364.47"/>
<text text-anchor="middle" x="446.85" y="-377.8" font-family="arial" font-size="14.00" fill="#3cb4a4">?</text>
</g>
<!-- node67 -->
<g id="node17" class="node">
<title>node67</title>
<polygon fill="#e98693" stroke="black" points="278.85,-182 202.85,-182 202.85,-146 278.85,-146 278.85,-182"/>
<text text-anchor="middle" x="240.85" y="-160.3" font-family="Arial" font-size="14.00" fill="#1a1919">67 Return</text>
</g>
<!-- node22&#45;&gt;node67 -->
<g id="edge5" class="edge">
<title>node22&#45;&gt;node67</title>
<path fill="none" stroke="#da2d4f" stroke-width="2" d="M240.85,-232.8C240.85,-221.16 240.85,-205.55 240.85,-192.24"/>
<polygon fill="#da2d4f" stroke="#da2d4f" stroke-width="2" points="244.35,-192.18 240.85,-182.18 237.35,-192.18 244.35,-192.18"/>
</g>
<!-- node24&#45;&gt;node22 -->
<g id="edge7" class="edge">
<title>node24&#45;&gt;node22</title>
<path fill="none" stroke="#da2d4f" stroke-width="2" d="M398.55,-324.46C369.3,-311.02 322.36,-289.45 287.28,-273.33"/>
<polygon fill="#da2d4f" stroke="#da2d4f" stroke-width="2" points="288.73,-270.15 278.18,-269.15 285.81,-276.51 288.73,-270.15"/>
<text text-anchor="middle" x="349.35" y="-290.8" font-family="arial" font-size="14.00" fill="#da2d4f">T</text>
</g>
<!-- node84 -->
<g id="node22" class="node">
<title>node84</title>
<polygon fill="#c39bd3" stroke="black" points="818.85,-182 652.85,-182 652.85,-146 818.85,-146 818.85,-182"/>
<text text-anchor="middle" x="735.85" y="-160.3" font-family="Arial" font-size="14.00" fill="#1a1919">84 Write#ComplexNum.r</text>
</g>
<!-- node24&#45;&gt;node84 -->
<g id="edge67" class="edge">
<title>node24&#45;&gt;node84</title>
<path fill="none" stroke="#da2d4f" stroke-width="2" d="M452.85,-330.41C490.41,-320.55 559.8,-299.75 612.85,-269 651.05,-246.85 688.92,-212.46 712.34,-189.35"/>
<polygon fill="#da2d4f" stroke="#da2d4f" stroke-width="2" points="714.82,-191.82 719.41,-182.28 709.87,-186.87 714.82,-191.82"/>
<text text-anchor="middle" x="667.35" y="-247.3" font-family="arial" font-size="14.00" fill="#da2d4f">F</text>
</g>
<!-- node26 -->
<g id="node5" class="node">
<title>node26</title>
<polygon fill="#3cb4a4" stroke="black" points="717.85,-443 614.12,-425 717.85,-407 821.58,-425 717.85,-443"/>
<text text-anchor="middle" x="717.85" y="-421.3" font-family="Arial" font-size="14.00" fill="#1a1919">26 FloatConvert</text>
</g>
<!-- node28 -->
<g id="node6" class="node">
<title>node28</title>
<polygon fill="#3cb4a4" stroke="black" points="717.85,-356 682.15,-338 717.85,-320 753.54,-338 717.85,-356"/>
<text text-anchor="middle" x="717.85" y="-334.3" font-family="Arial" font-size="14.00" fill="#1a1919">28 /</text>
</g>
<!-- node26&#45;&gt;node28 -->
<g id="edge9" class="edge">
<title>node26&#45;&gt;node28</title>
<path fill="none" stroke="#3cb4a4" d="M717.85,-406.8C717.85,-395.16 717.85,-379.55 717.85,-366.24"/>
<polygon fill="#3cb4a4" stroke="#3cb4a4" points="721.35,-366.18 717.85,-356.18 714.35,-366.18 721.35,-366.18"/>
<text text-anchor="middle" x="721.35" y="-377.8" font-family="arial" font-size="14.00" fill="#3cb4a4">x</text>
</g>
<!-- node29 -->
<g id="node7" class="node">
<title>node29</title>
<polygon fill="#3cb4a4" stroke="black" points="563.85,-269 523.46,-251 563.85,-233 604.23,-251 563.85,-269"/>
<text text-anchor="middle" x="563.85" y="-247.3" font-family="Arial" font-size="14.00" fill="#1a1919">29 +</text>
</g>
<!-- node28&#45;&gt;node29 -->
<g id="edge11" class="edge">
<title>node28&#45;&gt;node29</title>
<path fill="none" stroke="#3cb4a4" d="M701.66,-328.06C675.09,-313.4 622,-284.1 590.03,-266.45"/>
<polygon fill="#3cb4a4" stroke="#3cb4a4" points="591.67,-263.36 581.23,-261.59 588.29,-269.49 591.67,-263.36"/>
<text text-anchor="middle" x="653.35" y="-290.8" font-family="arial" font-size="14.00" fill="#3cb4a4">x</text>
</g>
<!-- node29&#45;&gt;node69 -->
<g id="edge31" class="edge">
<title>node29&#45;&gt;node69</title>
<path fill="none" stroke="#3cb4a4" d="M552.19,-237.84C540.96,-226.7 523.03,-210.4 504.85,-200 485.14,-188.72 461.17,-180.18 441.65,-174.36"/>
<polygon fill="#3cb4a4" stroke="#3cb4a4" points="442.47,-170.95 431.89,-171.56 440.54,-177.68 442.47,-170.95"/>
<text text-anchor="middle" x="548.35" y="-203.8" font-family="arial" font-size="14.00" fill="#3cb4a4">from 35</text>
</g>
<!-- node29&#45;&gt;node84 -->
<g id="edge36" class="edge">
<title>node29&#45;&gt;node84</title>
<path fill="none" stroke="#3cb4a4" d="M576.15,-238.22C588.41,-227.05 608.17,-210.45 627.85,-200 638.25,-194.47 649.68,-189.62 661.1,-185.43"/>
<polygon fill="#3cb4a4" stroke="#3cb4a4" points="662.39,-188.68 670.66,-182.06 660.06,-182.08 662.39,-188.68"/>
<text text-anchor="middle" x="644.35" y="-203.8" font-family="arial" font-size="14.00" fill="#3cb4a4">value</text>
</g>
<!-- node34 -->
<g id="node8" class="node">
<title>node34</title>
<polygon fill="#3cb4a4" stroke="black" points="555.85,-443 515.46,-425 555.85,-407 596.23,-425 555.85,-443"/>
<text text-anchor="middle" x="555.85" y="-421.3" font-family="Arial" font-size="14.00" fill="#1a1919">34 +</text>
</g>
<!-- node34&#45;&gt;node60 -->
<g id="edge28" class="edge">
<title>node34&#45;&gt;node60</title>
<path fill="none" stroke="#3cb4a4" d="M535.67,-434.11C524.4,-439.82 511.35,-448.65 504.85,-461 499.07,-471.98 505.8,-482.38 515.74,-490.82"/>
<polygon fill="#3cb4a4" stroke="#3cb4a4" points="513.72,-493.67 523.82,-496.87 517.92,-488.07 513.72,-493.67"/>
<text text-anchor="middle" x="528.35" y="-464.8" font-family="arial" font-size="14.00" fill="#3cb4a4">from 35</text>
</g>
<!-- node42 -->
<g id="node10" class="node">
<title>node42</title>
<polygon fill="#3cb4a4" stroke="black" points="851.85,-1654 811.46,-1636 851.85,-1618 892.23,-1636 851.85,-1654"/>
<text text-anchor="middle" x="851.85" y="-1632.3" font-family="Arial" font-size="14.00" fill="#1a1919">42 &lt;</text>
</g>
<!-- node45 -->
<g id="node11" class="node">
<title>node45</title>
<polygon fill="#e98693" stroke="black" points="421.85,-951 367.85,-951 367.85,-915 421.85,-915 421.85,-951"/>
<text text-anchor="middle" x="394.85" y="-929.3" font-family="Arial" font-size="14.00" fill="#1a1919">45 If</text>
</g>
<!-- node42&#45;&gt;node45 -->
<g id="edge18" class="edge">
<title>node42&#45;&gt;node45</title>
<path fill="none" stroke="#3cb4a4" d="M851.85,-1617.74C851.85,-1600.57 851.85,-1573.46 851.85,-1550 851.85,-1550 851.85,-1550 851.85,-1005 851.85,-962.65 541.47,-941.88 432.28,-935.89"/>
<polygon fill="#3cb4a4" stroke="#3cb4a4" points="432.24,-932.38 422.07,-935.34 431.86,-939.37 432.24,-932.38"/>
<text text-anchor="middle" x="855.85" y="-1284.3" font-family="arial" font-size="14.00" fill="#3cb4a4">?</text>
</g>
<!-- node68 -->
<g id="node18" class="node">
<title>node68</title>
<polygon fill="#e98693" stroke="black" points="289.85,-864 213.85,-864 213.85,-828 289.85,-828 289.85,-864"/>
<text text-anchor="middle" x="251.85" y="-842.3" font-family="Arial" font-size="14.00" fill="#1a1919">68 Return</text>
</g>
<!-- node45&#45;&gt;node68 -->
<g id="edge69" class="edge">
<title>node45&#45;&gt;node68</title>
<path fill="none" stroke="#da2d4f" stroke-width="2" d="M367.61,-915.81C345.38,-902.6 313.74,-883.79 289.16,-869.18"/>
<polygon fill="#da2d4f" stroke="#da2d4f" stroke-width="2" points="290.83,-866.1 280.45,-864 287.26,-872.12 290.83,-866.1"/>
<text text-anchor="middle" x="337.35" y="-885.8" font-family="arial" font-size="14.00" fill="#da2d4f">T</text>
</g>
<!-- node150 -->
<g id="node38" class="node">
<title>node150</title>
<polygon fill="#c39bd3" stroke="black" points="481.85,-864 307.85,-864 307.85,-828 481.85,-828 481.85,-864"/>
<text text-anchor="middle" x="394.85" y="-842.3" font-family="Arial" font-size="14.00" fill="#1a1919">150 Read#ComplexNum.r</text>
</g>
<!-- node45&#45;&gt;node150 -->
<g id="edge68" class="edge">
<title>node45&#45;&gt;node150</title>
<path fill="none" stroke="#da2d4f" stroke-width="2" d="M394.85,-914.8C394.85,-903.16 394.85,-887.55 394.85,-874.24"/>
<polygon fill="#da2d4f" stroke="#da2d4f" stroke-width="2" points="398.35,-874.18 394.85,-864.18 391.35,-874.18 398.35,-874.18"/>
<text text-anchor="middle" x="399.35" y="-885.8" font-family="arial" font-size="14.00" fill="#da2d4f">F</text>
</g>
<!-- node47 -->
<g id="node12" class="node">
<title>node47</title>
<polygon fill="#3cb4a4" stroke="black" points="231.85,-1654 128.12,-1636 231.85,-1618 335.58,-1636 231.85,-1654"/>
<text text-anchor="middle" x="231.85" y="-1632.3" font-family="Arial" font-size="14.00" fill="#1a1919">47 FloatConvert</text>
</g>
<!-- node48 -->
<g id="node13" class="node">
<title>node48</title>
<polygon fill="#3cb4a4" stroke="black" points="35.85,-1567 0.15,-1549 35.85,-1531 71.54,-1549 35.85,-1567"/>
<text text-anchor="middle" x="35.85" y="-1545.3" font-family="Arial" font-size="14.00" fill="#1a1919">48 /</text>
</g>
<!-- node47&#45;&gt;node48 -->
<g id="edge20" class="edge">
<title>node47&#45;&gt;node48</title>
<path fill="none" stroke="#3cb4a4" d="M158.83,-1630.65C129.54,-1626.1 96.69,-1617.19 70.85,-1600 60.82,-1593.33 52.8,-1582.72 46.97,-1572.99"/>
<polygon fill="#3cb4a4" stroke="#3cb4a4" points="49.96,-1571.16 42.07,-1564.09 43.83,-1574.54 49.96,-1571.16"/>
<text text-anchor="middle" x="74.35" y="-1588.8" font-family="arial" font-size="14.00" fill="#3cb4a4">x</text>
</g>
<!-- node49 -->
<g id="node14" class="node">
<title>node49</title>
<polygon fill="#3cb4a4" stroke="black" points="287.85,-777 247.46,-759 287.85,-741 328.23,-759 287.85,-777"/>
<text text-anchor="middle" x="287.85" y="-755.3" font-family="Arial" font-size="14.00" fill="#1a1919">49 +</text>
</g>
<!-- node48&#45;&gt;node49 -->
<g id="edge22" class="edge">
<title>node48&#45;&gt;node49</title>
<path fill="none" stroke="#3cb4a4" d="M41.42,-1533.5C47.34,-1516.78 55.85,-1488.32 55.85,-1463 55.85,-1463 55.85,-1463 55.85,-845 55.85,-804.38 182.8,-777.35 248.88,-766.02"/>
<polygon fill="#3cb4a4" stroke="#3cb4a4" points="249.65,-769.44 258.93,-764.34 248.49,-762.54 249.65,-769.44"/>
<text text-anchor="middle" x="59.35" y="-1132.8" font-family="arial" font-size="14.00" fill="#3cb4a4">x</text>
</g>
<!-- node49&#45;&gt;node69 -->
<g id="edge30" class="edge">
<title>node49&#45;&gt;node69</title>
<path fill="none" stroke="#3cb4a4" d="M279.81,-744.38C270.92,-728.02 257.85,-699.45 257.85,-673 257.85,-673 257.85,-673 257.85,-511 257.85,-488.77 253.11,-482.91 256.85,-461 274.88,-355.13 289.93,-329.6 336.85,-233 344.44,-217.36 346.01,-212.74 357.85,-200 361.57,-195.99 365.8,-192.13 370.16,-188.52"/>
<polygon fill="#3cb4a4" stroke="#3cb4a4" points="372.36,-191.24 378.07,-182.32 368.04,-185.73 372.36,-191.24"/>
<text text-anchor="middle" x="276.85" y="-464.8" font-family="arial" font-size="14.00" fill="#3cb4a4">from 6</text>
</g>
<!-- node83 -->
<g id="node21" class="node">
<title>node83</title>
<polygon fill="#c39bd3" stroke="black" points="472.85,-690 306.85,-690 306.85,-654 472.85,-654 472.85,-690"/>
<text text-anchor="middle" x="389.85" y="-668.3" font-family="Arial" font-size="14.00" fill="#1a1919">83 Write#ComplexNum.r</text>
</g>
<!-- node49&#45;&gt;node83 -->
<g id="edge34" class="edge">
<title>node49&#45;&gt;node83</title>
<path fill="none" stroke="#3cb4a4" d="M300.21,-746.12C311.16,-735.76 327.71,-720.47 342.85,-708 347.58,-704.11 352.68,-700.11 357.72,-696.27"/>
<polygon fill="#3cb4a4" stroke="#3cb4a4" points="360.17,-698.81 366.07,-690 355.97,-693.21 360.17,-698.81"/>
<text text-anchor="middle" x="359.35" y="-711.8" font-family="arial" font-size="14.00" fill="#3cb4a4">value</text>
</g>
<!-- node52 -->
<g id="node15" class="node">
<title>node52</title>
<polygon fill="#3cb4a4" stroke="black" points="998.85,-1654 958.46,-1636 998.85,-1618 1039.23,-1636 998.85,-1654"/>
<text text-anchor="middle" x="998.85" y="-1632.3" font-family="Arial" font-size="14.00" fill="#1a1919">52 +</text>
</g>
<!-- node52&#45;&gt;node60 -->
<g id="edge27" class="edge">
<title>node52&#45;&gt;node60</title>
<path fill="none" stroke="#3cb4a4" d="M998.85,-1617.74C998.85,-1600.57 998.85,-1573.46 998.85,-1550 998.85,-1550 998.85,-1550 998.85,-598 998.85,-571.62 989.65,-561.28 966.85,-548 934.25,-529.02 665.22,-535.08 627.85,-530 614.81,-528.23 600.71,-525.39 588.19,-522.54"/>
<polygon fill="#3cb4a4" stroke="#3cb4a4" points="588.63,-519.05 578.09,-520.16 587.02,-525.86 588.63,-519.05"/>
<text text-anchor="middle" x="1018.85" y="-1045.8" font-family="arial" font-size="14.00" fill="#3cb4a4">from 6</text>
</g>
<!-- node60&#45;&gt;node19 -->
<g id="edge2" class="edge">
<title>node60&#45;&gt;node19</title>
<path fill="none" stroke="#3cb4a4" d="M523.72,-498.5C512.76,-492.64 500.46,-484.97 490.85,-476 482.44,-468.16 475.01,-457.88 469.25,-448.68"/>
<polygon fill="#3cb4a4" stroke="#3cb4a4" points="472.19,-446.78 464.08,-439.97 466.18,-450.35 472.19,-446.78"/>
<text text-anchor="middle" x="494.35" y="-464.8" font-family="arial" font-size="14.00" fill="#3cb4a4">x</text>
</g>
<!-- node60&#45;&gt;node26 -->
<g id="edge8" class="edge">
<title>node60&#45;&gt;node26</title>
<path fill="none" stroke="#3cb4a4" d="M565.85,-493.59C575.92,-482.86 590.02,-469.56 604.85,-461 622.49,-450.81 643.43,-443.26 662.46,-437.84"/>
<polygon fill="#3cb4a4" stroke="#3cb4a4" points="663.48,-441.19 672.21,-435.19 661.64,-434.43 663.48,-441.19"/>
<text text-anchor="middle" x="621.35" y="-464.8" font-family="arial" font-size="14.00" fill="#3cb4a4">value</text>
</g>
<!-- node60&#45;&gt;node34 -->
<g id="edge13" class="edge">
<title>node60&#45;&gt;node34</title>
<path fill="none" stroke="#3cb4a4" d="M553.78,-493.96C554.62,-488.27 555.43,-481.88 555.85,-476 556.37,-468.67 556.54,-460.72 556.55,-453.36"/>
<polygon fill="#3cb4a4" stroke="#3cb4a4" points="560.05,-453.11 556.45,-443.15 553.05,-453.18 560.05,-453.11"/>
<text text-anchor="middle" x="559.35" y="-464.8" font-family="arial" font-size="14.00" fill="#3cb4a4">x</text>
</g>
<!-- node69&#45;&gt;node29 -->
<g id="edge12" class="edge">
<title>node69&#45;&gt;node29</title>
<path fill="none" stroke="#3cb4a4" d="M432.11,-179.57C461.46,-195.27 507.86,-220.07 537.04,-235.67"/>
<polygon fill="#3cb4a4" stroke="#3cb4a4" points="535.75,-238.95 546.22,-240.58 539.06,-232.78 535.75,-238.95"/>
<text text-anchor="middle" x="497.35" y="-203.8" font-family="arial" font-size="14.00" fill="#3cb4a4">y</text>
</g>
<!-- node74 -->
<g id="node20" class="node">
<title>node74</title>
<polygon fill="#3cb4a4" stroke="black" points="416.85,-1654 353.5,-1636 416.85,-1618 480.19,-1636 416.85,-1654"/>
<text text-anchor="middle" x="416.85" y="-1632.3" font-family="Arial" font-size="14.00" fill="#1a1919">74 IsNull</text>
</g>
<!-- node132 -->
<g id="node30" class="node">
<title>node132</title>
<polygon fill="#e98693" stroke="black" points="484.85,-1567 430.85,-1567 430.85,-1531 484.85,-1531 484.85,-1567"/>
<text text-anchor="middle" x="457.85" y="-1545.3" font-family="Arial" font-size="14.00" fill="#1a1919">132 If</text>
</g>
<!-- node74&#45;&gt;node132 -->
<g id="edge50" class="edge">
<title>node74&#45;&gt;node132</title>
<path fill="none" stroke="#3cb4a4" d="M424.18,-1619.8C429.98,-1607.78 438.22,-1590.69 445.1,-1576.43"/>
<polygon fill="#3cb4a4" stroke="#3cb4a4" points="448.4,-1577.64 449.59,-1567.11 442.1,-1574.6 448.4,-1577.64"/>
<text text-anchor="middle" x="442.85" y="-1588.8" font-family="arial" font-size="14.00" fill="#3cb4a4">?</text>
</g>
<!-- node148 -->
<g id="node36" class="node">
<title>node148</title>
<polygon fill="#e98693" stroke="black" points="424.85,-1252 370.85,-1252 370.85,-1216 424.85,-1216 424.85,-1252"/>
<text text-anchor="middle" x="397.85" y="-1230.3" font-family="Arial" font-size="14.00" fill="#1a1919">148 If</text>
</g>
<!-- node74&#45;&gt;node148 -->
<g id="edge58" class="edge">
<title>node74&#45;&gt;node148</title>
<path fill="none" stroke="#3cb4a4" d="M383.75,-1627.38C329.32,-1613.89 226.85,-1583.97 226.85,-1550 226.85,-1550 226.85,-1550 226.85,-1330.5 226.85,-1269.71 310.25,-1247.25 360.56,-1239.23"/>
<polygon fill="#3cb4a4" stroke="#3cb4a4" points="361.37,-1242.65 370.75,-1237.73 360.35,-1235.73 361.37,-1242.65"/>
<text text-anchor="middle" x="230.85" y="-1458.3" font-family="arial" font-size="14.00" fill="#3cb4a4">?</text>
</g>
<!-- node83&#45;&gt;node7 -->
<g id="edge66" class="edge">
<title>node83&#45;&gt;node7</title>
<path fill="none" stroke="#da2d4f" stroke-width="2" d="M389.61,-653.81C389.49,-645.79 389.35,-636.05 389.23,-627.07"/>
<polygon fill="#da2d4f" stroke="#da2d4f" stroke-width="2" points="392.73,-626.98 389.09,-617.03 385.73,-627.08 392.73,-626.98"/>
</g>
<!-- node87 -->
<g id="node23" class="node">
<title>node87</title>
<polygon fill="#f9f9f9" stroke="black" points="808.85,-109 716.85,-109 716.85,-73 808.85,-73 808.85,-109"/>
<text text-anchor="middle" x="762.85" y="-87.3" font-family="Arial" font-size="14.00" fill="#1a1919">87 Safepoint</text>
</g>
<!-- node84&#45;&gt;node87 -->
<g id="edge37" class="edge">
<title>node84&#45;&gt;node87</title>
<path fill="none" stroke="#da2d4f" stroke-width="2" d="M742.38,-145.81C745.5,-137.62 749.3,-127.62 752.78,-118.48"/>
<polygon fill="#da2d4f" stroke="#da2d4f" stroke-width="2" points="756.09,-119.62 756.37,-109.03 749.55,-117.13 756.09,-119.62"/>
</g>
<!-- node87&#45;&gt;node35 -->
<g id="edge38" class="edge">
<title>node87&#45;&gt;node35</title>
<path fill="none" stroke="#da2d4f" stroke-width="2" d="M803.33,-72.99C826.88,-63.1 856.76,-50.54 881.78,-40.03"/>
<polygon fill="#da2d4f" stroke="#da2d4f" stroke-width="2" points="883.25,-43.21 891.11,-36.11 880.54,-36.76 883.25,-43.21"/>
</g>
<!-- node96 -->
<g id="node24" class="node">
<title>node96</title>
<polygon fill="#e98693" stroke="black" points="586.85,-1936 522.85,-1936 522.85,-1900 586.85,-1900 586.85,-1936"/>
<text text-anchor="middle" x="554.85" y="-1914.3" font-family="Arial" font-size="14.00" fill="#1a1919">96 Start</text>
</g>
<!-- node100 -->
<g id="node26" class="node">
<title>node100</title>
<polygon fill="#c39bd3" stroke="black" points="615.85,-1849 427.85,-1849 427.85,-1813 615.85,-1813 615.85,-1849"/>
<text text-anchor="middle" x="521.85" y="-1827.3" font-family="Arial" font-size="14.00" fill="#1a1919">100 Read#ANY_LOCATION</text>
</g>
<!-- node96&#45;&gt;node100 -->
<g id="edge39" class="edge">
<title>node96&#45;&gt;node100</title>
<path fill="none" stroke="#da2d4f" stroke-width="2" d="M548.17,-1899.8C543.61,-1888.05 537.47,-1872.24 532.27,-1858.84"/>
<polygon fill="#da2d4f" stroke="#da2d4f" stroke-width="2" points="535.4,-1857.23 528.52,-1849.18 528.87,-1859.76 535.4,-1857.23"/>
</g>
<!-- node98 -->
<g id="node25" class="node">
<title>node98</title>
<polygon fill="#f9f9f9" stroke="black" points="793.35,-1654 498.35,-1654 498.35,-1618 793.35,-1618 793.35,-1654"/>
<text text-anchor="middle" x="645.85" y="-1632.3" font-family="Arial" font-size="14.00" fill="#1a1919">98 ForeignCall#OSR_migration_end(long)void</text>
</g>
<!-- node98&#45;&gt;node132 -->
<g id="edge41" class="edge">
<title>node98&#45;&gt;node132</title>
<path fill="none" stroke="#da2d4f" stroke-width="2" d="M607.8,-1617.8C574.6,-1602.79 526.75,-1581.15 494.09,-1566.39"/>
<polygon fill="#da2d4f" stroke="#da2d4f" stroke-width="2" points="495.45,-1563.16 484.9,-1562.23 492.57,-1569.54 495.45,-1563.16"/>
</g>
<!-- node100&#45;&gt;node74 -->
<g id="edge32" class="edge">
<title>node100&#45;&gt;node74</title>
<path fill="none" stroke="#3cb4a4" d="M512.53,-1812.87C493.79,-1778.43 451.5,-1700.7 429.97,-1661.13"/>
<polygon fill="#3cb4a4" stroke="#3cb4a4" points="432.83,-1659.05 424.97,-1651.94 426.68,-1662.39 432.83,-1659.05"/>
<text text-anchor="middle" x="499.35" y="-1740.3" font-family="arial" font-size="14.00" fill="#3cb4a4">value</text>
</g>
<!-- node103 -->
<g id="node27" class="node">
<title>node103</title>
<polygon fill="#c39bd3" stroke="black" points="811.85,-1762 623.85,-1762 623.85,-1726 811.85,-1726 811.85,-1762"/>
<text text-anchor="middle" x="717.85" y="-1740.3" font-family="Arial" font-size="14.00" fill="#1a1919">103 Read#ANY_LOCATION</text>
</g>
<!-- node100&#45;&gt;node103 -->
<g id="edge43" class="edge">
<title>node100&#45;&gt;node103</title>
<path fill="none" stroke="#da2d4f" stroke-width="2" d="M561.51,-1812.8C592.56,-1799.33 635.9,-1780.54 669.07,-1766.15"/>
<polygon fill="#da2d4f" stroke="#da2d4f" stroke-width="2" points="670.8,-1769.22 678.58,-1762.03 668.01,-1762.8 670.8,-1769.22"/>
</g>
<!-- node151 -->
<g id="node39" class="node">
<title>node151</title>
<polygon fill="#f9f9f9" stroke="black" points="854.35,-951 717.35,-951 717.35,-915 854.35,-915 854.35,-951"/>
<text text-anchor="middle" x="785.85" y="-929.3" font-family="Arial" font-size="14.00" fill="#1a1919">151 AMD64Address</text>
</g>
<!-- node100&#45;&gt;node151 -->
<g id="edge62" class="edge">
<title>node100&#45;&gt;node151</title>
<path fill="none" stroke="#3cb4a4" d="M615.92,-1828.43C733.6,-1823.87 919.85,-1806.87 919.85,-1745 919.85,-1745 919.85,-1745 919.85,-1005 919.85,-975.07 893.42,-957.72 864.03,-947.68"/>
<polygon fill="#3cb4a4" stroke="#3cb4a4" points="865.01,-944.32 854.42,-944.67 862.92,-951 865.01,-944.32"/>
<text text-anchor="middle" x="934.85" y="-1371.3" font-family="arial" font-size="14.00" fill="#3cb4a4">base</text>
</g>
<!-- node154 -->
<g id="node42" class="node">
<title>node154</title>
<polygon fill="#f9f9f9" stroke="black" points="279.35,-1708 142.35,-1708 142.35,-1672 279.35,-1672 279.35,-1708"/>
<text text-anchor="middle" x="210.85" y="-1686.3" font-family="Arial" font-size="14.00" fill="#1a1919">154 AMD64Address</text>
</g>
<!-- node100&#45;&gt;node154 -->
<g id="edge65" class="edge">
<title>node100&#45;&gt;node154</title>
<path fill="none" stroke="#3cb4a4" d="M461.81,-1812.92C445.41,-1807.71 427.77,-1801.6 411.85,-1795 353.25,-1770.72 288.63,-1735.71 248.88,-1713.15"/>
<polygon fill="#3cb4a4" stroke="#3cb4a4" points="250.48,-1710.04 240.06,-1708.12 247.01,-1716.12 250.48,-1710.04"/>
<text text-anchor="middle" x="426.85" y="-1783.8" font-family="arial" font-size="14.00" fill="#3cb4a4">base</text>
</g>
<!-- node103&#45;&gt;node42 -->
<g id="edge16" class="edge">
<title>node103&#45;&gt;node42</title>
<path fill="none" stroke="#3cb4a4" d="M739.38,-1725.97C764.13,-1706.39 804.55,-1674.41 829.6,-1654.6"/>
<polygon fill="#3cb4a4" stroke="#3cb4a4" points="832.1,-1657.08 837.77,-1648.14 827.76,-1651.59 832.1,-1657.08"/>
<text text-anchor="middle" x="807.35" y="-1686.3" font-family="arial" font-size="14.00" fill="#3cb4a4">x</text>
</g>
<!-- node103&#45;&gt;node47 -->
<g id="edge19" class="edge">
<title>node103&#45;&gt;node47</title>
<path fill="none" stroke="#3cb4a4" d="M664.3,-1725.89C653.6,-1721.09 642.89,-1715.16 633.85,-1708 618.38,-1695.74 625.1,-1681.58 607.85,-1672 556.63,-1643.56 403.08,-1660.36 344.85,-1654 327.7,-1652.13 309.16,-1649.56 292.16,-1647"/>
<polygon fill="#3cb4a4" stroke="#3cb4a4" points="292.21,-1643.46 281.8,-1645.4 291.15,-1650.38 292.21,-1643.46"/>
<text text-anchor="middle" x="650.35" y="-1686.3" font-family="arial" font-size="14.00" fill="#3cb4a4">value</text>
</g>
<!-- node103&#45;&gt;node52 -->
<g id="edge24" class="edge">
<title>node103&#45;&gt;node52</title>
<path fill="none" stroke="#3cb4a4" d="M803.62,-1725.97C823.35,-1721.04 844.06,-1715.05 862.85,-1708 903.45,-1692.77 947.41,-1668.19 974.04,-1652.32"/>
<polygon fill="#3cb4a4" stroke="#3cb4a4" points="975.94,-1655.26 982.7,-1647.1 972.33,-1649.26 975.94,-1655.26"/>
<text text-anchor="middle" x="941.35" y="-1686.3" font-family="arial" font-size="14.00" fill="#3cb4a4">x</text>
</g>
<!-- node103&#45;&gt;node98 -->
<g id="edge45" class="edge">
<title>node103&#45;&gt;node98</title>
<path fill="none" stroke="#da2d4f" stroke-width="2" d="M706.28,-1725.97C694.7,-1708.92 676.73,-1682.46 663.39,-1662.82"/>
<polygon fill="#da2d4f" stroke="#da2d4f" stroke-width="2" points="666.14,-1660.65 657.63,-1654.34 660.35,-1664.58 666.14,-1660.65"/>
</g>
<!-- node109 -->
<g id="node28" class="node">
<title>node109</title>
<polygon fill="#3cb4a4" stroke="black" points="521.85,-1198 467.39,-1180 521.85,-1162 576.31,-1180 521.85,-1198"/>
<text text-anchor="middle" x="521.85" y="-1176.3" font-family="Arial" font-size="14.00" fill="#1a1919">109 ==</text>
</g>
<!-- node146 -->
<g id="node35" class="node">
<title>node146</title>
<polygon fill="#e98693" stroke="black" points="476.85,-1111 422.85,-1111 422.85,-1075 476.85,-1075 476.85,-1111"/>
<text text-anchor="middle" x="449.85" y="-1089.3" font-family="Arial" font-size="14.00" fill="#1a1919">146 If</text>
</g>
<!-- node109&#45;&gt;node146 -->
<g id="edge57" class="edge">
<title>node109&#45;&gt;node146</title>
<path fill="none" stroke="#3cb4a4" d="M510.28,-1165.34C499.75,-1152.91 483.93,-1134.24 471.12,-1119.12"/>
<polygon fill="#3cb4a4" stroke="#3cb4a4" points="473.5,-1116.51 464.37,-1111.15 468.16,-1121.04 473.5,-1116.51"/>
<text text-anchor="middle" x="493.85" y="-1132.8" font-family="arial" font-size="14.00" fill="#3cb4a4">?</text>
</g>
<!-- node125 -->
<g id="node29" class="node">
<title>node125</title>
<polygon fill="#f9f9f9" stroke="black" points="617.85,-1024 453.85,-1024 453.85,-988 617.85,-988 617.85,-1024"/>
<text text-anchor="middle" x="535.85" y="-1002.3" font-family="Arial" font-size="14.00" fill="#1a1919">125 DynamicDeoptimize</text>
</g>
<!-- node133 -->
<g id="node31" class="node">
<title>node133</title>
<polygon fill="#e98693" stroke="black" points="488.85,-1393 406.85,-1393 406.85,-1357 488.85,-1357 488.85,-1393"/>
<text text-anchor="middle" x="447.85" y="-1371.3" font-family="Arial" font-size="14.00" fill="#1a1919">133 Merge</text>
</g>
<!-- node132&#45;&gt;node133 -->
<g id="edge72" class="edge">
<title>node132&#45;&gt;node133</title>
<path fill="none" stroke="#da2d4f" stroke-width="2" d="M464.42,-1530.65C471.39,-1509.96 480.66,-1474.37 474.85,-1444 472.12,-1429.73 466.43,-1414.63 460.98,-1402.29"/>
<polygon fill="#da2d4f" stroke="#da2d4f" stroke-width="2" points="464.09,-1400.68 456.72,-1393.06 457.74,-1403.61 464.09,-1400.68"/>
<text text-anchor="middle" x="480.35" y="-1458.3" font-family="arial" font-size="14.00" fill="#da2d4f">T</text>
</g>
<!-- node149 -->
<g id="node37" class="node">
<title>node149</title>
<polygon fill="#c39bd3" stroke="black" points="466.35,-1480 253.35,-1480 253.35,-1444 466.35,-1444 466.35,-1480"/>
<text text-anchor="middle" x="359.85" y="-1458.3" font-family="Arial" font-size="14.00" fill="#1a1919">149 Read#CompressedHub:final</text>
</g>
<!-- node132&#45;&gt;node149 -->
<g id="edge73" class="edge">
<title>node132&#45;&gt;node149</title>
<path fill="none" stroke="#da2d4f" stroke-width="2" d="M438.02,-1530.8C423.4,-1518.13 403.35,-1500.73 387.22,-1486.74"/>
<polygon fill="#da2d4f" stroke="#da2d4f" stroke-width="2" points="389.5,-1484.08 379.65,-1480.18 384.91,-1489.37 389.5,-1484.08"/>
<text text-anchor="middle" x="419.35" y="-1501.8" font-family="arial" font-size="14.00" fill="#da2d4f">F</text>
</g>
<!-- node140 -->
<g id="node33" class="node">
<title>node140</title>
<polygon fill="#f9f9f9" stroke="black" points="480.85,-1306 426.85,-1306 426.85,-1270 480.85,-1270 480.85,-1306"/>
<text text-anchor="middle" x="453.85" y="-1284.3" font-family="Arial" font-size="14.00" fill="#1a1919">140 ϕ</text>
</g>
<!-- node133&#45;&gt;node140 -->
<g id="edge53" class="edge">
<title>node133&#45;&gt;node140</title>
<path fill="none" stroke="#343d46" stroke-dasharray="5,2" d="M449.77,-1346.73C450.71,-1333.42 451.81,-1317.81 452.63,-1306.18"/>
<polygon fill="#343d46" stroke="#343d46" points="446.27,-1346.58 449.06,-1356.8 453.26,-1347.07 446.27,-1346.58"/>
</g>
<!-- node133&#45;&gt;node148 -->
<g id="edge51" class="edge">
<title>node133&#45;&gt;node148</title>
<path fill="none" stroke="#da2d4f" stroke-width="2" d="M439.52,-1356.94C433.08,-1343.35 424.22,-1323.73 417.85,-1306 412.72,-1291.74 408.06,-1275.48 404.53,-1262.13"/>
<polygon fill="#da2d4f" stroke="#da2d4f" stroke-width="2" points="407.84,-1260.95 401.95,-1252.14 401.06,-1262.7 407.84,-1260.95"/>
</g>
<!-- node139 -->
<g id="node32" class="node">
<title>node139</title>
<polygon fill="#f9f9f9" stroke="black" points="388.35,-1393 269.35,-1393 269.35,-1357 388.35,-1357 388.35,-1393"/>
<text text-anchor="middle" x="328.85" y="-1371.3" font-family="Arial" font-size="14.00" fill="#1a1919">139 Uncompress</text>
</g>
<!-- node139&#45;&gt;node140 -->
<g id="edge55" class="edge">
<title>node139&#45;&gt;node140</title>
<path fill="none" stroke="#3cb4a4" d="M348.29,-1356.89C360.18,-1346.78 375.94,-1334.04 390.85,-1324 399.24,-1318.34 408.62,-1312.77 417.53,-1307.79"/>
<polygon fill="#3cb4a4" stroke="#3cb4a4" points="419.48,-1310.7 426.57,-1302.83 416.12,-1304.56 419.48,-1310.7"/>
<text text-anchor="middle" x="418.35" y="-1327.8" font-family="arial" font-size="14.00" fill="#3cb4a4">from 129</text>
</g>
<!-- node140&#45;&gt;node109 -->
<g id="edge46" class="edge">
<title>node140&#45;&gt;node109</title>
<path fill="none" stroke="#3cb4a4" d="M464.77,-1269.97C476.3,-1252 494.52,-1223.6 507.27,-1203.73"/>
<polygon fill="#3cb4a4" stroke="#3cb4a4" points="510.24,-1205.58 512.69,-1195.27 504.35,-1201.8 510.24,-1205.58"/>
<text text-anchor="middle" x="501.35" y="-1230.3" font-family="arial" font-size="14.00" fill="#3cb4a4">x</text>
</g>
<!-- node141 -->
<g id="node34" class="node">
<title>node141</title>
<polygon fill="#e98693" stroke="black" points="435.85,-1024 353.85,-1024 353.85,-988 435.85,-988 435.85,-1024"/>
<text text-anchor="middle" x="394.85" y="-1002.3" font-family="Arial" font-size="14.00" fill="#1a1919">141 Merge</text>
</g>
<!-- node141&#45;&gt;node45 -->
<g id="edge56" class="edge">
<title>node141&#45;&gt;node45</title>
<path fill="none" stroke="#da2d4f" stroke-width="2" d="M394.85,-987.81C394.85,-979.79 394.85,-970.05 394.85,-961.07"/>
<polygon fill="#da2d4f" stroke="#da2d4f" stroke-width="2" points="398.35,-961.03 394.85,-951.03 391.35,-961.03 398.35,-961.03"/>
</g>
<!-- node146&#45;&gt;node125 -->
<g id="edge70" class="edge">
<title>node146&#45;&gt;node125</title>
<path fill="none" stroke="#da2d4f" stroke-width="2" d="M467.25,-1074.8C479.84,-1062.36 497.03,-1045.36 511.05,-1031.5"/>
<polygon fill="#da2d4f" stroke="#da2d4f" stroke-width="2" points="513.82,-1033.69 518.47,-1024.18 508.9,-1028.72 513.82,-1033.69"/>
<text text-anchor="middle" x="502.35" y="-1045.8" font-family="arial" font-size="14.00" fill="#da2d4f">F</text>
</g>
<!-- node146&#45;&gt;node141 -->
<g id="edge75" class="edge">
<title>node146&#45;&gt;node141</title>
<path fill="none" stroke="#da2d4f" stroke-width="2" d="M438.72,-1074.8C430.89,-1062.7 420.28,-1046.3 411.45,-1032.67"/>
<polygon fill="#da2d4f" stroke="#da2d4f" stroke-width="2" points="414.33,-1030.67 405.96,-1024.18 408.45,-1034.47 414.33,-1030.67"/>
<text text-anchor="middle" x="429.35" y="-1045.8" font-family="arial" font-size="14.00" fill="#da2d4f">T</text>
</g>
<!-- node148&#45;&gt;node141 -->
<g id="edge74" class="edge">
<title>node148&#45;&gt;node141</title>
<path fill="none" stroke="#da2d4f" stroke-width="2" d="M397.62,-1215.64C397.1,-1176.52 395.83,-1081.21 395.21,-1034.17"/>
<polygon fill="#da2d4f" stroke="#da2d4f" stroke-width="2" points="398.71,-1034.06 395.07,-1024.11 391.71,-1034.15 398.71,-1034.06"/>
<text text-anchor="middle" x="401.35" y="-1132.8" font-family="arial" font-size="14.00" fill="#da2d4f">T</text>
</g>
<!-- node148&#45;&gt;node146 -->
<g id="edge76" class="edge">
<title>node148&#45;&gt;node146</title>
<path fill="none" stroke="#da2d4f" stroke-width="2" d="M404.22,-1215.96C413.11,-1192.2 429.32,-1148.88 439.83,-1120.78"/>
<polygon fill="#da2d4f" stroke="#da2d4f" stroke-width="2" points="443.19,-1121.78 443.42,-1111.18 436.64,-1119.32 443.19,-1121.78"/>
<text text-anchor="middle" x="428.35" y="-1176.3" font-family="arial" font-size="14.00" fill="#da2d4f">F</text>
</g>
<!-- node149&#45;&gt;node133 -->
<g id="edge71" class="edge">
<title>node149&#45;&gt;node133</title>
<path fill="none" stroke="#da2d4f" stroke-width="2" d="M377.66,-1443.8C390.54,-1431.36 408.13,-1414.36 422.48,-1400.5"/>
<polygon fill="#da2d4f" stroke="#da2d4f" stroke-width="2" points="425.3,-1402.64 430.07,-1393.18 420.44,-1397.61 425.3,-1402.64"/>
</g>
<!-- node149&#45;&gt;node139 -->
<g id="edge52" class="edge">
<title>node149&#45;&gt;node139</title>
<path fill="none" stroke="#3cb4a4" d="M353.57,-1443.8C349.29,-1432.05 343.52,-1416.24 338.64,-1402.84"/>
<polygon fill="#3cb4a4" stroke="#3cb4a4" points="341.83,-1401.37 335.11,-1393.18 335.25,-1403.77 341.83,-1401.37"/>
<text text-anchor="middle" x="363.35" y="-1414.8" font-family="arial" font-size="14.00" fill="#3cb4a4">value</text>
</g>
<!-- node150&#45;&gt;node49 -->
<g id="edge23" class="edge">
<title>node150&#45;&gt;node49</title>
<path fill="none" stroke="#3cb4a4" d="M373.19,-827.8C354.66,-813.08 328.11,-791.98 309.56,-777.25"/>
<polygon fill="#3cb4a4" stroke="#3cb4a4" points="311.66,-774.45 301.65,-770.97 307.31,-779.93 311.66,-774.45"/>
<text text-anchor="middle" x="351.35" y="-798.8" font-family="arial" font-size="14.00" fill="#3cb4a4">y</text>
</g>
<!-- node150&#45;&gt;node83 -->
<g id="edge61" class="edge">
<title>node150&#45;&gt;node83</title>
<path fill="none" stroke="#da2d4f" stroke-width="2" d="M394.35,-827.88C393.48,-798 391.68,-736.11 390.64,-700.27"/>
<polygon fill="#da2d4f" stroke="#da2d4f" stroke-width="2" points="394.13,-699.95 390.34,-690.05 387.13,-700.15 394.13,-699.95"/>
</g>
<!-- node151&#45;&gt;node83 -->
<g id="edge33" class="edge">
<title>node151&#45;&gt;node83</title>
<path fill="none" stroke="#3cb4a4" d="M759.56,-914.81C690.2,-869.44 502.25,-746.51 424.37,-695.58"/>
<polygon fill="#3cb4a4" stroke="#3cb4a4" points="426.15,-692.56 415.87,-690.02 422.32,-698.42 426.15,-692.56"/>
<text text-anchor="middle" x="621.35" y="-798.8" font-family="arial" font-size="14.00" fill="#3cb4a4">address</text>
</g>
<!-- node151&#45;&gt;node84 -->
<g id="edge35" class="edge">
<title>node151&#45;&gt;node84</title>
<path fill="none" stroke="#3cb4a4" d="M847.12,-914.86C878.36,-901.99 909.85,-880.67 909.85,-847 909.85,-847 909.85,-847 909.85,-598 909.85,-520.69 935.85,-503.31 935.85,-426 935.85,-426 935.85,-426 935.85,-250 935.85,-199.49 881.15,-178.57 828.97,-170.09"/>
<polygon fill="#3cb4a4" stroke="#3cb4a4" points="829.33,-166.61 818.93,-168.61 828.31,-173.53 829.33,-166.61"/>
<text text-anchor="middle" x="938.35" y="-551.8" font-family="arial" font-size="14.00" fill="#3cb4a4">address</text>
</g>
<!-- node151&#45;&gt;node150 -->
<g id="edge60" class="edge">
<title>node151&#45;&gt;node150</title>
<path fill="none" stroke="#3cb4a4" d="M717.16,-918.64C685.12,-912.29 646.49,-904.47 611.85,-897 566.98,-887.32 517.07,-875.87 476.43,-866.37"/>
<polygon fill="#3cb4a4" stroke="#3cb4a4" points="477.11,-862.93 466.57,-864.06 475.51,-869.75 477.11,-862.93"/>
<text text-anchor="middle" x="636.35" y="-885.8" font-family="arial" font-size="14.00" fill="#3cb4a4">address</text>
</g>
<!-- node152 -->
<g id="node40" class="node">
<title>node152</title>
<polygon fill="#f9f9f9" stroke="black" points="504.35,-1936 367.35,-1936 367.35,-1900 504.35,-1900 504.35,-1936"/>
<text text-anchor="middle" x="435.85" y="-1914.3" font-family="Arial" font-size="14.00" fill="#1a1919">152 AMD64Address</text>
</g>
<!-- node152&#45;&gt;node100 -->
<g id="edge42" class="edge">
<title>node152&#45;&gt;node100</title>
<path fill="none" stroke="#3cb4a4" d="M451.17,-1899.99C460.19,-1890.16 471.94,-1877.66 482.85,-1867 486.57,-1863.36 490.59,-1859.59 494.57,-1855.94"/>
<polygon fill="#3cb4a4" stroke="#3cb4a4" points="497.04,-1858.43 502.11,-1849.13 492.34,-1853.24 497.04,-1858.43"/>
<text text-anchor="middle" x="507.35" y="-1870.8" font-family="arial" font-size="14.00" fill="#3cb4a4">address</text>
</g>
<!-- node153 -->
<g id="node41" class="node">
<title>node153</title>
<polygon fill="#f9f9f9" stroke="black" points="1021.35,-1849 884.35,-1849 884.35,-1813 1021.35,-1813 1021.35,-1849"/>
<text text-anchor="middle" x="952.85" y="-1827.3" font-family="Arial" font-size="14.00" fill="#1a1919">153 AMD64Address</text>
</g>
<!-- node153&#45;&gt;node103 -->
<g id="edge44" class="edge">
<title>node153&#45;&gt;node103</title>
<path fill="none" stroke="#3cb4a4" d="M905.57,-1812.9C867.81,-1799.24 814.75,-1780.05 774.68,-1765.56"/>
<polygon fill="#3cb4a4" stroke="#3cb4a4" points="775.64,-1762.18 765.04,-1762.07 773.26,-1768.76 775.64,-1762.18"/>
<text text-anchor="middle" x="873.35" y="-1783.8" font-family="arial" font-size="14.00" fill="#3cb4a4">address</text>
</g>
<!-- node154&#45;&gt;node149 -->
<g id="edge59" class="edge">
<title>node154&#45;&gt;node149</title>
<path fill="none" stroke="#3cb4a4" d="M142.33,-1673.95C133.09,-1669.06 124.76,-1662.58 118.85,-1654 109.76,-1640.83 111.61,-1632.27 118.85,-1618 153.99,-1548.64 236.06,-1506.2 294.65,-1483.66"/>
<polygon fill="#3cb4a4" stroke="#3cb4a4" points="296.07,-1486.86 304.2,-1480.08 293.61,-1480.31 296.07,-1486.86"/>
<text text-anchor="middle" x="164.35" y="-1588.8" font-family="arial" font-size="14.00" fill="#3cb4a4">address</text>
</g>
<!-- inline18x19 -->
<g id="node43" class="node">
<title>inline18x19</title>
<ellipse fill="#d7ede7" stroke="black" cx="450.85" cy="-512" rx="27.59" ry="18"/>
<text text-anchor="middle" x="450.85" y="-510.1" font-family="Arial" font-size="8.00" fill="#1a1919">18 C(12)</text>
</g>
<!-- inline18x19&#45;&gt;node19 -->
<g id="edge3" class="edge">
<title>inline18x19&#45;&gt;node19</title>
<path fill="none" stroke="#3cb4a4" d="M452.06,-493.8C453.12,-478.86 454.63,-457.36 455.68,-442.6"/>
<text text-anchor="middle" x="455.85" y="-466.6" font-family="arial" font-size="8.00" fill="#3cb4a4">y</text>
</g>
<!-- inline27x28 -->
<g id="node44" class="node">
<title>inline27x28</title>
<ellipse fill="#d7ede7" stroke="black" cx="873.85" cy="-425" rx="34.07" ry="18"/>
<text text-anchor="middle" x="873.85" y="-423.1" font-family="Arial" font-size="8.00" fill="#1a1919">27 C(153.0)</text>
</g>
<!-- inline27x28&#45;&gt;node28 -->
<g id="edge10" class="edge">
<title>inline27x28&#45;&gt;node28</title>
<path fill="none" stroke="#3cb4a4" d="M850.83,-411.46C818.96,-394.09 762.18,-363.16 734.27,-347.95"/>
<text text-anchor="middle" x="806.85" y="-379.6" font-family="arial" font-size="8.00" fill="#3cb4a4">y</text>
</g>
<!-- inline33x34 -->
<g id="node45" class="node">
<title>inline33x34</title>
<ellipse fill="#d7ede7" stroke="black" cx="663.85" cy="-512" rx="27" ry="18"/>
<text text-anchor="middle" x="663.85" y="-510.1" font-family="Arial" font-size="8.00" fill="#1a1919">33 C(&#45;1)</text>
</g>
<!-- inline33x34&#45;&gt;node34 -->
<g id="edge14" class="edge">
<title>inline33x34&#45;&gt;node34</title>
<path fill="none" stroke="#3cb4a4" d="M659.83,-493.79C656.56,-483.14 650.96,-469.86 641.85,-461 636.96,-456.25 601.05,-442.52 577.2,-433.73"/>
<text text-anchor="middle" x="653.85" y="-466.6" font-family="arial" font-size="8.00" fill="#3cb4a4">y</text>
</g>
<!-- inline18x42 -->
<g id="node46" class="node">
<title>inline18x42</title>
<ellipse fill="#d7ede7" stroke="black" cx="857.85" cy="-1744" rx="27.59" ry="18"/>
<text text-anchor="middle" x="857.85" y="-1742.1" font-family="Arial" font-size="8.00" fill="#1a1919">18 C(12)</text>
</g>
<!-- inline18x42&#45;&gt;node42 -->
<g id="edge17" class="edge">
<title>inline18x42&#45;&gt;node42</title>
<path fill="none" stroke="#3cb4a4" d="M856.88,-1725.97C855.76,-1706.07 853.91,-1673.37 852.79,-1653.64"/>
<text text-anchor="middle" x="856.85" y="-1688.1" font-family="arial" font-size="8.00" fill="#3cb4a4">y</text>
</g>
<!-- inline27x48 -->
<g id="node47" class="node">
<title>inline27x48</title>
<ellipse fill="#d7ede7" stroke="black" cx="35.85" cy="-1636" rx="34.07" ry="18"/>
<text text-anchor="middle" x="35.85" y="-1634.1" font-family="Arial" font-size="8.00" fill="#1a1919">27 C(153.0)</text>
</g>
<!-- inline27x48&#45;&gt;node48 -->
<g id="edge21" class="edge">
<title>inline27x48&#45;&gt;node48</title>
<path fill="none" stroke="#3cb4a4" d="M35.85,-1617.8C35.85,-1603.05 35.85,-1581.92 35.85,-1567.18"/>
<text text-anchor="middle" x="37.85" y="-1590.6" font-family="arial" font-size="8.00" fill="#3cb4a4">y</text>
</g>
<!-- inline33x52 -->
<g id="node48" class="node">
<title>inline33x52</title>
<ellipse fill="#d7ede7" stroke="black" cx="998.85" cy="-1744" rx="27" ry="18"/>
<text text-anchor="middle" x="998.85" y="-1742.1" font-family="Arial" font-size="8.00" fill="#1a1919">33 C(&#45;1)</text>
</g>
<!-- inline33x52&#45;&gt;node52 -->
<g id="edge25" class="edge">
<title>inline33x52&#45;&gt;node52</title>
<path fill="none" stroke="#3cb4a4" d="M998.85,-1725.97C998.85,-1706.31 998.85,-1674.13 998.85,-1654.34"/>
<text text-anchor="middle" x="1000.85" y="-1688.1" font-family="arial" font-size="8.00" fill="#3cb4a4">y</text>
</g>
<!-- inline97x98 -->
<g id="node49" class="node">
<title>inline97x98</title>
<ellipse fill="#d7ede7" stroke="black" cx="578.85" cy="-1744" rx="27" ry="18"/>
<text text-anchor="middle" x="578.85" y="-1742.1" font-family="Arial" font-size="8.00" fill="#1a1919">97 P(0)</text>
</g>
<!-- inline97x98&#45;&gt;node98 -->
<g id="edge40" class="edge">
<title>inline97x98&#45;&gt;node98</title>
<path fill="none" stroke="#3cb4a4" d="M576.39,-1725.81C575.11,-1710.49 575.55,-1688.05 585.85,-1672 590.47,-1664.79 597.15,-1658.89 604.38,-1654.13"/>
<text text-anchor="middle" x="596.85" y="-1688.1" font-family="arial" font-size="8.00" fill="#3cb4a4">arg[0]</text>
</g>
<!-- inline106x109 -->
<g id="node50" class="node">
<title>inline106x109</title>
<ellipse fill="#d7ede7" stroke="black" cx="656.85" cy="-1288" rx="158.01" ry="18"/>
<text text-anchor="middle" x="656.85" y="-1286.1" font-family="Arial" font-size="8.00" fill="#1a1919">106 C(meta{HotSpotType&lt;Lorg/gammaraylab/ComplexNum;, resolved&gt;})</text>
</g>
<!-- inline106x109&#45;&gt;node109 -->
<g id="edge47" class="edge">
<title>inline106x109&#45;&gt;node109</title>
<path fill="none" stroke="#3cb4a4" d="M635.16,-1269.97C607.73,-1248.43 561.19,-1211.89 537.19,-1193.04"/>
<text text-anchor="middle" x="610.85" y="-1232.1" font-family="arial" font-size="8.00" fill="#3cb4a4">y</text>
</g>
<!-- inline121x125 -->
<g id="node51" class="node">
<title>inline121x125</title>
<ellipse fill="#d7ede7" stroke="black" cx="535.85" cy="-1093" rx="39.91" ry="18"/>
<text text-anchor="middle" x="535.85" y="-1091.1" font-family="Arial" font-size="8.00" fill="#1a1919">121 C(&#45;19516)</text>
</g>
<!-- inline121x125&#45;&gt;node125 -->
<g id="edge48" class="edge">
<title>inline121x125&#45;&gt;node125</title>
<path fill="none" stroke="#3cb4a4" d="M535.85,-1074.8C535.85,-1060.05 535.85,-1038.92 535.85,-1024.18"/>
<text text-anchor="middle" x="567.85" y="-1047.6" font-family="arial" font-size="8.00" fill="#3cb4a4">actionAndReason</text>
</g>
<!-- inline122x125 -->
<g id="node52" class="node">
<title>inline122x125</title>
<ellipse fill="#d7ede7" stroke="black" cx="623.85" cy="-1093" rx="30.13" ry="18"/>
<text text-anchor="middle" x="623.85" y="-1091.1" font-family="Arial" font-size="8.00" fill="#1a1919">122 C(20)</text>
</g>
<!-- inline122x125&#45;&gt;node125 -->
<g id="edge49" class="edge">
<title>inline122x125&#45;&gt;node125</title>
<path fill="none" stroke="#3cb4a4" d="M619.51,-1075.1C616.12,-1064.57 610.5,-1051.31 601.85,-1042 595.22,-1034.88 586.82,-1028.92 578.24,-1024.06"/>
<text text-anchor="middle" x="631.85" y="-1047.6" font-family="arial" font-size="8.00" fill="#3cb4a4">speculation</text>
</g>
<!-- inline134x140 -->
<g id="node53" class="node">
<title>inline134x140</title>
<ellipse fill="#d7ede7" stroke="black" cx="538.85" cy="-1375" rx="31.53" ry="18"/>
<text text-anchor="middle" x="538.85" y="-1373.1" font-family="Arial" font-size="8.00" fill="#1a1919">134 C(null)</text>
</g>
<!-- inline134x140&#45;&gt;node140 -->
<g id="edge54" class="edge">
<title>inline134x140&#45;&gt;node140</title>
<path fill="none" stroke="#3cb4a4" d="M523.65,-1358.8C508.85,-1344 486.38,-1321.53 470.96,-1306.11"/>
<text text-anchor="middle" x="517.35" y="-1329.6" font-family="arial" font-size="8.00" fill="#3cb4a4">from 128</text>
</g>
<!-- inline97x152 -->
<g id="node54" class="node">
<title>inline97x152</title>
<ellipse fill="#d7ede7" stroke="black" cx="435.85" cy="-1999" rx="27" ry="18"/>
<text text-anchor="middle" x="435.85" y="-1997.1" font-family="Arial" font-size="8.00" fill="#1a1919">97 P(0)</text>
</g>
<!-- inline97x152&#45;&gt;node152 -->
<g id="edge63" class="edge">
<title>inline97x152&#45;&gt;node152</title>
<path fill="none" stroke="#3cb4a4" d="M435.85,-1980.86C435.85,-1967.61 435.85,-1949.35 435.85,-1936.11"/>
<text text-anchor="middle" x="444.85" y="-1956.6" font-family="arial" font-size="8.00" fill="#3cb4a4">base</text>
</g>
<!-- inline97x153 -->
<g id="node55" class="node">
<title>inline97x153</title>
<ellipse fill="#d7ede7" stroke="black" cx="952.85" cy="-1918" rx="27" ry="18"/>
<text text-anchor="middle" x="952.85" y="-1916.1" font-family="Arial" font-size="8.00" fill="#1a1919">97 P(0)</text>
</g>
<!-- inline97x153&#45;&gt;node153 -->
<g id="edge64" class="edge">
<title>inline97x153&#45;&gt;node153</title>
<path fill="none" stroke="#3cb4a4" d="M952.85,-1899.8C952.85,-1885.05 952.85,-1863.92 952.85,-1849.18"/>
<text text-anchor="middle" x="961.85" y="-1872.6" font-family="arial" font-size="8.00" fill="#3cb4a4">base</text>
</g>
</g>
</svg>
