<?xml version="1.0" encoding="UTF-8" standalone="no"?>
<!DOCTYPE svg PUBLIC "-//W3C//DTD SVG 1.1//EN"
 "http://www.w3.org/Graphics/SVG/1.1/DTD/svg11.dtd">
<!-- Generated by graphviz version 2.43.0 (0)
 -->
<!-- Title: G Pages: 1 -->
<svg width="1163pt" height="1803pt"
 viewBox="0.00 0.00 1163.36 1803.00" xmlns="http://www.w3.org/2000/svg" xmlns:xlink="http://www.w3.org/1999/xlink">
<g id="graph0" class="graph" transform="scale(1 1) rotate(0) translate(4 1799)">
<title>G</title>
<polygon fill="white" stroke="transparent" points="-4,4 -4,-1799 1159.36,-1799 1159.36,4 -4,4"/>
<!-- node0 -->
<g id="node1" class="node">
<title>node0</title>
<polygon fill="#e98693" stroke="black" points="328.36,-1795 272.36,-1795 272.36,-1759 328.36,-1759 328.36,-1795"/>
<text text-anchor="middle" x="300.36" y="-1773.3" font-family="Arial" font-size="14.00" fill="#1a1919">0 Start</text>
</g>
<!-- node4 -->
<g id="node2" class="node">
<title>node4</title>
<polygon fill="#c39bd3" stroke="black" points="498.86,-1714 173.86,-1714 173.86,-1678 498.86,-1678 498.86,-1714"/>
<text text-anchor="middle" x="336.36" y="-1692.3" font-family="Arial" font-size="14.00" fill="#1a1919">4 LoadField OptimizedCallTarget.compilationProfile</text>
</g>
<!-- node0&#45;&gt;node4 -->
<g id="edge1" class="edge">
<title>node0&#45;&gt;node4</title>
<path fill="none" stroke="#da2d4f" stroke-width="2" d="M308.17,-1758.86C312.89,-1748.51 319,-1735.1 324.32,-1723.41"/>
<polygon fill="#da2d4f" stroke="#da2d4f" stroke-width="2" points="327.6,-1724.66 328.56,-1714.11 321.23,-1721.76 327.6,-1724.66"/>
</g>
<!-- node5 -->
<g id="node3" class="node">
<title>node5</title>
<polygon fill="#f9f9f9" stroke="black" points="396.36,-1627 276.36,-1627 276.36,-1591 396.36,-1591 396.36,-1627"/>
<text text-anchor="middle" x="336.36" y="-1605.3" font-family="Arial" font-size="14.00" fill="#1a1919">5 StateSplitProxy</text>
</g>
<!-- node4&#45;&gt;node5 -->
<g id="edge3" class="edge">
<title>node4&#45;&gt;node5</title>
<path fill="none" stroke="#da2d4f" stroke-width="2" d="M335.1,-1677.88C334.53,-1668.23 334.05,-1655.94 334.36,-1645 334.43,-1642.44 334.54,-1639.79 334.66,-1637.13"/>
<polygon fill="#da2d4f" stroke="#da2d4f" stroke-width="2" points="338.16,-1637.25 335.19,-1627.08 331.17,-1636.88 338.16,-1637.25"/>
</g>
<!-- node4&#45;&gt;node5 -->
<g id="edge4" class="edge">
<title>node4&#45;&gt;node5</title>
<path fill="none" stroke="#3cb4a4" d="M336.36,-1677.8C336.36,-1666.16 336.36,-1650.55 336.36,-1637.24"/>
<polygon fill="#3cb4a4" stroke="#3cb4a4" points="339.86,-1637.18 336.36,-1627.18 332.86,-1637.18 339.86,-1637.18"/>
<text text-anchor="middle" x="354.86" y="-1648.8" font-family="arial" font-size="14.00" fill="#3cb4a4">object</text>
</g>
<!-- node10 -->
<g id="node4" class="node">
<title>node10</title>
<polygon fill="#3cb4a4" stroke="black" points="293.36,-1540 230.02,-1522 293.36,-1504 356.7,-1522 293.36,-1540"/>
<text text-anchor="middle" x="293.36" y="-1518.3" font-family="Arial" font-size="14.00" fill="#1a1919">10 IsNull</text>
</g>
<!-- node5&#45;&gt;node10 -->
<g id="edge6" class="edge">
<title>node5&#45;&gt;node10</title>
<path fill="none" stroke="#3cb4a4" d="M327.66,-1590.8C321.28,-1578.19 312.53,-1560.9 305.47,-1546.94"/>
<polygon fill="#3cb4a4" stroke="#3cb4a4" points="308.54,-1545.25 300.9,-1537.9 302.29,-1548.41 308.54,-1545.25"/>
<text text-anchor="middle" x="334.86" y="-1561.8" font-family="arial" font-size="14.00" fill="#3cb4a4">value</text>
</g>
<!-- node13 -->
<g id="node5" class="node">
<title>node13</title>
<polygon fill="#e98693" stroke="black" points="411.36,-1453 357.36,-1453 357.36,-1417 411.36,-1417 411.36,-1453"/>
<text text-anchor="middle" x="384.36" y="-1431.3" font-family="Arial" font-size="14.00" fill="#1a1919">13 If</text>
</g>
<!-- node5&#45;&gt;node13 -->
<g id="edge5" class="edge">
<title>node5&#45;&gt;node13</title>
<path fill="none" stroke="#da2d4f" stroke-width="2" d="M346.55,-1590.9C349.63,-1585.31 352.86,-1579 355.36,-1573 370.57,-1536.6 378.15,-1491.3 381.66,-1463.01"/>
<polygon fill="#da2d4f" stroke="#da2d4f" stroke-width="2" points="385.14,-1463.39 382.82,-1453.05 378.19,-1462.58 385.14,-1463.39"/>
</g>
<!-- node14 -->
<g id="node6" class="node">
<title>node14</title>
<polygon fill="#f9f9f9" stroke="black" points="612.36,-1540 470.36,-1540 470.36,-1504 612.36,-1504 612.36,-1540"/>
<text text-anchor="middle" x="541.36" y="-1518.3" font-family="Arial" font-size="14.00" fill="#1a1919">14 MethodCallTarget</text>
</g>
<!-- node5&#45;&gt;node14 -->
<g id="edge8" class="edge">
<title>node5&#45;&gt;node14</title>
<path fill="none" stroke="#3cb4a4" d="M377.85,-1590.8C410.46,-1577.27 456.04,-1558.38 490.79,-1543.97"/>
<polygon fill="#3cb4a4" stroke="#3cb4a4" points="492.39,-1547.09 500.29,-1540.03 489.71,-1540.63 492.39,-1547.09"/>
<text text-anchor="middle" x="467.86" y="-1561.8" font-family="arial" font-size="14.00" fill="#3cb4a4">arg[0]</text>
</g>
<!-- node60 -->
<g id="node31" class="node">
<title>node60</title>
<polygon fill="#f9f9f9" stroke="black" points="380.36,-516 238.36,-516 238.36,-480 380.36,-480 380.36,-516"/>
<text text-anchor="middle" x="309.36" y="-494.3" font-family="Arial" font-size="14.00" fill="#1a1919">60 MethodCallTarget</text>
</g>
<!-- node5&#45;&gt;node60 -->
<g id="edge48" class="edge">
<title>node5&#45;&gt;node60</title>
<path fill="none" stroke="#3cb4a4" d="M276.18,-1608.28C213.5,-1605.02 124.36,-1588.83 124.36,-1523 124.36,-1523 124.36,-1523 124.36,-584 124.36,-558.6 182.68,-534.92 233.83,-519.05"/>
<polygon fill="#3cb4a4" stroke="#3cb4a4" points="235.06,-522.33 243.62,-516.08 233.03,-515.63 235.06,-522.33"/>
<text text-anchor="middle" x="141.86" y="-1045.8" font-family="arial" font-size="14.00" fill="#3cb4a4">arg[0]</text>
</g>
<!-- node10&#45;&gt;node13 -->
<g id="edge7" class="edge">
<title>node10&#45;&gt;node13</title>
<path fill="none" stroke="#3cb4a4" d="M307.58,-1507.72C321.07,-1495.12 341.67,-1475.88 358.13,-1460.5"/>
<polygon fill="#3cb4a4" stroke="#3cb4a4" points="360.92,-1462.69 365.84,-1453.3 356.14,-1457.57 360.92,-1462.69"/>
<text text-anchor="middle" x="347.36" y="-1474.8" font-family="arial" font-size="14.00" fill="#3cb4a4">?</text>
</g>
<!-- node59 -->
<g id="node30" class="node">
<title>node59</title>
<polygon fill="#e98693" stroke="black" points="139.36,-443 85.36,-443 85.36,-407 139.36,-407 139.36,-443"/>
<text text-anchor="middle" x="112.36" y="-421.3" font-family="Arial" font-size="14.00" fill="#1a1919">59 If</text>
</g>
<!-- node10&#45;&gt;node59 -->
<g id="edge47" class="edge">
<title>node10&#45;&gt;node59</title>
<path fill="none" stroke="#3cb4a4" d="M261.16,-1512.99C225.92,-1502.07 174.36,-1478.78 174.36,-1436 174.36,-1436 174.36,-1436 174.36,-1092 174.36,-914.39 162.58,-869.95 138.36,-694 127.39,-614.29 112.73,-596.12 105.36,-516 103.43,-494.96 105.47,-471.13 107.84,-453.28"/>
<polygon fill="#3cb4a4" stroke="#3cb4a4" points="111.32,-453.66 109.28,-443.27 104.39,-452.66 111.32,-453.66"/>
<text text-anchor="middle" x="176.36" y="-958.8" font-family="arial" font-size="14.00" fill="#3cb4a4">?</text>
</g>
<!-- node18 -->
<g id="node8" class="node">
<title>node18</title>
<polygon fill="#da2d4f" stroke="black" points="787.86,-1366 412.86,-1366 412.86,-1330 787.86,-1330 787.86,-1366"/>
<text text-anchor="middle" x="600.36" y="-1344.3" font-family="Arial" font-size="14.00" fill="#ffffff">18 Call OptimizedCompilationProfile.injectArgumentProfile !</text>
</g>
<!-- node13&#45;&gt;node18 -->
<g id="edge56" class="edge">
<title>node13&#45;&gt;node18</title>
<path fill="none" stroke="#da2d4f" stroke-width="2" d="M411.72,-1423.23C445.7,-1409.86 504.43,-1386.75 547.36,-1369.86"/>
<polygon fill="#da2d4f" stroke="#da2d4f" stroke-width="2" points="548.78,-1373.06 556.81,-1366.14 546.22,-1366.54 548.78,-1373.06"/>
<text text-anchor="middle" x="508.86" y="-1387.8" font-family="arial" font-size="14.00" fill="#da2d4f">F</text>
</g>
<!-- node22 -->
<g id="node10" class="node">
<title>node22</title>
<polygon fill="#e98693" stroke="black" points="594.36,-1192 520.36,-1192 520.36,-1156 594.36,-1156 594.36,-1192"/>
<text text-anchor="middle" x="557.36" y="-1170.3" font-family="Arial" font-size="14.00" fill="#1a1919">22 Merge</text>
</g>
<!-- node13&#45;&gt;node22 -->
<g id="edge57" class="edge">
<title>node13&#45;&gt;node22</title>
<path fill="none" stroke="#da2d4f" stroke-width="2" d="M384.84,-1416.89C386.05,-1395.51 390.22,-1358.29 404.36,-1330 432.38,-1273.96 488.24,-1225.52 524.15,-1198.33"/>
<polygon fill="#da2d4f" stroke="#da2d4f" stroke-width="2" points="526.44,-1200.98 532.38,-1192.2 522.27,-1195.36 526.44,-1200.98"/>
<text text-anchor="middle" x="427.86" y="-1300.8" font-family="arial" font-size="14.00" fill="#da2d4f">T</text>
</g>
<!-- node14&#45;&gt;node18 -->
<g id="edge10" class="edge">
<title>node14&#45;&gt;node18</title>
<path fill="none" stroke="#343d46" stroke-dasharray="5,2" d="M550.59,-1494.11C562.87,-1458.3 584.24,-1396.01 594.51,-1366.05"/>
<polygon fill="#343d46" stroke="#343d46" points="547.17,-1493.28 547.23,-1503.88 553.79,-1495.56 547.17,-1493.28"/>
</g>
<!-- node15 -->
<g id="node7" class="node">
<title>node15</title>
<polygon fill="#f9f9f9" stroke="black" points="1155.36,-269 1021.36,-269 1021.36,-233 1155.36,-233 1155.36,-269"/>
<text text-anchor="middle" x="1088.36" y="-247.3" font-family="Arial" font-size="14.00" fill="#1a1919">15 ExceptionObject</text>
</g>
<!-- node30 -->
<g id="node14" class="node">
<title>node30</title>
<polygon fill="#e98693" stroke="black" points="658.36,-196 584.36,-196 584.36,-160 658.36,-160 658.36,-196"/>
<text text-anchor="middle" x="621.36" y="-174.3" font-family="Arial" font-size="14.00" fill="#1a1919">30 Merge</text>
</g>
<!-- node15&#45;&gt;node30 -->
<g id="edge59" class="edge">
<title>node15&#45;&gt;node30</title>
<path fill="none" stroke="#da2d4f" stroke-width="2" d="M1021.3,-234.57C1018.29,-234.01 1015.3,-233.49 1012.36,-233 862.4,-208.15 820.86,-228.44 672.36,-196 671.08,-195.72 669.78,-195.42 668.48,-195.1"/>
<polygon fill="#da2d4f" stroke="#da2d4f" stroke-width="2" points="669,-191.61 658.43,-192.37 667.16,-198.37 669,-191.61"/>
</g>
<!-- node32 -->
<g id="node15" class="node">
<title>node32</title>
<polygon fill="#f9f9f9" stroke="black" points="696.36,-123 642.36,-123 642.36,-87 696.36,-87 696.36,-123"/>
<text text-anchor="middle" x="669.36" y="-101.3" font-family="Arial" font-size="14.00" fill="#1a1919">32 ϕ</text>
</g>
<!-- node15&#45;&gt;node32 -->
<g id="edge20" class="edge">
<title>node15&#45;&gt;node32</title>
<path fill="none" stroke="#3cb4a4" d="M1060.05,-232.9C1025.73,-212.84 965.61,-179.81 910.36,-160 840.42,-134.92 754.74,-119.05 706.68,-111.42"/>
<polygon fill="#3cb4a4" stroke="#3cb4a4" points="707.14,-107.95 696.73,-109.87 706.07,-114.86 707.14,-107.95"/>
<text text-anchor="middle" x="1013.86" y="-174.3" font-family="arial" font-size="14.00" fill="#3cb4a4">from 29</text>
</g>
<!-- node18&#45;&gt;node15 -->
<g id="edge12" class="edge">
<title>node18&#45;&gt;node15</title>
<path fill="none" stroke="#da2d4f" stroke-width="2" d="M788.11,-1338.24C887.15,-1328.29 988.36,-1307.08 988.36,-1262 988.36,-1262 988.36,-1262 988.36,-337 988.36,-308.69 1011.91,-287.84 1036.16,-273.87"/>
<polygon fill="#da2d4f" stroke="#da2d4f" stroke-width="2" points="1037.96,-276.88 1045.08,-269.04 1034.62,-270.73 1037.96,-276.88"/>
<text text-anchor="middle" x="1009.86" y="-784.8" font-family="arial" font-size="14.00" fill="#da2d4f">unwind</text>
</g>
<!-- node20 -->
<g id="node9" class="node">
<title>node20</title>
<polygon fill="#e98693" stroke="black" points="598.36,-1279 492.36,-1279 492.36,-1243 598.36,-1243 598.36,-1279"/>
<text text-anchor="middle" x="545.36" y="-1257.3" font-family="Arial" font-size="14.00" fill="#1a1919">20 KillingBegin</text>
</g>
<!-- node18&#45;&gt;node20 -->
<g id="edge11" class="edge">
<title>node18&#45;&gt;node20</title>
<path fill="none" stroke="#da2d4f" stroke-width="2" d="M589.23,-1329.8C581.4,-1317.7 570.79,-1301.3 561.97,-1287.67"/>
<polygon fill="#da2d4f" stroke="#da2d4f" stroke-width="2" points="564.85,-1285.67 556.47,-1279.18 558.97,-1289.47 564.85,-1285.67"/>
</g>
<!-- node24 -->
<g id="node11" class="node">
<title>node24</title>
<polygon fill="#f9f9f9" stroke="black" points="584.36,-1111 530.36,-1111 530.36,-1075 584.36,-1075 584.36,-1111"/>
<text text-anchor="middle" x="557.36" y="-1089.3" font-family="Arial" font-size="14.00" fill="#1a1919">24 ϕ</text>
</g>
<!-- node18&#45;&gt;node24 -->
<g id="edge16" class="edge">
<title>node18&#45;&gt;node24</title>
<path fill="none" stroke="#3cb4a4" d="M604.54,-1329.75C612.03,-1295.45 625,-1216.77 603.36,-1156 598.52,-1142.42 589.63,-1129.3 580.94,-1118.66"/>
<polygon fill="#3cb4a4" stroke="#3cb4a4" points="583.57,-1116.35 574.41,-1111.04 578.26,-1120.91 583.57,-1116.35"/>
<text text-anchor="middle" x="637.86" y="-1213.8" font-family="arial" font-size="14.00" fill="#3cb4a4">from 23</text>
</g>
<!-- node20&#45;&gt;node22 -->
<g id="edge58" class="edge">
<title>node20&#45;&gt;node22</title>
<path fill="none" stroke="#da2d4f" stroke-width="2" d="M547.79,-1242.8C549.43,-1231.16 551.64,-1215.55 553.52,-1202.24"/>
<polygon fill="#da2d4f" stroke="#da2d4f" stroke-width="2" points="557,-1202.57 554.94,-1192.18 550.07,-1201.59 557,-1202.57"/>
</g>
<!-- node22&#45;&gt;node24 -->
<g id="edge14" class="edge">
<title>node22&#45;&gt;node24</title>
<path fill="none" stroke="#343d46" stroke-dasharray="5,2" d="M557.36,-1145.85C557.36,-1134.32 557.36,-1121.25 557.36,-1111.11"/>
<polygon fill="#343d46" stroke="#343d46" points="553.86,-1145.86 557.36,-1155.86 560.86,-1145.86 553.86,-1145.86"/>
</g>
<!-- node33 -->
<g id="node16" class="node">
<title>node33</title>
<polygon fill="#da2d4f" stroke="black" points="919.36,-1111 643.36,-1111 643.36,-1075 919.36,-1075 919.36,-1111"/>
<text text-anchor="middle" x="781.36" y="-1089.3" font-family="Arial" font-size="14.00" fill="#ffffff">33 Call OptimizedCallTarget.getRootNode !</text>
</g>
<!-- node22&#45;&gt;node33 -->
<g id="edge13" class="edge">
<title>node22&#45;&gt;node33</title>
<path fill="none" stroke="#da2d4f" stroke-width="2" d="M594.6,-1159.87C629.73,-1147.48 682.91,-1128.72 723.55,-1114.39"/>
<polygon fill="#da2d4f" stroke="#da2d4f" stroke-width="2" points="724.8,-1117.66 733.07,-1111.03 722.48,-1111.06 724.8,-1117.66"/>
</g>
<!-- node43 -->
<g id="node22" class="node">
<title>node43</title>
<polygon fill="#f9f9f9" stroke="black" points="632.36,-850 490.36,-850 490.36,-814 632.36,-814 632.36,-850"/>
<text text-anchor="middle" x="561.36" y="-828.3" font-family="Arial" font-size="14.00" fill="#1a1919">43 MethodCallTarget</text>
</g>
<!-- node24&#45;&gt;node43 -->
<g id="edge36" class="edge">
<title>node24&#45;&gt;node43</title>
<path fill="none" stroke="#3cb4a4" d="M557.63,-1074.6C558.31,-1030.46 560.11,-913.83 560.94,-860.42"/>
<polygon fill="#3cb4a4" stroke="#3cb4a4" points="564.44,-860.37 561.09,-850.32 557.44,-860.26 564.44,-860.37"/>
<text text-anchor="middle" x="576.86" y="-958.8" font-family="arial" font-size="14.00" fill="#3cb4a4">arg[1]</text>
</g>
<!-- node26 -->
<g id="node12" class="node">
<title>node26</title>
<polygon fill="#f9f9f9" stroke="black" points="852.36,-1192 710.36,-1192 710.36,-1156 852.36,-1156 852.36,-1192"/>
<text text-anchor="middle" x="781.36" y="-1170.3" font-family="Arial" font-size="14.00" fill="#1a1919">26 MethodCallTarget</text>
</g>
<!-- node26&#45;&gt;node33 -->
<g id="edge26" class="edge">
<title>node26&#45;&gt;node33</title>
<path fill="none" stroke="#343d46" stroke-dasharray="5,2" d="M781.36,-1145.85C781.36,-1134.32 781.36,-1121.25 781.36,-1111.11"/>
<polygon fill="#343d46" stroke="#343d46" points="777.86,-1145.86 781.36,-1155.86 784.86,-1145.86 777.86,-1145.86"/>
</g>
<!-- node27 -->
<g id="node13" class="node">
<title>node27</title>
<polygon fill="#f9f9f9" stroke="black" points="1003.36,-269 869.36,-269 869.36,-233 1003.36,-233 1003.36,-269"/>
<text text-anchor="middle" x="936.36" y="-247.3" font-family="Arial" font-size="14.00" fill="#1a1919">27 ExceptionObject</text>
</g>
<!-- node27&#45;&gt;node30 -->
<g id="edge60" class="edge">
<title>node27&#45;&gt;node30</title>
<path fill="none" stroke="#da2d4f" stroke-width="2" d="M869.26,-234.82C866.25,-234.19 863.28,-233.58 860.36,-233 776.86,-216.3 754.44,-218.68 672.36,-196 671.1,-195.65 669.82,-195.29 668.53,-194.92"/>
<polygon fill="#da2d4f" stroke="#da2d4f" stroke-width="2" points="669.13,-191.44 658.55,-191.89 667.1,-198.14 669.13,-191.44"/>
</g>
<!-- node27&#45;&gt;node32 -->
<g id="edge21" class="edge">
<title>node27&#45;&gt;node32</title>
<path fill="none" stroke="#3cb4a4" d="M913.62,-232.97C887.28,-213.71 842.13,-182.16 800.36,-160 769.63,-143.69 732.87,-128.92 706.12,-118.97"/>
<polygon fill="#3cb4a4" stroke="#3cb4a4" points="706.99,-115.56 696.4,-115.4 704.58,-122.13 706.99,-115.56"/>
<text text-anchor="middle" x="882.86" y="-174.3" font-family="arial" font-size="14.00" fill="#3cb4a4">from 31</text>
</g>
<!-- node30&#45;&gt;node32 -->
<g id="edge19" class="edge">
<title>node30&#45;&gt;node32</title>
<path fill="none" stroke="#343d46" stroke-dasharray="5,2" d="M638.6,-151.5C644.99,-142.04 652.09,-131.55 657.85,-123.03"/>
<polygon fill="#343d46" stroke="#343d46" points="635.68,-149.57 632.98,-159.81 641.48,-153.49 635.68,-149.57"/>
</g>
<!-- node73 -->
<g id="node37" class="node">
<title>node73</title>
<polygon fill="#e98693" stroke="black" points="550.36,-36 470.36,-36 470.36,0 550.36,0 550.36,-36"/>
<text text-anchor="middle" x="510.36" y="-14.3" font-family="Arial" font-size="14.00" fill="#1a1919">73 Unwind</text>
</g>
<!-- node30&#45;&gt;node73 -->
<g id="edge18" class="edge">
<title>node30&#45;&gt;node73</title>
<path fill="none" stroke="#da2d4f" stroke-width="2" d="M609.27,-159.79C589.75,-132.01 551.2,-77.13 528.41,-44.7"/>
<polygon fill="#da2d4f" stroke="#da2d4f" stroke-width="2" points="531.05,-42.36 522.44,-36.19 525.32,-46.38 531.05,-42.36"/>
</g>
<!-- node32&#45;&gt;node73 -->
<g id="edge55" class="edge">
<title>node32&#45;&gt;node73</title>
<path fill="none" stroke="#3cb4a4" d="M642.03,-89.39C617.03,-76.02 579.71,-56.08 551.18,-40.82"/>
<polygon fill="#3cb4a4" stroke="#3cb4a4" points="552.73,-37.68 542.26,-36.05 549.43,-43.85 552.73,-37.68"/>
<text text-anchor="middle" x="628.36" y="-57.8" font-family="arial" font-size="14.00" fill="#3cb4a4">exception</text>
</g>
<!-- node33&#45;&gt;node27 -->
<g id="edge28" class="edge">
<title>node33&#45;&gt;node27</title>
<path fill="none" stroke="#da2d4f" stroke-width="2" d="M846.62,-1074.95C878.61,-1062.25 910.36,-1041.06 910.36,-1007 910.36,-1007 910.36,-1007 910.36,-337 910.36,-316.81 917.15,-295.05 923.79,-278.61"/>
<polygon fill="#da2d4f" stroke="#da2d4f" stroke-width="2" points="927.14,-279.68 927.85,-269.11 920.7,-276.93 927.14,-279.68"/>
<text text-anchor="middle" x="931.86" y="-654.3" font-family="arial" font-size="14.00" fill="#da2d4f">unwind</text>
</g>
<!-- node35 -->
<g id="node17" class="node">
<title>node35</title>
<polygon fill="#e98693" stroke="black" points="879.36,-1024 773.36,-1024 773.36,-988 879.36,-988 879.36,-1024"/>
<text text-anchor="middle" x="826.36" y="-1002.3" font-family="Arial" font-size="14.00" fill="#1a1919">35 KillingBegin</text>
</g>
<!-- node33&#45;&gt;node35 -->
<g id="edge27" class="edge">
<title>node33&#45;&gt;node35</title>
<path fill="none" stroke="#da2d4f" stroke-width="2" d="M790.47,-1074.8C796.81,-1062.82 805.39,-1046.62 812.57,-1033.06"/>
<polygon fill="#da2d4f" stroke="#da2d4f" stroke-width="2" points="815.68,-1034.65 817.27,-1024.18 809.5,-1031.38 815.68,-1034.65"/>
</g>
<!-- node36 -->
<g id="node18" class="node">
<title>node36</title>
<polygon fill="#f9f9f9" stroke="black" points="755.36,-1024 613.36,-1024 613.36,-988 755.36,-988 755.36,-1024"/>
<text text-anchor="middle" x="684.36" y="-1002.3" font-family="Arial" font-size="14.00" fill="#1a1919">36 MethodCallTarget</text>
</g>
<!-- node33&#45;&gt;node36 -->
<g id="edge30" class="edge">
<title>node33&#45;&gt;node36</title>
<path fill="none" stroke="#3cb4a4" d="M761.73,-1074.8C747.4,-1062.24 727.78,-1045.05 711.89,-1031.12"/>
<polygon fill="#3cb4a4" stroke="#3cb4a4" points="713.79,-1028.13 703.96,-1024.18 709.18,-1033.4 713.79,-1028.13"/>
<text text-anchor="middle" x="755.86" y="-1045.8" font-family="arial" font-size="14.00" fill="#3cb4a4">arg[0]</text>
</g>
<!-- node40 -->
<g id="node20" class="node">
<title>node40</title>
<polygon fill="#da2d4f" stroke="black" points="839.36,-937 585.36,-937 585.36,-901 839.36,-901 839.36,-937"/>
<text text-anchor="middle" x="712.36" y="-915.3" font-family="Arial" font-size="14.00" fill="#ffffff">40 Call RootNode.getFrameDescriptor !</text>
</g>
<!-- node35&#45;&gt;node40 -->
<g id="edge29" class="edge">
<title>node35&#45;&gt;node40</title>
<path fill="none" stroke="#da2d4f" stroke-width="2" d="M803.29,-987.8C786.06,-974.95 762.33,-957.26 743.43,-943.17"/>
<polygon fill="#da2d4f" stroke="#da2d4f" stroke-width="2" points="745.51,-940.35 735.4,-937.18 741.32,-945.96 745.51,-940.35"/>
</g>
<!-- node36&#45;&gt;node40 -->
<g id="edge31" class="edge">
<title>node36&#45;&gt;node40</title>
<path fill="none" stroke="#343d46" stroke-dasharray="5,2" d="M693.21,-978.13C697.63,-964.73 702.83,-948.92 706.7,-937.18"/>
<polygon fill="#343d46" stroke="#343d46" points="689.83,-977.21 690.03,-987.8 696.48,-979.4 689.83,-977.21"/>
</g>
<!-- node37 -->
<g id="node19" class="node">
<title>node37</title>
<polygon fill="#f9f9f9" stroke="black" points="851.36,-269 717.36,-269 717.36,-233 851.36,-233 851.36,-269"/>
<text text-anchor="middle" x="784.36" y="-247.3" font-family="Arial" font-size="14.00" fill="#1a1919">37 ExceptionObject</text>
</g>
<!-- node37&#45;&gt;node30 -->
<g id="edge61" class="edge">
<title>node37&#45;&gt;node30</title>
<path fill="none" stroke="#da2d4f" stroke-width="2" d="M745.32,-232.99C722.04,-222.85 692.34,-209.92 667.86,-199.25"/>
<polygon fill="#da2d4f" stroke="#da2d4f" stroke-width="2" points="668.97,-195.92 658.41,-195.14 666.18,-202.34 668.97,-195.92"/>
</g>
<!-- node37&#45;&gt;node32 -->
<g id="edge22" class="edge">
<title>node37&#45;&gt;node32</title>
<path fill="none" stroke="#3cb4a4" d="M774.03,-232.73C762.57,-214.09 743.08,-183.86 723.36,-160 714.92,-149.78 704.83,-139.3 695.67,-130.33"/>
<polygon fill="#3cb4a4" stroke="#3cb4a4" points="697.88,-127.6 688.25,-123.19 693.03,-132.65 697.88,-127.6"/>
<text text-anchor="middle" x="772.86" y="-174.3" font-family="arial" font-size="14.00" fill="#3cb4a4">from 39</text>
</g>
<!-- node40&#45;&gt;node37 -->
<g id="edge33" class="edge">
<title>node40&#45;&gt;node37</title>
<path fill="none" stroke="#da2d4f" stroke-width="2" d="M739.58,-900.97C759.97,-885.88 784.36,-861.82 784.36,-833 784.36,-833 784.36,-833 784.36,-337 784.36,-317.75 784.36,-296.05 784.36,-279.4"/>
<polygon fill="#da2d4f" stroke="#da2d4f" stroke-width="2" points="787.86,-279.26 784.36,-269.26 780.86,-279.26 787.86,-279.26"/>
<text text-anchor="middle" x="805.86" y="-581.3" font-family="arial" font-size="14.00" fill="#da2d4f">unwind</text>
</g>
<!-- node42 -->
<g id="node21" class="node">
<title>node42</title>
<polygon fill="#e98693" stroke="black" points="756.36,-850 650.36,-850 650.36,-814 756.36,-814 756.36,-850"/>
<text text-anchor="middle" x="703.36" y="-828.3" font-family="Arial" font-size="14.00" fill="#1a1919">42 KillingBegin</text>
</g>
<!-- node40&#45;&gt;node42 -->
<g id="edge32" class="edge">
<title>node40&#45;&gt;node42</title>
<path fill="none" stroke="#da2d4f" stroke-width="2" d="M710.54,-900.8C709.31,-889.16 707.65,-873.55 706.24,-860.24"/>
<polygon fill="#da2d4f" stroke="#da2d4f" stroke-width="2" points="709.71,-859.75 705.18,-850.18 702.75,-860.49 709.71,-859.75"/>
</g>
<!-- node40&#45;&gt;node43 -->
<g id="edge35" class="edge">
<title>node40&#45;&gt;node43</title>
<path fill="none" stroke="#3cb4a4" d="M681.8,-900.8C658.39,-887.62 625.92,-869.34 600.59,-855.08"/>
<polygon fill="#3cb4a4" stroke="#3cb4a4" points="602.05,-851.89 591.61,-850.03 598.61,-857.99 602.05,-851.89"/>
<text text-anchor="middle" x="662.86" y="-871.8" font-family="arial" font-size="14.00" fill="#3cb4a4">arg[0]</text>
</g>
<!-- node47 -->
<g id="node24" class="node">
<title>node47</title>
<polygon fill="#da2d4f" stroke="black" points="727.36,-763 453.36,-763 453.36,-727 727.36,-727 727.36,-763"/>
<text text-anchor="middle" x="590.36" y="-741.3" font-family="Arial" font-size="14.00" fill="#ffffff">47 Call OptimizedCallTarget.createFrame !</text>
</g>
<!-- node42&#45;&gt;node47 -->
<g id="edge34" class="edge">
<title>node42&#45;&gt;node47</title>
<path fill="none" stroke="#da2d4f" stroke-width="2" d="M680.49,-813.8C663.49,-801.01 640.1,-783.42 621.41,-769.36"/>
<polygon fill="#da2d4f" stroke="#da2d4f" stroke-width="2" points="623.29,-766.39 613.19,-763.18 619.08,-771.98 623.29,-766.39"/>
</g>
<!-- node43&#45;&gt;node47 -->
<g id="edge37" class="edge">
<title>node43&#45;&gt;node47</title>
<path fill="none" stroke="#343d46" stroke-dasharray="5,2" d="M570.53,-804.13C575.1,-790.73 580.49,-774.92 584.5,-763.18"/>
<polygon fill="#343d46" stroke="#343d46" points="567.15,-803.2 567.23,-813.8 573.77,-805.46 567.15,-803.2"/>
</g>
<!-- node44 -->
<g id="node23" class="node">
<title>node44</title>
<polygon fill="#f9f9f9" stroke="black" points="699.36,-269 565.36,-269 565.36,-233 699.36,-233 699.36,-269"/>
<text text-anchor="middle" x="632.36" y="-247.3" font-family="Arial" font-size="14.00" fill="#1a1919">44 ExceptionObject</text>
</g>
<!-- node44&#45;&gt;node30 -->
<g id="edge62" class="edge">
<title>node44&#45;&gt;node30</title>
<path fill="none" stroke="#da2d4f" stroke-width="2" d="M629.7,-232.81C628.46,-224.79 626.95,-215.05 625.55,-206.07"/>
<polygon fill="#da2d4f" stroke="#da2d4f" stroke-width="2" points="628.99,-205.38 624,-196.03 622.07,-206.45 628.99,-205.38"/>
</g>
<!-- node44&#45;&gt;node32 -->
<g id="edge23" class="edge">
<title>node44&#45;&gt;node32</title>
<path fill="none" stroke="#3cb4a4" d="M647.07,-232.78C654.68,-222.75 663.22,-209.45 667.36,-196 673.64,-175.62 673.79,-151.39 672.56,-133.21"/>
<polygon fill="#3cb4a4" stroke="#3cb4a4" points="676.03,-132.69 671.69,-123.02 669.06,-133.29 676.03,-132.69"/>
<text text-anchor="middle" x="695.86" y="-174.3" font-family="arial" font-size="14.00" fill="#3cb4a4">from 46</text>
</g>
<!-- node47&#45;&gt;node44 -->
<g id="edge39" class="edge">
<title>node47&#45;&gt;node44</title>
<path fill="none" stroke="#da2d4f" stroke-width="2" d="M604.58,-726.98C616.76,-710.62 632.36,-684.68 632.36,-659 632.36,-659 632.36,-659 632.36,-337 632.36,-317.75 632.36,-296.05 632.36,-279.4"/>
<polygon fill="#da2d4f" stroke="#da2d4f" stroke-width="2" points="635.86,-279.26 632.36,-269.26 628.86,-279.26 635.86,-279.26"/>
<text text-anchor="middle" x="653.86" y="-494.3" font-family="arial" font-size="14.00" fill="#da2d4f">unwind</text>
</g>
<!-- node49 -->
<g id="node25" class="node">
<title>node49</title>
<polygon fill="#e98693" stroke="black" points="444.36,-676 338.36,-676 338.36,-640 444.36,-640 444.36,-676"/>
<text text-anchor="middle" x="391.36" y="-654.3" font-family="Arial" font-size="14.00" fill="#1a1919">49 KillingBegin</text>
</g>
<!-- node47&#45;&gt;node49 -->
<g id="edge38" class="edge">
<title>node47&#45;&gt;node49</title>
<path fill="none" stroke="#da2d4f" stroke-width="2" d="M550.09,-726.8C518.43,-713.27 474.18,-694.38 440.45,-679.97"/>
<polygon fill="#da2d4f" stroke="#da2d4f" stroke-width="2" points="441.8,-676.74 431.23,-676.03 439.05,-683.18 441.8,-676.74"/>
</g>
<!-- node50 -->
<g id="node26" class="node">
<title>node50</title>
<polygon fill="#f9f9f9" stroke="black" points="604.36,-676 462.36,-676 462.36,-640 604.36,-640 604.36,-676"/>
<text text-anchor="middle" x="533.36" y="-654.3" font-family="Arial" font-size="14.00" fill="#1a1919">50 MethodCallTarget</text>
</g>
<!-- node47&#45;&gt;node50 -->
<g id="edge42" class="edge">
<title>node47&#45;&gt;node50</title>
<path fill="none" stroke="#3cb4a4" d="M578.83,-726.8C570.71,-714.7 559.72,-698.3 550.57,-684.67"/>
<polygon fill="#3cb4a4" stroke="#3cb4a4" points="553.36,-682.53 544.88,-676.18 547.54,-686.43 553.36,-682.53"/>
<text text-anchor="middle" x="581.86" y="-697.8" font-family="arial" font-size="14.00" fill="#3cb4a4">arg[1]</text>
</g>
<!-- node54 -->
<g id="node28" class="node">
<title>node54</title>
<polygon fill="#da2d4f" stroke="black" points="520.86,-603 269.86,-603 269.86,-567 520.86,-567 520.86,-603"/>
<text text-anchor="middle" x="395.36" y="-581.3" font-family="Arial" font-size="14.00" fill="#ffffff">54 Call OptimizedCallTarget.callProxy !</text>
</g>
<!-- node49&#45;&gt;node54 -->
<g id="edge40" class="edge">
<title>node49&#45;&gt;node54</title>
<path fill="none" stroke="#da2d4f" stroke-width="2" d="M392.33,-639.81C392.78,-631.79 393.33,-622.05 393.84,-613.07"/>
<polygon fill="#da2d4f" stroke="#da2d4f" stroke-width="2" points="397.33,-613.21 394.4,-603.03 390.34,-612.82 397.33,-613.21"/>
</g>
<!-- node50&#45;&gt;node54 -->
<g id="edge43" class="edge">
<title>node50&#45;&gt;node54</title>
<path fill="none" stroke="#343d46" stroke-dasharray="5,2" d="M491.35,-635.38C471.23,-625.03 447.47,-612.81 428.62,-603.11"/>
<polygon fill="#343d46" stroke="#343d46" points="489.81,-638.53 500.31,-639.99 493.02,-632.31 489.81,-638.53"/>
</g>
<!-- node51 -->
<g id="node27" class="node">
<title>node51</title>
<polygon fill="#f9f9f9" stroke="black" points="547.36,-269 413.36,-269 413.36,-233 547.36,-233 547.36,-269"/>
<text text-anchor="middle" x="480.36" y="-247.3" font-family="Arial" font-size="14.00" fill="#1a1919">51 ExceptionObject</text>
</g>
<!-- node51&#45;&gt;node30 -->
<g id="edge63" class="edge">
<title>node51&#45;&gt;node30</title>
<path fill="none" stroke="#da2d4f" stroke-width="2" d="M514.13,-232.99C533.35,-223.32 557.62,-211.1 578.21,-200.73"/>
<polygon fill="#da2d4f" stroke="#da2d4f" stroke-width="2" points="580.02,-203.74 587.37,-196.11 576.87,-197.49 580.02,-203.74"/>
</g>
<!-- node51&#45;&gt;node32 -->
<g id="edge24" class="edge">
<title>node51&#45;&gt;node32</title>
<path fill="none" stroke="#3cb4a4" d="M485.45,-232.74C492.19,-212.69 505.93,-179.81 528.36,-160 557.93,-133.89 601.46,-119.82 632.32,-112.65"/>
<polygon fill="#3cb4a4" stroke="#3cb4a4" points="633.24,-116.03 642.26,-110.48 631.74,-109.2 633.24,-116.03"/>
<text text-anchor="middle" x="551.86" y="-174.3" font-family="arial" font-size="14.00" fill="#3cb4a4">from 53</text>
</g>
<!-- node54&#45;&gt;node51 -->
<g id="edge45" class="edge">
<title>node54&#45;&gt;node51</title>
<path fill="none" stroke="#da2d4f" stroke-width="2" d="M425.74,-566.91C447.64,-552.1 473.36,-528.44 473.36,-499 473.36,-499 473.36,-499 473.36,-337 473.36,-317.69 475.18,-295.99 476.96,-279.35"/>
<polygon fill="#da2d4f" stroke="#da2d4f" stroke-width="2" points="480.46,-279.55 478.11,-269.22 473.5,-278.76 480.46,-279.55"/>
<text text-anchor="middle" x="494.86" y="-421.3" font-family="arial" font-size="14.00" fill="#da2d4f">unwind</text>
</g>
<!-- node56 -->
<g id="node29" class="node">
<title>node56</title>
<polygon fill="#e98693" stroke="black" points="220.36,-516 114.36,-516 114.36,-480 220.36,-480 220.36,-516"/>
<text text-anchor="middle" x="167.36" y="-494.3" font-family="Arial" font-size="14.00" fill="#1a1919">56 KillingBegin</text>
</g>
<!-- node54&#45;&gt;node56 -->
<g id="edge44" class="edge">
<title>node54&#45;&gt;node56</title>
<path fill="none" stroke="#da2d4f" stroke-width="2" d="M349.5,-566.9C312.93,-553.27 261.6,-534.13 222.75,-519.65"/>
<polygon fill="#da2d4f" stroke="#da2d4f" stroke-width="2" points="223.75,-516.29 213.15,-516.07 221.3,-522.84 223.75,-516.29"/>
</g>
<!-- node54&#45;&gt;node60 -->
<g id="edge49" class="edge">
<title>node54&#45;&gt;node60</title>
<path fill="none" stroke="#3cb4a4" d="M377.73,-566.96C371.87,-561.27 365.32,-554.88 359.36,-549 350.93,-540.69 341.75,-531.54 333.59,-523.36"/>
<polygon fill="#3cb4a4" stroke="#3cb4a4" points="335.97,-520.79 326.43,-516.18 331.01,-525.74 335.97,-520.79"/>
<text text-anchor="middle" x="376.86" y="-537.8" font-family="arial" font-size="14.00" fill="#3cb4a4">arg[1]</text>
</g>
<!-- node71 -->
<g id="node36" class="node">
<title>node71</title>
<polygon fill="#e98693" stroke="black" points="332.36,-123 256.36,-123 256.36,-87 332.36,-87 332.36,-123"/>
<text text-anchor="middle" x="294.36" y="-101.3" font-family="Arial" font-size="14.00" fill="#1a1919">71 Return</text>
</g>
<!-- node54&#45;&gt;node71 -->
<g id="edge54" class="edge">
<title>node54&#45;&gt;node71</title>
<path fill="none" stroke="#3cb4a4" d="M399.55,-566.86C403.35,-549.78 408.36,-522.74 408.36,-499 408.36,-499 408.36,-499 408.36,-380.5 408.36,-282.33 345.41,-178.48 313.06,-131.6"/>
<polygon fill="#3cb4a4" stroke="#3cb4a4" points="315.82,-129.44 307.22,-123.26 310.09,-133.46 315.82,-129.44"/>
<text text-anchor="middle" x="423.36" y="-334.3" font-family="arial" font-size="14.00" fill="#3cb4a4">result</text>
</g>
<!-- node56&#45;&gt;node59 -->
<g id="edge46" class="edge">
<title>node56&#45;&gt;node59</title>
<path fill="none" stroke="#da2d4f" stroke-width="2" d="M154.05,-479.81C147.36,-471.18 139.13,-460.56 131.75,-451.03"/>
<polygon fill="#da2d4f" stroke="#da2d4f" stroke-width="2" points="134.44,-448.79 125.55,-443.03 128.91,-453.08 134.44,-448.79"/>
</g>
<!-- node64 -->
<g id="node33" class="node">
<title>node64</title>
<polygon fill="#da2d4f" stroke="black" points="371.86,-356 14.86,-356 14.86,-320 371.86,-320 371.86,-356"/>
<text text-anchor="middle" x="193.36" y="-334.3" font-family="Arial" font-size="14.00" fill="#ffffff">64 Call OptimizedCompilationProfile.profileReturnValue !</text>
</g>
<!-- node59&#45;&gt;node64 -->
<g id="edge64" class="edge">
<title>node59&#45;&gt;node64</title>
<path fill="none" stroke="#da2d4f" stroke-width="2" d="M128.75,-406.8C140.61,-394.36 156.8,-377.36 170.01,-363.5"/>
<polygon fill="#da2d4f" stroke="#da2d4f" stroke-width="2" points="172.63,-365.83 176.99,-356.18 167.56,-361 172.63,-365.83"/>
<text text-anchor="middle" x="162.86" y="-377.8" font-family="arial" font-size="14.00" fill="#da2d4f">F</text>
</g>
<!-- node68 -->
<g id="node35" class="node">
<title>node68</title>
<polygon fill="#e98693" stroke="black" points="189.36,-196 115.36,-196 115.36,-160 189.36,-160 189.36,-196"/>
<text text-anchor="middle" x="152.36" y="-174.3" font-family="Arial" font-size="14.00" fill="#1a1919">68 Merge</text>
</g>
<!-- node59&#45;&gt;node68 -->
<g id="edge66" class="edge">
<title>node59&#45;&gt;node68</title>
<path fill="none" stroke="#da2d4f" stroke-width="2" d="M85.17,-415.32C59.41,-405.48 22.21,-386.67 5.36,-356 -2.34,-341.98 -0.68,-334.82 5.36,-320 26.58,-267.92 78.16,-226.14 114.19,-201.95"/>
<polygon fill="#da2d4f" stroke="#da2d4f" stroke-width="2" points="116.55,-204.59 122.99,-196.19 112.71,-198.74 116.55,-204.59"/>
<text text-anchor="middle" x="27.86" y="-290.8" font-family="arial" font-size="14.00" fill="#da2d4f">T</text>
</g>
<!-- node60&#45;&gt;node64 -->
<g id="edge50" class="edge">
<title>node60&#45;&gt;node64</title>
<path fill="none" stroke="#343d46" stroke-dasharray="5,2" d="M290.78,-471.69C267,-439.31 226.45,-384.07 205.98,-356.19"/>
<polygon fill="#343d46" stroke="#343d46" points="287.99,-473.8 296.73,-479.79 293.63,-469.66 287.99,-473.8"/>
</g>
<!-- node61 -->
<g id="node32" class="node">
<title>node61</title>
<polygon fill="#f9f9f9" stroke="black" points="357.36,-269 223.36,-269 223.36,-233 357.36,-233 357.36,-269"/>
<text text-anchor="middle" x="290.36" y="-247.3" font-family="Arial" font-size="14.00" fill="#1a1919">61 ExceptionObject</text>
</g>
<!-- node61&#45;&gt;node30 -->
<g id="edge65" class="edge">
<title>node61&#45;&gt;node30</title>
<path fill="none" stroke="#da2d4f" stroke-width="2" d="M357.39,-239.62C414.46,-230.17 498.4,-214.84 570.36,-196 571.63,-195.67 572.91,-195.32 574.21,-194.96"/>
<polygon fill="#da2d4f" stroke="#da2d4f" stroke-width="2" points="575.61,-198.2 584.21,-192.01 573.63,-191.48 575.61,-198.2"/>
</g>
<!-- node61&#45;&gt;node32 -->
<g id="edge25" class="edge">
<title>node61&#45;&gt;node32</title>
<path fill="none" stroke="#3cb4a4" d="M315.62,-232.93C346.28,-212.9 400.14,-179.89 450.36,-160 512.04,-135.57 588,-119.83 632.32,-111.97"/>
<polygon fill="#3cb4a4" stroke="#3cb4a4" points="633.09,-115.39 642.35,-110.23 631.9,-108.49 633.09,-115.39"/>
<text text-anchor="middle" x="473.86" y="-174.3" font-family="arial" font-size="14.00" fill="#3cb4a4">from 63</text>
</g>
<!-- node64&#45;&gt;node61 -->
<g id="edge52" class="edge">
<title>node64&#45;&gt;node61</title>
<path fill="none" stroke="#da2d4f" stroke-width="2" d="M212.99,-319.8C227.32,-307.24 246.94,-290.05 262.84,-276.12"/>
<polygon fill="#da2d4f" stroke="#da2d4f" stroke-width="2" points="265.55,-278.4 270.76,-269.18 260.93,-273.13 265.55,-278.4"/>
<text text-anchor="middle" x="269.86" y="-290.8" font-family="arial" font-size="14.00" fill="#da2d4f">unwind</text>
</g>
<!-- node66 -->
<g id="node34" class="node">
<title>node66</title>
<polygon fill="#e98693" stroke="black" points="205.36,-269 99.36,-269 99.36,-233 205.36,-233 205.36,-269"/>
<text text-anchor="middle" x="152.36" y="-247.3" font-family="Arial" font-size="14.00" fill="#1a1919">66 KillingBegin</text>
</g>
<!-- node64&#45;&gt;node66 -->
<g id="edge51" class="edge">
<title>node64&#45;&gt;node66</title>
<path fill="none" stroke="#da2d4f" stroke-width="2" d="M185.06,-319.8C179.34,-307.93 171.62,-291.93 165.12,-278.45"/>
<polygon fill="#da2d4f" stroke="#da2d4f" stroke-width="2" points="168.14,-276.66 160.65,-269.18 161.84,-279.7 168.14,-276.66"/>
</g>
<!-- node66&#45;&gt;node68 -->
<g id="edge67" class="edge">
<title>node66&#45;&gt;node68</title>
<path fill="none" stroke="#da2d4f" stroke-width="2" d="M152.36,-232.81C152.36,-224.79 152.36,-215.05 152.36,-206.07"/>
<polygon fill="#da2d4f" stroke="#da2d4f" stroke-width="2" points="155.86,-206.03 152.36,-196.03 148.86,-206.03 155.86,-206.03"/>
</g>
<!-- node68&#45;&gt;node71 -->
<g id="edge53" class="edge">
<title>node68&#45;&gt;node71</title>
<path fill="none" stroke="#da2d4f" stroke-width="2" d="M186.37,-159.99C205.81,-150.27 230.39,-137.99 251.18,-127.59"/>
<polygon fill="#da2d4f" stroke="#da2d4f" stroke-width="2" points="252.75,-130.72 260.13,-123.11 249.62,-124.46 252.75,-130.72"/>
</g>
<!-- inline1x4 -->
<g id="node38" class="node">
<title>inline1x4</title>
<ellipse fill="#d7ede7" stroke="black" cx="373.36" cy="-1777" rx="27" ry="18"/>
<text text-anchor="middle" x="373.36" y="-1775.1" font-family="Arial" font-size="8.00" fill="#1a1919">1 P(0)</text>
</g>
<!-- inline1x4&#45;&gt;node4 -->
<g id="edge2" class="edge">
<title>inline1x4&#45;&gt;node4</title>
<path fill="none" stroke="#3cb4a4" d="M365.69,-1759.63C359.47,-1746.34 350.72,-1727.67 344.4,-1714.17"/>
<text text-anchor="middle" x="366.36" y="-1734.6" font-family="arial" font-size="8.00" fill="#3cb4a4">object</text>
</g>
<!-- inline2x14 -->
<g id="node39" class="node">
<title>inline2x14</title>
<ellipse fill="#d7ede7" stroke="black" cx="541.36" cy="-1609" rx="27" ry="18"/>
<text text-anchor="middle" x="541.36" y="-1607.1" font-family="Arial" font-size="8.00" fill="#1a1919">2 P(1)</text>
</g>
<!-- inline2x14&#45;&gt;node14 -->
<g id="edge9" class="edge">
<title>inline2x14&#45;&gt;node14</title>
<path fill="none" stroke="#3cb4a4" d="M541.36,-1590.8C541.36,-1576.05 541.36,-1554.92 541.36,-1540.18"/>
<text text-anchor="middle" x="552.36" y="-1563.6" font-family="arial" font-size="8.00" fill="#3cb4a4">arg[1]</text>
</g>
<!-- inline2x24 -->
<g id="node40" class="node">
<title>inline2x24</title>
<ellipse fill="#d7ede7" stroke="black" cx="475.36" cy="-1174" rx="27" ry="18"/>
<text text-anchor="middle" x="475.36" y="-1172.1" font-family="Arial" font-size="8.00" fill="#1a1919">2 P(1)</text>
</g>
<!-- inline2x24&#45;&gt;node24 -->
<g id="edge15" class="edge">
<title>inline2x24&#45;&gt;node24</title>
<path fill="none" stroke="#3cb4a4" d="M490.02,-1158.88C503.93,-1145.47 524.86,-1125.31 539.69,-1111.02"/>
<text text-anchor="middle" x="532.36" y="-1131.6" font-family="arial" font-size="8.00" fill="#3cb4a4">from 21</text>
</g>
<!-- inline1x26 -->
<g id="node41" class="node">
<title>inline1x26</title>
<ellipse fill="#d7ede7" stroke="black" cx="781.36" cy="-1261" rx="27" ry="18"/>
<text text-anchor="middle" x="781.36" y="-1259.1" font-family="Arial" font-size="8.00" fill="#1a1919">1 P(0)</text>
</g>
<!-- inline1x26&#45;&gt;node26 -->
<g id="edge17" class="edge">
<title>inline1x26&#45;&gt;node26</title>
<path fill="none" stroke="#3cb4a4" d="M781.36,-1242.8C781.36,-1228.05 781.36,-1206.92 781.36,-1192.18"/>
<text text-anchor="middle" x="792.36" y="-1215.6" font-family="arial" font-size="8.00" fill="#3cb4a4">arg[0]</text>
</g>
<!-- inline1x50 -->
<g id="node42" class="node">
<title>inline1x50</title>
<ellipse fill="#d7ede7" stroke="black" cx="408.36" cy="-745" rx="27" ry="18"/>
<text text-anchor="middle" x="408.36" y="-743.1" font-family="Arial" font-size="8.00" fill="#1a1919">1 P(0)</text>
</g>
<!-- inline1x50&#45;&gt;node50 -->
<g id="edge41" class="edge">
<title>inline1x50&#45;&gt;node50</title>
<path fill="none" stroke="#3cb4a4" d="M426.54,-731.64C448.07,-717 484.06,-692.52 508.25,-676.08"/>
<text text-anchor="middle" x="488.36" y="-699.6" font-family="arial" font-size="8.00" fill="#3cb4a4">arg[0]</text>
</g>
</g>
</svg>
